<?xml version="1.0" encoding="UTF-8" standalone="no"?>
<!-- Created with Inkscape (http://www.inkscape.org/) -->

<svg
   xmlns:dc="http://purl.org/dc/elements/1.1/"
   xmlns:cc="http://creativecommons.org/ns#"
   xmlns:rdf="http://www.w3.org/1999/02/22-rdf-syntax-ns#"
   xmlns:svg="http://www.w3.org/2000/svg"
   xmlns="http://www.w3.org/2000/svg"
   xmlns:xlink="http://www.w3.org/1999/xlink"
   xmlns:sodipodi="http://sodipodi.sourceforge.net/DTD/sodipodi-0.dtd"
   xmlns:inkscape="http://www.inkscape.org/namespaces/inkscape"
   width="2104.7244"
   height="2979.9211"
   id="svg2"
   version="1.1"
   inkscape:version="0.48.3.1 r9886"
   sodipodi:docname="Плакат.svg">
  <defs
     id="defs4" />
  <sodipodi:namedview
     id="base"
     pagecolor="#ffffff"
     bordercolor="#666666"
     borderopacity="1.0"
     inkscape:pageopacity="0.0"
     inkscape:pageshadow="2"
     inkscape:zoom="0.32953892"
     inkscape:cx="1419.2295"
     inkscape:cy="1250.0396"
     inkscape:document-units="px"
     inkscape:current-layer="layer1"
     showgrid="false"
     inkscape:snap-center="false"
     inkscape:window-width="1366"
     inkscape:window-height="723"
     inkscape:window-x="-4"
     inkscape:window-y="-4"
     inkscape:window-maximized="1" />
  <metadata
     id="metadata7">
    <rdf:RDF>
      <cc:Work
         rdf:about="">
        <dc:format>image/svg+xml</dc:format>
        <dc:type
           rdf:resource="http://purl.org/dc/dcmitype/StillImage" />
        <dc:title />
      </cc:Work>
    </rdf:RDF>
  </metadata>
  <g
     inkscape:label="Layer 1"
     inkscape:groupmode="layer"
     id="layer1"
     transform="translate(0,1927.5591)">
    <image
       y="-1633.1031"
       x="4.2095113"
       id="image3242"
       xlink:href="file:///D:/GraphWork/%D0%9D%D0%BE%D0%B2%D1%8B%D0%B5%20%D0%BA%D0%B0%D1%80%D1%82%D0%B8%D0%BD%D0%BA%D0%B8/%D0%94%D0%BB%D1%8F%20%D0%BF%D0%BB%D0%B0%D0%BA%D0%B0%D1%82%D0%B0/%D0%9F%D0%BE%D0%BB%D0%B8%D0%B3%D1%80%D0%B0%D1%84%D0%B8%D1%8F/%D0%A4%D0%BE%D0%BD%20%D0%BF%D0%BE%D0%BB%D0%B8%D0%B3%D1%80%D0%B0%D1%84%D0%B8%D1%8F.png"
       height="870.70306"
       width="2096.1304" />
    <path
       style="fill:none;stroke:#000000;stroke-width:1px;stroke-linecap:butt;stroke-linejoin:miter;stroke-opacity:1"
       d="m 0,-759.9562 2105.9728,0"
       id="path2985"
       inkscape:connector-curvature="0" />
    <path
       style="fill:none;stroke:#000000;stroke-width:1px;stroke-linecap:butt;stroke-linejoin:miter;stroke-opacity:1"
       d="m -6.0690858,339.3083 2130.2490858,0"
       id="path2987"
       inkscape:connector-curvature="0" />
    <path
       style="fill:none;stroke:#000000;stroke-width:1px;stroke-linecap:butt;stroke-linejoin:miter;stroke-opacity:1"
       d="m 1078.4354,-950.43628 0,2002.79828"
       id="path2989"
       inkscape:connector-curvature="0" />
    <path
       style="fill:none;stroke:#000000;stroke-width:1px;stroke-linecap:butt;stroke-linejoin:miter;stroke-opacity:1"
       d="m 0,291.31612 2118.111,0"
       id="path2991"
       inkscape:connector-curvature="0"
       transform="translate(0,-1927.5591)" />
    <text
       xml:space="preserve"
       style="font-size:97.52289581px;font-style:normal;font-weight:normal;line-height:125%;letter-spacing:0px;word-spacing:0px;fill:#000000;fill-opacity:1;stroke:none;font-family:Sans"
       x="565.90594"
       y="-1833.4569"
       id="text2993"
       sodipodi:linespacing="125%"><tspan
         sodipodi:role="line"
         id="tspan2995"
         x="565.90594"
         y="-1833.4569">Рекламное агентство &quot;Круг услуг&quot;</tspan></text>
    <g
       id="g3305"
       transform="matrix(0.11256235,0,0,0.11256235,4.8802947,-1949.7328)">
      <g
         id="g2984"
         transform="translate(-177.59651,-101.29569)">
        <path
           sodipodi:nodetypes="cssssssssccssssscssscccsssssssssssssssc"
           inkscape:connector-curvature="0"
           id="path2987-7"
           d="m 1676.6592,2073.5743 c -102.712,-26.6556 -202.0412,-61.2431 -289.3806,-100.7655 -60.2453,-27.2618 -137.8755,-70.5556 -183,-102.0575 -82.4756,-57.5771 -133.8654,-113.6251 -160.9319,-175.5193 -8.6543,-19.7902 -15.6738,-44.9582 -18.7305,-67.157 -1.731,-12.5714 -1.7262,-49.8317 0.01,-61.5 12.1573,-81.8012 62.4996,-154.2329 157.1545,-226.1108 69.3779,-52.6835 163.2044,-103.7786 267,-145.4001 25.5771,-10.2563 90.5802,-33.4166 121.5,-43.2899 43.1399,-13.7754 118.0457,-35.4869 119.0313,-34.5013 0.1957,0.1958 -2.2062,1.332 -5.3377,2.5249 -3.1315,1.1928 -18.7013,7.1532 -34.5995,13.2452 -111.8,42.8403 -214.1064,97.9602 -289.5941,156.0253 -31.9533,24.5784 -53.2274,43.8104 -82.0286,74.1546 -37.586,39.5996 -64.3173,77.9378 -82.4233,118.2122 -12.8417,28.5647 -19.8432,51.766 -24.2495,80.3567 -2.3888,15.5001 -2.3559,54.4777 0.06,70.7832 9.4858,64.0284 40.0671,123.629 96.2071,187.5 21.357,24.298 47.0364,48.4683 76.9346,72.4133 82.1874,65.8225 194.8207,125.9675 330.9501,176.7237 32.4065,12.0828 32.5206,12.4307 1.4305,4.3623 z m 2007.1699,-3.3896 c 0.8528,-0.5422 10.9778,-4.5556 22.5,-8.9186 166.904,-63.1998 292.8383,-137.7352 376.5025,-222.8366 69.0596,-70.2459 104.2332,-135.1346 115.109,-212.3545 2.2412,-15.9132 1.6786,-56.1998 -1.047,-74.9629 -6.4809,-44.6151 -23.7729,-88.7007 -50.4171,-128.5371 -42.9894,-64.2745 -106.9267,-124.4998 -184.7809,-174.0529 -79.8591,-50.8291 -153.2653,-86.3776 -263.1939,-127.4572 -9.2273,-3.4481 -16.6205,-6.4258 -16.4293,-6.617 0.8818,-0.8818 53.6442,13.5686 88.7062,24.2947 171.4182,52.4398 301.3816,111.7231 401.5,183.1457 62.6952,44.7256 111.262,93.684 139.9379,141.0662 46.3272,76.5481 50.2244,159.1411 11.1771,236.8739 -17.6401,35.1166 -40.2223,65.0062 -74.2416,98.2653 -78.5394,76.7844 -206.4057,150.2653 -361.9148,207.9814 -59.5047,22.0848 -126.1799,43.5873 -185.9662,59.9733 -20.1537,5.5237 -19.3091,5.3234 -17.4419,4.1363 z"
           style="fill:#ea0669" />
        <path
           sodipodi:nodetypes="ssssssssssssssccsssssssssssscssssssssssssssscscsssssssssssscssssssssssscssssssssssscssssssssscsssssssssssss"
           style="fill:#16b0ca"
           d="m 3903.2786,2493.9447 c 0.55,-0.5629 16.3,-4.9062 35,-9.6519 59.2653,-15.0402 164.4198,-45.3959 220.5,-63.6534 59.1032,-19.2415 138.6309,-47.7671 179.5,-64.3843 104.0538,-42.3079 181.737,-79.687 260.5,-125.3455 52.0845,-30.1931 117.3233,-74.6808 153.7648,-104.8554 82.5623,-68.364 140.1813,-137.7065 173.5079,-208.8108 17.8555,-38.0959 28.5194,-75.2352 32.8764,-114.5 1.8606,-16.7675 1.585,-55.4443 -0.5131,-72 -8.5966,-67.8342 -32.4882,-125.4259 -77.9909,-188 -44.4887,-61.1797 -112.4413,-123.7173 -200.6497,-184.6603 -57.1686,-39.4976 -110.507,-70.7934 -177.4954,-104.1438 -130.5424,-64.9909 -285.2754,-122.414 -459.5935,-170.5601 -121.8377,-33.6511 -285.436,-68.4801 -427.9065,-91.09851 -19.525,-3.0998 -36.2828,-5.9513 -37.2396,-6.3366 -1.5043,-0.6059 -1.1213,-1.4784 2.831,-6.4507 2.5139,-3.1625 5.2024,-5.75 5.9746,-5.75 3.8726,0 80.5977,11.7122 113.934,17.3922 183.5474,31.27361 346.6876,68.91481 512.5,118.24851 65.1808,19.3931 139.5143,44.3018 191.5,64.1705 107.2793,41.0017 195.542,81.2634 275,125.4435 94.184,52.368 176.3942,112.1056 236.9213,172.1577 43.5922,43.2502 71.4134,79.1215 95.8524,123.5876 70.6598,128.5634 55.2057,268.4593 -43.6351,395 -46.3602,59.3525 -116.6889,122.0518 -194.5723,173.4647 -53.6359,35.4065 -88.9313,56.0179 -148.5663,86.7579 -96.3922,49.6874 -205.8974,95.0111 -332,137.4132 -120.8229,40.6268 -246.2917,75.39 -373,103.3457 -7.7,1.6988 -14.9,3.3486 -16,3.666 -1.3546,0.391 -1.6773,0.247 -1,-0.4462 z m -2555,-23.6743 c -37.95,-8.4128 -80.7,-18.5402 -95,-22.5054 -166.1976,-46.0842 -316.59649,-99.4531 -434.00008,-154.0044 -99.3633,-46.1689 -189.70962,-97.6604 -254.79977,-145.2192 -82.56073,-60.3238 -147.33222,-125.4394 -185.86688,-186.8543 -17.26319,-27.5134 -29.26485,-51.2512 -37.89109,-74.9437 -14.9515,-41.0653 -20.66379,-70.9058 -21.63134,-113 -1.0336,-44.9679 6.48439,-85.2835 24.42868,-131 19.23034,-48.993 55.39344,-102.3498 103.2604,-152.3557 11.77207,-12.2981 41.18683,-39.5554 58.5,-54.2094 53.60889,-45.3748 126.52199,-94.457 200,-134.6321 89.21508,-48.7796 171.09677,-85.8077 286,-129.3333 45.89218,-17.3841 141.51318,-48.9462 205.50008,-67.8304 169.6555,-50.0698 408.5527,-100.6016 634,-134.10431 20.625,-3.065 38.5778,-5.6767 39.8951,-5.8038 2.0898,-0.2015 2.6448,0.5099 4.3542,5.5815 1.0775,3.1969 1.7997,5.9485 1.6049,6.1148 -0.1948,0.1662 -17.6792,2.8703 -38.8542,6.0091 -133.3345,19.76451 -270.6236,46.67891 -387.9933,76.06291 -141.7522,35.4883 -317.5135,91.3176 -425.3055,135.0951 -101.91279,41.3898 -177.98366,78.4943 -253.70128,123.7458 -96.80867,57.8563 -174.54252,118.1966 -233.4011,181.1757 -51.87527,55.507 -90.54904,119.4414 -108.87191,179.9841 -10.95073,36.1835 -14.24918,59.0264 -14.15097,98 0.0374,14.85 0.62654,31.95 1.30915,38 9.98797,88.5238 50.441,167.8412 128.24112,251.4462 57.41041,61.6939 146.16297,127.634 249.37371,185.2761 93.10825,52 192.82591,96.437 313.00008,139.4817 85.9969,30.8028 204.7605,66.8023 298,90.3293 7.15,1.8042 13.4275,3.6597 13.95,4.1235 1.3816,1.2263 4.8414,1.9499 -69.95,-14.6298 z m 1158.5,-93.5676 c -130.1488,-3.105 -165.7443,-4.2559 -199,-6.4345 -192.5766,-12.6159 -392.6155,-37.5072 -567,-70.553 -212.7018,-40.307 -435.3194,-103.8338 -589.5,-168.2214 -97.8079,-40.8457 -181.09032,-84.5332 -245.73082,-128.9033 -85.99617,-59.0288 -148.03504,-119.6722 -184.49714,-180.3472 -38.13246,-63.4546 -51.45091,-127.9766 -40.25136,-195 6.08312,-36.4043 22.99957,-76.8521 48.72365,-116.5 28.38563,-43.7501 84.34502,-99.8234 145.49743,-145.7936 75.96114,-57.1024 181.01584,-113.4896 300.75824,-161.4294 35.4589,-14.1963 86.627,-33.068 88.2198,-32.5371 0.4697,0.1566 -5.3501,3.1462 -12.9329,6.6436 -33.4926,15.4476 -96.4738,49.2679 -127.7869,68.6203 -35.9797,22.2364 -77.7867,52.0109 -107,76.2042 -39.00382,32.3014 -81.66048,77.039 -105.94354,111.1119 -38.11543,53.4819 -60.15617,105.9636 -66.01089,157.1801 -3.12807,27.3641 -1.5785,67.7613 3.52899,92 12.12548,57.5442 38.99644,109.9025 84.4235,164.5 67.6866,81.3506 179.14484,160.7166 319.59944,227.5771 140.6848,66.9701 290.7198,118.2994 472.9025,161.7873 142.2421,33.9538 329.0157,63.8028 498,79.5873 102.0419,9.5315 109.4889,9.9571 301.0513,17.2038 l 179.5512,6.7923 69.9488,-2.291 c 173.6141,-5.6864 282.4525,-13.1549 417.9487,-28.6798 220.4032,-25.2533 388.4631,-56.7397 566.5,-106.1349 148.833,-41.2928 298.0404,-98.0439 403.5181,-153.4783 107.5738,-56.5359 182.3921,-108.7628 244.0245,-170.3413 40.3126,-40.2774 67.8603,-78.2798 90.4537,-124.7823 32.5589,-67.014 40.1678,-147.4218 20.4372,-215.9714 -11.2444,-39.0661 -26.224,-70.241 -51.6239,-107.4377 -66.8333,-97.8736 -182.4004,-184.4647 -347.4973,-260.3697 -16.0532,-7.3807 -29.0189,-13.5882 -28.8126,-13.7944 0.8586,-0.8586 46.4107,15.0391 78.5003,27.3967 78.8341,30.3587 146.5701,61.3209 210.5,96.2198 128.9232,70.3783 224.805,151.9571 274.556,233.5997 40.2127,65.9902 53.4414,134.0786 39.3443,202.5063 -5.0098,24.3176 -12.6172,45.6694 -25.8705,72.6105 -16.4115,33.3613 -35.9668,60.903 -67.234,94.6929 -13.9492,15.0747 -41.8793,41.8585 -56.2958,53.9855 -51.1657,43.0397 -117.0057,86.1904 -189,123.868 -77.3779,40.4951 -173.6354,81.9369 -263.5,113.4447 -77.2931,27.1001 -173.7592,55.883 -256.5,76.5328 -248.7847,62.0896 -516.9506,101.4626 -813.5,119.4408 -83.4083,5.0565 -243.6874,9.7217 -323,9.4013 -17.05,-0.069 -102.325,-1.8268 -189.5,-3.9066 z"
           id="path3000"
           inkscape:connector-curvature="0" />
      </g>
      <path
         inkscape:connector-curvature="0"
         id="path3095"
         style="fill:#5c5d5e;fill-opacity:1;fill-rule:nonzero;stroke:none"
         d="m 3183.6115,1016.069 0,-25.20306 -63.7582,6.0438 27.589,-38.0819 c 1.933,-0.2121 3.2381,-0.3221 3.8211,-0.3221 9.9877,0 3.8009,-10.4604 3.8009,-10.4604 0,0 -0.6808,0.09 -1.9615,0.2854 l -68.338,-145.94551 c 1.5496,-2.56924 4.6409,-4.94274 9.4002,-8.51113 9.5143,-7.13681 12.369,-16.17811 9.5143,-15.21976 -1.1947,0.40374 -4.8651,0.0449 -8.8535,-0.48939 l -76.8492,-99.20558 c 1.8065,-5.7502 5.0733,-15.23197 7.6752,-17.83384 1.8515,-1.84741 1.8962,-4.03332 1.4599,-5.78285 l 0.046,-0.0692 -0.069,-0.0449 c -0.4691,-1.80664 -1.4354,-3.14426 -1.4354,-3.14426 l -0.9379,1.31724 -66.4092,-51.45428 -48.2734,-62.31447 0,-92.60305 -9.9915,0 0.975,59.65957 -33.6614,19.81993 -208.4476,30.25595 -72.2815,-64.23528 c -2.8995,-12.9115 -6.892,-29.86037 -6.3132,-33.60821 0.9504,-6.17843 0.9504,-12.38134 -1.9042,-15.23604 -2.8548,-2.85473 -9.9915,7.13679 -9.9915,7.13679 l 0,-54.70868 -9.0454,0 0.9582,59.94913 c 0,0 -27.1199,26.16146 -30.9328,30.44355 -1.3581,1.54154 -2.7202,8.92304 -3.9151,17.98066 L 2383.773,626.21234 2257.8021,533.6827 c -1.6149,-13.80869 1.5134,-31.00633 2.7776,-34.79902 1.4273,-4.27801 3.3235,-9.52253 0.95,-9.98745 -2.3774,-0.48123 -28.0698,10.46052 -28.0698,10.46052 l 0,-14.74669 -7.1369,0 0.9501,18.55977 -41.3974,24.26103 c 0,0 -4.07,23.86955 -6.0765,39.72548 l -346.563,427.2372 c -0.5915,0.2405 -1.195,0.4894 -1.8231,0.7424 -10.4646,4.282 -3.809,13.32716 0.473,13.32716 0.5671,0 3.1526,0.824 7.2145,2.2717 l -0.8689,1.0726 0.5792,0.4446 1.0278,-1.2481 c 6.3863,2.2757 16.0678,5.9338 27.1648,10.171 l -1.6518,2.0514 0.579,0.4444 1.7945,-2.2061 c 36.7117,14.0939 88.3413,34.5663 88.3413,34.5663 0,0 15.224,15.2361 25.2155,19.0534 9.9915,3.7886 70.8868,43.7546 70.8868,43.7546 l 1081.0091,0 66.1354,-74.2227 -15.7008,-28.5472 z m -31.6222,-67.55486 c -27.079,4.1475 -223.8344,34.2566 -229.5804,34.2566 -6.1907,0 -3.8173,-3.3236 -3.8173,-3.3236 0,0 196.5066,-34.7461 206.0291,-34.7461 9.5104,0 11.4149,-2.3653 8.0831,-4.7511 -3.3319,-2.3857 -45.1942,-119.43332 -48.049,-127.99748 -1.2031,-3.59287 -1.3827,-6.08871 -0.5018,-8.31946 l 67.8363,144.88114 z m -58.7051,-170.57363 c -5.1058,-0.73815 -10.2608,-1.67205 -11.0153,-1.67205 -1.4313,0 -16.1697,-9.51437 -34.2565,-27.11984 -18.0785,-17.59731 -31.406,-65.66265 -31.406,-65.66265 0,0 0.3672,-1.29276 0.9707,-3.25438 l 75.7071,97.70892 z m -69.1945,-123.64609 -12.0796,16.96927 -51.0343,-65.87062 63.1139,48.90135 z m -69.2311,-55.02268 -44.8272,-34.72563 0,-23.12732 44.8272,57.85295 z m -50.5367,108.97282 -0.5829,34.70116 -13.7925,19.02467 -49.5498,-44.00347 c 6.0562,-20.29297 11.8756,-39.73362 16.5493,-55.24291 l 45.965,-40.81842 1.4109,86.33897 z m -0.6074,35.97355 -0.5018,29.55042 -12.7115,-11.30875 13.2133,-18.24167 z m -30.3213,38.71816 c -1.9004,2.85472 -69.4594,57.5634 -69.4594,57.5634 0,0 18.9879,-63.9906 36.1856,-121.57437 l 49.2888,43.78324 -15.7253,21.72033 c 0.1794,-1.46814 0.1397,-2.13696 -0.2905,-1.4926 z m -254.5471,95.15597 c 0.274,-1.48445 0.787,-3.24622 1.423,-5.1181 l 183.3835,-162.90257 -13.5194,19.08992 -147.022,206.02515 c 0,0 -38.0657,52.8124 -39.9662,51.8663 -1.9004,-0.9626 14.2738,-101.34675 15.7011,-108.9607 z m 7.6099,-22.84183 c -1.4236,0 -53.2855,8.08701 -53.2855,8.08701 l 0.4731,-27.11985 c 0,0 36.1653,6.66782 44.252,9.52254 8.0872,2.8588 12.8462,0.46897 10.9421,-6.1866 -1.1991,-4.20866 -5.4366,-35.51678 -7.7976,-60.21011 l 143.5475,-127.50404 49.2968,43.78326 -7.9319,11.19457 -185.0799,164.41556 c 2.6753,-7.4712 6.6557,-15.98234 5.5834,-15.98234 z m -6.6556,-105.62464 c 2.3735,-8.56416 7.1367,-13.32747 7.1367,-14.75074 0,-1.42737 -61.8576,14.27359 -61.8576,14.27359 l -0.9462,-24.73819 c 0,0 37.5926,-0.47714 45.6756,0.469 8.0867,0.96244 12.8461,-0.469 12.8461,-0.469 0,0 -6.0356,-25.82298 -10.5053,-46.74401 l 109.1603,-64.27605 42.6005,37.8495 -142.9726,126.9861 c -1.3171,-13.91471 -1.994,-25.53343 -1.1375,-28.6002 z m -12.3651,-97.54171 c 0,-7.1368 -1.4273,-30.44356 -1.9086,-33.77949 -0.4812,-3.33188 -33.7797,12.36909 -33.7797,12.36909 0,0 -4.2821,-17.12832 -4.2821,-23.30675 0,-6.19066 12.3651,-7.13679 23.307,-4.75107 10.954,2.36533 13.8044,3.79269 17.1283,4.75107 2.3083,0.64843 -2.2184,-23.50659 -7.4345,-41.30372 l 58.0811,-8.42958 62.1759,55.22252 -108.7403,64.03136 c -2.5531,-11.98167 -4.5471,-22.21379 -4.5471,-24.80343 z m 259.7753,-22.83775 c 0.9543,-2.54072 1.1625,-4.23723 1.0195,-5.35057 l 33.9428,-46.85819 0.7177,43.67721 -45.4512,40.38206 c 5.3586,-17.82162 9.1066,-30.08876 9.7712,-31.85051 z m 0.7872,-6.28856 c -0.5589,-1.31725 -1.7415,-1.31725 -1.7415,-1.31725 l -51.8537,73.24397 -49.1338,-43.6446 136.1374,-120.93001 0.7504,45.50015 -34.1588,47.14774 z m 33.388,-93.84689 -136.7982,121.52136 -42.4621,-37.72308 145.3586,-85.5845 33.7917,-4.91012 0.111,6.69634 z m -0.3546,-21.54906 0.2314,14.02893 -31.9157,4.63687 31.6832,-18.6658 z m -35.5455,20.04831 -143.9556,84.77296 -61.8208,-54.91666 205.7764,-29.8563 z m -207.738,29.30982 -57.5188,8.33986 c -2.251,-7.56093 -4.6164,-13.87394 -6.6022,-16.41466 -6.6556,-8.56414 0,-28.55125 -0.9462,-31.40191 -0.9461,-2.85471 -25.6924,10.46053 -25.6924,10.46053 0,0 0.9461,-12.36912 0.9461,-15.70097 0,-3.32371 4.2821,-7.60579 9.9915,-7.13682 5.7094,0.47715 9.9954,3.81311 11.4189,2.85065 0.5258,-0.34256 -0.6895,-6.24366 -2.386,-13.86986 l 70.7891,62.87318 z m -132.4021,-51.34418 c -2.0634,16.09245 -3.5562,36.78103 -3.5562,39.4563 0,4.28208 6.1787,-0.9339 8.5644,-4.75106 2.3776,-3.81309 8.087,-21.4104 15.2239,-27.58883 7.1367,-6.19882 15.7009,-5.70945 15.7009,-5.70945 l -1.4274,25.19903 c 0,0 -36.1652,23.33123 -42.8208,27.61329 -6.6026,4.23723 -6.1948,38.80381 -6.6474,45.9406 l -71.213,61.17258 -54.7863,-40.25155 140.9619,-121.08091 z m -225.5717,477.97399 -24.9542,-18.3315 c 3.2419,-22.3687 7.6381,-50.56111 9.0655,-54.30895 0.6487,-1.64757 1.2154,-3.76823 1.8395,-5.99899 l 28.1556,-24.19579 48.5343,49.01963 -62.6407,53.8156 z m 63.1545,-53.28136 105.8817,106.96212 -94.4178,1.1257 -74.0149,-54.35786 62.551,-53.72996 z m -234.6211,-136.39447 -53.7667,81.36361 c 0,0 43.7752,-94.68697 47.103,-99.43806 1.4273,-2.03908 2.4183,-4.50638 3.0789,-6.6678 l 23.1721,-31.98511 c -1.6271,15.82332 -3.2664,32.1156 -4.0007,40.2801 l -14.2654,19.66903 c -0.469,-1.87189 -1.3212,-3.22177 -1.3212,-3.22177 z m 19.7384,-58.1955 -22.7563,31.39785 c 0.4569,-1.87188 0.6363,-3.17689 0.6363,-3.17689 l -31.4021,40.44729 c 0,0 28.5473,-53.77477 35.2111,-57.57155 4.2086,-2.39795 2.9036,-4.25353 1.3741,-5.27714 l 19.0613,-26.29604 c -0.6361,6.10909 -1.3742,13.21328 -2.1244,20.47648 z m 4.0536,-38.87311 c 0,0 -0.7383,6.97367 -1.7741,16.9244 l -19.8526,27.38899 c -0.6564,-0.34665 -1.2111,-0.53423 -1.2111,-0.53423 l -91.3553,92.30941 c 0,0 -46.3889,46.2587 -89.6665,89.3242 L 2163.2285,657.194 c -1.0887,8.93936 -2.031,16.22296 -2.5649,19.15517 -1.9087,10.46051 1.4272,7.6058 5.2281,2.85473 3.809,-4.75108 34.2605,-29.50558 43.7751,-33.78765 9.5184,-4.28208 14.7467,-2.36534 14.7467,-2.36534 l 0,4.28617 c 0,0 -8.083,0.46489 -11.892,0.93389 -3.805,0.48937 3.3316,10.94988 6.6637,13.8046 3.3277,2.85473 4.2822,9.52255 4.2822,9.52255 0,0 -59.0031,18.07037 -64.7125,20.45611 -5.7095,2.38164 -6.6556,4.75107 -6.6556,4.75107 z m 118.4709,-50.43067 c 8.0869,3.32369 14.2736,3.81308 14.2736,3.81308 0,0 -2.1982,-8.33986 -5.1386,-19.53445 l 45.4513,45.92023 -35.3578,30.37828 -6.0602,-6.12541 c -1.9614,-17.34039 -3.654,-32.58051 -3.654,-33.98747 0,-3.33187 7.6141,-12.36502 7.6141,-12.36502 l -56.1484,14.2736 -1.9046,-12.37726 21.8916,-1.89634 -19.037,-8.56824 -0.4687,-3.33187 c 0,0 30.4434,0.47715 38.5387,3.80087 z m 29.0161,236.94583 -67.5548,5.24046 c 0,0 -1.9046,-11.4148 -0.4813,-19.51405 1.4275,-8.08294 6.6596,-9.03316 6.6596,-9.03316 0,0 37.1114,9.9956 44.7294,12.85032 7.6179,2.85064 11.8961,0.9339 11.8961,-2.85472 0,-0.71367 -0.3099,-4.19645 -0.8035,-9.35125 l 19.3385,19.53852 -27.2745,23.42094 c 1.6271,-5.68905 3.7355,-11.70844 8.2623,-12.69127 6.6555,-1.42737 5.2282,-7.60579 5.2282,-7.60579 z m -15.7255,-181.38891 5.4119,5.46474 -4.3598,3.74376 c -0.3588,-3.07494 -0.7053,-6.17435 -1.0521,-9.2085 z m -9.9669,54.82286 c 10.4727,0.48938 15.7008,0 15.7008,-2.85471 0,-1.38252 -2.2631,-21.39001 -4.5838,-41.86653 l 4.7715,-4.10264 46.7031,47.16814 -49.0766,42.15199 c -0.8685,-7.93614 -1.4927,-13.36826 -1.6151,-13.84541 -0.4811,-1.89634 2.8548,-7.60579 7.6141,-7.60579 4.7509,0 4.7509,-2.85881 4.7509,-5.71351 0,-2.85064 -67.5545,8.07886 -67.5545,8.07886 l 1.4272,-24.73819 c 0,0 31.4019,2.85879 41.8624,3.32779 z m 20.028,102.81478 c -1.4969,-15.39102 -4.4943,-43.95861 -6.411,-61.42542 l 49.5009,-42.50678 55.7689,56.33586 -78.8839,67.75475 -19.9749,-20.15841 z m 43.6118,-104.40119 35.3618,-30.37422 55.769,56.35625 -35.362,30.37422 -55.7688,-56.35625 z m -0.5181,-0.51385 -46.695,-47.19259 35.3621,-30.37422 46.6949,47.1926 -35.362,30.37421 z m -110.2247,-209.14494 -2.8505,27.60106 c 0,0 -40.9203,19.02467 -46.6259,22.83775 -0.6036,0.40374 -1.1622,0.75855 -1.6884,1.09295 l 41.63,-51.31563 c 4.9063,-1.09702 9.5348,-0.21598 9.5348,-0.21598 z m 26.1738,446.29063 c 9.5102,3.3359 18.0743,4.282 18.0743,1.4273 0,-1.1133 1.5947,-12.887 3.6704,-27.2299 l 24.5179,18.0213 -76.7186,65.90726 0,-65.26266 c 0,0 20.9417,3.817 30.456,7.1367 z m 61.454,-111.53393 78.8838,-67.75475 48.5221,49.01963 -78.888,67.75882 -48.5179,-49.0237 z m 79.4102,-68.22374 35.3616,-30.37829 44.6358,45.1209 c -0.3753,2.8547 -0.7667,5.61971 -1.1461,8.22567 l -30.3335,26.06359 -48.5178,-49.03187 z m 88.4637,-38.13907 c -8.5643,1.89636 -8.5643,8.07071 -6.1787,16.63897 1.3703,4.95088 -0.2642,20.96586 -2.1735,35.37404 l -44.2279,-44.69675 59.4925,-51.0995 c -2.2513,14.98729 -4.0577,27.83762 -4.0577,30.93703 0,8.07477 1.9042,7.1368 4.759,1.42735 2.8548,-5.70944 31.8831,-25.69248 42.3438,-31.40193 10.4685,-5.70942 24.2652,-5.70942 24.2652,-5.70942 l 0,24.7341 c 0,0 -65.6586,21.87531 -74.2227,23.79611 z m 7.0797,-44.89657 -60.1737,51.68675 -55.7769,-56.34809 65.8134,-56.53979 53.5057,39.32174 c -1.1257,7.18166 -2.2839,14.74258 -3.3685,21.87939 z m -116.4646,-5.17113 -46.7031,-47.19666 57.6409,-49.50901 54.778,40.23116 -65.7158,56.47451 z m 10.326,-97.15428 -57.551,49.43153 -46.3363,-46.79702 c -5.8442,-22.23828 -14.3388,-54.50884 -14.963,-56.68658 -0.95,-3.33188 4.2822,-10.46868 4.2822,-12.84625 0,-2.37349 -35.6879,9.99152 -35.6879,9.99152 0,0 0.9501,-8.56416 0.4811,-13.79237 -0.4811,-5.24046 0.469,-9.04538 4.751,-9.99152 4.282,-0.95838 11.4188,2.3735 19.5141,6.65557 8.0869,4.28617 4.2821,0.48123 0.9502,-13.79238 -0.3132,-1.3621 -0.5709,-2.765 -0.7587,-4.22498 l 125.3183,92.05248 z m -534.6932,364.65382 c -1.2682,-2.5449 -5.5709,-0.9382 -13.8778,2.4753 l 344.9682,-425.2716 c -0.4688,3.83756 -0.8033,7.09194 -0.893,9.3227 -0.4729,11.41888 0.9502,9.52252 5.2322,1.9045 4.282,-7.61394 20.4604,-25.69248 26.651,-30.92071 1.6269,-1.38247 3.5355,-2.2756 5.4443,-2.82207 l -42.3355,52.1802 c -2.9525,1.75769 -4.0292,2.02686 -4.0292,2.02686 0,0 -0.1368,1.25197 -0.3752,3.41342 l -318.2849,392.3732 c -1.1908,-2.1777 -2.1167,-3.9233 -2.5001,-4.6818 z m 12.8461,20.45196 c -1.6802,-0.669 -6.6637,-9.1434 -9.9627,-15.07696 l 317.7587,-391.72877 c -1.0969,9.90181 -3.6702,33.22894 -5.7868,50.83033 l -220.0867,271.3126 c -34.3094,34.14244 -65.4341,65.05494 -68.1218,67.53454 -6.1908,5.70536 -11.419,18.08666 -13.8007,17.12826 z m 6.1825,0.4771 10.2814,-4.4492 -5.3223,6.5577 c -3.0053,-1.2724 -4.9591,-2.1085 -4.9591,-2.1085 z m 5.6648,2.4225 6.0804,-7.5203 77.2325,-33.44086 c 0,0 -22.3648,27.60116 -30.4557,34.73776 -5.7543,5.0813 -5.0082,9.1842 -4.0904,11.1499 l -5.9459,8.1889 c -6.8882,-1.1624 -11.7859,-2.0146 -13.2747,-2.2105 -4.7878,-0.6931 -20.872,-7.2713 -29.5462,-10.9049 z m 43.6365,13.2457 5.5218,-7.6056 c 0.2089,0.3263 0.3711,0.5015 0.3711,0.5015 l 88.0233,-39.48466 c 0,0 -29.9747,47.10276 -31.8833,49.47616 -1.354,1.6966 -0.5341,4.3596 1.089,5.5668 l -1.1827,1.6272 c -19.7382,-2.8995 -45.8875,-7.3366 -61.9392,-10.0814 z m 200.4911,-115.10209 c -0.9461,8.07071 -3.8052,31.87093 -5.2324,39.96203 -1.4274,8.087 0,35.688 0,35.688 l -8.0869,0.9463 c 0,0 -0.9544,36.63396 -0.9544,44.72906 0,8.0871 2.8548,12.3692 -5.2325,11.4189 -8.0866,-0.9582 -78.5048,-3.817 -96.1099,-4.7632 -4.429,-0.2323 -12.4591,-1.2601 -22.1162,-2.6631 l 0.9911,-1.3824 c 0.5057,0.2447 1.0522,0.3343 1.619,0.2447 2.8546,-0.4814 30.4477,-12.8462 45.1943,-19.983 14.7548,-7.1369 40.4472,-10.9541 40.4472,-16.6634 0,-5.70536 16.1783,-58.04056 19.033,-71.83294 2.8549,-13.80868 39.0119,-120.86068 41.8666,-125.14685 1.1702,-1.73321 1.2924,-3.64179 1.0478,-5.28122 l 13.9392,-19.24897 c -0.1176,1.40697 -0.1989,2.46321 -0.2316,3.11979 -0.4811,8.56826 1.9004,6.67191 6.6556,1.43144 4.7633,-5.23228 14.7548,-13.3193 30.4557,-21.87938 15.701,-8.56415 41.8666,-6.20291 41.8666,-6.20291 l -2.3777,23.79614 c 0,0 -69.4634,15.70504 -76.6002,17.60139 -7.1369,1.92083 -9.0454,3.34409 -9.0454,3.34409 0,0 -9.0372,78.01544 -7.6098,85.15223 1.4272,7.1368 12.8461,-9.03314 26.1656,-18.0663 13.3273,-9.05761 53.2934,-13.8046 61.3802,-13.8046 8.0873,0 4.2783,3.3237 4.2783,8.56415 0,5.24045 -5.2282,3.81717 -7.6099,4.75106 -2.3778,0.95838 -0.4732,6.20291 2.3817,8.56417 2.8546,2.38573 5.2282,15.70096 5.2282,15.70096 0,0 -91.8241,10.48498 -96.5793,10.48498 -4.7634,0 -3.8089,3.31963 -4.7634,11.41888 z m 207.4484,145.59059 -21.8878,28.0659 -80.4134,-3.8007 0,-31.8017 77.3348,-66.41686 73.3987,53.90506 -45.5737,0.5302 -2.8586,19.5181 z m 228.3815,-28.0782 -23.796,3.344 -0.4692,2.8548 -59.1455,0.6892 -106.3179,-107.41072 78.8839,-67.77513 21.696,21.92423 c -4.9468,1.38251 -3.6541,3.0097 -4.1109,10.77046 -0.4771,8.09517 -16.647,55.2021 -18.0745,62.3389 -1.4273,7.1368 -5.7094,34.7216 -3.8172,41.8585 1.9087,7.13656 4.2863,-9.0292 8.5684,-19.4896 4.2822,-10.4851 24.7422,-12.8463 29.9747,-12.8463 5.2402,0 26.6506,7.6017 44.248,12.3528 17.6096,4.7632 32.3602,8.0993 32.3602,8.0993 l 0,43.28956 z m -88.374,-146.57752 -21.9486,-22.16487 29.6525,-25.47225 c -0.9096,6.24368 -1.721,11.35363 -2.1167,13.89433 -1.4274,9.03315 -2.3857,14.27359 0.4691,19.02468 2.8546,4.77144 19.983,-22.34838 32.3601,-30.91256 12.365,-8.56416 51.8542,-5.70943 51.8542,-5.70943 l 1.4273,33.30235 c 0,0 -85.0505,16.43503 -91.6979,18.03775 z m 48.4081,-223.58575 c -5.2405,2.85472 -14.7551,8.09925 -15.232,12.84624 -0.1989,2.01054 -2.5204,16.56146 -5.1303,33.31866 l -53.0939,-38.98324 70.524,-60.5853 c -0.771,8.4418 -5.587,43.07772 -4.2047,46.73583 1.4272,3.81308 6.6555,-6.17434 8.0829,-12.84625 1.4273,-6.64741 15.701,-22.3443 22.8376,-28.05782 7.1369,-5.70535 21.4105,-8.09517 21.4105,-8.09517 l 0.4813,29.50558 c 0,0 -40.4433,23.30674 -45.6754,26.16147 z m 88.4922,370.16327 c 0,0 180.1124,-61.89016 216.1308,-71.66156 l -48.3304,66.71076 c -77.8439,4.4369 -162.3969,9.2288 -164.9456,9.2288 -4.7551,0 -2.8548,-4.278 -2.8548,-4.278 z m 168.7506,-4.9957 48.5181,-66.97986 c 1.4721,-0.3792 2.6547,-0.6566 3.503,-0.8238 19.983,-3.8008 18.0745,-8.5641 18.0745,-20.921 0,-12.37722 29.0284,-124.66968 29.0284,-128.95176 0,-3.03415 2.8546,-15.59084 3.858,-21.65509 l 16.5166,-22.81737 13.2255,11.75327 -4.1025,243.03051 c 0,0 -61.6907,3.5397 -128.6216,7.3651 z m 139.5631,-459.4182 47.4944,36.79736 53.828,69.47572 -101.3224,142.60549 0,-248.87857 z m 4.2782,426.36474 c 0,0 197.5302,-29.4159 232.1378,-33.3677 l -27.5728,38.0739 -205.9967,19.55886 1.4317,-24.26506" />
      <text
         xml:space="preserve"
         style="font-size:623.19439697px;font-style:normal;font-variant:normal;font-weight:bold;font-stretch:normal;text-align:start;line-height:125%;letter-spacing:0px;word-spacing:0px;writing-mode:lr-tb;text-anchor:start;fill:#000000;fill-opacity:1;stroke:none;font-family:Impact;-inkscape-font-specification:Impact Bold"
         x="1180.205"
         y="1702.3896"
         id="text3293"
         sodipodi:linespacing="125%"><tspan
           sodipodi:role="line"
           id="tspan3295"
           x="1180.205"
           y="1702.3896"><tspan
             style="fill:#eb0769"
             id="tspan3297">Круг</tspan><tspan
             style="fill:#16b0ca"
             id="tspan3299"> Услуг</tspan></tspan></text>
      <text
         xml:space="preserve"
         style="font-size:334.3270874px;font-style:normal;font-variant:normal;font-weight:normal;font-stretch:normal;text-align:start;line-height:125%;letter-spacing:0px;word-spacing:0px;writing-mode:lr-tb;text-anchor:start;fill:#5c5d5e;fill-opacity:1;stroke:none;font-family:SmartyCond;-inkscape-font-specification:SmartyCond"
         x="1625.835"
         y="2057.3237"
         id="text3301"
         sodipodi:linespacing="125%"><tspan
           sodipodi:role="line"
           id="tspan3303"
           x="1625.835"
           y="2057.3237">www.krug.in.ua</tspan></text>
    </g>
    <text
       xml:space="preserve"
       style="font-size:63.1378212px;font-style:normal;font-weight:normal;line-height:125%;letter-spacing:0px;word-spacing:0px;fill:#000000;fill-opacity:1;stroke:none;font-family:Sans"
       x="565.7121"
       y="-1754.877"
       id="text3038"
       sodipodi:linespacing="125%"><tspan
         sodipodi:role="line"
         id="tspan3040"
         x="565.7121"
         y="-1754.877">Реклама из рук в руки</tspan></text>
    <text
       xml:space="preserve"
       style="font-size:69.21048737px;font-style:normal;font-weight:normal;line-height:125%;letter-spacing:0px;word-spacing:0px;fill:#000000;fill-opacity:1;stroke:none;font-family:Sans"
       x="1582.3339"
       y="-1756.8817"
       id="text3042"
       sodipodi:linespacing="125%"><tspan
         sodipodi:role="line"
         x="1582.3339"
         y="-1756.8817"
         id="tspan3046">344 09 12 </tspan><tspan
         sodipodi:role="line"
         x="1582.3339"
         y="-1670.3687"
         id="tspan3050">(095) 170 68 23</tspan></text>
    <text
       xml:space="preserve"
       style="font-size:63.16545868px;font-style:normal;font-weight:normal;line-height:125%;letter-spacing:0px;word-spacing:0px;fill:#000000;fill-opacity:1;stroke:none;font-family:Sans"
       x="574.7771"
       y="-1673.3188"
       id="text3052"
       sodipodi:linespacing="125%"><tspan
         sodipodi:role="line"
         id="tspan3054"
         x="574.7771"
         y="-1673.3188">WWW.krug.in.ua</tspan></text>
    <text
       xml:space="preserve"
       style="font-size:103.56958771px;font-style:normal;font-weight:normal;line-height:125%;letter-spacing:0px;word-spacing:0px;fill:#000000;fill-opacity:1;stroke:none;font-family:Sans"
       x="8.5625877"
       y="-225.32283"
       id="text3078-4"
       sodipodi:linespacing="125%"><tspan
         sodipodi:role="line"
         id="tspan3080-0"
         x="8.5625877"
         y="-225.32283">Распространение</tspan><tspan
         sodipodi:role="line"
         x="8.5625877"
         y="-95.860847"
         id="tspan3144">вашей рекламы</tspan></text>
    <image
       y="-762.72986"
       x="1075.2118"
       id="image3061"
       xlink:href="file:///D:/GraphWork/WorkingProjects/My/%D0%9F%D0%BB%D0%B0%D0%BA%D0%B0%D1%82/%D0%A0%D0%B0%D1%81%D0%BF%D1%80%D0%BE%D1%81%D1%82%D1%80%D0%B0%D0%BD%D0%B5%D0%BD%D0%B8%D0%B5%20%D0%B8%20%D1%80%D0%B0%D0%B7%D0%BC%D0%B5%D1%89%D0%B5%D0%BD%D0%B8%D0%B51.png"
       height="1093.9122"
       width="1025.4258" />
    <text
       xml:space="preserve"
       style="font-size:110.45754242px;font-style:normal;font-variant:normal;font-weight:normal;font-stretch:normal;text-align:center;line-height:125%;letter-spacing:0px;word-spacing:0px;writing-mode:lr-tb;text-anchor:middle;fill:#000000;fill-opacity:1;stroke:none;font-family:Sans;-inkscape-font-specification:Sans"
       x="1591.7914"
       y="-67.255707"
       id="text3078-9"
       sodipodi:linespacing="125%"><tspan
         sodipodi:role="line"
         id="tspan3080-4"
         x="1607.1088"
         y="-67.255707">Изготовление </tspan><tspan
         sodipodi:role="line"
         x="1607.1088"
         y="70.816223"
         id="tspan3148">и распространение </tspan><tspan
         sodipodi:role="line"
         x="1591.7914"
         y="208.88815"
         id="tspan3146">рекламных книжек</tspan></text>
    <text
       xml:space="preserve"
       style="font-size:174.64476013px;font-style:normal;font-weight:normal;line-height:125%;letter-spacing:0px;word-spacing:0px;fill:#000000;fill-opacity:1;stroke:none;font-family:Sans"
       x="141.10732"
       y="560.09167"
       id="text3078-8"
       sodipodi:linespacing="125%"><tspan
         sodipodi:role="line"
         id="tspan3080-8"
         x="141.10732"
         y="560.09167">Создание </tspan><tspan
         sodipodi:role="line"
         x="141.10732"
         y="778.39764"
         id="tspan3150">сайтов</tspan></text>
    <text
       xml:space="preserve"
       style="font-size:164.6723938px;font-style:normal;font-weight:normal;line-height:125%;letter-spacing:0px;word-spacing:0px;fill:#000000;fill-opacity:1;stroke:none;font-family:Sans"
       x="1089.9701"
       y="544.3703"
       id="text3078-2"
       sodipodi:linespacing="125%"><tspan
         sodipodi:role="line"
         id="tspan3080-45"
         x="1089.9701"
         y="544.3703">Размещение </tspan><tspan
         sodipodi:role="line"
         x="1089.9701"
         y="750.21082"
         id="tspan3152">баннеров на </tspan><tspan
         sodipodi:role="line"
         x="1089.9701"
         y="956.05127"
         id="tspan3154">нашем сайте</tspan></text>
    <image
       y="-1636.1599"
       x="6.034903"
       id="image3039"
       xlink:href="file:///D:/GraphWork/WorkingProjects/My/%D0%9F%D0%BB%D0%B0%D0%BA%D0%B0%D1%82/%D0%9F%D0%BE%D0%BB%D0%B8%D0%B3%D1%80%D0%B0%D1%84%D0%B8%D1%8F%201.png"
       height="849.50592"
       width="2098.6387" />
    <text
       xml:space="preserve"
       style="font-size:114.44830322px;font-style:normal;font-variant:normal;font-weight:300;font-stretch:normal;text-align:start;line-height:125%;letter-spacing:0px;word-spacing:0px;writing-mode:lr-tb;text-anchor:start;fill:#d30101;fill-opacity:1;stroke:#000cc4;stroke-width:0;stroke-linecap:round;stroke-linejoin:round;stroke-miterlimit:4;stroke-opacity:1;stroke-dasharray:none;font-family:Bookman Old Style;-inkscape-font-specification:Bookman Old Style Light"
       x="1306.1746"
       y="-958.13678"
       id="text3178-5"
       sodipodi:linespacing="125%"><tspan
         sodipodi:role="line"
         id="tspan3180-1"
         x="1306.1746"
         y="-958.13678"
         style="stroke-width:0">Еврофлаера</tspan><tspan
         sodipodi:role="line"
         x="1306.1746"
         y="-815.07642"
         style="stroke-width:0"
         id="tspan4048">Открытки</tspan></text>
    <text
       xml:space="preserve"
       style="font-size:129.34916687px;font-style:normal;font-variant:normal;font-weight:300;font-stretch:normal;text-align:start;line-height:125%;letter-spacing:0px;word-spacing:0px;writing-mode:lr-tb;text-anchor:start;fill:#d30101;fill-opacity:1;stroke:#000cc4;stroke-width:0;stroke-linecap:round;stroke-linejoin:round;stroke-miterlimit:4;stroke-opacity:1;stroke-dasharray:none;font-family:Bookman Old Style;-inkscape-font-specification:Bookman Old Style Light"
       x="37.226559"
       y="-836.48938"
       id="text3178"
       sodipodi:linespacing="125%"><tspan
         sodipodi:role="line"
         id="tspan3180"
         x="37.226559"
         y="-836.48938"
         style="stroke-width:0">Визитки</tspan></text>
    <text
       xml:space="preserve"
       style="font-size:110.34600067px;font-style:normal;font-variant:normal;font-weight:normal;font-stretch:normal;text-align:start;line-height:125%;letter-spacing:0px;word-spacing:0px;writing-mode:lr-tb;text-anchor:start;fill:#000000;fill-opacity:1;stroke:none;font-family:DejaVu Serif;-inkscape-font-specification:DejaVu Serif"
       x="560.09729"
       y="-1551.9042"
       id="text3078"
       sodipodi:linespacing="125%"><tspan
         sodipodi:role="line"
         id="tspan3080"
         x="560.09729"
         y="-1551.9042">Полиграфия</tspan></text>
    <text
       xml:space="preserve"
       style="font-size:121.84017181px;font-style:normal;font-variant:normal;font-weight:300;font-stretch:normal;text-align:start;line-height:125%;letter-spacing:0px;word-spacing:0px;writing-mode:lr-tb;text-anchor:start;fill:#d30101;fill-opacity:1;stroke:#000cc4;stroke-width:0;stroke-linecap:round;stroke-linejoin:round;stroke-miterlimit:4;stroke-opacity:1;stroke-dasharray:none;font-family:Bookman Old Style;-inkscape-font-specification:Bookman Old Style Light"
       x="550.76129"
       y="-1443.0029"
       id="text3178-7"
       sodipodi:linespacing="125%"><tspan
         sodipodi:role="line"
         id="tspan3180-11"
         x="550.76129"
         y="-1443.0029"
         style="stroke-width:0">Календари</tspan></text>
    <image
       y="-762.61499"
       x="-1.3349712"
       id="image3040"
       xlink:href="file:///D:/GraphWork/%D0%9D%D0%BE%D0%B2%D1%8B%D0%B5%20%D0%BA%D0%B0%D1%80%D1%82%D0%B8%D0%BD%D0%BA%D0%B8/%D0%94%D0%BB%D1%8F%20%D0%BF%D0%BB%D0%B0%D0%BA%D0%B0%D1%82%D0%B0/%D0%A0%D0%B0%D1%81%D0%BF%D1%80%D0%BE%D1%81%D1%82%D1%80%D0%B0%D0%BD%D0%B5%D0%BD%D0%B8%D0%B5%20%D1%80%D0%B5%D0%BA%D0%BB%D0%B0%D0%BC%D1%8B/%D0%90%D1%88%D0%B0%D0%BD%20%D1%82%D0%B5%D0%BB%D0%B5%D0%B6%D0%BA%D0%B0.png"
       height="480.09836"
       width="1079.1193" />
    <image
       y="-194.28067"
       x="6.10887"
       id="image3051"
       xlink:href="file:///D:/GraphWork/%D0%9D%D0%BE%D0%B2%D1%8B%D0%B5%20%D0%BA%D0%B0%D1%80%D1%82%D0%B8%D0%BD%D0%BA%D0%B8/%D0%94%D0%BB%D1%8F%20%D0%BF%D0%BB%D0%B0%D0%BA%D0%B0%D1%82%D0%B0/%D0%A0%D0%B0%D1%81%D0%BF%D1%80%D0%BE%D1%81%D1%82%D1%80%D0%B0%D0%BD%D0%B5%D0%BD%D0%B8%D0%B5%20%D1%80%D0%B5%D0%BA%D0%BB%D0%B0%D0%BC%D1%8B/%D0%93%D1%80%D1%83%D0%B7%D0%BE%D0%B2%D0%B8%D0%BA1.png"
       height="532.9707"
       width="1046.3469" />
  </g>
</svg>
