<?xml version="1.0" encoding="UTF-8" standalone="no"?>
<!-- Created with Inkscape (http://www.inkscape.org/) -->

<svg
   xmlns:dc="http://purl.org/dc/elements/1.1/"
   xmlns:cc="http://creativecommons.org/ns#"
   xmlns:rdf="http://www.w3.org/1999/02/22-rdf-syntax-ns#"
   xmlns:svg="http://www.w3.org/2000/svg"
   xmlns="http://www.w3.org/2000/svg"
   xmlns:xlink="http://www.w3.org/1999/xlink"
   xmlns:sodipodi="http://sodipodi.sourceforge.net/DTD/sodipodi-0.dtd"
   xmlns:inkscape="http://www.inkscape.org/namespaces/inkscape"
   width="751.18109"
   height="357.87399"
   id="svg2"
   version="1.1"
   inkscape:version="0.48.3.1 r9886"
   sodipodi:docname="Maket А.svg"
   inkscape:export-filename="D:\GraphWork\WorkingProjects\My\Автоспецтехника\Maket F.png"
   inkscape:export-xdpi="300"
   inkscape:export-ydpi="300">
  <defs
     id="defs4">
    <linearGradient
       inkscape:collect="always"
       id="linearGradient3780">
      <stop
         style="stop-color:#ff0000;stop-opacity:1"
         offset="0"
         id="stop3782" />
      <stop
         style="stop-color:#ffff00;stop-opacity:1"
         offset="1"
         id="stop3784" />
    </linearGradient>
    <linearGradient
       inkscape:collect="always"
       xlink:href="#linearGradient3780"
       id="linearGradient3786"
       x1="184.4035"
       y1="250.00159"
       x2="184.4035"
       y2="358.60287"
       gradientUnits="userSpaceOnUse" />
    <filter
       id="filter3810"
       style="color-interpolation-filters:sRGB;"
       inkscape:label="Drop Shadow">
      <feFlood
         id="feFlood3812"
         flood-opacity="0.5"
         flood-color="rgb(0,0,0)"
         result="flood" />
      <feComposite
         id="feComposite3814"
         in2="SourceGraphic"
         in="flood"
         operator="in"
         result="composite1" />
      <feGaussianBlur
         id="feGaussianBlur3816"
         in="composite"
         stdDeviation="1.1"
         result="blur" />
      <feOffset
         id="feOffset3818"
         dx="1.3"
         dy="1.3"
         result="offset" />
      <feComposite
         id="feComposite3820"
         in2="offset"
         in="SourceGraphic"
         operator="over"
         result="composite2" />
    </filter>
    <filter
       id="filter3837"
       style="color-interpolation-filters:sRGB;"
       inkscape:label="Drop Shadow">
      <feFlood
         id="feFlood3839"
         flood-opacity="0.5"
         flood-color="rgb(0,0,0)"
         result="flood" />
      <feComposite
         id="feComposite3841"
         in2="SourceGraphic"
         in="flood"
         operator="in"
         result="composite1" />
      <feGaussianBlur
         id="feGaussianBlur3843"
         in="composite"
         stdDeviation="1.1"
         result="blur" />
      <feOffset
         id="feOffset3845"
         dx="1.3"
         dy="1.3"
         result="offset" />
      <feComposite
         id="feComposite3847"
         in2="offset"
         in="SourceGraphic"
         operator="over"
         result="composite2" />
    </filter>
  </defs>
  <sodipodi:namedview
     id="base"
     pagecolor="#ffffff"
     bordercolor="#666666"
     borderopacity="1.0"
     inkscape:pageopacity="0.0"
     inkscape:pageshadow="2"
     inkscape:zoom="2.7439826"
     inkscape:cx="688.3598"
     inkscape:cy="66.130792"
     inkscape:document-units="px"
     inkscape:current-layer="layer1"
     showgrid="false"
     units="mm"
     showguides="true"
     inkscape:guide-bbox="true"
     inkscape:window-width="1280"
     inkscape:window-height="977"
     inkscape:window-x="-4"
     inkscape:window-y="-4"
     inkscape:window-maximized="1"
     inkscape:snap-global="false"
     inkscape:showpageshadow="false">
    <sodipodi:guide
       orientation="0,1"
       position="-126.0941,342.56777"
       id="guide3871" />
    <sodipodi:guide
       orientation="0,1"
       position="-115.16108,15.30622"
       id="guide3873" />
    <sodipodi:guide
       orientation="1,0"
       position="14.577352,361.51833"
       id="guide3875" />
    <sodipodi:guide
       orientation="1,0"
       position="360.0606,365.16267"
       id="guide3877" />
    <sodipodi:guide
       orientation="1,0"
       position="391.4019,342.56777"
       id="guide3775" />
    <sodipodi:guide
       orientation="1,0"
       position="737.61401,342.56777"
       id="guide3777" />
    <sodipodi:guide
       orientation="1,0"
       position="376.09568,245.62838"
       id="guide3434" />
    <sodipodi:guide
       orientation="0,1"
       position="134.11164,108.60127"
       id="guide4373" />
    <sodipodi:guide
       orientation="0,1"
       position="612.24878,178.57256"
       id="guide4379" />
    <sodipodi:guide
       orientation="1,0"
       position="561.22805,162.53747"
       id="guide4381" />
    <sodipodi:guide
       orientation="0,1"
       position="619.53746,88.192979"
       id="guide4385" />
    <sodipodi:guide
       orientation="1,0"
       position="651.60763,161.07974"
       id="guide4389" />
    <sodipodi:guide
       orientation="1,0"
       position="3.5433071,205.54066"
       id="guide3013" />
    <sodipodi:guide
       orientation="0,1"
       position="104.95693,3.5433071"
       id="guide3015" />
    <sodipodi:guide
       orientation="1,0"
       position="747.6378,94.752787"
       id="guide3017" />
    <sodipodi:guide
       orientation="0,1"
       position="427.11641,354.33071"
       id="guide3019" />
    <sodipodi:guide
       orientation="1,0"
       position="0,273.32535"
       id="guide3250" />
    <sodipodi:guide
       orientation="0,1"
       position="104.22807,357.87399"
       id="guide3252" />
    <sodipodi:guide
       orientation="0,1"
       position="147.23125,0"
       id="guide3254" />
    <sodipodi:guide
       orientation="1,0"
       position="751.46249,-16.763955"
       id="guide3256" />
    <sodipodi:guide
       orientation="0,1"
       position="755.8357,30.612439"
       id="guide3799" />
  </sodipodi:namedview>
  <metadata
     id="metadata7">
    <rdf:RDF>
      <cc:Work
         rdf:about="">
        <dc:format>image/svg+xml</dc:format>
        <dc:type
           rdf:resource="http://purl.org/dc/dcmitype/StillImage" />
        <dc:title />
      </cc:Work>
    </rdf:RDF>
  </metadata>
  <g
     inkscape:label="Layer 1"
     inkscape:groupmode="layer"
     id="layer1"
     transform="translate(0,-694.48818)">
    <rect
       y="694.41632"
       x="0.77144223"
       height="357.96689"
       width="750.92065"
       id="rect3863"
       style="fill:#ffffff;fill-opacity:1;stroke:none" />
    <rect
       style="fill:#b0ffab;fill-opacity:1;stroke:#000000;stroke-width:0.20313475;stroke-miterlimit:4;stroke-opacity:1;stroke-dasharray:none"
       id="rect3007"
       width="190.07977"
       height="88.579544"
       x="561.21997"
       y="964.17078"
       inkscape:export-filename="D:\GraphWork\WorkingProjects\My\Автоспецтехника\Maket.png"
       inkscape:export-xdpi="300"
       inkscape:export-ydpi="300" />
    <text
       xml:space="preserve"
       style="font-size:11.29210758px;font-style:normal;font-variant:normal;font-weight:normal;font-stretch:normal;text-align:start;line-height:125%;letter-spacing:0px;word-spacing:0px;writing-mode:lr-tb;text-anchor:start;fill:#000000;fill-opacity:1;stroke:none;font-family:Sans;-inkscape-font-specification:Sans"
       x="532.92175"
       y="1047.0251"
       id="text3777"
       sodipodi:linespacing="125%"
       transform="scale(1.0626892,0.94100891)"><tspan
         sodipodi:role="line"
         x="532.92175"
         y="1047.0251"
         id="tspan3781">Манипулятора</tspan><tspan
         sodipodi:role="line"
         x="532.92175"
         y="1061.1403"
         id="tspan3783">Автовышки</tspan><tspan
         sodipodi:role="line"
         x="532.92175"
         y="1075.2554"
         id="tspan3785">Автокрана</tspan><tspan
         sodipodi:role="line"
         x="532.92175"
         y="1089.3706"
         id="tspan3035">и другой техники</tspan></text>
    <text
       xml:space="preserve"
       style="font-size:11.29210758px;font-style:normal;font-variant:normal;font-weight:normal;font-stretch:normal;text-align:start;line-height:125%;letter-spacing:0px;word-spacing:0px;writing-mode:lr-tb;text-anchor:start;fill:#000000;fill-opacity:1;stroke:none;font-family:Sans;-inkscape-font-specification:Sans"
       x="624.14258"
       y="1046.7853"
       id="text3787"
       sodipodi:linespacing="125%"
       transform="scale(1.0626892,0.94100891)"><tspan
         sodipodi:role="line"
         id="tspan3789"
         x="624.14258"
         y="1046.7853">Экскаватора</tspan><tspan
         sodipodi:role="line"
         x="624.14258"
         y="1060.9004"
         id="tspan3791">Бортовых</tspan><tspan
         sodipodi:role="line"
         x="624.14258"
         y="1075.0155"
         id="tspan3793">Самосвала</tspan></text>
    <path
       style="font-size:12px;font-style:normal;font-variant:normal;font-weight:bold;font-stretch:normal;text-align:start;line-height:125%;letter-spacing:0px;word-spacing:0px;writing-mode:lr-tb;text-anchor:start;fill:#ffffff;fill-opacity:1;stroke:none;filter:url(#filter3837);font-family:Sans;-inkscape-font-specification:Sans Bold"
       d="m 613.90625,1028.062 a 1.0001,1.0001 0 0 0 -0.71875,0.4374 c -0.55881,0.8001 -1.04051,1.6724 -1.40625,2.625 -0.42972,1.1199 -0.65625,2.3113 -0.65625,3.5626 0,1.0245 0.19167,2.0681 0.53125,3.125 0.3436,1.0694 0.82684,2.0932 1.46875,3.0624 a 1.0001,1.0001 0 0 0 0.84375,0.4376 l 1.125,0 A 1.0001,1.0001 0 0 0 616,1039.9057 c -0.33563,-0.7285 -0.5708,-1.2849 -0.6875,-1.625 -0.18392,-0.5379 -0.29233,-1.1389 -0.40625,-1.7813 -0.11108,-0.6264 -0.1875,-1.2117 -0.1875,-1.7812 0,-0.8723 0.0734,-1.6774 0.25,-2.4062 0.0387,-0.1596 0.19289,-0.4435 0.25,-0.625 -0.0984,0.5721 -0.1875,1.1615 -0.1875,1.8437 0,1.7448 0.19019,3.0848 0.96875,4.0625 0.67937,0.8531 1.71656,1.3436 2.8125,1.3438 1.06353,-2e-4 2.07538,-0.4391 2.71875,-1.25 0.27781,-0.3512 0.43387,-0.8062 0.59375,-1.25 0.21736,0.5783 0.37991,1.1987 0.84375,1.5937 0.68739,0.5854 1.60715,0.9061 2.59375,0.9063 1.25982,-2e-4 2.42878,-0.5757 3.15625,-1.5626 0.15517,-0.2098 0.1101,-0.488 0.21875,-0.7187 0.13602,0.3212 0.22758,0.6739 0.4375,0.9375 0.66701,0.8376 1.68531,1.3436 2.78125,1.3438 1.06353,-2e-4 2.09306,-0.422 2.75,-1.25 0.79135,-1.0003 1.06249,-2.3847 1.0625,-4.125 0,-0.8026 -0.049,-1.51 -0.1875,-2.1563 0.0893,0.2646 0.25937,0.6536 0.3125,0.875 0.17562,0.7317 0.25,1.5666 0.25,2.4375 0,0.4456 -0.017,0.8562 -0.0625,1.2188 -0.05,0.3982 -0.11272,0.8278 -0.21875,1.2812 -0.10457,0.447 -0.22354,0.8203 -0.34375,1.1562 -0.1104,0.3085 -0.33715,0.8156 -0.65625,1.5 a 1.0001,1.0001 0 0 0 0.90625,1.4376 l 1.125,0 a 1.0001,1.0001 0 0 0 0.84375,-0.4376 c 0.72311,-1.0973 1.24006,-2.2227 1.5625,-3.375 0.27427,-0.9931 0.4375,-1.9686 0.4375,-2.9062 0,-1.0883 -0.20311,-2.1502 -0.5625,-3.1875 -0.35842,-1.0345 -0.86263,-1.9988 -1.5,-2.9063 a 1.0001,1.0001 0 0 0 -0.8125,-0.4374 l -1.125,0 a 1.0001,1.0001 0 0 0 -0.90625,1.4062 c 0.21567,0.477 0.27763,0.7529 0.4375,1.1562 -0.15715,-0.4167 -0.29884,-0.8556 -0.5625,-1.1874 -0.6493,-0.8226 -1.66758,-1.2813 -2.75,-1.2813 -1.06367,0 -2.07542,0.4391 -2.71875,1.25 -0.14635,0.185 -0.2004,0.4456 -0.3125,0.6563 l 0,-0.75 a 1.0001,1.0001 0 0 0 -1,-1 l -4.34375,0 a 1.0001,1.0001 0 0 0 -0.96875,0.8124 l -0.4375,2.25 c -0.16352,-0.7465 -0.42212,-1.4067 -0.84375,-1.9374 -0.63591,-0.8056 -1.63633,-1.2813 -2.71875,-1.2813 -1.06367,0 -2.07542,0.4391 -2.71875,1.25 -0.0901,0.1138 -0.11063,0.2826 -0.1875,0.4063 0.0585,-0.1335 0.0619,-0.2041 0.125,-0.3438 a 1.0001,1.0001 0 0 0 -0.90625,-1.4062 l -1.125,0 a 1.0001,1.0001 0 0 0 -0.0937,0 z m 49.5,0.094 c -1.0333,0 -2.0171,0.4022 -2.71875,1.125 -0.71347,0.735 -1.03125,1.7323 -1.03125,2.7813 0,0.2703 0.08,0.5208 0.125,0.7812 l -2.84375,0 a 1.0001,1.0001 0 0 0 -0.5625,0.1875 c -0.1551,-0.3066 -0.29027,-0.6229 -0.53125,-0.875 -0.12447,-0.1302 -0.29653,-0.2028 -0.4375,-0.3125 l 0.0937,0 a 1.0001,1.0001 0 0 0 1,-1 l 0,-1.5312 a 1.0001,1.0001 0 0 0 -1,-1 l -4.34375,0 a 1.0001,1.0001 0 0 0 -0.96875,0.8124 l -0.6875,3.5938 c -0.12102,-0.1838 -0.19172,-0.4034 -0.34375,-0.5625 -0.12561,-0.1314 -0.29448,-0.2011 -0.4375,-0.3125 l 0.0937,0 a 1.0001,1.0001 0 0 0 1,-1 l 0,-1.5312 a 1.0001,1.0001 0 0 0 -1,-1 l -4.34375,0 a 1.0001,1.0001 0 0 0 -0.96875,0.8124 l -0.84375,4.4688 a 1.0001,1.0001 0 0 0 0.40625,1.0312 1.0001,1.0001 0 0 0 -0.625,1.0626 c 0.1221,0.8985 0.51986,1.7485 1.21875,2.3437 0.68739,0.5854 1.60715,0.9061 2.59375,0.9063 1.25982,-2e-4 2.42878,-0.5757 3.15625,-1.5626 0.14445,-0.1953 0.10991,-0.4707 0.21875,-0.6874 0.21838,0.4704 0.32678,1.0099 0.71875,1.3437 0.68739,0.5854 1.60715,0.9061 2.59375,0.9063 1.25982,-2e-4 2.42878,-0.5757 3.15625,-1.5626 0.22255,-0.3009 0.1851,-0.6901 0.3125,-1.0312 a 1.0001,1.0001 0 0 0 0.53125,0.1562 l 3.15625,0 c 0.18512,0.6142 0.36746,1.2452 0.84375,1.6563 0.61765,0.5331 1.437,0.7811 2.28125,0.7813 1.17339,-2e-4 2.30516,-0.4703 3.0625,-1.375 0.20972,-0.2506 0.29336,-0.606 0.4375,-0.9063 0.20711,0.5106 0.48392,0.9747 0.90625,1.3437 0.69332,0.6061 1.61047,0.9374 2.59375,0.9376 1.04877,-2e-4 2.02514,-0.3946 2.75,-1.0938 0.42013,-0.4052 0.6889,-0.9001 0.875,-1.4375 a 1.0001,1.0001 0 0 0 0.4375,0.094 l 3.25,0 a 1.0001,1.0001 0 0 0 0.0937,0 c 0.14552,0.3845 0.25597,0.7874 0.5,1.0938 0.66701,0.8376 1.68531,1.3436 2.78125,1.3438 1.06353,-2e-4 2.09306,-0.422 2.75,-1.25 0.28616,-0.3618 0.46361,-0.8212 0.625,-1.2813 0.14964,0.4229 0.26728,0.856 0.53125,1.1875 0.66701,0.8376 1.68531,1.3436 2.78125,1.3438 1.06353,-2e-4 2.07538,-0.4391 2.71875,-1.25 0.29183,-0.3689 0.46269,-0.8414 0.625,-1.3126 0.14493,0.4278 0.26121,0.8797 0.53125,1.2188 0.67937,0.8531 1.71656,1.3436 2.8125,1.3438 1.06353,-2e-4 2.07538,-0.4391 2.71875,-1.25 0.79135,-1.0003 1.06249,-2.3847 1.0625,-4.125 -1e-5,-1.7457 -0.27151,-3.1294 -1.0625,-4.125 -0.63591,-0.8056 -1.63633,-1.2813 -2.71875,-1.2813 -1.06367,0 -2.07542,0.4391 -2.71875,1.25 -0.29269,0.3699 -0.46273,0.8405 -0.625,1.3125 -0.15607,-0.4595 -0.30442,-0.9171 -0.59375,-1.2812 -0.6493,-0.8226 -1.66758,-1.2813 -2.75,-1.2813 -1.06367,0 -2.07542,0.4391 -2.71875,1.25 -0.29269,0.3699 -0.46273,0.8405 -0.625,1.3125 -0.16114,-0.4546 -0.3104,-0.9246 -0.59375,-1.2812 -0.6493,-0.8226 -1.66758,-1.2813 -2.75,-1.2813 -1.06367,0 -2.07542,0.4391 -2.71875,1.25 -0.6773,0.856 -0.92866,2.0464 -1,3.4375 l -2.90625,0 a 1.0001,1.0001 0 0 0 -0.84375,0.4375 c -0.006,-0.01 0.006,-0.023 0,-0.031 -0.0922,-0.1148 -0.26666,-0.1191 -0.375,-0.2187 0.38544,-0.4883 0.65624,-1.0248 0.65625,-1.6563 -2e-5,-0.8106 -0.36716,-1.5598 -0.90625,-2.125 -0.67066,-0.7083 -1.62868,-1.0937 -2.65625,-1.0937 -0.61864,0 -1.21264,0.1387 -1.71875,0.375 -0.51018,0.238 -0.93535,0.6036 -1.25,1.0625 -0.17813,0.2599 -0.25404,0.6381 -0.375,0.9688 -0.15247,-0.3591 -0.25841,-0.7399 -0.5,-1.0313 -0.71761,-0.8656 -1.78551,-1.375 -2.90625,-1.375 z m -0.0625,3.4063 c 0.003,0 -0.0225,-0.033 0.0312,0.031 0.0741,0.089 0.15625,0.2267 0.15625,0.5938 0,0.3525 -0.0881,0.4982 -0.0625,0.4687 -0.0464,0.053 -0.009,0.031 -0.0625,0.031 -0.0305,0 0.0187,0.034 -0.0625,-0.063 -0.0104,-0.012 -0.0937,-0.1581 -0.0937,-0.5624 0,-0.3878 0.1102,-0.5144 0.0937,-0.5 z M 628.5,1031.7494 a 1.0001,1.0001 0 0 0 0.0312,0 c -0.0239,0.146 -0.0144,0.3157 -0.0312,0.4688 -0.016,-0.017 -0.0149,-0.045 -0.0312,-0.062 -0.12447,-0.1302 -0.29653,-0.2028 -0.4375,-0.3125 l 0.0937,0 a 1.0001,1.0001 0 0 0 0.375,-0.094 z m 38.75,0.625 a 1.0001,1.0001 0 0 0 0.0937,0.031 l 1.3125,0.2187 -0.15625,1.1563 a 1.0001,1.0001 0 0 0 0.0937,0.5625 l -1.3125,0.1562 c 0.03,-0.3392 0.0937,-0.6291 0.0937,-1 0,-0.4165 -0.0869,-0.7491 -0.125,-1.125 z m -35.0625,0.1563 c 0.0292,0.3271 0.0625,0.488 0.0625,1.0313 0,0.5276 -0.0594,0.7051 -0.0937,1.0312 -0.0295,-0.318 -0.0625,-0.4787 -0.0625,-1.0312 0,-0.5191 0.06,-0.6978 0.0937,-1.0313 z m 48.75,0 c 0.0292,0.3271 0.0625,0.488 0.0625,1.0313 0,0.5276 -0.0594,0.7051 -0.0937,1.0312 -0.0295,-0.318 -0.0625,-0.4787 -0.0625,-1.0312 0,-0.5191 0.06,-0.6978 0.0937,-1.0313 z m -62.125,0.094 c 0.0257,0.3189 0.0625,0.4435 0.0625,0.9376 0,0.4734 -0.0405,0.5938 -0.0625,0.9062 -0.0246,-0.3075 -0.0625,-0.4204 -0.0625,-0.9062 0,-0.4818 0.0396,-0.6143 0.0625,-0.9376 z m 68.78125,0.094 c 0.022,0.3057 0.0625,0.3989 0.0625,0.8438 0,0.4734 -0.0405,0.5938 -0.0625,0.9062 -0.0246,-0.3075 -0.0625,-0.4204 -0.0625,-0.9062 0,-0.4242 0.038,-0.5408 0.0625,-0.8438 z m -62.0625,1.625 c 0.128,0 0.13314,0 0.1875,0.062 0.004,0 0.0937,0.1396 0.0937,0.5313 0,0.4374 -0.0732,0.5695 -0.0937,0.5937 -0.0967,0.1133 -0.0884,0.094 -0.125,0.094 -0.0191,10e-5 -0.0483,0.01 -0.125,-0.062 -0.0451,-0.043 -0.0674,-0.073 -0.0937,-0.2813 a 1.0001,1.0001 0 0 0 -0.34375,-0.6563 c 0.24716,-0.2755 0.3193,-0.2812 0.5,-0.2812 z m 20.6875,0 c 0.128,0 0.13314,0 0.1875,0.062 0.004,0 0.0937,0.1396 0.0937,0.5313 0,0.4374 -0.0732,0.5695 -0.0937,0.5937 -0.0967,0.1133 -0.0884,0.094 -0.125,0.094 -0.0191,10e-5 -0.0483,0.01 -0.125,-0.062 -0.0451,-0.043 -0.0674,-0.073 -0.0937,-0.2813 a 1.0001,1.0001 0 0 0 -0.34375,-0.6563 c 0.24716,-0.2755 0.3193,-0.2812 0.5,-0.2812 z m 6.6875,0 c 0.128,0 0.13314,0 0.1875,0.062 0.004,0 0.0937,0.1396 0.0937,0.5313 0,0.4374 -0.0732,0.5695 -0.0937,0.5937 -0.0967,0.1133 -0.0884,0.094 -0.125,0.094 -0.0191,10e-5 -0.0483,0.01 -0.125,-0.062 -0.0451,-0.043 -0.0674,-0.073 -0.0937,-0.2813 a 1.0001,1.0001 0 0 0 -0.34375,-0.6563 c 0.24716,-0.2755 0.3193,-0.2812 0.5,-0.2812 z m 17.34375,0.4375 c 0.0439,0 -0.0113,-0.018 0.0625,0.062 0.0549,0.06 0.0937,0.062 0.0937,0.2812 0,0.268 -0.0709,0.381 -0.0937,0.4063 -0.0741,0.082 0.0162,0.031 -0.0937,0.031 -0.11056,0 -0.0878,0 -0.125,-0.031 -0.0125,-0.012 -0.0617,-0.087 -0.0937,-0.3437 a 1.0001,1.0001 0 0 0 -0.125,-0.3438 c 0.16601,-0.039 0.31535,-0.062 0.375,-0.062 z"
       id="path3834"
       inkscape:connector-curvature="0" />
    <text
       xml:space="preserve"
       style="font-size:12px;font-style:normal;font-variant:normal;font-weight:bold;font-stretch:normal;text-align:start;line-height:125%;letter-spacing:0px;word-spacing:0px;writing-mode:lr-tb;text-anchor:start;fill:#ff0000;fill-opacity:1;stroke:none;font-family:Sans;-inkscape-font-specification:Sans Bold"
       x="611.51013"
       y="1037.7842"
       id="text3795"
       sodipodi:linespacing="125%"><tspan
         sodipodi:role="line"
         id="tspan3797"
         x="611.51013"
         y="1037.7842">(050) 55-93-000</tspan></text>
    <path
       style="font-size:16.17376708999999800px;font-style:normal;font-variant:normal;font-weight:bold;font-stretch:normal;text-align:start;line-height:125%;letter-spacing:0px;word-spacing:0px;writing-mode:lr-tb;text-anchor:start;fill:#ffffff;fill-opacity:1;stroke:none;font-family:BankGothic RUSS;-inkscape-font-specification:BankGothic RUSS Bold;filter:url(#filter3810)"
       d="m 622.0625,965.59375 a 1.0001,1.0001 0 0 0 -0.90625,1 l 0,3.53125 c 0,0.86572 0.13995,1.59814 0.6875,2.1875 a 1.0001,1.0001 0 0 0 -0.6875,0.9375 l 0,1.84375 a 1.0001,1.0001 0 0 0 1,1 l 2.21875,0 2.5,0 2.65625,0 c 0.94595,0 1.80942,-0.13753 2.46875,-0.75 a 1.0001,1.0001 0 0 0 0.0312,0 c 0.61728,-0.618 0.71874,-1.42826 0.71875,-2.34375 l 0,-6.40625 a 1.0001,1.0001 0 0 0 -1,-1 l -2.25,0 a 1.0001,1.0001 0 0 0 -1,1 l 0,2.90625 -3.09375,0 0,-2.90625 a 1.0001,1.0001 0 0 0 -1,-1 l -2.25,0 a 1.0001,1.0001 0 0 0 -0.0937,0 z m 14.40625,0 c -0.96227,10e-6 -1.80151,0.14708 -2.4375,0.75 a 1.0001,1.0001 0 0 0 -0.0312,0 c -0.5961,0.5961 -0.75,1.42365 -0.75,2.34375 l 0,4.3125 c 0,0.91299 0.10099,1.72527 0.71875,2.34375 a 1.0001,1.0001 0 0 0 0.0312,0 c 0.65795,0.61166 1.52029,0.75 2.46875,0.75 l 4.875,0 c 0.90415,0 1.7279,-0.14163 2.375,-0.6875 a 1.0001,1.0001 0 0 0 0.9375,0.6875 l 2.1875,0 a 1.0001,1.0001 0 0 0 0.875,-0.53125 l 2.1875,-4.25 2.3125,4.25 a 1.0001,1.0001 0 0 0 0.875,0.53125 l 2.4375,0 a 1.0001,1.0001 0 0 0 0.75,-0.34375 1.0001,1.0001 0 0 0 0.75,0.34375 l 2.21875,0 2.5,0 2.65625,0 c 0.94595,0 1.80942,-0.13753 2.46875,-0.75 a 1.0001,1.0001 0 0 0 0.0312,0 c 0.64324,-0.64398 0.68749,-1.45481 0.6875,-2.34375 l 0,-6.40625 a 1.0001,1.0001 0 0 0 -1,-1 l -2.21875,0 a 1.0001,1.0001 0 0 0 -1,1 l 0,2.90625 -3.09375,0 0,-2.90625 a 1.0001,1.0001 0 0 0 -1,-1 l -2.25,0 a 1.0001,1.0001 0 0 0 -1,1 l 0,3.53125 c 0,0.86572 0.13995,1.59814 0.6875,2.1875 a 1.0001,1.0001 0 0 0 -0.6875,0.9375 l 0,0.6875 -4.40625,-7.84375 a 1.0001,1.0001 0 0 0 -0.875,-0.5 l -1.53125,0 a 1.0001,1.0001 0 0 0 -0.875,0.53125 l -3.8125,7.09375 c 0.002,-0.0765 0.0312,-0.14064 0.0312,-0.21875 l 0,-1.09375 A 1.0001,1.0001 0 0 0 643.75,970.9375 l -1.03125,-0.1875 1,-0.15625 a 1.0001,1.0001 0 0 0 0.84375,-1 l 0,-0.90625 c -10e-6,-0.91903 -0.15181,-1.74617 -0.75,-2.34375 a 1.0001,1.0001 0 0 0 -0.0312,0 c -0.63768,-0.60472 -1.47876,-0.74999 -2.4375,-0.75 l -4.875,0 z m 32.34375,0 a 1.0001,1.0001 0 0 0 -0.90625,1 l 0,8.5 a 1.0001,1.0001 0 0 0 1,1 l 2.25,0 a 1.0001,1.0001 0 0 0 1,-1 l 0,-5.75 3.59375,0 a 1.0001,1.0001 0 0 0 0.875,-0.53125 l 0.9375,-1.6875 0,7.96875 a 1.0001,1.0001 0 0 0 1,1 l 1.53125,0 A 1.0001,1.0001 0 0 0 680.75,975.875 l 4.71875,-3.96875 0,3.1875 a 1.0001,1.0001 0 0 0 1,1 l 2.0625,0 a 1.0001,1.0001 0 0 0 1,-1 l 0,-8.5 a 1.0001,1.0001 0 0 0 -1,-1 l -1.53125,0 a 1.0001,1.0001 0 0 0 -0.625,0.21875 l -4.75,3.96875 0,-3.1875 a 1.0001,1.0001 0 0 0 -1,-1 l -2.0625,0 a 1.0001,1.0001 0 0 0 -0.9375,0.59375 1.0001,1.0001 0 0 0 -0.90625,-0.59375 l -7.8125,0 a 1.0001,1.0001 0 0 0 -0.0937,0 z M 637.5,969.375 l 2.8125,0 0,0.5625 a 1.0001,1.0001 0 0 0 0.375,0.78125 1.0001,1.0001 0 0 0 -0.375,0.78125 l 0,0.75 -2.8125,0 0,-2.875 z"
       id="path3807" />
    <text
       xml:space="preserve"
       style="font-size:16.17376709px;font-style:normal;font-variant:normal;font-weight:bold;font-stretch:normal;text-align:start;line-height:125%;letter-spacing:0px;word-spacing:0px;writing-mode:lr-tb;text-anchor:start;fill:#ff0000;fill-opacity:1;stroke:none;font-family:BankGothic RUSS;-inkscape-font-specification:BankGothic RUSS Bold"
       x="620.58954"
       y="975.10217"
       id="text3803"
       sodipodi:linespacing="125%"><tspan
         sodipodi:role="line"
         id="tspan3805"
         x="620.58954"
         y="975.10217">УСЛУГИ</tspan></text>
  </g>
</svg>
