<?xml version="1.0" encoding="UTF-8" standalone="no"?>
<!-- Created with Inkscape (http://www.inkscape.org/) -->

<svg
   xmlns:dc="http://purl.org/dc/elements/1.1/"
   xmlns:cc="http://creativecommons.org/ns#"
   xmlns:rdf="http://www.w3.org/1999/02/22-rdf-syntax-ns#"
   xmlns:svg="http://www.w3.org/2000/svg"
   xmlns="http://www.w3.org/2000/svg"
   xmlns:sodipodi="http://sodipodi.sourceforge.net/DTD/sodipodi-0.dtd"
   xmlns:inkscape="http://www.inkscape.org/namespaces/inkscape"
   width="1052.3622"
   height="1488.189"
   id="svg2"
   version="1.1"
   inkscape:version="0.48.3.1 r9886"
   sodipodi:docname="Вывеска.svg"
   inkscape:export-filename="D:\GraphWork\WorkingProjects\My\Юридические услуги\Вывеска\Вывеска1.png"
   inkscape:export-xdpi="72.027145"
   inkscape:export-ydpi="72.027145">
  <defs
     id="defs4">
    <filter
       id="filter3345"
       style="color-interpolation-filters:sRGB;"
       inkscape:label="Drop Shadow">
      <feFlood
         id="feFlood3347"
         flood-opacity="0.5"
         flood-color="rgb(0,0,0)"
         result="flood" />
      <feComposite
         id="feComposite3349"
         in2="SourceGraphic"
         in="flood"
         operator="in"
         result="composite1" />
      <feGaussianBlur
         id="feGaussianBlur3351"
         in="composite"
         stdDeviation="2"
         result="blur" />
      <feOffset
         id="feOffset3353"
         dx="5"
         dy="5"
         result="offset" />
      <feComposite
         id="feComposite3355"
         in2="offset"
         in="SourceGraphic"
         operator="over"
         result="composite2" />
    </filter>
    <filter
       id="filter3357"
       style="color-interpolation-filters:sRGB;"
       inkscape:label="Drop Shadow">
      <feFlood
         id="feFlood3359"
         flood-opacity="0.5"
         flood-color="rgb(0,0,0)"
         result="flood" />
      <feComposite
         id="feComposite3361"
         in2="SourceGraphic"
         in="flood"
         operator="in"
         result="composite1" />
      <feGaussianBlur
         id="feGaussianBlur3363"
         in="composite"
         stdDeviation="2"
         result="blur" />
      <feOffset
         id="feOffset3365"
         dx="5"
         dy="5"
         result="offset" />
      <feComposite
         id="feComposite3367"
         in2="offset"
         in="SourceGraphic"
         operator="over"
         result="composite2" />
    </filter>
  </defs>
  <sodipodi:namedview
     id="base"
     pagecolor="#ffffff"
     bordercolor="#666666"
     borderopacity="1.0"
     inkscape:pageopacity="0.0"
     inkscape:pageshadow="2"
     inkscape:zoom="0.7"
     inkscape:cx="626.40447"
     inkscape:cy="862.85711"
     inkscape:document-units="px"
     inkscape:current-layer="layer1"
     showgrid="false"
     units="mm"
     inkscape:showpageshadow="false"
     inkscape:window-width="1366"
     inkscape:window-height="723"
     inkscape:window-x="-4"
     inkscape:window-y="-4"
     inkscape:window-maximized="1" />
  <metadata
     id="metadata7">
    <rdf:RDF>
      <cc:Work
         rdf:about="">
        <dc:format>image/svg+xml</dc:format>
        <dc:type
           rdf:resource="http://purl.org/dc/dcmitype/StillImage" />
        <dc:title></dc:title>
      </cc:Work>
    </rdf:RDF>
  </metadata>
  <g
     inkscape:label="Layer 1"
     inkscape:groupmode="layer"
     id="layer1"
     transform="translate(0,435.82675)">
    <rect
       style="fill:#0000ff;fill-opacity:1;stroke:#f2f600;stroke-width:14.74306107000000000;stroke-miterlimit:4;stroke-opacity:1;stroke-dasharray:none"
       id="rect3786"
       width="1472.3062"
       height="1037.2968"
       x="-1043.9794"
       y="7.5"
       transform="matrix(0,-1,1,0,0,0)" />
    <rect
       transform="matrix(0,-1,1,0,0,0)"
       y="45.794907"
       x="-1074.7877"
       height="1060"
       width="1491.4286"
       id="rect3788"
       style="opacity:0;fill:#ffffff;fill-opacity:1" />
    <path
       transform="translate(4,4)"
       style="font-size:127.52722168000000000px;font-style:normal;font-variant:normal;font-weight:bold;font-stretch:normal;text-align:start;line-height:125%;letter-spacing:0px;word-spacing:0px;writing-mode:lr-tb;text-anchor:start;fill:#999999;fill-opacity:1;stroke:none;font-family:BankGothic RUSS;-inkscape-font-specification:BankGothic RUSS Bold;filter:url(#filter3345)"
       d="m 40.09375,-395.65625 a 3.0003,3.0003 0 0 0 -2.6875,3 l 0,118.84375 a 3.0003,3.0003 0 0 0 3,3 l 9.5625,0 a 3.0003,3.0003 0 0 0 3,-3 l 0,-43.5625 0.375,0 0,14.28125 c -2.1e-5,11.00621 0.58378,18.73276 2.15625,23.78125 a 3.0003,3.0003 0 0 0 0.03125,0.0625 c 0.854437,2.49681 2.13544,4.63843 3.96875,6.15625 1.83331,1.51782 4.190838,2.28125 6.625,2.28125 l 26.8125,0 c 2.500867,0 4.936407,-0.86079 6.78125,-2.5 1.82882,-1.62497 3.05364,-3.88057 3.90625,-6.53125 l 0.0312,0 c 0.006,-0.0169 -0.006,-0.0455 0,-0.0625 1.55453,-4.66858 2.09368,-12.10337 2.09375,-23.1875 l 0,-60.28125 c -7e-5,-11.03822 -0.6258,-18.72289 -2.28125,-23.6875 -0.007,-0.0232 -0.0239,-0.0394 -0.0312,-0.0625 -0.79477,-2.51459 -2.03122,-4.64894 -3.84375,-6.1875 -1.829186,-1.5527 -4.203314,-2.34367 -6.65625,-2.34375 l -26.8125,0 c -2.406385,8e-5 -4.740639,0.72935 -6.5625,2.1875 -1.821861,1.45815 -3.067317,3.50205 -3.875,5.90625 a 3.0003,3.0003 0 0 0 -0.03125,0.0625 c -1.648075,5.27918 -2.312521,13.16137 -2.3125,24.125 l 0,12.75 -0.375,0 0,-42.03125 a 3.0003,3.0003 0 0 0 -3,-3 l -9.5625,0 a 3.0003,3.0003 0 0 0 -0.3125,0 z m 70.375,0 a 3.0003,3.0003 0 0 0 -2.6875,3 l 0,118.84375 a 3.0003,3.0003 0 0 0 3,3 l 9.875,0 a 3.0003,3.0003 0 0 0 3,-3 l 0,-41.5625 19,0 c 2.15377,3e-5 4.28927,-0.74505 5.9375,-2.125 1.64823,-1.37995 2.81438,-3.26214 3.65625,-5.5 a 3.0003,3.0003 0 0 0 0,-0.0312 c 1.71562,-4.76103 2.43745,-11.24449 2.4375,-19.71875 l 0,-25.5 c -5e-5,-8.64598 -0.63971,-15.01989 -2.28125,-19.53125 a 3.0003,3.0003 0 0 0 -0.0312,-0.0937 c -0.9156,-2.27921 -2.09885,-4.18846 -3.75,-5.59375 -1.65115,-1.40529 -3.80149,-2.18741 -5.96875,-2.1875 l -31.875,0 a 3.0003,3.0003 0 0 0 -0.3125,0 z m 51.21875,0 a 3.0003,3.0003 0 0 0 -2.6875,3 l 0,118.84375 a 3.0003,3.0003 0 0 0 3,3 l 6.84375,0 a 3.0003,3.0003 0 0 0 2.8125,-1.9375 l 22.53125,-59.59375 0,58.53125 a 3.0003,3.0003 0 0 0 3,3 l 9.1875,0 a 3.0003,3.0003 0 0 0 3,-3 l 0,-118.84375 a 3.0003,3.0003 0 0 0 -3,-3 l -6.875,0 a 3.0003,3.0003 0 0 0 -2.8125,1.9375 l -22.53125,59.34375 0,-58.28125 a 3.0003,3.0003 0 0 0 -3,-3 l -9.15625,0 a 3.0003,3.0003 0 0 0 -0.3125,0 z m 71.25,0 c -2.45172,8e-5 -4.85139,0.79341 -6.6875,2.34375 -1.83611,1.55034 -3.08346,3.70523 -3.9375,6.25 a 3.0003,3.0003 0 0 0 0,0.0625 c -1.57139,4.93359 -2.15626,12.57112 -2.15625,23.625 l 0,60.65625 -4.78125,0 a 3.0003,3.0003 0 0 0 -3,3 l 0,44.0625 a 3.0003,3.0003 0 0 0 3,3 l 9.3125,0 a 3.0003,3.0003 0 0 0 3,-3 l 0,-15.15625 37.3125,0 0,15.15625 a 3.0003,3.0003 0 0 0 3,3 l 8.875,0 a 3.0003,3.0003 0 0 0 3,-3 l 0,-44.0625 a 3.0003,3.0003 0 0 0 -3,-3 l -4.3125,0 0,-89.9375 a 3.0003,3.0003 0 0 0 -3,-3 l -9.8125,0 -26.8125,0 z m 52.53125,0 a 3.0003,3.0003 0 0 0 -2.6875,3 l 0,118.84375 a 3.0003,3.0003 0 0 0 3,3 l 6.84375,0 a 3.0003,3.0003 0 0 0 2.8125,-1.9375 l 22.53125,-59.59375 0,58.53125 a 3.0003,3.0003 0 0 0 3,3 l 9.15625,0 a 3.0003,3.0003 0 0 0 3,-3 l 0,-118.84375 a 3.0003,3.0003 0 0 0 -3,-3 l -6.84375,0 a 3.0003,3.0003 0 0 0 -2.8125,1.9375 l -22.53125,59.28125 0,-58.21875 a 3.0003,3.0003 0 0 0 -3,-3 l -9.15625,0 a 3.0003,3.0003 0 0 0 -0.3125,0 z m 54.15625,0 a 3.0003,3.0003 0 0 0 -2.6875,3 l 0,55.6875 c 0,11.10377 0.60815,18.76157 2.25,23.6875 0.006,0.0172 -0.006,0.0453 0,0.0625 l 0.0312,0 c 0.80493,2.4958 2.02562,4.63366 3.84375,6.15625 1.83489,1.53662 4.20583,2.31252 6.65625,2.3125 l 19.78125,0 0,30.9375 a 3.0003,3.0003 0 0 0 3,3 l 10.03125,0 a 3.0003,3.0003 0 0 0 3,-3 l 0,-118.84375 a 3.0003,3.0003 0 0 0 -3,-3 l -10.03125,0 a 3.0003,3.0003 0 0 0 -3,3 l 0,56.65625 -16.5625,0 0,-56.65625 a 3.0003,3.0003 0 0 0 -3,-3 l -10,0 a 3.0003,3.0003 0 0 0 -0.3125,0 z m 52.3125,0 a 3.0003,3.0003 0 0 0 -2.6875,3 l 0,118.84375 a 3.0003,3.0003 0 0 0 3,3 l 39.15625,0 a 3.0003,3.0003 0 0 0 3,-3 l 0,-25.90625 a 3.0003,3.0003 0 0 0 -3,-3 l -26.125,0 0,-18 13.78125,0 a 3.0003,3.0003 0 0 0 3,-3 l 0,-23.90625 a 3.0003,3.0003 0 0 0 -3,-3 l -13.78125,0 0,-15.0625 25.78125,0 a 3.0003,3.0003 0 0 0 3,-3 l 0,-23.96875 a 3.0003,3.0003 0 0 0 -3,-3 l -38.8125,0 a 3.0003,3.0003 0 0 0 -0.3125,0 z m 58.40625,0 c -2.44507,8e-5 -4.81696,0.80098 -6.65625,2.34375 -1.83929,1.54277 -3.11472,3.67416 -3.96875,6.21875 a 3.0003,3.0003 0 0 0 0,0.0625 c -1.5789,4.96261 -2.18751,12.63516 -2.1875,23.65625 l 0,60.28125 c -10e-6,11.07273 0.55237,18.59193 2.0625,23.34375 a 3.0003,3.0003 0 0 0 0,0.0625 c 0.89784,2.62339 2.18735,4.84058 4.03125,6.4375 1.8439,1.59692 4.24727,2.4375 6.71875,2.4375 l 21.71875,0 c 2.47151,0 4.87677,-0.86622 6.71875,-2.46875 1.84198,-1.60253 3.13027,-3.80674 4.03125,-6.4375 a 3.0003,3.0003 0 0 0 0,-0.0625 c 1.51314,-4.75597 2.06245,-12.26307 2.0625,-23.3125 l 0,-15.25 a 3.0003,3.0003 0 0 0 -1.46875,-2.5625 l -10.03125,-6 a 3.0003,3.0003 0 0 0 -4.53125,2.5625 l 0,21.625 -15.3125,0 0,-62.125 15.3125,0 0,18.78125 a 3.0003,3.0003 0 0 0 4.25,2.71875 l 10.03125,-4.5625 a 3.0003,3.0003 0 0 0 1.75,-2.71875 l 0,-12.75 c -5e-5,-10.99861 -0.61057,-18.64251 -2.1875,-23.59375 a 3.0003,3.0003 0 0 0 0,-0.0625 c -0.85751,-2.55585 -2.13367,-4.69412 -3.96875,-6.25 -1.83508,-1.55588 -4.20606,-2.37492 -6.65625,-2.375 l -21.71875,0 z m 40.3125,0 a 3.0003,3.0003 0 0 0 -2.6875,3 l 0,118.84375 a 3.0003,3.0003 0 0 0 3,3 l 10.09375,0 a 3.0003,3.0003 0 0 0 3,-3 l 0,-35.125 14.9375,36.28125 a 3.0003,3.0003 0 0 0 2.78125,1.84375 l 14.65625,0 a 3.0003,3.0003 0 0 0 2.75,-4.1875 l -26.5625,-61.53125 23.625,-54.9375 a 3.0003,3.0003 0 0 0 -2.75,-4.1875 l -13.34375,0 a 3.0003,3.0003 0 0 0 -2.78125,1.875 l -13.3125,33.25 0,-32.125 a 3.0003,3.0003 0 0 0 -3,-3 l -10.09375,0 a 3.0003,3.0003 0 0 0 -0.3125,0 z m 55.5625,0 a 3.0003,3.0003 0 0 0 -2.6875,3 l 0,118.84375 a 3.0003,3.0003 0 0 0 3,3 l 6.84375,0 a 3.0003,3.0003 0 0 0 2.8125,-1.9375 l 22.53125,-59.59375 0,58.53125 a 3.0003,3.0003 0 0 0 3,3 l 9.1875,0 a 3.0003,3.0003 0 0 0 3,-3 l 0,-118.84375 a 3.0003,3.0003 0 0 0 -3,-3 l -6.875,0 a 3.0003,3.0003 0 0 0 -2.8125,1.9375 l -22.5,59.28125 0,-58.21875 a 3.0003,3.0003 0 0 0 -3,-3 l -9.1875,0 a 3.0003,3.0003 0 0 0 -0.3125,0 z m 53.65625,0 a 3.0003,3.0003 0 0 0 -2.6875,3 l 0,118.84375 a 3.0003,3.0003 0 0 0 3,3 l 39.15625,0 a 3.0003,3.0003 0 0 0 3,-3 l 0,-25.90625 a 3.0003,3.0003 0 0 0 -3,-3 l -26.125,0 0,-18 13.78125,0 a 3.0003,3.0003 0 0 0 3,-3 l 0,-23.90625 a 3.0003,3.0003 0 0 0 -3,-3 l -13.78125,0 0,-15.0625 25.75,0 a 3.0003,3.0003 0 0 0 3,-3 l 0,-23.96875 a 3.0003,3.0003 0 0 0 -3,-3 l -38.78125,0 a 3.0003,3.0003 0 0 0 -0.3125,0 z m 109.96875,0 a 3.0003,3.0003 0 0 0 -2.6875,3 l 0,49.25 c -10e-6,11.09618 0.49997,18.45477 2.03125,23.03125 0.006,0.0192 0.0248,0.0434 0.0312,0.0625 0.85917,2.68313 2.0842,4.94258 3.90625,6.59375 1.83785,1.66549 4.30038,2.56253 6.8125,2.5625 l 19.78125,0 0,8.4375 -8,0 -21.5625,0 a 3.0003,3.0003 0 0 0 -3,3 l 0,25.90625 a 3.0003,3.0003 0 0 0 3,3 l 9.78125,0 11.15625,0 11.84375,0 c 2.47325,0 4.8772,-0.86579 6.71875,-2.46875 1.84155,-1.60296 3.13098,-3.80901 4.03125,-6.4375 a 3.0003,3.0003 0 0 0 0,-0.0625 c 1.5053,-4.73681 2.0312,-12.23023 2.03125,-23.3125 l 0,-89.5625 a 3.0003,3.0003 0 0 0 -3,-3 l -10,0 a 3.0003,3.0003 0 0 0 -3,3 l 0,51.34375 -16.5625,0 0,-51.34375 a 3.0003,3.0003 0 0 0 -3,-3 l -10,0 a 3.0003,3.0003 0 0 0 -0.3125,0 z m 63.90625,0 c -2.44507,8e-5 -4.81696,0.80098 -6.65625,2.34375 -1.83929,1.54277 -3.11472,3.67416 -3.96875,6.21875 a 3.0003,3.0003 0 0 0 0,0.0625 c -1.5789,4.96261 -2.18751,12.63516 -2.1875,23.65625 l 0,60.28125 c -10e-6,11.07273 0.55237,18.59193 2.0625,23.34375 a 3.0003,3.0003 0 0 0 0,0.0625 c 0.89784,2.62339 2.18735,4.84058 4.03125,6.4375 1.8439,1.59692 4.24727,2.4375 6.71875,2.4375 l 21.71875,0 c 2.47151,0 4.87677,-0.86622 6.71875,-2.46875 1.84198,-1.60253 3.13027,-3.80674 4.03125,-6.4375 a 3.0003,3.0003 0 0 0 0,-0.0625 c 1.51314,-4.75597 2.06245,-12.26307 2.0625,-23.3125 l 0,-15.25 a 3.0003,3.0003 0 0 0 -1.46875,-2.5625 l -10.03125,-6 a 3.0003,3.0003 0 0 0 -4.53125,2.5625 l 0,21.625 -15.28125,0 0,-62.125 15.28125,0 0,18.78125 a 3.0003,3.0003 0 0 0 4.25,2.71875 l 10.03125,-4.5625 a 3.0003,3.0003 0 0 0 1.75,-2.71875 l 0,-12.75 c -5e-5,-10.99861 -0.61057,-18.64251 -2.1875,-23.59375 a 3.0003,3.0003 0 0 0 0,-0.0625 c -0.85751,-2.55585 -2.13367,-4.69412 -3.96875,-6.25 -1.83508,-1.55588 -4.20606,-2.37492 -6.65625,-2.375 l -21.71875,0 z m 56.40625,0 a 3.0003,3.0003 0 0 0 -2.65625,2.5 l -20.3125,118.84375 a 3.0003,3.0003 0 0 0 2.96875,3.5 l 9.71875,0 a 3.0003,3.0003 0 0 0 2.96875,-2.5 L 833.5,-338.375 l 11.21875,65.0625 a 3.0003,3.0003 0 0 0 2.96875,2.5 l 10.90625,0 a 3.0003,3.0003 0 0 0 2.9375,-3.53125 l -21.3125,-118.84375 a 3.0003,3.0003 0 0 0 -2.9375,-2.46875 l -6.8125,0 a 3.0003,3.0003 0 0 0 -0.3125,0 z m 34.78125,0 a 3.0003,3.0003 0 0 0 -2.6875,3 l 0,49.25 c -10e-6,11.09618 0.49997,18.45477 2.03125,23.03125 0.006,0.0192 0.0248,0.0434 0.0312,0.0625 0.86114,2.68873 2.10756,4.94526 3.9375,6.59375 1.84581,1.66279 4.30038,2.56253 6.8125,2.5625 l 19.78125,0 0,8.4375 -8,0 -21.59375,0 a 3.0003,3.0003 0 0 0 -3,3 l 0,25.90625 a 3.0003,3.0003 0 0 0 3,3 l 9.8125,0 11.125,0 11.84375,0 c 2.47325,0 4.8772,-0.86579 6.71875,-2.46875 1.84155,-1.60296 3.13098,-3.80901 4.03125,-6.4375 a 3.0003,3.0003 0 0 0 0,-0.0625 c 1.50096,-4.72318 2.06245,-12.22453 2.0625,-23.3125 l 0,-89.5625 a 3.0003,3.0003 0 0 0 -3,-3 l -10,0 a 3.0003,3.0003 0 0 0 -3,3 l 0,51.34375 -16.59375,0 0,-51.34375 a 3.0003,3.0003 0 0 0 -3,-3 l -10,0 a 3.0003,3.0003 0 0 0 -0.3125,0 z m 52.8125,0 a 3.0003,3.0003 0 0 0 -2.6875,3 l 0,118.84375 a 3.0003,3.0003 0 0 0 3,3 l 10.03125,0 a 3.0003,3.0003 0 0 0 3,-3 l 0,-91.4375 17.46875,0 a 3.0003,3.0003 0 0 0 2.96875,-2.5 l 4.25,-24.40625 a 3.0003,3.0003 0 0 0 -2.96875,-3.5 l -34.75,0 a 3.0003,3.0003 0 0 0 -0.3125,0 z m 42.9375,0 a 3.0003,3.0003 0 0 0 -2.6875,3 l 0,118.84375 a 3.0003,3.0003 0 0 0 3,3 l 6.84375,0 a 3.0003,3.0003 0 0 0 2.8125,-1.9375 l 22.53125,-59.59375 0,58.53125 a 3.0003,3.0003 0 0 0 3,3 l 9.1563,0 a 3.0003,3.0003 0 0 0 3,-3 l 0,-118.84375 a 3.0003,3.0003 0 0 0 -3,-3 l -6.8438,0 a 3.0003,3.0003 0 0 0 -2.8125,1.9375 l -22.53125,59.28125 0,-58.21875 a 3.0003,3.0003 0 0 0 -3,-3 l -9.15625,0 a 3.0003,3.0003 0 0 0 -0.3125,0 z m -837.03125,30.1875 15.0625,0 c -0.0132,0.12526 0.21871,1.48698 0.21875,3.875 l 0,12.1875 c -3e-5,2.38817 -0.25628,3.71947 -0.25,3.875 l -15.03125,0 0,-19.9375 z m -54.3125,0.625 20.375,0 0,62.125 -20.375,0 0,-62.125 z m 166.8125,0 20.375,0 0,62.125 -20.375,0 0,-62.125 z"
       id="path3282" />
    <text
       xml:space="preserve"
       style="font-size:127.52722168px;font-style:normal;font-variant:normal;font-weight:bold;font-stretch:normal;text-align:start;line-height:125%;letter-spacing:0px;word-spacing:0px;writing-mode:lr-tb;text-anchor:start;fill:#ffff00;fill-opacity:1;stroke:none;font-family:BankGothic RUSS;-inkscape-font-specification:BankGothic RUSS Bold"
       x="63.49432"
       y="-154.4541"
       id="text3905"
       sodipodi:linespacing="125%"
       transform="scale(0.56406189,1.7728551)"><tspan
         sodipodi:role="line"
         id="tspan3907"
         x="63.49432"
         y="-154.4541">ЮРИДИЧЕСКИЕ УСЛУГИ</tspan></text>
    <g
       id="g3002"
       transform="translate(-52.739597,-317.74241)"
       style="filter:url(#filter3357)">
      <path
         id="path3004"
         d="m 94.996065,121.8189 49.748035,0 0,80.96457 -16.08662,0 0,-65.79922 -17.5748,0 0,65.79922 -16.086615,0 z"
         style="fill:#ffff00;fill-opacity:1;fill-rule:nonzero;stroke:none"
         inkscape:connector-curvature="0" />
      <path
         id="path3006"
         d="m 199.02756,172.84252 c 0,20.79922 -7.33464,31.21654 -21.9685,31.21654 -14.70473,0 -22.03937,-10.41732 -22.03937,-31.21654 0,-20.76378 7.33464,-31.14567 22.03937,-31.14567 14.63386,0 21.9685,10.38189 21.9685,31.14567 z m -15.59055,0 c 0,-7.65354 -0.46063,-12.79134 -1.41732,-15.48425 -0.95669,-2.69291 -2.62205,-4.03937 -4.96063,-4.03937 -2.30315,0 -3.93307,1.27559 -4.9252,3.82677 -0.99212,2.55118 -1.52362,7.75984 -1.52362,15.69685 0,7.29922 0.4252,12.40158 1.31102,15.23622 0.8504,2.87008 2.55118,4.2874 5.1378,4.2874 2.44488,0 4.14567,-1.41732 5.03149,-4.25196 0.88583,-2.83465 1.34646,-7.93701 1.34646,-15.27166 z"
         style="fill:#ffff00;fill-opacity:1;fill-rule:nonzero;stroke:none"
         inkscape:connector-curvature="0" />
      <path
         id="path3008"
         d="m 207.92126,202.78347 0,-59.91733 15.12993,0 0,21.47245 11.97637,0 0,-21.47245 15.12993,0 0,59.91733 -15.12993,0 0,-25.44095 -11.97637,0 0,25.44095 z"
         style="fill:#ffff00;fill-opacity:1;fill-rule:nonzero;stroke:none"
         inkscape:connector-curvature="0" />
      <path
         id="path3010"
         d="m 302.95276,175.6063 -28.41732,0 0,3.33071 c 0,5.38583 0.67323,9 1.98425,10.80709 1.31102,1.80708 3.04724,2.72834 5.20866,2.72834 4.6063,0 7.19292,-3.437 7.75984,-10.27559 l 13.46457,0.9567 c -2.40945,13.92519 -9.56693,20.90551 -21.50787,20.90551 -7.37008,0 -12.93307,-2.76378 -16.75985,-8.25591 -3.82677,-5.49212 -5.74015,-12.8622 -5.74015,-22.0748 0,-10.41732 2.01968,-18.35433 6.09449,-23.81102 4.03937,-5.49213 9.49606,-8.22048 16.29921,-8.22048 6.16535,0 11.30315,2.40945 15.41338,7.26378 4.11024,4.85433 6.20079,13.7126 6.20079,26.64567 z m -14.27953,-9.63779 c 0.0354,-0.7441 0.0709,-1.27559 0.0709,-1.66536 0,-7.72441 -2.37402,-11.58661 -7.08661,-11.58661 -4.64174,0 -6.98032,4.42913 -7.01575,13.25197 z"
         style="fill:#ffff00;fill-opacity:1;fill-rule:nonzero;stroke:none"
         inkscape:connector-curvature="0" />
      <path
         id="path3012"
         d="m 309.75591,189.8504 10.87795,-46.98426 19.59449,0 9.77953,46.98426 4.3937,0 0,26.29134 -10.94882,0 -1.27559,-13.28741 -24.59055,0 -1.34646,13.28741 -10.94882,0 0,-26.29134 z m 11.30315,0 13.8189,0 -5.66929,-30.89764 -0.95669,0 z"
         style="fill:#ffff00;fill-opacity:1;fill-rule:nonzero;stroke:none"
         inkscape:connector-curvature="0" />
      <path
         id="path3014"
         d="m 400.67717,175.6063 -28.38189,0 0,3.33071 c 0,5.38583 0.6378,9 1.98426,10.80709 1.31102,1.80708 3.04724,2.72834 5.20866,2.72834 4.6063,0 7.19291,-3.437 7.75984,-10.27559 l 13.42913,0.9567 c -2.37401,13.92519 -9.53149,20.90551 -21.47244,20.90551 -7.37008,0 -12.9685,-2.76378 -16.75984,-8.25591 -3.82677,-5.49212 -5.74016,-12.8622 -5.74016,-22.0748 0,-10.41732 2.01969,-18.35433 6.05906,-23.81102 4.0748,-5.49213 9.49606,-8.22048 16.33464,-8.22048 6.12992,0 11.26772,2.40945 15.41339,7.26378 4.11024,4.85433 6.16535,13.7126 6.16535,26.64567 z m -14.24409,-9.63779 c 0.0354,-0.7441 0.0709,-1.27559 0.0709,-1.66536 0,-7.72441 -2.37401,-11.58661 -7.08661,-11.58661 -4.64173,0 -6.98031,4.42913 -7.01575,13.25197 z"
         style="fill:#ffff00;fill-opacity:1;fill-rule:nonzero;stroke:none"
         inkscape:connector-curvature="0" />
      <path
         id="path3016"
         d="m 402.55513,202.78347 16.08661,-59.91733 15.76772,0 14.88189,59.91733 -15.59055,0 -8.18504,-38.90551 -9.07087,38.90551 z"
         style="fill:#ffff00;fill-opacity:1;fill-rule:nonzero;stroke:none"
         inkscape:connector-curvature="0" />
      <path
         id="path3018"
         d="m 453.79135,202.78347 0,-59.91733 15.12992,0 0,20.72835 9.92126,0 c 5.88189,0 10.13386,1.94882 12.75591,5.81102 2.62204,3.89764 3.9685,8.50394 3.9685,13.8189 0,5.63386 -1.38189,10.31103 -4.14567,14.0315 -2.76378,3.68504 -7.19291,5.52756 -13.2874,5.52756 z m 15.12992,-11.65748 7.15748,0 c 1.02756,0 2.05512,-0.6378 3.18898,-1.91339 1.09842,-1.27559 1.66535,-3.25984 1.66535,-5.98819 0,-5.10236 -1.62992,-7.65354 -4.85433,-7.65354 l -7.15748,0 z"
         style="fill:#ffff00;fill-opacity:1;fill-rule:nonzero;stroke:none"
         inkscape:connector-curvature="0" />
      <path
         id="path3020"
         d="m 502.90158,202.78347 0,-59.91733 15.09449,0 0,21.47245 12.01181,0 0,-21.47245 15.12993,0 0,59.91733 -15.12993,0 0,-25.44095 -12.01181,0 0,25.44095 z"
         style="fill:#ffff00;fill-opacity:1;fill-rule:nonzero;stroke:none"
         inkscape:connector-curvature="0" />
      <path
         id="path3022"
         d="m 571.39371,195.62599 0,7.15748 -15.12992,0 0,-59.91733 15.12992,0 -0.0709,28.77166 12.22441,-21.04725 0,-7.72441 15.12992,0 0,59.91733 -15.12992,0 0,-27.92126 -2.48032,4.5 z"
         style="fill:#ffff00;fill-opacity:1;fill-rule:nonzero;stroke:none"
         inkscape:connector-curvature="0" />
      <path
         id="path3024"
         d="m 609.87403,142.86614 15.09449,0 0,23.1378 15.23622,-23.1378 13.7126,0 -13.67717,20.12599 15.02362,39.79134 -16.29921,0 -8.4685,-27.81496 -5.52756,8.43307 0,19.38189 -15.09449,0 z"
         style="fill:#ffff00;fill-opacity:1;fill-rule:nonzero;stroke:none"
         inkscape:connector-curvature="0" />
      <path
         id="path3026"
         d="m 679.53545,165.54331 21.79134,0 0,13.11024 -21.79134,0 z"
         style="fill:#ffff00;fill-opacity:1;fill-rule:nonzero;stroke:none"
         inkscape:connector-curvature="0" />
      <path
         id="path3028"
         d="m 754.75986,202.78347 0,-19.91339 c -2.79921,1.48819 -5.77559,2.23229 -8.8937,2.23229 -4.8189,0 -8.61024,-1.52363 -11.40945,-4.57087 -2.79922,-3.08268 -4.1811,-7.47638 -4.1811,-13.21654 l 0,-24.44882 15.12992,0 0,22.53544 c 0,4.53543 1.38189,6.76771 4.1811,6.76771 2.05512,0 3.79134,-0.60236 5.17323,-1.84252 l 0,-27.46063 15.12992,0 0,59.91733 z"
         style="fill:#ffff00;fill-opacity:1;fill-rule:nonzero;stroke:none"
         inkscape:connector-curvature="0" />
      <path
         id="path3030"
         d="m 822.79136,175.6063 -28.41733,0 0,3.33071 c 0,5.38583 0.67323,9 1.98425,10.80709 1.31103,1.80708 3.04725,2.72834 5.20867,2.72834 4.60629,0 7.19291,-3.437 7.75984,-10.27559 l 13.46457,0.9567 c -2.40945,13.92519 -9.56693,20.90551 -21.50788,20.90551 -7.37008,0 -12.93307,-2.76378 -16.75984,-8.25591 -3.82677,-5.49212 -5.74016,-12.8622 -5.74016,-22.0748 0,-10.41732 2.01969,-18.35433 6.09449,-23.81102 4.03937,-5.49213 9.49606,-8.22048 16.29921,-8.22048 6.16536,0 11.30315,2.40945 15.41339,7.26378 4.11023,4.85433 6.20079,13.7126 6.20079,26.64567 z m -14.27953,-9.63779 c 0.0354,-0.7441 0.0709,-1.27559 0.0709,-1.66536 0,-7.72441 -2.37401,-11.58661 -7.08661,-11.58661 -4.64173,0 -6.98032,4.42913 -7.01575,13.25197 z"
         style="fill:#ffff00;fill-opacity:1;fill-rule:nonzero;stroke:none"
         inkscape:connector-curvature="0" />
      <path
         id="path3032"
         d="m 825.76773,142.86614 40.85433,0 0,13.28741 -13.0748,0 0,46.62992 -15.05905,0 0,-46.62992 -12.72048,0 z"
         style="fill:#ffff00;fill-opacity:1;fill-rule:nonzero;stroke:none"
         inkscape:connector-curvature="0" />
      <path
         id="path3034"
         d="m 871.83073,202.78347 0,-59.91733 27.42519,0 c 3.40158,0 6.09449,0.4252 8.11418,1.20473 2.01968,0.81496 3.82677,2.48031 5.42126,5.03149 1.59449,2.51575 2.37401,5.52756 2.37401,9 0,5.52756 -2.23228,9.7441 -6.73228,12.72048 5.56299,2.97638 8.3622,7.75984 8.3622,14.42126 0,5.13779 -1.38189,9.35433 -4.0748,12.61417 -2.72835,3.29528 -6.48425,4.9252 -11.33858,4.9252 z m 16.05118,-36.6378 8.2559,0 c 1.77166,0 3.01181,-0.42519 3.82677,-1.27559 0.77953,-0.85039 1.1693,-2.40945 1.1693,-4.67716 0,-1.66536 -0.24804,-3.15355 -0.7441,-4.46457 -0.49606,-1.27559 -1.91338,-1.94882 -4.25197,-1.94882 l -8.2559,0 z m 0,23.70473 9,0 c 2.09055,0 3.47244,-0.5315 4.1811,-1.66536 0.74409,-1.09842 1.09843,-2.76378 1.09843,-5.03149 0,-2.16142 -0.38977,-3.82678 -1.13386,-4.99607 -0.7441,-1.16929 -2.12599,-1.77165 -4.14567,-1.77165 l -9,0 z"
         style="fill:#ffff00;fill-opacity:1;fill-rule:nonzero;stroke:none"
         inkscape:connector-curvature="0" />
      <path
         id="path3036"
         d="m 966.82679,175.6063 -28.38189,0 0,3.33071 c 0,5.38583 0.6378,9 1.98425,10.80709 1.31103,1.80708 3.04725,2.72834 5.17323,2.72834 4.6063,0 7.19291,-3.437 7.79528,-10.27559 l 13.42913,0.9567 c -2.37401,13.92519 -9.5315,20.90551 -21.47244,20.90551 -7.37008,0 -12.9685,-2.76378 -16.79528,-8.25591 -3.82677,-5.49212 -5.74015,-12.8622 -5.74015,-22.0748 0,-10.41732 2.05511,-18.35433 6.09448,-23.81102 4.07481,-5.49213 9.49607,-8.22048 16.33465,-8.22048 6.12992,0 11.26772,2.40945 15.41339,7.26378 4.11023,4.85433 6.16535,13.7126 6.16535,26.64567 z m -14.24409,-9.63779 c 0.0354,-0.7441 0.0354,-1.27559 0.0354,-1.66536 0,-7.72441 -2.33858,-11.58661 -7.05118,-11.58661 -4.64173,0 -6.98032,4.42913 -7.01575,13.25197 z"
         style="fill:#ffff00;fill-opacity:1;fill-rule:nonzero;stroke:none"
         inkscape:connector-curvature="0" />
      <path
         id="path3038"
         d="m 975.79136,142.86614 13.9252,0 0,8.96457 c 2.97637,-6.48425 7.08661,-9.74409 12.33074,-9.74409 4.9606,0 9.1063,2.44488 12.3661,7.33464 3.2953,4.88977 4.9252,12.36614 4.9252,22.3937 0,10.52363 -1.5945,18.46063 -4.8189,23.81103 -3.189,5.35039 -7.7244,8.00787 -13.5354,8.00787 -4.18113,0 -7.65357,-1.77165 -10.34648,-5.27953 l 0,24.73229 -14.84646,0 z m 14.84646,35.43308 c 0,5.74015 0.42519,9.46063 1.24015,11.16141 0.8504,1.73622 2.55118,2.58662 5.1378,2.58662 2.26771,0 3.96853,-1.13386 5.06693,-3.43701 1.1339,-2.30315 1.6654,-7.83071 1.6654,-16.65354 0,-7.37008 -0.4607,-12.36615 -1.4528,-14.95276 -0.9567,-2.62205 -2.58662,-3.93307 -4.85434,-3.93307 -1.91338,0 -3.50787,0.81496 -4.81889,2.48031 -1.34646,1.62992 -1.98425,5.42126 -1.98425,11.40945 z"
         style="fill:#ffff00;fill-opacity:1;fill-rule:nonzero;stroke:none"
         inkscape:connector-curvature="0" />
      <path
         id="path3040"
         d="m 1028.0906,142.86614 30.7204,0 0,13.00394 -15.5905,0 0,46.91339 -15.1299,0 z"
         style="fill:#ffff00;fill-opacity:1;fill-rule:nonzero;stroke:none"
         inkscape:connector-curvature="0" />
      <path
         id="path3042"
         d="m 132.48425,333.6378 9.46063,1.38189 c -1.02755,7.22835 -3.68503,12.89764 -7.937,17.00787 -4.2874,4.07481 -9.5315,6.12993 -15.73229,6.12993 -7.79527,0 -14.06693,-2.83465 -18.779525,-8.46851 -4.748032,-5.63386 -7.122047,-13.7126 -7.122047,-24.23622 0,-6.80315 1.027559,-12.7559 3.047244,-17.85827 2.055118,-5.10236 5.137798,-8.92913 9.318898,-11.48031 4.14567,-2.55118 8.6811,-3.82677 13.57087,-3.82677 6.20078,0 11.23228,1.73622 15.16535,5.20866 3.93307,3.43701 6.44882,8.3622 7.58268,14.74016 l -9.38977,1.59448 c -0.88582,-4.25196 -2.48031,-7.40551 -4.74803,-9.56693 -2.26771,-2.12598 -4.99606,-3.18897 -8.22047,-3.18897 -4.85433,0 -8.82284,1.91338 -11.83465,5.77559 -3.04724,3.8622 -4.57086,9.95669 -4.57086,18.3189 0,8.4685 1.45275,14.59842 4.3937,18.46063 2.94094,3.82677 6.76772,5.74015 11.48031,5.74015 3.79134,0 6.94489,-1.27559 9.46063,-3.8622 2.55118,-2.55118 4.14567,-6.51969 4.85433,-11.87008 z"
         style="fill:#ffff00;fill-opacity:1;fill-rule:nonzero;stroke:none"
         inkscape:connector-curvature="0" />
      <path
         id="path3044"
         d="m 179.39764,336.61418 9.28347,-0.95669 c 0.77952,4.81889 2.30315,8.32677 4.5,10.52362 2.23228,2.16142 5.06693,3.25984 8.53937,3.25984 2.94094,0 5.56299,-0.77953 7.79527,-2.26772 2.23229,-1.48819 4.03937,-3.50787 5.49213,-6.02362 1.41732,-2.51575 2.62205,-5.91732 3.57874,-10.16929 0.95669,-4.2874 1.45275,-8.64567 1.45275,-13.0748 0,-0.46063 -0.0354,-1.16929 -0.0709,-2.12599 -1.91339,3.40158 -4.53543,6.16536 -7.90158,8.29134 -3.33071,2.12599 -6.94488,3.15354 -10.84252,3.15354 -6.51968,0 -12.01181,-2.58661 -16.51181,-7.8307 -4.5,-5.20867 -6.73228,-12.08268 -6.73228,-20.62205 0,-8.82284 2.33858,-15.94488 7.01575,-21.33071 4.7126,-5.35039 10.59449,-8.04331 17.6811,-8.04331 5.10236,0 9.77953,1.52362 13.99606,4.57087 4.25197,3.04724 7.47638,7.37008 9.67323,13.00394 2.19685,5.63385 3.29528,13.81889 3.29528,24.48425 0,11.12598 -1.09843,19.94882 -3.29528,26.53937 -2.16142,6.59055 -5.42126,11.62205 -9.70866,15.05905 -4.32284,3.43701 -9.35433,5.17323 -15.12992,5.17323 -6.16536,0 -11.19685,-1.91338 -15.05906,-5.66929 -3.89764,-3.79134 -6.23622,-9.1063 -7.05118,-15.94488 z m 39.50788,-38.40945 c 0,-6.12992 -1.45276,-10.98425 -4.42914,-14.56299 -2.94094,-3.61418 -6.48425,-5.42126 -10.62992,-5.42126 -4.2874,0 -8.00787,1.94882 -11.19685,5.81102 -3.18898,3.89764 -4.78346,8.8937 -4.78346,15.09449 0,5.52756 1.52362,10.02756 4.53543,13.5 3.01181,3.43701 6.76772,5.17323 11.19685,5.17323 4.46457,0 8.11417,-1.73622 10.98425,-5.17323 2.90551,-3.47244 4.32284,-8.25591 4.32284,-14.42126 z"
         style="fill:#ffff00;fill-opacity:1;fill-rule:nonzero;stroke:none"
         inkscape:connector-curvature="0" />
      <path
         id="path3046"
         d="m 237.47245,280.24016 c 0,-6.69685 0.60236,-12.08268 1.84252,-16.15748 1.24015,-4.0748 3.11811,-7.19291 5.56299,-9.4252 2.44488,-2.19685 5.52756,-3.29527 9.24803,-3.29527 2.72835,0 5.13779,0.60236 7.19291,1.80709 2.09055,1.24015 3.79134,2.97637 5.1378,5.27952 1.34645,2.30315 2.40945,5.10237 3.15354,8.43307 0.77953,3.29528 1.16929,7.75985 1.16929,13.35827 0,6.62599 -0.63779,11.97638 -1.84252,16.05118 -1.24015,4.07481 -3.08267,7.22835 -5.52756,9.46063 -2.44488,2.23229 -5.56299,3.33071 -9.28346,3.33071 -4.9252,0 -8.7874,-1.94882 -11.62205,-5.84645 -3.36614,-4.7126 -5.03149,-12.36615 -5.03149,-22.99607 z m 6.44881,0 c 0,9.28347 0.9567,15.44882 2.94095,18.5315 1.94882,3.08268 4.35827,4.6063 7.26378,4.6063 2.87008,0 5.27953,-1.55906 7.26378,-4.64173 1.94882,-3.08268 2.94094,-9.24804 2.94094,-18.49607 0,-9.3189 -0.99212,-15.48425 -2.94094,-18.56693 -1.98425,-3.04724 -4.42913,-4.57086 -7.33465,-4.57086 -2.87008,0 -5.17323,1.34645 -6.90945,4.03937 -2.16141,3.437 -3.22441,9.81496 -3.22441,19.09842 z"
         style="fill:#ffff00;fill-opacity:1;fill-rule:nonzero;stroke:none"
         inkscape:connector-curvature="0" />
      <path
         id="path3048"
         d="m 277.19292,280.24016 c 0,-6.69685 0.60236,-12.08268 1.84252,-16.15748 1.24016,-4.0748 3.08268,-7.19291 5.52756,-9.4252 2.48031,-2.19685 5.56299,-3.29527 9.28346,-3.29527 2.72835,0 5.1378,0.60236 7.19292,1.80709 2.05511,1.24015 3.79133,2.97637 5.13779,5.27952 1.34646,2.30315 2.37402,5.10237 3.15354,8.43307 0.77953,3.29528 1.13386,7.75985 1.13386,13.35827 0,6.62599 -0.60236,11.97638 -1.84252,16.05118 -1.20472,4.07481 -3.04724,7.22835 -5.49212,9.46063 -2.48032,2.23229 -5.56299,3.33071 -9.28347,3.33071 -4.92519,0 -8.82283,-1.94882 -11.62204,-5.84645 -3.36615,-4.7126 -5.0315,-12.36615 -5.0315,-22.99607 z m 6.41338,0 c 0,9.28347 0.99213,15.44882 2.97638,18.5315 1.94882,3.08268 4.35827,4.6063 7.26378,4.6063 2.87008,0 5.27953,-1.55906 7.22835,-4.64173 1.98425,-3.08268 2.97638,-9.24804 2.97638,-18.49607 0,-9.3189 -0.99213,-15.48425 -2.97638,-18.56693 -1.94882,-3.04724 -4.3937,-4.57086 -7.29921,-4.57086 -2.90552,0 -5.20867,1.34645 -6.90945,4.03937 -2.16142,3.437 -3.25985,9.81496 -3.25985,19.09842 z"
         style="fill:#ffff00;fill-opacity:1;fill-rule:nonzero;stroke:none"
         inkscape:connector-curvature="0" />
      <path
         id="path3050"
         d="m 359.22048,293.70473 39.64961,0 0,54.24803 6.16535,0 0,26.64567 -7.93701,0 0,-17.85827 -44.7874,0 0,17.85827 -7.93701,0 0,-26.64567 5.10236,0 c 6.76772,-10.20472 10.02756,-28.27559 9.7441,-54.24803 z m 8.04331,8.85827 c -0.70866,20.44488 -3.57874,35.5748 -8.57481,45.38976 l 30.57874,0 0,-45.38976 z"
         style="fill:#ffff00;fill-opacity:1;fill-rule:nonzero;stroke:none"
         inkscape:connector-curvature="0" />
      <path
         id="path3052"
         d="m 412.12206,325.20473 c 0,-11.65748 2.90551,-20.30315 8.7874,-25.90158 4.88976,-4.67716 10.84252,-7.01574 17.8937,-7.01574 7.83071,0 14.20866,2.83464 19.16929,8.50393 4.96063,5.70473 7.47638,13.53544 7.47638,23.52756 0,8.11418 -1.09843,14.49213 -3.29528,19.13386 -2.19685,4.67717 -5.42126,8.25591 -9.60236,10.84252 -4.21654,2.58662 -8.7874,3.86221 -13.74803,3.86221 -7.97244,0 -14.42126,-2.83465 -19.31103,-8.50394 -4.92519,-5.63386 -7.37007,-13.78347 -7.37007,-24.44882 z m 9.88582,0 c 0,8.07874 1.59449,14.1378 4.78347,18.14173 3.18897,4.00394 7.19291,6.02362 12.01181,6.02362 4.78346,0 8.75197,-2.01968 11.94094,-6.05905 3.18898,-4.03937 4.78347,-10.16929 4.78347,-18.46063 0,-7.79528 -1.59449,-13.67717 -4.8189,-17.6811 -3.18898,-4.03937 -7.15748,-6.02363 -11.90551,-6.02363 -4.8189,0 -8.82284,1.98426 -12.01181,5.98819 -3.18898,3.96851 -4.78347,10.02756 -4.78347,18.07087 z"
         style="fill:#ffff00;fill-opacity:1;fill-rule:nonzero;stroke:none"
         inkscape:connector-curvature="0" />
      <path
         id="path3054"
         d="m 540.88584,356.74016 -9.6378,0 0,-68.06693 c -2.33858,2.44488 -5.38582,4.88977 -9.14173,7.37008 -3.75591,2.44488 -7.15748,4.2874 -10.16929,5.49213 l 0,-10.31103 c 5.42126,-2.79921 10.13386,-6.20078 14.17323,-10.20472 4.03937,-4.00394 6.87401,-7.86614 8.5748,-11.62205 l 6.20079,0 z"
         style="fill:#ffff00;fill-opacity:1;fill-rule:nonzero;stroke:none"
         inkscape:connector-curvature="0" />
      <path
         id="path3056"
         d="m 566.29135,281.12599 0,-10.24016 50.84646,0 0,8.29134 c -4.99607,5.88189 -9.9567,13.7126 -14.84646,23.49213 -4.9252,9.77952 -8.71653,19.80708 -11.40945,30.15354 -1.91338,7.26378 -3.15354,15.23622 -3.68504,23.91732 l -9.92126,0 c 0.1063,-6.83858 1.31103,-15.12992 3.64961,-24.80315 2.30315,-9.70866 5.63386,-19.06299 9.99212,-28.06299 4.35827,-9 8.96457,-16.58268 13.85434,-22.74803 z"
         style="fill:#ffff00;fill-opacity:1;fill-rule:nonzero;stroke:none"
         inkscape:connector-curvature="0" />
      <path
         id="path3058"
         d="m 625.14568,280.24016 c 0,-6.69685 0.6378,-12.08268 1.87795,-16.15748 1.24016,-4.0748 3.08268,-7.19291 5.52756,-9.4252 2.44489,-2.19685 5.52756,-3.29527 9.24804,-3.29527 2.72834,0 5.13779,0.60236 7.22834,1.80709 2.05512,1.24015 3.75591,2.97637 5.10236,5.27952 1.34646,2.30315 2.40945,5.10237 3.18898,8.43307 0.7441,3.29528 1.13386,7.75985 1.13386,13.35827 0,6.62599 -0.60236,11.97638 -1.84252,16.05118 -1.24016,4.07481 -3.08268,7.22835 -5.52756,9.46063 -2.44488,2.23229 -5.52756,3.33071 -9.28346,3.33071 -4.9252,0 -8.78741,-1.94882 -11.58662,-5.84645 -3.36614,-4.7126 -5.06693,-12.36615 -5.06693,-22.99607 z m 6.44882,0 c 0,9.28347 0.99213,15.44882 2.94095,18.5315 1.94881,3.08268 4.3937,4.6063 7.26378,4.6063 2.87007,0 5.31496,-1.55906 7.26378,-4.64173 1.94881,-3.08268 2.94094,-9.24804 2.94094,-18.49607 0,-9.3189 -0.99213,-15.48425 -2.94094,-18.56693 -1.94882,-3.04724 -4.39371,-4.57086 -7.33465,-4.57086 -2.87008,0 -5.17323,1.34645 -6.90945,4.03937 -2.16142,3.437 -3.22441,9.81496 -3.22441,19.09842 z"
         style="fill:#ffff00;fill-opacity:1;fill-rule:nonzero;stroke:none"
         inkscape:connector-curvature="0" />
      <path
         id="path3060"
         d="m 664.86616,280.24016 c 0,-6.69685 0.60236,-12.08268 1.84251,-16.15748 1.2756,-4.0748 3.11812,-7.19291 5.563,-9.4252 2.44488,-2.19685 5.52756,-3.29527 9.24803,-3.29527 2.72835,0 5.13779,0.60236 7.19291,1.80709 2.09055,1.24015 3.79134,2.97637 5.1378,5.27952 1.34645,2.30315 2.40945,5.10237 3.15354,8.43307 0.77953,3.29528 1.16929,7.75985 1.16929,13.35827 0,6.62599 -0.63779,11.97638 -1.84252,16.05118 -1.24015,4.07481 -3.08267,7.22835 -5.52756,9.46063 -2.44488,2.23229 -5.56299,3.33071 -9.28346,3.33071 -4.9252,0 -8.7874,-1.94882 -11.62205,-5.84645 -3.36614,-4.7126 -5.03149,-12.36615 -5.03149,-22.99607 z m 6.44881,0 c 0,9.28347 0.9567,15.44882 2.94095,18.5315 1.94882,3.08268 4.3937,4.6063 7.26378,4.6063 2.87008,0 5.27953,-1.55906 7.26378,-4.64173 1.94882,-3.08268 2.94094,-9.24804 2.94094,-18.49607 0,-9.3189 -0.99212,-15.48425 -2.94094,-18.56693 -1.98425,-3.04724 -4.42914,-4.57086 -7.33465,-4.57086 -2.87008,0 -5.17323,1.34645 -6.90945,4.03937 -2.16141,3.437 -3.22441,9.81496 -3.22441,19.09842 z"
         style="fill:#ffff00;fill-opacity:1;fill-rule:nonzero;stroke:none"
         inkscape:connector-curvature="0" />
      <path
         id="path3062"
         d="m 95.385829,445.60631 44.893701,0 0,63.03543 -9.6378,0 0,-54.17717 -25.61811,0 0,54.17717 -9.637791,0 z"
         style="fill:#ffff00;fill-opacity:1;fill-rule:nonzero;stroke:none"
         inkscape:connector-curvature="0" />
      <path
         id="path3064"
         d="m 193.67717,488.33859 9.95669,1.34646 c -1.55905,6.44882 -4.46456,11.48031 -8.71653,15.02362 -4.25197,3.57874 -9.70866,5.35039 -16.29922,5.35039 -8.32677,0 -14.91732,-2.83464 -19.80708,-8.50393 -4.88977,-5.70473 -7.33465,-13.64174 -7.33465,-23.91733 0,-10.59449 2.48032,-18.81496 7.40551,-24.66141 4.9252,-5.84646 11.33859,-8.78741 19.20473,-8.78741 7.58268,0 13.8189,2.87008 18.63779,8.61024 4.8189,5.74016 7.22835,13.78346 7.22835,24.20079 0,0.63779 0,1.59449 -0.0354,2.83464 l -42.44882,0 c 0.35433,6.94489 2.12598,12.22441 5.27952,15.90945 3.18898,3.68504 7.15749,5.52756 11.90552,5.52756 3.5433,0 6.55512,-1.02756 9.07086,-3.08268 2.48032,-2.05511 4.46457,-5.35039 5.95276,-9.85039 z M 162,471.08268 l 31.78347,0 c -0.4252,-5.31496 -1.66536,-9.28346 -3.64961,-11.94094 -3.08268,-4.11024 -7.05118,-6.16535 -11.94094,-6.16535 -4.42914,0 -8.14961,1.62992 -11.19685,4.92519 -3.01181,3.29528 -4.67717,7.65355 -4.99607,13.1811 z"
         style="fill:#ffff00;fill-opacity:1;fill-rule:nonzero;stroke:none"
         inkscape:connector-curvature="0" />
      <path
         id="path3066"
         d="m 215.78741,532.77166 0,-87.16535 8.7874,0 0,8.18504 c 2.09055,-3.18898 4.42913,-5.59843 7.05118,-7.19292 2.58661,-1.59449 5.74016,-2.40945 9.46063,-2.40945 4.85433,0 9.14173,1.38189 12.8622,4.14567 3.72048,2.76378 6.51969,6.69685 8.43308,11.72835 1.87795,5.0315 2.83464,10.55905 2.83464,16.58268 0,6.44882 -1.06299,12.25984 -3.15354,17.43307 -2.09055,5.13779 -5.10236,9.1063 -9.1063,11.83464 -3.96851,2.76378 -8.14961,4.14567 -12.54331,4.14567 -3.22441,0 -6.12992,-0.74409 -8.6811,-2.26771 -2.55118,-1.48819 -4.64173,-3.40158 -6.27166,-5.70473 l 0,30.68504 z m 8.75196,-55.31102 c 0,8.11417 1.48819,14.10236 4.42914,18 2.97638,3.8622 6.59055,5.81102 10.77165,5.81102 4.2874,0 7.97244,-2.01968 11.01969,-6.02362 3.08267,-4.00394 4.6063,-10.24016 4.6063,-18.67323 0,-8.00787 -1.48819,-14.0315 -4.5,-18.03543 -2.97638,-3.96851 -6.51969,-5.98819 -10.66536,-5.98819 -4.11023,0 -7.75984,2.12598 -10.91338,6.37795 -3.15355,4.25197 -4.74804,10.45276 -4.74804,18.5315 z"
         style="fill:#ffff00;fill-opacity:1;fill-rule:nonzero;stroke:none"
         inkscape:connector-curvature="0" />
      <path
         id="path3068"
         d="m 315.8504,488.33859 9.99213,1.34646 c -1.59449,6.44882 -4.5,11.48031 -8.75197,15.02362 -4.25197,3.57874 -9.67323,5.35039 -16.29922,5.35039 -8.32677,0 -14.91732,-2.83464 -19.80708,-8.50393 -4.85433,-5.70473 -7.29922,-13.64174 -7.29922,-23.91733 0,-10.59449 2.44489,-18.81496 7.40552,-24.66141 4.92519,-5.84646 11.30315,-8.78741 19.16929,-8.78741 7.61811,0 13.8189,2.87008 18.63779,8.61024 4.85433,5.74016 7.26378,13.78346 7.26378,24.20079 0,0.63779 -0.0354,1.59449 -0.0709,2.83464 l -42.44882,0 c 0.35433,6.94489 2.12598,12.22441 5.31496,15.90945 3.18898,3.68504 7.15748,5.52756 11.90551,5.52756 3.54331,0 6.55512,-1.02756 9.03543,-3.08268 2.51575,-2.05511 4.5,-5.35039 5.95276,-9.85039 z m -31.67717,-17.25591 31.78347,0 c -0.4252,-5.31496 -1.62992,-9.28346 -3.64961,-11.94094 -3.04724,-4.11024 -7.05118,-6.16535 -11.94094,-6.16535 -4.42914,0 -8.14961,1.62992 -11.16142,4.92519 -3.01181,3.29528 -4.7126,7.65355 -5.0315,13.1811 z"
         style="fill:#ffff00;fill-opacity:1;fill-rule:nonzero;stroke:none"
         inkscape:connector-curvature="0" />
      <path
         id="path3070"
         d="m 337.99607,532.77166 0,-87.16535 8.7874,0 0,8.18504 c 2.05512,-3.18898 4.3937,-5.59843 7.01575,-7.19292 2.62205,-1.59449 5.77559,-2.40945 9.49606,-2.40945 4.85433,0 9.14174,1.38189 12.86221,4.14567 3.72047,2.76378 6.51968,6.69685 8.39764,11.72835 1.91338,5.0315 2.83464,10.55905 2.83464,16.58268 0,6.44882 -1.02756,12.25984 -3.11811,17.43307 -2.09055,5.13779 -5.13779,9.1063 -9.1063,11.83464 -4.00394,2.76378 -8.18504,4.14567 -12.57874,4.14567 -3.22441,0 -6.09449,-0.74409 -8.64567,-2.26771 -2.55118,-1.48819 -4.67716,-3.40158 -6.30708,-5.70473 l 0,30.68504 z m 8.71654,-55.31102 c 0,8.11417 1.48818,14.10236 4.46456,18 2.97638,3.8622 6.55512,5.81102 10.77166,5.81102 4.2874,0 7.97244,-2.01968 11.01968,-6.02362 3.04725,-4.00394 4.57087,-10.24016 4.57087,-18.67323 0,-8.00787 -1.48819,-14.0315 -4.46457,-18.03543 -2.97638,-3.96851 -6.55512,-5.98819 -10.70079,-5.98819 -4.11023,0 -7.75984,2.12598 -10.91338,6.37795 -3.15355,4.25197 -4.74803,10.45276 -4.74803,18.5315 z"
         style="fill:#ffff00;fill-opacity:1;fill-rule:nonzero;stroke:none"
         inkscape:connector-curvature="0" />
      <path
         id="path3072"
         d="m 453.25985,445.60631 9.6378,0 0,63.03543 -9.6378,0 z m -53.96457,0 9.6378,0 0,24.62598 12.22441,0 c 7.97244,0 14.10236,1.70079 18.4252,5.1378 4.2874,3.437 6.44882,8.1496 6.44882,14.13779 0,5.27953 -1.80709,9.77953 -5.38583,13.5 -3.57874,3.75591 -9.3189,5.63386 -17.22047,5.63386 l -24.12993,0 z m 9.6378,54.24803 10.13386,0 c 6.12992,0 10.48819,-0.8504 13.0748,-2.51575 2.62205,-1.62992 3.93307,-4.25197 3.93307,-7.75984 0,-2.72835 -0.99212,-5.17323 -2.90551,-7.29921 -1.91339,-2.12599 -6.20079,-3.18898 -12.79134,-3.18898 l -11.44488,0 z"
         style="fill:#ffff00;fill-opacity:1;fill-rule:nonzero;stroke:none"
         inkscape:connector-curvature="0" />
      <path
         id="path3074"
         d="m 478.02757,445.60631 22.25197,0 c 5.45669,0 9.53149,0.49606 12.18897,1.52362 2.65748,0.99212 4.9252,2.87008 6.83859,5.52756 1.91338,2.69291 2.87008,5.91732 2.87008,9.67323 0,3.01181 -0.56693,5.63385 -1.66536,7.86614 -1.13386,2.23228 -2.83464,4.11023 -5.06693,5.63386 2.65748,0.95669 4.88977,2.83464 6.66142,5.52756 1.77165,2.72834 2.65748,5.91732 2.65748,9.63779 -0.35433,5.98819 -2.30315,10.41732 -5.81102,13.2874 -3.47244,2.90551 -8.57481,4.35827 -15.27166,4.35827 l -25.65354,0 z m 9.63779,26.53937 10.31103,0 c 4.11023,0 6.90945,-0.24803 8.4685,-0.70866 1.52362,-0.49607 2.90551,-1.45276 4.11024,-2.90552 1.20472,-1.41732 1.80709,-3.15354 1.80709,-5.17323 0,-3.3307 -1.063,-5.63385 -3.18898,-6.94488 -2.12599,-1.31102 -5.74016,-1.94882 -10.87795,-1.94882 l -10.62993,0 z m 0,27.70866 12.72048,0 c 5.45669,0 9.2126,-0.70866 11.23228,-2.12599 2.05512,-1.38189 3.11811,-3.82677 3.22441,-7.26378 0,-2.01968 -0.60236,-3.8622 -1.77165,-5.59842 -1.16929,-1.73622 -2.72835,-2.79921 -4.6063,-3.25984 -1.87796,-0.46063 -4.9252,-0.67323 -9.1063,-0.67323 l -11.69292,0 z"
         style="fill:#ffff00;fill-opacity:1;fill-rule:nonzero;stroke:none"
         inkscape:connector-curvature="0" />
      <path
         id="path3076"
         d="m 132.48425,637.44095 9.46063,1.38189 c -1.02755,7.22835 -3.68503,12.89764 -7.937,16.97245 -4.2874,4.11023 -9.5315,6.16535 -15.73229,6.16535 -7.79527,0 -14.06693,-2.83465 -18.779525,-8.4685 -4.748032,-5.63386 -7.122047,-13.7126 -7.122047,-24.23622 0,-6.80315 1.027559,-12.75591 3.047244,-17.85827 2.055118,-5.10236 5.137798,-8.92914 9.318898,-11.48032 4.14567,-2.55118 8.6811,-3.82677 13.57087,-3.82677 6.20078,0 11.23228,1.73622 15.16535,5.20866 3.93307,3.43701 6.44882,8.36221 7.58268,14.74016 l -9.38977,1.59449 c -0.88582,-4.25197 -2.48031,-7.40551 -4.74803,-9.56693 -2.26771,-2.12599 -4.99606,-3.18898 -8.22047,-3.18898 -4.85433,0 -8.82284,1.91339 -11.83465,5.77559 -3.04724,3.86221 -4.57086,9.9567 -4.57086,18.3189 0,8.4685 1.45275,14.59843 4.3937,18.46063 2.94094,3.82677 6.76772,5.74016 11.48031,5.74016 3.79134,0 6.94489,-1.27559 9.46063,-3.86221 2.55118,-2.55118 4.14567,-6.51968 4.85433,-11.87008 z"
         style="fill:#ffff00;fill-opacity:1;fill-rule:nonzero;stroke:none"
         inkscape:connector-curvature="0" />
      <path
         id="path3078"
         d="m 214.29922,660.54332 -9.6378,0 0,-68.06693 c -2.33858,2.44488 -5.38583,4.88976 -9.14173,7.33464 -3.75591,2.48032 -7.15748,4.32284 -10.16929,5.52756 l 0,-10.31102 c 5.42126,-2.79921 10.13386,-6.20079 14.17323,-10.20473 4.03937,-4.00393 6.87401,-7.86614 8.5748,-11.62204 l 6.20079,0 z"
         style="fill:#ffff00;fill-opacity:1;fill-rule:nonzero;stroke:none"
         inkscape:connector-curvature="0" />
      <path
         id="path3080"
         d="m 289.77166,650.26773 0,10.27559 -51.94488,0 c -0.0709,-2.58662 0.31889,-5.06693 1.13385,-7.44095 1.31103,-3.89764 3.43701,-7.75984 6.34252,-11.55118 2.90552,-3.79134 7.12205,-8.18504 12.61418,-13.1811 8.53937,-7.75984 14.31496,-13.88977 17.32677,-18.4252 2.97638,-4.53543 4.5,-8.82283 4.5,-12.8622 0,-4.21654 -1.38189,-7.79528 -4.11024,-10.70079 -2.72834,-2.90551 -6.30708,-4.35827 -10.70078,-4.35827 -4.64174,0 -8.36221,1.55906 -11.12599,4.64173 -2.79921,3.08268 -4.21653,7.33465 -4.25197,12.79134 l -9.92126,-1.09842 c 0.70866,-8.18504 3.25985,-14.4567 7.68898,-18.7441 4.42913,-4.2874 10.38189,-6.41338 17.82283,-6.41338 7.54725,0 13.53544,2.30315 17.92914,6.94488 4.3937,4.6063 6.59055,10.34646 6.59055,17.18504 0,3.47244 -0.67323,6.90945 -1.94882,10.27559 -1.27559,3.36614 -3.40157,6.90945 -6.41338,10.62992 -2.97638,3.72047 -7.93701,8.82283 -14.84646,15.30709 -5.81103,5.35039 -9.5315,9 -11.16142,10.94882 -1.62992,1.91338 -3.01181,3.82677 -4.0748,5.77559 z"
         style="fill:#ffff00;fill-opacity:1;fill-rule:nonzero;stroke:none"
         inkscape:connector-curvature="0" />
      <path
         id="path3082"
         d="m 298.59449,597.01182 6.27166,-0.95669 c 0.70866,3.93307 1.94882,6.76771 3.68504,8.50393 1.73622,1.73623 3.82677,2.62205 6.30708,2.62205 2.94095,0 5.4567,-1.13386 7.47638,-3.40157 2.01969,-2.26772 3.04725,-5.06693 3.04725,-8.39764 0,-3.18898 -0.92126,-5.81102 -2.83465,-7.90158 -1.87795,-2.05511 -4.25197,-3.08267 -7.15748,-3.08267 -1.20472,0 -2.65748,0.24803 -4.42913,0.74409 l 0.70866,-6.09449 c 0.38976,0.0709 0.74409,0.1063 0.99212,0.1063 2.69292,0 5.06693,-0.77953 7.22835,-2.33858 2.12598,-1.52362 3.18898,-3.89764 3.18898,-7.12205 0,-2.55118 -0.77953,-4.64173 -2.33859,-6.34252 -1.55905,-1.66535 -3.5433,-2.48031 -6.02362,-2.48031 -2.44488,0 -4.46457,0.85039 -6.09449,2.51575 -1.62992,1.70078 -2.65748,4.25196 -3.11811,7.65354 l -6.27165,-1.24016 c 0.74409,-4.64173 2.51575,-8.2559 5.20866,-10.80709 2.72835,-2.55118 6.09449,-3.8622 10.13386,-3.8622 2.79921,0 5.35039,0.67323 7.72441,2.01969 2.33858,1.31102 4.11024,3.11811 5.35039,5.38582 1.27559,2.30315 1.87796,4.74803 1.87796,7.29921 0,2.44489 -0.60237,4.67717 -1.77166,6.69686 -1.20472,1.98425 -2.94094,3.57874 -5.27953,4.74803 3.04725,0.77952 5.38583,2.37401 7.05119,4.81889 1.66535,2.44489 2.51574,5.4567 2.51574,9.1063 0,4.96063 -1.62992,9.14174 -4.88976,12.57874 -3.25984,3.43701 -7.37008,5.1378 -12.33071,5.1378 -4.46457,0 -8.18504,-1.48819 -11.16142,-4.42913 -2.94094,-2.97638 -4.64173,-6.80315 -5.06693,-11.48032 z"
         style="fill:#ffff00;fill-opacity:1;fill-rule:nonzero;stroke:none"
         inkscape:connector-curvature="0" />
      <path
         id="path3084"
         d="m 338.27953,584.04332 c 0,-6.69685 0.60237,-12.08268 1.84252,-16.15748 1.24016,-4.07481 3.11811,-7.19292 5.563,-9.4252 2.44488,-2.19685 5.52756,-3.33071 9.24803,-3.33071 2.72834,0 5.13779,0.6378 7.19291,1.84252 2.09055,1.24016 3.79134,2.97638 5.1378,5.27953 1.34645,2.30315 2.40945,5.10236 3.15354,8.43307 0.77953,3.29527 1.16929,7.75984 1.16929,13.35827 0,6.62598 -0.63779,11.97637 -1.84252,16.05118 -1.24016,4.0748 -3.08268,7.22834 -5.52756,9.46063 -2.44488,2.23228 -5.56299,3.33071 -9.28346,3.33071 -4.9252,0 -8.7874,-1.94882 -11.62205,-5.84646 -3.36614,-4.7126 -5.0315,-12.40158 -5.0315,-22.99606 z m 6.44882,0 c 0,9.28346 0.9567,15.44882 2.94095,18.53149 1.94882,3.08268 4.35827,4.6063 7.26378,4.6063 2.87008,0 5.27953,-1.55905 7.26378,-4.64173 1.94882,-3.08268 2.94094,-9.24803 2.94094,-18.49606 0,-9.3189 -0.99212,-15.48426 -2.94094,-18.56693 -1.98425,-3.04725 -4.42914,-4.57087 -7.33465,-4.57087 -2.87008,0 -5.17323,1.34646 -6.90945,4.03937 -2.16141,3.43701 -3.22441,9.81496 -3.22441,19.09843 z"
         style="fill:#ffff00;fill-opacity:1;fill-rule:nonzero;stroke:none"
         inkscape:connector-curvature="0" />
      <path
         id="path3086"
         d="m 420.3071,597.50788 39.6496,0 0,54.24804 6.16536,0 0,26.64567 -7.93701,0 0,-17.85827 -44.7874,0 0,17.85827 -7.93701,0 0,-26.64567 5.10236,0 c 6.76772,-10.20473 10.02756,-28.2756 9.7441,-54.24804 z m 8.0433,8.85827 c -0.70866,20.44488 -3.57874,35.5748 -8.5748,45.38977 l 30.61417,0 0,-45.38977 z"
         style="fill:#ffff00;fill-opacity:1;fill-rule:nonzero;stroke:none"
         inkscape:connector-curvature="0" />
      <path
         id="path3088"
         d="m 473.20867,629.00788 c 0,-11.65748 2.94095,-20.30315 8.7874,-25.90157 4.88977,-4.67717 10.84252,-7.01575 17.8937,-7.01575 7.83071,0 14.20867,2.83465 19.20473,8.50394 4.96063,5.66929 7.44094,13.53543 7.44094,23.52756 0,8.11417 -1.09842,14.49212 -3.29527,19.13386 -2.19685,4.67716 -5.42126,8.2559 -9.60236,10.84252 -4.18111,2.58661 -8.78741,3.8622 -13.74804,3.8622 -7.97244,0 -14.42126,-2.83465 -19.31102,-8.50394 -4.9252,-5.63386 -7.37008,-13.78346 -7.37008,-24.44882 z m 9.92126,0 c 0,8.07874 1.59449,14.1378 4.74803,18.14174 3.18898,4.00393 7.19292,6.02362 12.01181,6.02362 4.78347,0 8.78741,-2.01969 11.94095,-6.05906 3.18898,-4.03937 4.78346,-10.16929 4.78346,-18.46063 0,-7.79527 -1.59448,-13.67716 -4.78346,-17.71653 -3.22441,-4.00394 -7.19291,-5.98819 -11.94095,-6.02362 -4.81889,0.0354 -8.82283,2.01968 -12.01181,6.02362 -3.15354,3.9685 -4.74803,10.02756 -4.74803,18.07086 z"
         style="fill:#ffff00;fill-opacity:1;fill-rule:nonzero;stroke:none"
         inkscape:connector-curvature="0" />
      <path
         id="path3090"
         d="m 601.97245,660.54332 -9.63779,0 0,-68.06693 c -2.30315,2.44488 -5.3504,4.88976 -9.14173,7.33464 -3.75591,2.48032 -7.15749,4.32284 -10.13386,5.52756 l 0,-10.31102 c 5.38582,-2.79921 10.09842,-6.20079 14.13779,-10.20473 4.03937,-4.00393 6.87402,-7.86614 8.57481,-11.62204 l 6.20078,0 z"
         style="fill:#ffff00;fill-opacity:1;fill-rule:nonzero;stroke:none"
         inkscape:connector-curvature="0" />
      <path
         id="path3092"
         d="m 626.81104,637.58269 9.63779,-1.45276 c 1.09843,6.05906 2.97638,10.41732 5.63386,13.11024 2.69291,2.65748 5.91732,4.00393 9.74409,4.00393 4.53544,0 8.36221,-1.73622 11.48032,-5.24409 3.15354,-3.47244 4.7126,-7.79528 4.7126,-12.93307 0,-4.88976 -1.45276,-8.92913 -4.35827,-12.11811 -2.87008,-3.18898 -6.55512,-4.78347 -11.01968,-4.78347 -1.84252,0 -4.11024,0.38977 -6.80315,1.1693 l 1.06299,-9.35434 c 0.63779,0.0709 1.16929,0.1063 1.55905,0.1063 4.11024,0 7.79528,-1.16929 11.09055,-3.5433 3.25985,-2.37402 4.9252,-6.05906 4.9252,-10.98426 0,-3.93307 -1.20472,-7.15748 -3.57874,-9.74409 -2.40945,-2.55118 -5.49213,-3.8622 -9.28346,-3.8622 -3.75591,0 -6.87402,1.31102 -9.38977,3.93307 -2.48031,2.62204 -4.11023,6.51968 -4.8189,11.76378 l -9.63779,-1.91339 c 1.16929,-7.15748 3.8622,-12.72047 8.04331,-16.65354 4.1811,-3.93307 9.35433,-5.88189 15.59055,-5.88189 4.2874,0 8.22047,0.99212 11.83464,3.04724 3.61418,2.01969 6.37796,4.8189 8.29134,8.32677 1.91339,3.50788 2.87008,7.26378 2.87008,11.23229 0,3.7559 -0.92126,7.15748 -2.72835,10.24015 -1.84251,3.08268 -4.53543,5.563 -8.11417,7.37008 4.64173,1.16929 8.25591,3.64961 10.84252,7.37008 2.55118,3.75591 3.86221,8.43307 3.86221,14.0315 0,7.61811 -2.51575,14.06693 -7.51182,19.34645 -4.99606,5.27953 -11.33858,7.90158 -18.99212,7.90158 -6.87402,0 -12.61417,-2.26772 -17.14961,-6.80315 -4.57086,-4.57087 -7.15748,-10.45276 -7.79527,-17.6811 z"
         style="fill:#ffff00;fill-opacity:1;fill-rule:nonzero;stroke:none"
         inkscape:connector-curvature="0" />
      <path
         id="path3094"
         d="m 686.2323,584.04332 c 0,-6.69685 0.63779,-12.08268 1.87795,-16.15748 1.24016,-4.07481 3.08268,-7.19292 5.52756,-9.4252 2.44488,-2.19685 5.52756,-3.33071 9.24803,-3.33071 2.76378,0 5.1378,0.6378 7.22835,1.84252 2.05512,1.24016 3.7559,2.97638 5.10236,5.27953 1.34646,2.30315 2.40945,5.10236 3.18898,8.43307 0.74409,3.29527 1.13385,7.75984 1.13385,13.35827 0,6.62598 -0.60236,11.97637 -1.84252,16.05118 -1.24015,4.0748 -3.08267,7.22834 -5.52755,9.46063 -2.44489,2.23228 -5.52756,3.33071 -9.28347,3.33071 -4.9252,0 -8.7874,-1.94882 -11.58661,-5.84646 -3.36615,-4.7126 -5.06693,-12.40158 -5.06693,-22.99606 z m 6.44882,0 c 0,9.28346 0.99212,15.44882 2.94094,18.53149 1.98425,3.08268 4.3937,4.6063 7.26378,4.6063 2.90551,0 5.31496,-1.55905 7.26378,-4.64173 1.98425,-3.08268 2.94095,-9.24803 2.94095,-18.49606 0,-9.3189 -0.9567,-15.48426 -2.94095,-18.56693 -1.94882,-3.04725 -4.3937,-4.57087 -7.33465,-4.57087 -2.87007,0 -5.17322,1.34646 -6.87401,4.03937 -2.16142,3.43701 -3.25984,9.81496 -3.25984,19.09843 z"
         style="fill:#ffff00;fill-opacity:1;fill-rule:nonzero;stroke:none"
         inkscape:connector-curvature="0" />
      <path
         id="path3096"
         d="m 725.95277,584.04332 c 0,-6.69685 0.6378,-12.08268 1.87795,-16.15748 1.24016,-4.07481 3.08268,-7.19292 5.52756,-9.4252 2.44488,-2.19685 5.52756,-3.33071 9.24803,-3.33071 2.72835,0 5.1378,0.6378 7.22835,1.84252 2.05512,1.24016 3.75591,2.97638 5.10236,5.27953 1.34646,2.30315 2.40945,5.10236 3.18898,8.43307 0.74409,3.29527 1.13386,7.75984 1.13386,13.35827 0,6.62598 -0.60236,11.97637 -1.84252,16.05118 -1.24016,4.0748 -3.08268,7.22834 -5.52756,9.46063 -2.44488,2.23228 -5.52756,3.33071 -9.28347,3.33071 -4.92519,0 -8.7874,-1.94882 -11.58661,-5.84646 -3.36614,-4.7126 -5.06693,-12.40158 -5.06693,-22.99606 z m 6.44882,0 c 0,9.28346 0.99213,15.44882 2.94094,18.53149 1.94882,3.08268 4.39371,4.6063 7.26378,4.6063 2.87008,0 5.31496,-1.55905 7.26378,-4.64173 1.94882,-3.08268 2.94095,-9.24803 2.94095,-18.49606 0,-9.3189 -0.99213,-15.48426 -2.94095,-18.56693 -1.94882,-3.04725 -4.3937,-4.57087 -7.33464,-4.57087 -2.87008,0 -5.17323,1.34646 -6.90945,4.03937 -2.16142,3.43701 -3.22441,9.81496 -3.22441,19.09843 z"
         style="fill:#ffff00;fill-opacity:1;fill-rule:nonzero;stroke:none"
         inkscape:connector-curvature="0" />
      <path
         id="path3098"
         d="m 94.996065,729.42521 49.748035,0 0,80.96457 -16.08662,0 0,-65.79922 -17.5748,0 0,65.79922 -16.086615,0 z"
         style="fill:#ffff00;fill-opacity:1;fill-rule:nonzero;stroke:none"
         inkscape:connector-curvature="0" />
      <path
         id="path3100"
         d="m 183.33071,810.38978 0,-22.7126 -6.69685,0 -8.2559,22.7126 -15.44882,0 10.94882,-26.22048 c -5.0315,-3.15354 -7.54725,-8.1496 -7.54725,-14.95275 0,-4.9252 1.27559,-9.28347 3.82677,-13.07481 2.55118,-3.79133 7.47638,-5.66929 14.81103,-5.66929 l 23.45669,0 0,59.91733 z m 0,-34.68898 0,-14.31496 -6.48425,0 c -2.37402,0 -3.93307,0.60236 -4.7126,1.80709 -0.77953,1.20472 -1.20472,3.15354 -1.20472,5.77559 0,1.94881 0.38976,3.5433 1.09842,4.81889 0.70866,1.27559 2.55118,1.91339 5.49213,1.91339 z"
         style="fill:#ffff00;fill-opacity:1;fill-rule:nonzero;stroke:none"
         inkscape:connector-curvature="0" />
      <path
         id="path3102"
         d="m 203.70473,750.47245 40.8189,0 0,13.2874 -13.07481,0 0,46.62993 -15.05905,0 0,-46.62993 -12.68504,0 z"
         style="fill:#ffff00;fill-opacity:1;fill-rule:nonzero;stroke:none"
         inkscape:connector-curvature="0" />
      <path
         id="path3104"
         d="m 249.73229,810.38978 0,-59.91733 15.09449,0 0,21.47244 12.01181,0 0,-21.47244 15.12992,0 0,59.91733 -15.12992,0 0,-25.44095 -12.01181,0 0,25.44095 z"
         style="fill:#ffff00;fill-opacity:1;fill-rule:nonzero;stroke:none"
         inkscape:connector-curvature="0" />
      <path
         id="path3106"
         d="m 318.22442,803.2323 0,7.15748 -15.12993,0 0,-59.91733 15.12993,0 -0.0709,28.77166 12.22441,-21.04725 0,-7.72441 15.12992,0 0,59.91733 -15.12992,0 0,-27.92126 -2.44488,4.5 z"
         style="fill:#ffff00;fill-opacity:1;fill-rule:nonzero;stroke:none"
         inkscape:connector-curvature="0" />
      <path
         id="path3108"
         d="m 356.70473,810.46064 0,-59.98819 15.09449,0 0,46.98426 10.84252,0 0,-46.98426 15.05906,0 0,46.98426 6.69685,0 0,27.07086 -10.87796,0 -1.34645,-14.06693 z"
         style="fill:#ffff00;fill-opacity:1;fill-rule:nonzero;stroke:none"
         inkscape:connector-curvature="0" />
      <path
         id="path3110"
         d="m 423.67324,769.53545 -14.31496,-1.55906 c 0.70866,-6.02362 3.01181,-10.62992 6.94488,-13.88976 3.9685,-3.22441 8.92913,-4.85433 14.95275,-4.85433 5.06693,0 9.14174,1.06299 12.18898,3.2244 3.08268,2.16142 5.0315,4.67717 5.84646,7.51182 0.77953,2.83464 1.20472,7.26378 1.20472,13.21653 l 0,23.91732 c 0,7.44095 0.28347,11.87008 0.88583,13.28741 l -13.99606,0 c -0.49607,-1.59449 -0.7441,-4.67717 -0.7441,-9.17717 -3.29527,6.94488 -8.2559,10.45276 -14.84646,10.45276 -4.21653,0 -7.61811,-1.41733 -10.27559,-4.21654 -2.65748,-2.76378 -3.9685,-6.83858 -3.9685,-12.18898 0,-6.66141 2.01968,-11.83464 5.98819,-15.51968 4.00394,-3.64961 11.30315,-5.84646 21.89764,-6.55512 l 0,-2.23228 c 0,-4.00394 -0.38977,-6.76772 -1.09843,-8.32677 -0.74409,-1.52363 -2.16142,-2.30315 -4.2874,-2.30315 -3.86221,0 -5.98819,3.08267 -6.37795,9.2126 z m 11.76378,12.2244 c -4.3937,0.5315 -7.54725,1.62993 -9.4252,3.22441 -1.87795,1.59449 -2.79921,4.28741 -2.79921,8.07874 0,5.06693 1.66535,7.61811 5.03149,7.61811 1.80709,0 3.47244,-1.13385 4.96063,-3.437 1.48819,-2.26772 2.23229,-6.44882 2.23229,-12.54331 z"
         style="fill:#ffff00;fill-opacity:1;fill-rule:nonzero;stroke:none"
         inkscape:connector-curvature="0" />
      <path
         id="path3112"
         d="m 132.48425,941.24411 9.46063,1.38189 c -1.02755,7.22835 -3.68503,12.89764 -7.937,16.97244 -4.2874,4.11024 -9.5315,6.16535 -15.73229,6.16535 -7.79527,0 -14.06693,-2.83464 -18.779525,-8.4685 -4.748032,-5.63386 -7.122047,-13.7126 -7.122047,-24.23622 0,-6.80315 1.027559,-12.75591 3.047244,-17.85827 2.055118,-5.10236 5.137798,-8.92913 9.318898,-11.48031 4.14567,-2.55118 8.6811,-3.82678 13.57087,-3.82678 6.20078,0 11.23228,1.73623 15.16535,5.17323 3.93307,3.47244 6.44882,8.39764 7.58268,14.77559 l -9.38977,1.59449 c -0.88582,-4.25197 -2.48031,-7.44094 -4.74803,-9.56693 -2.26771,-2.12598 -4.99606,-3.18897 -8.22047,-3.18897 -4.85433,0 -8.82284,1.91338 -11.83465,5.77559 -3.04724,3.8622 -4.57086,9.95669 -4.57086,18.3189 0,8.4685 1.45275,14.59842 4.3937,18.42519 2.94094,3.86221 6.76772,5.77559 11.48031,5.77559 3.79134,0 6.94489,-1.27559 9.46063,-3.8622 2.55118,-2.58662 4.14567,-6.51969 4.85433,-11.87008 z"
         style="fill:#ffff00;fill-opacity:1;fill-rule:nonzero;stroke:none"
         inkscape:connector-curvature="0" />
      <path
         id="path3114"
         d="m 179.39764,944.22049 9.28347,-0.9567 c 0.77952,4.8189 2.30315,8.32678 4.5,10.48819 2.23228,2.19685 5.06693,3.29528 8.53937,3.29528 2.94094,0 5.56299,-0.77953 7.79527,-2.26772 2.23229,-1.48819 4.03937,-3.50787 5.49213,-6.02362 1.41732,-2.51575 2.62205,-5.91732 3.57874,-10.16929 0.95669,-4.2874 1.45275,-8.64567 1.45275,-13.0748 0,-0.46063 -0.0354,-1.1693 -0.0709,-2.12599 -1.91339,3.40158 -4.53543,6.16536 -7.90158,8.29134 -3.33071,2.09055 -6.94488,3.15354 -10.84252,3.15354 -6.51968,0 -12.01181,-2.58661 -16.51181,-7.83071 -4.5,-5.20866 -6.73228,-12.08267 -6.73228,-20.65748 0,-8.7874 2.33858,-15.90945 7.01575,-21.29527 4.7126,-5.38583 10.59449,-8.04331 17.6811,-8.04331 5.10236,0 9.77953,1.52362 13.99606,4.53543 4.25197,3.04725 7.47638,7.40552 9.67323,13.03937 2.19685,5.63386 3.29528,13.78347 3.29528,24.48426 0,11.12598 -1.09843,19.94882 -3.29528,26.53937 -2.16142,6.59055 -5.42126,11.62204 -9.70866,15.05905 -4.32284,3.43701 -9.35433,5.1378 -15.12992,5.1378 -6.16536,0 -11.19685,-1.87796 -15.05906,-5.66929 -3.89764,-3.75591 -6.23622,-9.07087 -7.05118,-15.90945 z m 39.50788,-38.40945 c 0,-6.12992 -1.45276,-10.98425 -4.42914,-14.59843 -2.94094,-3.57874 -6.48425,-5.38582 -10.62992,-5.38582 -4.2874,0 -8.00787,1.94881 -11.19685,5.81102 -3.18898,3.89764 -4.78346,8.8937 -4.78346,15.09449 0,5.52756 1.52362,10.02756 4.53543,13.46456 3.01181,3.47245 6.76772,5.20867 11.19685,5.20867 4.46457,0 8.11417,-1.73622 10.98425,-5.20867 2.90551,-3.437 4.32284,-8.2559 4.32284,-14.38582 z"
         style="fill:#ffff00;fill-opacity:1;fill-rule:nonzero;stroke:none"
         inkscape:connector-curvature="0" />
      <path
         id="path3116"
         d="m 237.47245,887.84647 c 0,-6.69685 0.60236,-12.08268 1.84252,-16.15748 1.24015,-4.0748 3.11811,-7.22835 5.56299,-9.4252 2.44488,-2.19685 5.52756,-3.33071 9.24803,-3.33071 2.72835,0 5.13779,0.6378 7.19291,1.84252 2.09055,1.24016 3.79134,2.97638 5.1378,5.27953 1.34645,2.30315 2.40945,5.10236 3.15354,8.43307 0.77953,3.29528 1.16929,7.75985 1.16929,13.35827 0,6.62598 -0.63779,11.97638 -1.84252,16.05118 -1.24015,4.07481 -3.08267,7.22835 -5.52756,9.46063 -2.44488,2.23229 -5.56299,3.33071 -9.28346,3.33071 -4.9252,0 -8.7874,-1.94882 -11.62205,-5.88189 -3.36614,-4.67716 -5.03149,-12.36614 -5.03149,-22.96063 z m 6.44881,0 c 0,9.28347 0.9567,15.44882 2.94095,18.5315 1.94882,3.04724 4.35827,4.6063 7.26378,4.6063 2.87008,0 5.27953,-1.55906 7.26378,-4.64174 1.94882,-3.08267 2.94094,-9.24803 2.94094,-18.49606 0,-9.3189 -0.99212,-15.48425 -2.94094,-18.56693 -1.98425,-3.04724 -4.42913,-4.57087 -7.33465,-4.57087 -2.87008,0 -5.17323,1.34646 -6.90945,4.03938 -2.16141,3.437 -3.22441,9.81496 -3.22441,19.09842 z"
         style="fill:#ffff00;fill-opacity:1;fill-rule:nonzero;stroke:none"
         inkscape:connector-curvature="0" />
      <path
         id="path3118"
         d="m 277.19292,887.84647 c 0,-6.69685 0.60236,-12.08268 1.84252,-16.15748 1.24016,-4.0748 3.08268,-7.22835 5.52756,-9.4252 2.48031,-2.19685 5.56299,-3.33071 9.28346,-3.33071 2.72835,0 5.1378,0.6378 7.19292,1.84252 2.05511,1.24016 3.79133,2.97638 5.13779,5.27953 1.34646,2.30315 2.37402,5.10236 3.15354,8.43307 0.77953,3.29528 1.13386,7.75985 1.13386,13.35827 0,6.62598 -0.60236,11.97638 -1.84252,16.05118 -1.20472,4.07481 -3.04724,7.22835 -5.49212,9.46063 -2.48032,2.23229 -5.56299,3.33071 -9.28347,3.33071 -4.92519,0 -8.82283,-1.94882 -11.62204,-5.88189 -3.36615,-4.67716 -5.0315,-12.36614 -5.0315,-22.96063 z m 6.41338,0 c 0,9.28347 0.99213,15.44882 2.97638,18.5315 1.94882,3.04724 4.35827,4.6063 7.26378,4.6063 2.87008,0 5.27953,-1.55906 7.22835,-4.64174 1.98425,-3.08267 2.97638,-9.24803 2.97638,-18.49606 0,-9.3189 -0.99213,-15.48425 -2.97638,-18.56693 -1.94882,-3.04724 -4.3937,-4.57087 -7.29921,-4.57087 -2.90552,0 -5.20867,1.34646 -6.90945,4.03938 -2.16142,3.437 -3.25985,9.81496 -3.25985,19.09842 z"
         style="fill:#ffff00;fill-opacity:1;fill-rule:nonzero;stroke:none"
         inkscape:connector-curvature="0" />
      <path
         id="path3120"
         d="m 359.22048,901.31104 39.64961,0 0,54.24803 6.16535,0 0,26.64567 -7.93701,0 0,-17.85827 -44.7874,0 0,17.85827 -7.93701,0 0,-26.64567 5.10236,0 c 6.76772,-10.20472 10.02756,-28.31102 9.7441,-54.24803 z m 8.04331,8.85827 c -0.70866,20.44488 -3.57874,35.5748 -8.57481,45.38976 l 30.57874,0 0,-45.38976 z"
         style="fill:#ffff00;fill-opacity:1;fill-rule:nonzero;stroke:none"
         inkscape:connector-curvature="0" />
      <path
         id="path3122"
         d="m 412.12206,932.81104 c 0,-11.65748 2.90551,-20.30315 8.7874,-25.90158 4.88976,-4.67716 10.84252,-7.01575 17.8937,-7.01575 7.83071,0 14.20866,2.83465 19.16929,8.50394 4.96063,5.66929 7.47638,13.53544 7.47638,23.52756 0,8.11417 -1.09843,14.49213 -3.29528,19.13386 -2.19685,4.64173 -5.42126,8.25591 -9.60236,10.84252 -4.21654,2.55118 -8.7874,3.8622 -13.74803,3.8622 -7.97244,0 -14.42126,-2.83464 -19.31103,-8.50393 -4.92519,-5.63386 -7.37007,-13.78347 -7.37007,-24.44882 z m 9.88582,0 c 0,8.07874 1.59449,14.13779 4.78347,18.14173 3.18897,4.00394 7.19291,6.02362 12.01181,6.02362 4.78346,0 8.75197,-2.01968 11.94094,-6.05905 3.18898,-4.03937 4.78347,-10.16929 4.78347,-18.46063 0,-7.79528 -1.59449,-13.67717 -4.8189,-17.71654 -3.18898,-4.00394 -7.15748,-6.02362 -11.90551,-6.02362 -4.8189,0 -8.82284,2.01968 -12.01181,6.02362 -3.18898,3.96851 -4.78347,10.02756 -4.78347,18.07087 z"
         style="fill:#ffff00;fill-opacity:1;fill-rule:nonzero;stroke:none"
         inkscape:connector-curvature="0" />
      <path
         id="path3124"
         d="m 540.88584,964.34647 -9.6378,0 0,-68.06693 c -2.33858,2.44488 -5.38582,4.88977 -9.14173,7.33465 -3.75591,2.48031 -7.15748,4.32283 -10.16929,5.52756 l 0,-10.31103 c 5.42126,-2.79921 10.13386,-6.20078 14.17323,-10.20472 4.03937,-4.00394 6.87401,-7.86614 8.5748,-11.62205 l 6.20079,0 z"
         style="fill:#ffff00;fill-opacity:1;fill-rule:nonzero;stroke:none"
         inkscape:connector-curvature="0" />
      <path
         id="path3126"
         d="m 615.72048,898.65356 -9.60236,0.81496 c -0.85039,-4.1811 -2.09055,-7.22835 -3.6496,-9.14173 -2.62205,-3.04725 -5.81103,-4.57087 -9.6378,-4.57087 -3.08268,0 -5.77559,0.95669 -8.11417,2.87008 -3.01181,2.44488 -5.42126,6.02362 -7.15748,10.73622 -1.77166,4.7126 -2.65748,11.40945 -2.72835,20.12598 2.30315,-3.93307 5.1378,-6.83858 8.50394,-8.75197 3.36614,-1.87795 6.87401,-2.83464 10.55905,-2.83464 6.41339,0 11.90551,2.62205 16.44095,7.86614 4.5,5.2441 6.76771,12.01181 6.76771,20.30315 0,5.49213 -1.06299,10.55906 -3.18897,15.23622 -2.12599,4.67717 -5.06693,8.29134 -8.75197,10.77166 -3.72047,2.48031 -7.93701,3.72047 -12.64961,3.72047 -8.0433,0 -14.59842,-3.25984 -19.66535,-9.81496 -5.10236,-6.51969 -7.61811,-17.32677 -7.61811,-32.3504 0,-16.83071 2.79921,-29.05512 8.39764,-36.67323 4.88976,-6.66141 11.48031,-9.95669 19.77165,-9.95669 6.20079,0 11.26772,1.91339 15.20079,5.74016 3.9685,3.82677 6.30708,9.14173 7.12204,15.90945 z m -39.40157,37.48819 c 0,3.68504 0.70866,7.19291 2.12598,10.55905 1.38189,3.36614 3.36615,5.91733 5.91733,7.68898 2.51574,1.77165 5.17322,2.65748 7.97244,2.65748 4.0748,0 7.58267,-1.84252 10.52362,-5.45669 2.90551,-3.64961 4.3937,-8.61024 4.3937,-14.84646 0,-6.02362 -1.45276,-10.77165 -4.35827,-14.20866 -2.90551,-3.47244 -6.51968,-5.20866 -10.94882,-5.20866 -4.35826,0 -8.0433,1.73622 -11.09055,5.20866 -3.01181,3.43701 -4.53543,8.00787 -4.53543,13.6063 z"
         style="fill:#ffff00;fill-opacity:1;fill-rule:nonzero;stroke:none"
         inkscape:connector-curvature="0" />
      <path
         id="path3128"
         d="m 625.14568,887.84647 c 0,-6.69685 0.6378,-12.08268 1.87795,-16.15748 1.24016,-4.0748 3.08268,-7.22835 5.52756,-9.4252 2.44489,-2.19685 5.52756,-3.33071 9.24804,-3.33071 2.72834,0 5.13779,0.6378 7.22834,1.84252 2.05512,1.24016 3.75591,2.97638 5.10236,5.27953 1.34646,2.30315 2.40945,5.10236 3.18898,8.43307 0.7441,3.29528 1.13386,7.75985 1.13386,13.35827 0,6.62598 -0.60236,11.97638 -1.84252,16.05118 -1.24016,4.07481 -3.08268,7.22835 -5.52756,9.46063 -2.44488,2.23229 -5.52756,3.33071 -9.28346,3.33071 -4.9252,0 -8.78741,-1.94882 -11.58662,-5.88189 -3.36614,-4.67716 -5.06693,-12.36614 -5.06693,-22.96063 z m 6.44882,0 c 0,9.28347 0.99213,15.44882 2.94095,18.5315 1.94881,3.04724 4.3937,4.6063 7.26378,4.6063 2.87007,0 5.31496,-1.55906 7.26378,-4.64174 1.94881,-3.08267 2.94094,-9.24803 2.94094,-18.49606 0,-9.3189 -0.99213,-15.48425 -2.94094,-18.56693 -1.94882,-3.04724 -4.39371,-4.57087 -7.33465,-4.57087 -2.87008,0 -5.17323,1.34646 -6.90945,4.03938 -2.16142,3.437 -3.22441,9.81496 -3.22441,19.09842 z"
         style="fill:#ffff00;fill-opacity:1;fill-rule:nonzero;stroke:none"
         inkscape:connector-curvature="0" />
      <path
         id="path3130"
         d="m 664.86616,887.84647 c 0,-6.69685 0.60236,-12.08268 1.84251,-16.15748 1.2756,-4.0748 3.11812,-7.22835 5.563,-9.4252 2.44488,-2.19685 5.52756,-3.33071 9.24803,-3.33071 2.72835,0 5.13779,0.6378 7.19291,1.84252 2.09055,1.24016 3.79134,2.97638 5.1378,5.27953 1.34645,2.30315 2.40945,5.10236 3.15354,8.43307 0.77953,3.29528 1.16929,7.75985 1.16929,13.35827 0,6.62598 -0.63779,11.97638 -1.84252,16.05118 -1.24015,4.07481 -3.08267,7.22835 -5.52756,9.46063 -2.44488,2.23229 -5.56299,3.33071 -9.28346,3.33071 -4.9252,0 -8.7874,-1.94882 -11.62205,-5.88189 -3.36614,-4.67716 -5.03149,-12.36614 -5.03149,-22.96063 z m 6.44881,0 c 0,9.28347 0.9567,15.44882 2.94095,18.5315 1.94882,3.04724 4.3937,4.6063 7.26378,4.6063 2.87008,0 5.27953,-1.55906 7.26378,-4.64174 1.94882,-3.08267 2.94094,-9.24803 2.94094,-18.49606 0,-9.3189 -0.99212,-15.48425 -2.94094,-18.56693 -1.98425,-3.04724 -4.42914,-4.57087 -7.33465,-4.57087 -2.87008,0 -5.17323,1.34646 -6.90945,4.03938 -2.16141,3.437 -3.22441,9.81496 -3.22441,19.09842 z"
         style="fill:#ffff00;fill-opacity:1;fill-rule:nonzero;stroke:none"
         inkscape:connector-curvature="0" />
      <path
         id="path3132"
         d="m 94.996065,1033.1929 24.980315,0 c 5.84646,0 10.27559,0.5315 13.25197,1.5591 3.01181,1.0275 5.49213,3.2953 7.51181,6.7677 2.01969,3.4724 3.04724,7.7953 3.04724,13.0039 0,9.0355 -3.50787,14.8465 -10.45275,17.4331 8.29134,3.2599 12.43701,9.8858 12.43701,19.878 0,5.2441 -1.13386,9.7086 -3.40158,13.3228 -2.23228,3.6142 -5.03149,6.0236 -8.32677,7.2283 -3.29528,1.2048 -7.97244,1.8071 -14.06693,1.8071 l -24.980315,0 z m 15.448815,32.7048 5.20867,0 c 5.17322,0 8.43307,-1.0276 9.77952,-3.0827 1.31103,-2.0551 1.98426,-4.3937 1.98426,-7.0512 0,-2.4449 -0.67323,-4.6417 -1.98426,-6.5551 -1.34645,-1.9134 -4.21653,-2.8701 -8.61023,-2.8701 l -6.37796,0 z m 0,34.37 7.86615,0 c 7.40551,0 11.09055,-3.5433 11.09055,-10.559 0,-3.9331 -0.92126,-6.6969 -2.76378,-8.2914 -1.84252,-1.5944 -4.6063,-2.4094 -8.32677,-2.4094 l -7.86615,0 z"
         style="fill:#ffff00;fill-opacity:1;fill-rule:nonzero;stroke:none"
         inkscape:connector-curvature="0" />
      <path
         id="path3134"
         d="m 155.40945,1114.1929 0,-59.9173 15.09449,0 0,20.6929 9.92126,0 c 5.91732,0 10.16929,1.9488 12.79134,5.8465 2.62205,3.8976 3.93307,8.5039 3.93307,13.8189 0,5.6338 -1.38189,10.311 -4.11024,14.0315 -2.76378,3.685 -7.19291,5.5275 -13.2874,5.5275 z m 15.09449,-11.6929 7.19291,0 c 0.99213,0 2.05512,-0.6023 3.15355,-1.8779 1.13386,-1.2756 1.66535,-3.2599 1.66535,-5.9882 0,-5.1024 -1.59449,-7.6536 -4.8189,-7.6536 l -7.19291,0 z m 32.52756,11.6929 0,-59.9173 15.05906,0 0,59.9173 z"
         style="fill:#ffff00;fill-opacity:1;fill-rule:nonzero;stroke:none"
         inkscape:connector-curvature="0" />
      <path
         id="path3136"
         d="m 222.98032,1054.2756 16.40551,0 5.74016,13.8898 6.94488,-13.8898 13.14567,0 -13.99606,26.4685 16.12205,33.4488 -16.33465,0 -7.93701,-17.8937 -9.03543,17.8937 -13.14567,0 16.01575,-30.6496 z"
         style="fill:#ffff00;fill-opacity:1;fill-rule:nonzero;stroke:none"
         inkscape:connector-curvature="0" />
      <path
         id="path3138"
         d="m 311.9882,1084.252 c 0,20.7992 -7.29922,31.1811 -21.96851,31.1811 -14.66929,0 -22.00394,-10.3819 -22.00394,-31.1811 0,-20.7638 7.33465,-31.1811 22.00394,-31.1811 14.66929,0 21.96851,10.4173 21.96851,31.1811 z m -15.59056,0 c 0,-7.6536 -0.46063,-12.8268 -1.41732,-15.4843 -0.95669,-2.6929 -2.58661,-4.0393 -4.96063,-4.0393 -2.26772,0 -3.93307,1.2756 -4.9252,3.8267 -0.99212,2.5512 -1.48819,7.7599 -1.48819,15.6969 0,7.2992 0.4252,12.4016 1.2756,15.2362 0.85039,2.8347 2.58661,4.2874 5.13779,4.2874 2.48032,0 4.14567,-1.4173 5.0315,-4.252 0.92126,-2.8346 1.34645,-7.937 1.34645,-15.2716 z"
         style="fill:#ffff00;fill-opacity:1;fill-rule:nonzero;stroke:none"
         inkscape:connector-curvature="0" />
      <path
         id="path3140"
         d="m 318.75591,1101.2599 10.87795,-46.9843 19.59449,0 9.77953,46.9843 4.3937,0 0,26.2913 -10.94882,0 -1.27559,-13.2874 -24.59055,0 -1.34646,13.2874 -10.94882,0 0,-26.2913 z m 11.30315,0 13.8189,0 -5.66929,-30.8977 -0.95669,0 z"
         style="fill:#ffff00;fill-opacity:1;fill-rule:nonzero;stroke:none"
         inkscape:connector-curvature="0" />
      <path
         id="path3142"
         d="m 368.04331,1114.1929 0,-59.9173 15.12993,0 0,21.4724 12.01181,0 0,-21.4724 15.09449,0 0,59.9173 -15.09449,0 0,-25.4409 -12.01181,0 0,25.4409 z"
         style="fill:#ffff00;fill-opacity:1;fill-rule:nonzero;stroke:none"
         inkscape:connector-curvature="0" />
      <path
         id="path3144"
         d="m 463.11025,1084.252 c 0,20.7992 -7.29922,31.1811 -21.96851,31.1811 -14.66929,0 -22.00394,-10.3819 -22.00394,-31.1811 0,-20.7638 7.33465,-31.1811 22.00394,-31.1811 14.66929,0 21.96851,10.4173 21.96851,31.1811 z m -15.59056,0 c 0,-7.6536 -0.46063,-12.8268 -1.41732,-15.4843 -0.92126,-2.6929 -2.58661,-4.0393 -4.96063,-4.0393 -2.26772,0 -3.93307,1.2756 -4.9252,3.8267 -0.99212,2.5512 -1.48818,7.7599 -1.48818,15.6969 0,7.2992 0.42519,12.4016 1.27559,15.2362 0.85039,2.8347 2.58661,4.2874 5.13779,4.2874 2.48032,0 4.14567,-1.4173 5.06693,-4.252 0.88583,-2.8346 1.31102,-7.937 1.31102,-15.2716 z"
         style="fill:#ffff00;fill-opacity:1;fill-rule:nonzero;stroke:none"
         inkscape:connector-curvature="0" />
      <path
         id="path3146"
         d="m 487.13387,1107.0355 0,7.1574 -15.09449,0 0,-59.9173 15.09449,0 -0.0354,28.7717 12.18898,-21.0473 0,-7.7244 15.12992,0 0,59.9173 -15.12992,0 0,-27.9212 -2.44488,4.5 z m -11.26772,-75.0119 8.64567,0 c 1.48819,4.1457 4.53543,6.2363 9.1063,6.2363 4.53543,0 7.58268,-2.0906 9.1063,-6.2363 l 8.64567,0 c -2.55118,9.9213 -8.46851,14.8819 -17.75197,14.8819 -9.2126,0 -15.12992,-4.9606 -17.75197,-14.8819 z"
         style="fill:#ffff00;fill-opacity:1;fill-rule:nonzero;stroke:none"
         inkscape:connector-curvature="0" />
      <path
         id="path3148"
         d="m 134.07874,1228.252 -14.03149,0.6023 c -0.2126,-3.685 -0.77953,-6.4842 -1.62992,-8.3622 -0.8504,-1.8779 -2.30315,-2.7992 -4.32284,-2.7992 -5.06693,0 -7.61811,5.8819 -7.61811,17.6811 0,6.8386 0.60236,11.6221 1.84252,14.3504 1.24016,2.7284 3.08268,4.1103 5.49213,4.1103 3.79133,0 5.88189,-3.7205 6.23622,-11.126 l 14.03149,1.0275 c -1.24015,15.7323 -8.32677,23.5985 -21.22441,23.5985 -6.98031,0 -12.29527,-2.5866 -16.015745,-7.7953 -3.68504,-5.2087 -5.52756,-12.9331 -5.52756,-23.2087 0,-10.2047 1.948819,-18 5.811024,-23.3149 3.862201,-5.3504 9.318901,-8.0433 16.334651,-8.0433 12.6496,0 19.52362,7.7598 20.62204,23.2795 z"
         style="fill:#ffff00;fill-opacity:1;fill-rule:nonzero;stroke:none"
         inkscape:connector-curvature="0" />
      <path
         id="path3150"
         d="m 135.24803,1206.1772 15.12993,0 7.26378,36.6023 7.05118,-36.6023 13.00393,0 -16.29921,60.874 c -1.55905,5.811 -2.90551,9.8858 -4.00394,12.2244 -1.09842,2.3386 -2.76378,4.252 -4.99606,5.7756 -2.19685,1.5236 -5.0315,2.3032 -8.4685,2.3032 -2.09055,0 -4.25197,-0.3189 -6.41339,-0.9567 l 0,-13.1811 c 1.48819,0.248 2.90551,0.3543 4.21654,0.3543 2.94094,0 4.96063,-0.5315 6.02362,-1.5945 1.09842,-1.063 2.12598,-3.4016 3.08268,-7.0158 z"
         style="fill:#ffff00;fill-opacity:1;fill-rule:nonzero;stroke:none"
         inkscape:connector-curvature="0" />
      <path
         id="path3152"
         d="m 206.96457,1180.063 13.78347,0 c 0,2.941 -0.56693,5.2441 -1.62993,6.9449 -1.06299,1.7008 -2.76377,3.2598 -5.13779,4.6417 -2.37402,1.3819 -5.35039,2.5866 -9,3.6142 -2.58662,0.7441 -4.3937,1.4528 -5.45669,2.0551 -1.02756,0.6378 -1.98426,1.7362 -2.87008,3.2599 -0.8504,1.5236 -1.62992,3.7913 -2.40945,6.8385 2.83464,-2.4803 6.34252,-3.7204 10.52362,-3.7204 6.27165,0 11.30315,2.7992 15.09449,8.3976 3.79134,5.6339 5.70472,13.3937 5.70472,23.3504 0,10.1339 -2.05511,18.0354 -6.09448,23.6693 -4.03937,5.5984 -9.81497,8.3976 -17.22048,8.3976 -15.37795,0 -23.06693,-11.4449 -23.06693,-34.3346 0,-13.9606 1.73622,-24.9803 5.17323,-32.9882 3.47244,-8.0433 8.53937,-12.7913 15.20079,-14.2441 3.15354,-0.6732 5.13779,-1.3465 5.98819,-2.0551 0.81496,-0.6732 1.31102,-1.9488 1.41732,-3.8268 z m -4.9252,36.6024 c -5.45669,0 -8.1496,6.4842 -8.1496,19.4173 0,12.2953 2.72834,18.4606 8.2559,18.4606 5.2441,0 7.86615,-6.1653 7.86615,-18.4606 0,-12.9331 -2.65749,-19.4173 -7.97245,-19.4173 z"
         style="fill:#ffff00;fill-opacity:1;fill-rule:nonzero;stroke:none"
         inkscape:connector-curvature="0" />
      <path
         id="path3154"
         d="m 259.68898,1180.063 13.78347,0 c 0,2.941 -0.5315,5.2441 -1.62992,6.9449 -1.063,1.7008 -2.76378,3.2598 -5.1378,4.6417 -2.33858,1.3819 -5.35039,2.5866 -9,3.6142 -2.55118,0.7441 -4.3937,1.4528 -5.42126,2.0551 -1.06299,0.6378 -2.01969,1.7362 -2.87008,3.2599 -0.85039,1.5236 -1.66535,3.7913 -2.40945,6.8385 2.79921,-2.4803 6.30709,-3.7204 10.48819,-3.7204 6.30709,0 11.33858,2.7992 15.12992,8.3976 3.79134,5.6339 5.66929,13.3937 5.66929,23.3504 0,10.1339 -2.01968,18.0354 -6.09448,23.6693 -4.03937,5.5984 -9.77953,8.3976 -17.22048,8.3976 -15.37795,0 -23.03149,-11.4449 -23.03149,-34.3346 0,-13.9606 1.70078,-24.9803 5.17322,-32.9882 3.43701,-8.0433 8.50394,-12.7913 15.16536,-14.2441 3.15354,-0.6732 5.1378,-1.3465 5.98819,-2.0551 0.85039,-0.6732 1.31102,-1.9488 1.41732,-3.8268 z m -4.9252,36.6024 c -5.42126,0 -8.1496,6.4842 -8.1496,19.4173 0,12.2953 2.76378,18.4606 8.2559,18.4606 5.2441,0 7.86615,-6.1653 7.86615,-18.4606 0,-12.9331 -2.65748,-19.4173 -7.97245,-19.4173 z"
         style="fill:#ffff00;fill-opacity:1;fill-rule:nonzero;stroke:none"
         inkscape:connector-curvature="0" />
      <path
         id="path3156"
         d="m 328.71261,1236.1536 c 0,20.7992 -7.33465,31.1811 -21.96851,31.1811 -14.66929,0 -22.03937,-10.3819 -22.03937,-31.1811 0,-20.7993 7.37008,-31.1811 22.03937,-31.1811 14.63386,0 21.96851,10.3818 21.96851,31.1811 z m -15.59056,0 c 0,-7.6536 -0.46063,-12.8268 -1.41732,-15.4843 -0.95669,-2.6929 -2.58661,-4.0394 -4.96063,-4.0394 -2.26772,0 -3.93307,1.2756 -4.9252,3.8268 -0.99212,2.5512 -1.48819,7.7599 -1.48819,15.6969 0,7.2992 0.4252,12.4015 1.2756,15.2362 0.85039,2.8346 2.55118,4.2874 5.13779,4.2874 2.48032,0 4.14567,-1.4173 5.0315,-4.252 0.88582,-2.8346 1.34645,-7.937 1.34645,-15.2716 z"
         style="fill:#ffff00;fill-opacity:1;fill-rule:nonzero;stroke:none"
         inkscape:connector-curvature="0" />
      <path
         id="path3158"
         d="m 331.65355,1206.1772 40.85433,0 0,13.2874 -13.0748,0 0,46.6299 -15.05906,0 0,-46.6299 -12.72047,0 z"
         style="fill:#ffff00;fill-opacity:1;fill-rule:nonzero;stroke:none"
         inkscape:connector-curvature="0" />
      <path
         id="path3160"
         d="m 392.17324,1225.2047 -14.31496,-1.5236 c 0.67322,-6.0236 3.01181,-10.6299 6.94488,-13.8897 3.93307,-3.2245 8.92913,-4.8544 14.91732,-4.8544 5.06693,0 9.14173,1.063 12.22441,3.2244 3.08268,2.1615 4.99606,4.6418 5.81102,7.5118 0.81496,2.8347 1.20473,7.2638 1.20473,13.2166 l 0,23.9173 c 0,7.441 0.3189,11.8701 0.92126,13.2874 l -13.99607,0 c -0.49606,-1.5945 -0.74409,-4.6772 -0.74409,-9.1772 -3.33071,6.9449 -8.25591,10.4174 -14.84646,10.4174 -4.21653,0 -7.65354,-1.3819 -10.27559,-4.1811 -2.65748,-2.7638 -3.9685,-6.8386 -3.9685,-12.189 0,-6.6614 1.98425,-11.8347 5.98819,-15.5197 4.00393,-3.6496 11.30315,-5.8465 21.8622,-6.5551 l 0,-2.2323 c 0,-4.0039 -0.35433,-6.7677 -1.09842,-8.3268 -0.70866,-1.5236 -2.16142,-2.3031 -4.25197,-2.3031 -3.86221,0 -5.98819,3.0472 -6.37795,9.1771 z m 11.72834,12.2245 c -4.3937,0.5669 -7.51181,1.6299 -9.38976,3.2598 -1.87795,1.5945 -2.83465,4.2874 -2.83465,8.0787 0,5.067 1.70079,7.6181 5.06693,7.6181 1.80709,0 3.47244,-1.1338 4.9252,-3.437 1.48819,-2.2677 2.23228,-6.4488 2.23228,-12.5433 z"
         style="fill:#ffff00;fill-opacity:1;fill-rule:nonzero;stroke:none"
         inkscape:connector-curvature="0" />
      <path
         id="path3162"
         d="m 430.97245,1248.2008 14.95276,0 0,16.2992 -9.07087,20.7638 -5.88189,0 7.01575,-19.1693 -7.01575,0 z"
         style="fill:#ffff00;fill-opacity:1;fill-rule:nonzero;stroke:none"
         inkscape:connector-curvature="0" />
      <path
         id="path3164"
         d="m 478.66536,1266.0945 0,-59.9173 27.4252,0 c 3.40158,0 6.12992,0.3897 8.14961,1.2047 2.01968,0.815 3.82677,2.4803 5.38582,5.0315 1.59449,2.5158 2.40945,5.5276 2.40945,9 0,5.4921 -2.26771,9.7441 -6.76771,12.7205 5.56299,2.9409 8.3622,7.7598 8.3622,14.4212 0,5.1378 -1.34645,9.3544 -4.0748,12.6142 -2.72835,3.2953 -6.48425,4.9252 -11.30315,4.9252 z m 16.08662,-36.6732 8.2559,0 c 1.73622,0 3.01182,-0.4252 3.79134,-1.2756 0.77953,-0.8504 1.16929,-2.374 1.16929,-4.6417 0,-1.6654 -0.24803,-3.1536 -0.74409,-4.4646 -0.49606,-1.311 -1.91339,-1.9488 -4.21654,-1.9488 l -8.2559,0 z m 0,23.7401 9,0 c 2.05512,0 3.47244,-0.5315 4.1811,-1.6653 0.70866,-1.0984 1.06299,-2.7638 1.06299,-5.0315 0,-2.1614 -0.35433,-3.8622 -1.13386,-5.0315 -0.74409,-1.1339 -2.12598,-1.7362 -4.11023,-1.7362 l -9,0 z"
         style="fill:#ffff00;fill-opacity:1;fill-rule:nonzero;stroke:none"
         inkscape:connector-curvature="0" />
      <path
         id="path3166"
         d="m 573.73229,1236.1536 c 0,20.7992 -7.29921,31.1811 -21.9685,31.1811 -14.66929,0 -22.03937,-10.3819 -22.03937,-31.1811 0,-20.7993 7.37008,-31.1811 22.03937,-31.1811 14.66929,0 21.9685,10.3818 21.9685,31.1811 z m -15.59055,0 c 0,-7.6536 -0.46063,-12.8268 -1.41732,-15.4843 -0.95669,-2.6929 -2.58661,-4.0394 -4.96063,-4.0394 -2.26772,0 -3.93307,1.2756 -4.9252,3.8268 -0.99212,2.5512 -1.48819,7.7599 -1.48819,15.6969 0,7.2992 0.4252,12.4015 1.2756,15.2362 0.85039,2.8346 2.58661,4.2874 5.13779,4.2874 2.48032,0 4.14567,-1.4173 5.0315,-4.252 0.88582,-2.8346 1.34645,-7.937 1.34645,-15.2716 z"
         style="fill:#ffff00;fill-opacity:1;fill-rule:nonzero;stroke:none"
         inkscape:connector-curvature="0" />
      <path
         id="path3168"
         d="m 623.05513,1228.252 -14.06693,0.6023 c -0.2126,-3.685 -0.74409,-6.4842 -1.59449,-8.3622 -0.85039,-1.8779 -2.30315,-2.7992 -4.32283,-2.7992 -5.10236,0 -7.61811,5.8819 -7.61811,17.6811 0,6.8386 0.60236,11.6221 1.84252,14.3504 1.24016,2.7284 3.04724,4.1103 5.49212,4.1103 3.79134,0 5.84646,-3.7205 6.20079,-11.126 l 14.06693,1.0275 c -1.27559,15.7323 -8.32677,23.5985 -21.22441,23.5985 -6.98031,0 -12.29528,-2.5866 -16.01575,-7.7953 -3.68504,-5.2087 -5.52756,-12.9331 -5.52756,-23.2087 0,-10.2047 1.91339,-18 5.81103,-23.3149 3.8622,-5.3504 9.31889,-8.0433 16.29921,-8.0433 12.64961,0 19.52362,7.7598 20.65748,23.2795 z"
         style="fill:#ffff00;fill-opacity:1;fill-rule:nonzero;stroke:none"
         inkscape:connector-curvature="0" />
      <path
         id="path3170"
         d="m 631.31104,1206.1772 15.09448,0 0,23.1378 15.23623,-23.1378 13.71259,0 -13.67716,20.126 15.02362,39.7913 -16.29921,0 -8.46851,-27.815 -5.52756,8.4331 0,19.3819 -15.09448,0 z"
         style="fill:#ffff00;fill-opacity:1;fill-rule:nonzero;stroke:none"
         inkscape:connector-curvature="0" />
      <path
         id="path3172"
         d="m 681.87403,1206.1772 13.96063,0 0,8.9646 c 2.94094,-6.4843 7.05118,-9.7441 12.33071,-9.7441 4.96063,0 9.07086,2.4448 12.36614,7.3346 3.29528,4.8898 4.9252,12.3661 4.9252,22.3937 0,10.5236 -1.59449,18.4606 -4.8189,23.811 -3.22441,5.315 -7.72441,8.0079 -13.57087,8.0079 -4.1811,0 -7.61811,-1.7717 -10.34645,-5.2795 l 0,24.7323 -14.84646,0 z m 14.84646,35.4331 c 0,5.7401 0.42519,9.4606 1.27559,11.1614 0.85039,1.7362 2.55118,2.5866 5.10236,2.5866 2.30315,0 4.00394,-1.1339 5.10236,-3.437 1.09843,-2.3032 1.66536,-7.8662 1.66536,-16.689 0,-7.3346 -0.49607,-12.3307 -1.45276,-14.9528 -0.95669,-2.5866 -2.58661,-3.8976 -4.88976,-3.8976 -1.87796,0 -3.47244,0.815 -4.8189,2.4449 -1.31103,1.6653 -1.98425,5.4567 -1.98425,11.4449 z"
         style="fill:#ffff00;fill-opacity:1;fill-rule:nonzero;stroke:none"
         inkscape:connector-curvature="0" />
      <path
         id="path3174"
         d="m 775.84254,1238.9173 -28.41733,0 0,3.3308 c 0,5.3858 0.67323,9 1.98425,10.807 1.31103,1.8071 3.04725,2.7284 5.20867,2.7284 4.60629,0 7.19291,-3.437 7.75984,-10.2756 l 13.46457,0.9567 c -2.40945,13.9252 -9.56693,20.8701 -21.50788,20.8701 -7.33465,0 -12.93307,-2.7284 -16.75984,-8.2205 -3.82677,-5.5276 -5.74016,-12.8622 -5.74016,-22.0748 0,-10.4173 2.01969,-18.3543 6.09449,-23.8465 4.03937,-5.4567 9.49606,-8.2204 16.29921,-8.2204 6.16536,0 11.30315,2.4448 15.41339,7.2992 4.14567,4.8189 6.20079,13.7126 6.20079,26.6456 z m -14.27953,-9.6732 c 0.0354,-0.7086 0.0709,-1.2401 0.0709,-1.6653 0,-7.689 -2.37401,-11.5512 -7.08661,-11.5512 -4.64173,0 -6.98032,4.3937 -7.01575,13.2165 z"
         style="fill:#ffff00;fill-opacity:1;fill-rule:nonzero;stroke:none"
         inkscape:connector-curvature="0" />
      <path
         id="path3176"
         d="m 825.2008,1228.252 -14.06693,0.6023 c -0.21259,-3.685 -0.74409,-6.4842 -1.59448,-8.3622 -0.8504,-1.8779 -2.30315,-2.7992 -4.32284,-2.7992 -5.10236,0 -7.61811,5.8819 -7.61811,17.6811 0,6.8386 0.60236,11.6221 1.84252,14.3504 1.24016,2.7284 3.04725,4.1103 5.49213,4.1103 3.79134,0 5.84645,-3.7205 6.20078,-11.126 l 14.06693,1.0275 c -1.27559,15.7323 -8.32677,23.5985 -21.22441,23.5985 -6.98031,0 -12.29527,-2.5866 -16.01574,-7.7953 -3.68504,-5.2087 -5.52756,-12.9331 -5.52756,-23.2087 0,-10.2047 1.94882,-18 5.81102,-23.3149 3.86221,-5.3504 9.3189,-8.0433 16.29921,-8.0433 12.64961,0 19.52363,7.7598 20.65748,23.2795 z"
         style="fill:#ffff00;fill-opacity:1;fill-rule:nonzero;stroke:none"
         inkscape:connector-curvature="0" />
      <path
         id="path3178"
         d="m 875.09057,1238.9173 -28.41732,0 0,3.3308 c 0,5.3858 0.67322,9 1.98425,10.807 1.34645,1.8071 3.04724,2.7284 5.20866,2.7284 4.6063,0 7.19291,-3.437 7.75984,-10.2756 l 13.46457,0.9567 c -2.40945,13.9252 -9.56693,20.8701 -21.50788,20.8701 -7.33464,0 -12.93307,-2.7284 -16.75984,-8.2205 -3.82677,-5.5276 -5.74016,-12.8622 -5.74016,-22.0748 0,-10.4173 2.01969,-18.3543 6.09449,-23.8465 4.03937,-5.4567 9.49607,-8.2204 16.29922,-8.2204 6.16535,0 11.30314,2.4448 15.41338,7.2992 4.14567,4.8189 6.20079,13.7126 6.20079,26.6456 z m -14.2441,-9.6732 c 0.0354,-0.7086 0.0354,-1.2401 0.0354,-1.6653 0,-7.689 -2.33859,-11.5512 -7.08662,-11.5512 -4.64173,0 -6.98031,4.3937 -7.01575,13.2165 z"
         style="fill:#ffff00;fill-opacity:1;fill-rule:nonzero;stroke:none"
         inkscape:connector-curvature="0" />
      <path
         id="path3180"
         d="m 884.0197,1266.0945 0,-59.9173 15.12992,0 0,21.4724 12.01182,0 0,-21.4724 15.09448,0 0,59.9173 -15.09448,0 0,-25.4409 -12.01182,0 0,25.4409 z"
         style="fill:#ffff00;fill-opacity:1;fill-rule:nonzero;stroke:none"
         inkscape:connector-curvature="0" />
      <path
         id="path3182"
         d="m 937.41734,1266.0945 0,-59.9173 15.09449,0 0,20.6929 9.92126,0 c 5.91732,0 10.16929,1.9488 12.79134,5.8465 2.62205,3.8976 3.93307,8.5039 3.93307,13.8189 0,5.6338 -1.38189,10.311 -4.11024,14.0314 -2.76378,3.6851 -7.19291,5.5276 -13.2874,5.5276 z m 15.09449,-11.6929 7.19291,0 c 0.99213,0 2.05512,-0.6024 3.15355,-1.878 1.13386,-1.2755 1.66535,-3.2598 1.66535,-5.9881 0,-5.1024 -1.59449,-7.6536 -4.8189,-7.6536 l -7.19291,0 z"
         style="fill:#ffff00;fill-opacity:1;fill-rule:nonzero;stroke:none"
         inkscape:connector-curvature="0" />
      <path
         id="path3184"
         d="m 1028.126,1238.9173 -28.38189,0 0,3.3308 c 0,5.3858 0.67319,9 1.98429,10.807 1.311,1.8071 3.0472,2.7284 5.2086,2.7284 4.6063,0 7.1929,-3.437 7.7599,-10.2756 l 13.4291,0.9567 c -2.374,13.9252 -9.5315,20.8701 -21.4724,20.8701 -7.37012,0 -12.96854,-2.7284 -16.75988,-8.2205 -3.82677,-5.5276 -5.74016,-12.8622 -5.74016,-22.0748 0,-10.4173 2.01969,-18.3543 6.05906,-23.8465 4.0748,-5.4567 9.49606,-8.2204 16.33468,-8.2204 6.1299,0 11.2677,2.4448 15.4134,7.2992 4.1102,4.8189 6.1653,13.7126 6.1653,26.6456 z m -14.2441,-9.6732 c 0.035,-0.7086 0.071,-1.2401 0.071,-1.6653 0,-7.689 -2.374,-11.5512 -7.0866,-11.5512 -4.6418,0 -6.98035,4.3937 -7.01579,13.2165 z"
         style="fill:#ffff00;fill-opacity:1;fill-rule:nonzero;stroke:none"
         inkscape:connector-curvature="0" />
    </g>
  </g>
</svg>
