<?xml version="1.0" encoding="UTF-8" standalone="no"?>
<!-- Created with Inkscape (http://www.inkscape.org/) -->

<svg
   xmlns:dc="http://purl.org/dc/elements/1.1/"
   xmlns:cc="http://creativecommons.org/ns#"
   xmlns:rdf="http://www.w3.org/1999/02/22-rdf-syntax-ns#"
   xmlns:svg="http://www.w3.org/2000/svg"
   xmlns="http://www.w3.org/2000/svg"
   xmlns:sodipodi="http://sodipodi.sourceforge.net/DTD/sodipodi-0.dtd"
   xmlns:inkscape="http://www.inkscape.org/namespaces/inkscape"
   width="6023.6221"
   height="7086.6138"
   id="svg4225"
   version="1.1"
   inkscape:version="0.48.3.1 r9886"
   sodipodi:docname="Баннер на пленку.svg"
   inkscape:export-filename="D:\GraphWork\WorkingProjects\My\Баннер автострахование и кредит\Баннер на пленку.png"
   inkscape:export-xdpi="72.001526"
   inkscape:export-ydpi="72.001526">
  <defs
     id="defs4227" />
  <sodipodi:namedview
     id="base"
     pagecolor="#ffffff"
     bordercolor="#666666"
     borderopacity="1.0"
     inkscape:pageopacity="0.0"
     inkscape:pageshadow="2"
     inkscape:zoom="0.116"
     inkscape:cx="1479.1012"
     inkscape:cy="4875.4608"
     inkscape:document-units="px"
     inkscape:current-layer="layer1"
     showgrid="false"
     units="cm"
     inkscape:showpageshadow="false"
     inkscape:window-width="1366"
     inkscape:window-height="723"
     inkscape:window-x="-4"
     inkscape:window-y="-4"
     inkscape:window-maximized="1"
     showguides="true"
     inkscape:guide-bbox="true"
     inkscape:snap-global="false">
    <sodipodi:guide
       orientation="0,1"
       position="1938.4479,7083.2593"
       id="guide4911" />
    <sodipodi:guide
       orientation="1,0"
       position="0,3486.7679"
       id="guide4913" />
    <sodipodi:guide
       orientation="1,0"
       position="6022.5991,3169.789"
       id="guide4915" />
    <sodipodi:guide
       orientation="0,1"
       position="4401.1301,-12.191496"
       id="guide4917" />
  </sodipodi:namedview>
  <metadata
     id="metadata4230">
    <rdf:RDF>
      <cc:Work
         rdf:about="">
        <dc:format>image/svg+xml</dc:format>
        <dc:type
           rdf:resource="http://purl.org/dc/dcmitype/StillImage" />
        <dc:title />
      </cc:Work>
    </rdf:RDF>
  </metadata>
  <g
     inkscape:label="Layer 1"
     inkscape:groupmode="layer"
     id="layer1"
     transform="translate(0,6034.2531)">
    <rect
       style="fill:#ffffff;fill-opacity:1;stroke:#ffffff;stroke-width:0.49871567;stroke-linecap:round;stroke-linejoin:round;stroke-miterlimit:4;stroke-opacity:1;stroke-dasharray:none;stroke-dashoffset:0"
       id="rect4909"
       width="6020.2437"
       height="7100.9102"
       x="1.2413784"
       y="-6035.1436" />
    <text
       xml:space="preserve"
       style="font-size:493.61981201px;font-style:normal;font-variant:normal;font-weight:normal;font-stretch:normal;text-align:center;line-height:100%;letter-spacing:0px;word-spacing:0px;writing-mode:lr-tb;text-anchor:middle;fill:#ff0000;fill-opacity:1;stroke:none;font-family:Franklin Gothic Heavy;-inkscape-font-specification:'Franklin Gothic Heavy,'"
       x="3016.5112"
       y="-5563.4722"
       id="text4233"
       sodipodi:linespacing="100%"><tspan
         sodipodi:role="line"
         id="tspan4235"
         x="3016.5112"
         y="-5563.4722">АВТО-СТРАХОВАНИЕ</tspan><tspan
         sodipodi:role="line"
         x="3016.5112"
         y="-5069.8525"
         id="tspan4239">ЗА 5 МИНУТ</tspan></text>
    <text
       xml:space="preserve"
       style="font-size:253.48402405px;font-style:normal;font-variant:normal;font-weight:300;font-stretch:normal;text-align:start;line-height:110.00000238%;letter-spacing:0px;word-spacing:0px;writing-mode:lr-tb;text-anchor:start;fill:#ff0000;fill-opacity:1;stroke:none;font-family:Bookman Old Style;-inkscape-font-specification:Bookman Old Style Light"
       x="290.05859"
       y="-4635.5122"
       id="text4243"
       sodipodi:linespacing="110%"><tspan
         sodipodi:role="line"
         id="tspan4245"
         x="290.05859"
         y="-4635.5122">Автогражданка (скидка -20%)</tspan><tspan
         sodipodi:role="line"
         x="290.05859"
         y="-4356.6797"
         id="tspan4247">Каско в кредит</tspan><tspan
         sodipodi:role="line"
         x="290.05859"
         y="-4077.8474"
         id="tspan4251">Несчастный случай водителя и пассажиров</tspan><tspan
         sodipodi:role="line"
         x="290.05859"
         y="-3799.0149"
         id="tspan3019">Страхование выезжающих за границу</tspan><tspan
         sodipodi:role="line"
         x="290.05859"
         y="-3520.1824"
         id="tspan3021">Медицинское страхование</tspan><tspan
         sodipodi:role="line"
         x="290.05859"
         y="-3241.3501"
         id="tspan4253">Спец. условия для ТАКСИ</tspan><tspan
         sodipodi:role="line"
         x="290.05859"
         y="-2962.5176"
         id="tspan4255">Страхование недвижимости</tspan><tspan
         sodipodi:role="line"
         x="290.05859"
         y="-2683.6851"
         id="tspan4259">Накопительное + Рисковое страхование </tspan><tspan
         sodipodi:role="line"
         x="290.05859"
         y="-2404.8528"
         id="tspan3035">жизни <tspan
   style="font-size:253.48402405px;font-style:normal;font-variant:normal;font-weight:normal;font-stretch:normal;text-align:start;line-height:110.00000238%;writing-mode:lr-tb;text-anchor:start;font-family:Franklin Gothic Heavy;-inkscape-font-specification:'Franklin Gothic Heavy,'"
   id="tspan4919">&quot;Live&quot;</tspan></tspan></text>
    <text
       sodipodi:linespacing="110%"
       id="text4261"
       y="-142.01122"
       x="290.05859"
       style="font-size:253.48402405px;font-style:normal;font-variant:normal;font-weight:300;font-stretch:normal;text-align:start;line-height:110.00000238%;letter-spacing:0px;word-spacing:0px;writing-mode:lr-tb;text-anchor:start;fill:#ff0000;fill-opacity:1;stroke:none;font-family:Bookman Old Style;-inkscape-font-specification:Bookman Old Style Light"
       xml:space="preserve"><tspan
         id="tspan4277"
         y="-142.01122"
         x="290.05859"
         sodipodi:role="line">Авто в кредит</tspan><tspan
         y="136.82121"
         x="290.05859"
         sodipodi:role="line"
         id="tspan4305">Имущество в кредит</tspan><tspan
         y="415.65363"
         x="290.05859"
         sodipodi:role="line"
         id="tspan4307">Кредит под залог</tspan><tspan
         y="694.48608"
         x="290.05859"
         sodipodi:role="line"
         id="tspan4309">Потребительские кредиты</tspan><tspan
         y="973.31848"
         x="290.05859"
         sodipodi:role="line"
         id="tspan3023"
         style="font-size:253.48402405px;font-style:normal;font-variant:normal;font-weight:600;font-stretch:normal;text-align:start;line-height:110.00000238%;writing-mode:lr-tb;text-anchor:start;font-family:Bookman Old Style;-inkscape-font-specification:Bookman Old Style Semi-Bold">Быстро. Выгодно. Удобно</tspan></text>
    <text
       sodipodi:linespacing="100%"
       id="text4293"
       y="-1614.088"
       x="2997.47"
       style="font-size:493.61981201px;font-style:normal;font-variant:normal;font-weight:normal;font-stretch:normal;text-align:center;line-height:100%;letter-spacing:0px;word-spacing:0px;writing-mode:lr-tb;text-anchor:middle;fill:#ff0000;fill-opacity:1;stroke:none;font-family:Franklin Gothic Heavy;-inkscape-font-specification:'Franklin Gothic Heavy,'"
       xml:space="preserve"><tspan
         id="tspan4297"
         y="-1614.088"
         x="3059.1726"
         sodipodi:role="line"
         dx="0"
         style="font-size:493.61981201px;font-style:normal;font-variant:normal;font-weight:normal;font-stretch:normal;text-align:center;line-height:100%;letter-spacing:0px;word-spacing:0px;writing-mode:lr-tb;text-anchor:middle;fill:#ff0000;font-family:Franklin Gothic Heavy;-inkscape-font-specification:'Franklin Gothic Heavy,'">Помощь в оформлении </tspan><tspan
         y="-1120.4683"
         x="2997.47"
         sodipodi:role="line"
         id="tspan4301"
         style="font-size:493.61981201px;font-style:normal;font-variant:normal;font-weight:normal;font-stretch:normal;text-align:center;line-height:100%;letter-spacing:0px;word-spacing:0px;writing-mode:lr-tb;text-anchor:middle;fill:#ff0000;font-family:Franklin Gothic Heavy;-inkscape-font-specification:'Franklin Gothic Heavy,'">кредита на все случаи</tspan><tspan
         y="-626.84839"
         x="2997.47"
         sodipodi:role="line"
         id="tspan4303"
         style="font-size:493.61981201px;font-style:normal;font-variant:normal;font-weight:normal;font-stretch:normal;text-align:center;line-height:100%;letter-spacing:0px;word-spacing:0px;writing-mode:lr-tb;text-anchor:middle;fill:#ff0000;font-family:Franklin Gothic Heavy;-inkscape-font-specification:'Franklin Gothic Heavy,'">жизни</tspan></text>
    <path
       inkscape:transform-center-y="-6.4420937"
       inkscape:transform-center-x="6.0402445"
       transform="matrix(0.05725417,-0.09966707,0.09966707,0.05725417,-794.23078,-4911.2124)"
       d="m 3086.207,8586.6136 c -9.4397,11.1253 -478.5332,-173.0601 -492.7093,-169.608 -14.1761,3.4521 -346.0692,382.6881 -359.567,377.1484 -13.4978,-5.5398 16.7151,-508.5906 9.0513,-521.0061 -7.6638,-12.4156 -470.8993,-210.8743 -469.8017,-225.4233 1.0975,-14.549 488.8636,-141.2662 498.3032,-152.3915 9.4397,-11.1253 55.0375,-513.0155 69.2136,-516.4676 14.1761,-3.4521 285.4193,421.2833 298.9171,426.823 13.4978,5.5397 504.9142,-106.1868 512.578,-93.7713 7.6638,12.4156 -312.4648,401.6336 -313.5623,416.1826 -1.0976,14.5491 257.0167,447.3885 247.5771,458.5138 z"
       inkscape:randomized="0"
       inkscape:rounded="0.028"
       inkscape:flatsided="false"
       sodipodi:arg2="1.3319323"
       sodipodi:arg1="0.70361378"
       sodipodi:r2="322.30161"
       sodipodi:r1="746.17535"
       sodipodi:cy="8103.855"
       sodipodi:cx="2517.2415"
       sodipodi:sides="5"
       id="path4891"
       style="fill:#ff0000;fill-opacity:1;stroke:#ffffff;stroke-width:0.5;stroke-linecap:round;stroke-linejoin:round;stroke-miterlimit:4;stroke-opacity:1;stroke-dasharray:none;stroke-dashoffset:0"
       sodipodi:type="star" />
    <path
       sodipodi:type="star"
       style="fill:#ff0000;fill-opacity:1;stroke:#ffffff;stroke-width:0.5;stroke-linecap:round;stroke-linejoin:round;stroke-miterlimit:4;stroke-opacity:1;stroke-dasharray:none;stroke-dashoffset:0"
       id="path4893"
       sodipodi:sides="5"
       sodipodi:cx="2517.2415"
       sodipodi:cy="8103.855"
       sodipodi:r1="746.17535"
       sodipodi:r2="322.30161"
       sodipodi:arg1="0.70361378"
       sodipodi:arg2="1.3319323"
       inkscape:flatsided="false"
       inkscape:rounded="0.028"
       inkscape:randomized="0"
       d="m 3086.207,8586.6136 c -9.4397,11.1253 -478.5332,-173.0601 -492.7093,-169.608 -14.1761,3.4521 -346.0692,382.6881 -359.567,377.1484 -13.4978,-5.5398 16.7151,-508.5906 9.0513,-521.0061 -7.6638,-12.4156 -470.8993,-210.8743 -469.8017,-225.4233 1.0975,-14.549 488.8636,-141.2662 498.3032,-152.3915 9.4397,-11.1253 55.0375,-513.0155 69.2136,-516.4676 14.1761,-3.4521 285.4193,421.2833 298.9171,426.823 13.4978,5.5397 504.9142,-106.1868 512.578,-93.7713 7.6638,12.4156 -312.4648,401.6336 -313.5623,416.1826 -1.0976,14.5491 257.0167,447.3885 247.5771,458.5138 z"
       transform="matrix(0.05725417,-0.09966707,0.09966707,0.05725417,-794.23078,-4379.2124)"
       inkscape:transform-center-x="6.0402445"
       inkscape:transform-center-y="-6.4420937" />
    <path
       inkscape:transform-center-y="-6.4420937"
       inkscape:transform-center-x="6.0402445"
       transform="matrix(0.05725417,-0.09966707,0.09966707,0.05725417,-794.23078,-3521.2124)"
       d="m 3086.207,8586.6136 c -9.4397,11.1253 -478.5332,-173.0601 -492.7093,-169.608 -14.1761,3.4521 -346.0692,382.6881 -359.567,377.1484 -13.4978,-5.5398 16.7151,-508.5906 9.0513,-521.0061 -7.6638,-12.4156 -470.8993,-210.8743 -469.8017,-225.4233 1.0975,-14.549 488.8636,-141.2662 498.3032,-152.3915 9.4397,-11.1253 55.0375,-513.0155 69.2136,-516.4676 14.1761,-3.4521 285.4193,421.2833 298.9171,426.823 13.4978,5.5397 504.9142,-106.1868 512.578,-93.7713 7.6638,12.4156 -312.4648,401.6336 -313.5623,416.1826 -1.0976,14.5491 257.0167,447.3885 247.5771,458.5138 z"
       inkscape:randomized="0"
       inkscape:rounded="0.028"
       inkscape:flatsided="false"
       sodipodi:arg2="1.3319323"
       sodipodi:arg1="0.70361378"
       sodipodi:r2="322.30161"
       sodipodi:r1="746.17535"
       sodipodi:cy="8103.855"
       sodipodi:cx="2517.2415"
       sodipodi:sides="5"
       id="path4895"
       style="fill:#ff0000;fill-opacity:1;stroke:#ffffff;stroke-width:0.5;stroke-linecap:round;stroke-linejoin:round;stroke-miterlimit:4;stroke-opacity:1;stroke-dasharray:none;stroke-dashoffset:0"
       sodipodi:type="star" />
    <path
       sodipodi:type="star"
       style="fill:#ff0000;fill-opacity:1;stroke:#ffffff;stroke-width:0.5;stroke-linecap:round;stroke-linejoin:round;stroke-miterlimit:4;stroke-opacity:1;stroke-dasharray:none;stroke-dashoffset:0"
       id="path4897"
       sodipodi:sides="5"
       sodipodi:cx="2517.2415"
       sodipodi:cy="8103.855"
       sodipodi:r1="746.17535"
       sodipodi:r2="322.30161"
       sodipodi:arg1="0.70361378"
       sodipodi:arg2="1.3319323"
       inkscape:flatsided="false"
       inkscape:rounded="0.028"
       inkscape:randomized="0"
       d="m 3086.207,8586.6136 c -9.4397,11.1253 -478.5332,-173.0601 -492.7093,-169.608 -14.1761,3.4521 -346.0692,382.6881 -359.567,377.1484 -13.4978,-5.5398 16.7151,-508.5906 9.0513,-521.0061 -7.6638,-12.4156 -470.8993,-210.8743 -469.8017,-225.4233 1.0975,-14.549 488.8636,-141.2662 498.3032,-152.3915 9.4397,-11.1253 55.0375,-513.0155 69.2136,-516.4676 14.1761,-3.4521 285.4193,421.2833 298.9171,426.823 13.4978,5.5397 504.9142,-106.1868 512.578,-93.7713 7.6638,12.4156 -312.4648,401.6336 -313.5623,416.1826 -1.0976,14.5491 257.0167,447.3885 247.5771,458.5138 z"
       transform="matrix(0.05725417,-0.09966707,0.09966707,0.05725417,-794.23078,-3261.2124)"
       inkscape:transform-center-x="6.0402445"
       inkscape:transform-center-y="-6.4420937" />
    <path
       inkscape:transform-center-y="-6.4420937"
       inkscape:transform-center-x="6.0402445"
       transform="matrix(0.05725417,-0.09966707,0.09966707,0.05725417,-794.23078,-2981.2124)"
       d="m 3086.207,8586.6136 c -9.4397,11.1253 -478.5332,-173.0601 -492.7093,-169.608 -14.1761,3.4521 -346.0692,382.6881 -359.567,377.1484 -13.4978,-5.5398 16.7151,-508.5906 9.0513,-521.0061 -7.6638,-12.4156 -470.8993,-210.8743 -469.8017,-225.4233 1.0975,-14.549 488.8636,-141.2662 498.3032,-152.3915 9.4397,-11.1253 55.0375,-513.0155 69.2136,-516.4676 14.1761,-3.4521 285.4193,421.2833 298.9171,426.823 13.4978,5.5397 504.9142,-106.1868 512.578,-93.7713 7.6638,12.4156 -312.4648,401.6336 -313.5623,416.1826 -1.0976,14.5491 257.0167,447.3885 247.5771,458.5138 z"
       inkscape:randomized="0"
       inkscape:rounded="0.028"
       inkscape:flatsided="false"
       sodipodi:arg2="1.3319323"
       sodipodi:arg1="0.70361378"
       sodipodi:r2="322.30161"
       sodipodi:r1="746.17535"
       sodipodi:cy="8103.855"
       sodipodi:cx="2517.2415"
       sodipodi:sides="5"
       id="path4899"
       style="fill:#ff0000;fill-opacity:1;stroke:#ffffff;stroke-width:0.5;stroke-linecap:round;stroke-linejoin:round;stroke-miterlimit:4;stroke-opacity:1;stroke-dasharray:none;stroke-dashoffset:0"
       sodipodi:type="star" />
    <path
       sodipodi:type="star"
       style="fill:#ff0000;fill-opacity:1;stroke:#ffffff;stroke-width:0.5;stroke-linecap:round;stroke-linejoin:round;stroke-miterlimit:4;stroke-opacity:1;stroke-dasharray:none;stroke-dashoffset:0"
       id="path4901"
       sodipodi:sides="5"
       sodipodi:cx="2517.2415"
       sodipodi:cy="8103.855"
       sodipodi:r1="746.17535"
       sodipodi:r2="322.30161"
       sodipodi:arg1="0.70361378"
       sodipodi:arg2="1.3319323"
       inkscape:flatsided="false"
       inkscape:rounded="0.028"
       inkscape:randomized="0"
       d="m 3086.207,8586.6136 c -9.4397,11.1253 -478.5332,-173.0601 -492.7093,-169.608 -14.1761,3.4521 -346.0692,382.6881 -359.567,377.1484 -13.4978,-5.5398 16.7151,-508.5906 9.0513,-521.0061 -7.6638,-12.4156 -470.8993,-210.8743 -469.8017,-225.4233 1.0975,-14.549 488.8636,-141.2662 498.3032,-152.3915 9.4397,-11.1253 55.0375,-513.0155 69.2136,-516.4676 14.1761,-3.4521 285.4193,421.2833 298.9171,426.823 13.4978,5.5397 504.9142,-106.1868 512.578,-93.7713 7.6638,12.4156 -312.4648,401.6336 -313.5623,416.1826 -1.0976,14.5491 257.0167,447.3885 247.5771,458.5138 z"
       transform="matrix(0.05725417,-0.09966707,0.09966707,0.05725417,-794.23078,-431.2124)"
       inkscape:transform-center-x="6.0402445"
       inkscape:transform-center-y="-6.4420937" />
    <path
       inkscape:transform-center-y="-6.4420937"
       inkscape:transform-center-x="6.0402445"
       transform="matrix(0.05725417,-0.09966707,0.09966707,0.05725417,-794.23078,-157.2124)"
       d="m 3086.207,8586.6136 c -9.4397,11.1253 -478.5332,-173.0601 -492.7093,-169.608 -14.1761,3.4521 -346.0692,382.6881 -359.567,377.1484 -13.4978,-5.5398 16.7151,-508.5906 9.0513,-521.0061 -7.6638,-12.4156 -470.8993,-210.8743 -469.8017,-225.4233 1.0975,-14.549 488.8636,-141.2662 498.3032,-152.3915 9.4397,-11.1253 55.0375,-513.0155 69.2136,-516.4676 14.1761,-3.4521 285.4193,421.2833 298.9171,426.823 13.4978,5.5397 504.9142,-106.1868 512.578,-93.7713 7.6638,12.4156 -312.4648,401.6336 -313.5623,416.1826 -1.0976,14.5491 257.0167,447.3885 247.5771,458.5138 z"
       inkscape:randomized="0"
       inkscape:rounded="0.028"
       inkscape:flatsided="false"
       sodipodi:arg2="1.3319323"
       sodipodi:arg1="0.70361378"
       sodipodi:r2="322.30161"
       sodipodi:r1="746.17535"
       sodipodi:cy="8103.855"
       sodipodi:cx="2517.2415"
       sodipodi:sides="5"
       id="path4903"
       style="fill:#ff0000;fill-opacity:1;stroke:#ffffff;stroke-width:0.5;stroke-linecap:round;stroke-linejoin:round;stroke-miterlimit:4;stroke-opacity:1;stroke-dasharray:none;stroke-dashoffset:0"
       sodipodi:type="star" />
    <path
       sodipodi:type="star"
       style="fill:#ff0000;fill-opacity:1;stroke:#ffffff;stroke-width:0.5;stroke-linecap:round;stroke-linejoin:round;stroke-miterlimit:4;stroke-opacity:1;stroke-dasharray:none;stroke-dashoffset:0"
       id="path4905"
       sodipodi:sides="5"
       sodipodi:cx="2517.2415"
       sodipodi:cy="8103.855"
       sodipodi:r1="746.17535"
       sodipodi:r2="322.30161"
       sodipodi:arg1="0.70361378"
       sodipodi:arg2="1.3319323"
       inkscape:flatsided="false"
       inkscape:rounded="0.028"
       inkscape:randomized="0"
       d="m 3086.207,8586.6136 c -9.4397,11.1253 -478.5332,-173.0601 -492.7093,-169.608 -14.1761,3.4521 -346.0692,382.6881 -359.567,377.1484 -13.4978,-5.5398 16.7151,-508.5906 9.0513,-521.0061 -7.6638,-12.4156 -470.8993,-210.8743 -469.8017,-225.4233 1.0975,-14.549 488.8636,-141.2662 498.3032,-152.3915 9.4397,-11.1253 55.0375,-513.0155 69.2136,-516.4676 14.1761,-3.4521 285.4193,421.2833 298.9171,426.823 13.4978,5.5397 504.9142,-106.1868 512.578,-93.7713 7.6638,12.4156 -312.4648,401.6336 -313.5623,416.1826 -1.0976,14.5491 257.0167,447.3885 247.5771,458.5138 z"
       transform="matrix(0.05725417,-0.09966707,0.09966707,0.05725417,-794.23078,124.7876)"
       inkscape:transform-center-x="6.0402445"
       inkscape:transform-center-y="-6.4420937" />
    <path
       inkscape:transform-center-y="-6.4420937"
       inkscape:transform-center-x="6.0402445"
       transform="matrix(0.05725417,-0.09966707,0.09966707,0.05725417,-794.23078,396.7876)"
       d="m 3086.207,8586.6136 c -9.4397,11.1253 -478.5332,-173.0601 -492.7093,-169.608 -14.1761,3.4521 -346.0692,382.6881 -359.567,377.1484 -13.4978,-5.5398 16.7151,-508.5906 9.0513,-521.0061 -7.6638,-12.4156 -470.8993,-210.8743 -469.8017,-225.4233 1.0975,-14.549 488.8636,-141.2662 498.3032,-152.3915 9.4397,-11.1253 55.0375,-513.0155 69.2136,-516.4676 14.1761,-3.4521 285.4193,421.2833 298.9171,426.823 13.4978,5.5397 504.9142,-106.1868 512.578,-93.7713 7.6638,12.4156 -312.4648,401.6336 -313.5623,416.1826 -1.0976,14.5491 257.0167,447.3885 247.5771,458.5138 z"
       inkscape:randomized="0"
       inkscape:rounded="0.028"
       inkscape:flatsided="false"
       sodipodi:arg2="1.3319323"
       sodipodi:arg1="0.70361378"
       sodipodi:r2="322.30161"
       sodipodi:r1="746.17535"
       sodipodi:cy="8103.855"
       sodipodi:cx="2517.2415"
       sodipodi:sides="5"
       id="path4907"
       style="fill:#ff0000;fill-opacity:1;stroke:#ffffff;stroke-width:0.5;stroke-linecap:round;stroke-linejoin:round;stroke-miterlimit:4;stroke-opacity:1;stroke-dasharray:none;stroke-dashoffset:0"
       sodipodi:type="star" />
    <path
       sodipodi:type="star"
       style="fill:#ff0000;fill-opacity:1;stroke:#ffffff;stroke-width:0.5;stroke-linecap:round;stroke-linejoin:round;stroke-miterlimit:4;stroke-opacity:1;stroke-dasharray:none;stroke-dashoffset:0"
       id="path3027"
       sodipodi:sides="5"
       sodipodi:cx="2517.2415"
       sodipodi:cy="8103.855"
       sodipodi:r1="746.17535"
       sodipodi:r2="322.30161"
       sodipodi:arg1="0.70361378"
       sodipodi:arg2="1.3319323"
       inkscape:flatsided="false"
       inkscape:rounded="0.028"
       inkscape:randomized="0"
       d="m 3086.207,8586.6136 c -9.4397,11.1253 -478.5332,-173.0601 -492.7093,-169.608 -14.1761,3.4521 -346.0692,382.6881 -359.567,377.1484 -13.4978,-5.5398 16.7151,-508.5906 9.0513,-521.0061 -7.6638,-12.4156 -470.8993,-210.8743 -469.8017,-225.4233 1.0975,-14.549 488.8636,-141.2662 498.3032,-152.3915 9.4397,-11.1253 55.0375,-513.0155 69.2136,-516.4676 14.1761,-3.4521 285.4193,421.2833 298.9171,426.823 13.4978,5.5397 504.9142,-106.1868 512.578,-93.7713 7.6638,12.4156 -312.4648,401.6336 -313.5623,416.1826 -1.0976,14.5491 257.0167,447.3885 247.5771,458.5138 z"
       transform="matrix(0.05725417,-0.09966707,0.09966707,0.05725417,-794.23078,-3821.2124)"
       inkscape:transform-center-x="6.0402445"
       inkscape:transform-center-y="-6.4420937" />
    <path
       inkscape:transform-center-y="-6.4420937"
       inkscape:transform-center-x="6.0402445"
       transform="matrix(0.05725417,-0.09966707,0.09966707,0.05725417,-794.23078,-4089.2124)"
       d="m 3086.207,8586.6136 c -9.4397,11.1253 -478.5332,-173.0601 -492.7093,-169.608 -14.1761,3.4521 -346.0692,382.6881 -359.567,377.1484 -13.4978,-5.5398 16.7151,-508.5906 9.0513,-521.0061 -7.6638,-12.4156 -470.8993,-210.8743 -469.8017,-225.4233 1.0975,-14.549 488.8636,-141.2662 498.3032,-152.3915 9.4397,-11.1253 55.0375,-513.0155 69.2136,-516.4676 14.1761,-3.4521 285.4193,421.2833 298.9171,426.823 13.4978,5.5397 504.9142,-106.1868 512.578,-93.7713 7.6638,12.4156 -312.4648,401.6336 -313.5623,416.1826 -1.0976,14.5491 257.0167,447.3885 247.5771,458.5138 z"
       inkscape:randomized="0"
       inkscape:rounded="0.028"
       inkscape:flatsided="false"
       sodipodi:arg2="1.3319323"
       sodipodi:arg1="0.70361378"
       sodipodi:r2="322.30161"
       sodipodi:r1="746.17535"
       sodipodi:cy="8103.855"
       sodipodi:cx="2517.2415"
       sodipodi:sides="5"
       id="path3029"
       style="fill:#ff0000;fill-opacity:1;stroke:#ffffff;stroke-width:0.5;stroke-linecap:round;stroke-linejoin:round;stroke-miterlimit:4;stroke-opacity:1;stroke-dasharray:none;stroke-dashoffset:0"
       sodipodi:type="star" />
    <path
       inkscape:transform-center-y="-6.4420937"
       inkscape:transform-center-x="6.0402445"
       transform="matrix(0.05725417,-0.09966707,0.09966707,0.05725417,-794.23078,-4653.2124)"
       d="m 3086.207,8586.6136 c -9.4397,11.1253 -478.5332,-173.0601 -492.7093,-169.608 -14.1761,3.4521 -346.0692,382.6881 -359.567,377.1484 -13.4978,-5.5398 16.7151,-508.5906 9.0513,-521.0061 -7.6638,-12.4156 -470.8993,-210.8743 -469.8017,-225.4233 1.0975,-14.549 488.8636,-141.2662 498.3032,-152.3915 9.4397,-11.1253 55.0375,-513.0155 69.2136,-516.4676 14.1761,-3.4521 285.4193,421.2833 298.9171,426.823 13.4978,5.5397 504.9142,-106.1868 512.578,-93.7713 7.6638,12.4156 -312.4648,401.6336 -313.5623,416.1826 -1.0976,14.5491 257.0167,447.3885 247.5771,458.5138 z"
       inkscape:randomized="0"
       inkscape:rounded="0.028"
       inkscape:flatsided="false"
       sodipodi:arg2="1.3319323"
       sodipodi:arg1="0.70361378"
       sodipodi:r2="322.30161"
       sodipodi:r1="746.17535"
       sodipodi:cy="8103.855"
       sodipodi:cx="2517.2415"
       sodipodi:sides="5"
       id="path3031"
       style="fill:#ff0000;fill-opacity:1;stroke:#ffffff;stroke-width:0.5;stroke-linecap:round;stroke-linejoin:round;stroke-miterlimit:4;stroke-opacity:1;stroke-dasharray:none;stroke-dashoffset:0"
       sodipodi:type="star" />
  </g>
</svg>
