<?xml version="1.0" encoding="UTF-8" standalone="no"?>
<!-- Created with Inkscape (http://www.inkscape.org/) -->

<svg
   xmlns:dc="http://purl.org/dc/elements/1.1/"
   xmlns:cc="http://creativecommons.org/ns#"
   xmlns:rdf="http://www.w3.org/1999/02/22-rdf-syntax-ns#"
   xmlns:svg="http://www.w3.org/2000/svg"
   xmlns="http://www.w3.org/2000/svg"
   xmlns:sodipodi="http://sodipodi.sourceforge.net/DTD/sodipodi-0.dtd"
   xmlns:inkscape="http://www.inkscape.org/namespaces/inkscape"
   width="6023.6221"
   height="7086.6138"
   id="svg4225"
   version="1.1"
   inkscape:version="0.48.3.1 r9886"
   sodipodi:docname="Баннер на пленку.svg"
   inkscape:export-filename="D:\GraphWork\WorkingProjects\My\Баннер автострахование и кредит\Баннер на пленку.png"
   inkscape:export-xdpi="72.001526"
   inkscape:export-ydpi="72.001526">
  <defs
     id="defs4227" />
  <sodipodi:namedview
     id="base"
     pagecolor="#ffffff"
     bordercolor="#666666"
     borderopacity="1.0"
     inkscape:pageopacity="0.0"
     inkscape:pageshadow="2"
     inkscape:zoom="0.041012193"
     inkscape:cx="3435.9978"
     inkscape:cy="2461.6677"
     inkscape:document-units="px"
     inkscape:current-layer="layer1"
     showgrid="false"
     units="cm"
     inkscape:showpageshadow="false"
     inkscape:window-width="1366"
     inkscape:window-height="723"
     inkscape:window-x="-4"
     inkscape:window-y="-4"
     inkscape:window-maximized="1"
     showguides="true"
     inkscape:guide-bbox="true">
    <sodipodi:guide
       orientation="0,1"
       position="1938.4479,7083.2593"
       id="guide4911" />
    <sodipodi:guide
       orientation="1,0"
       position="0,3486.7679"
       id="guide4913" />
    <sodipodi:guide
       orientation="1,0"
       position="6022.5991,3169.789"
       id="guide4915" />
    <sodipodi:guide
       orientation="0,1"
       position="4401.1301,-12.191496"
       id="guide4917" />
  </sodipodi:namedview>
  <metadata
     id="metadata4230">
    <rdf:RDF>
      <cc:Work
         rdf:about="">
        <dc:format>image/svg+xml</dc:format>
        <dc:type
           rdf:resource="http://purl.org/dc/dcmitype/StillImage" />
        <dc:title></dc:title>
      </cc:Work>
    </rdf:RDF>
  </metadata>
  <g
     inkscape:label="Layer 1"
     inkscape:groupmode="layer"
     id="layer1"
     transform="translate(0,6034.2531)">
    <rect
       style="fill:#ffffff;fill-opacity:1;stroke:#ffffff;stroke-width:0.49871567;stroke-linecap:round;stroke-linejoin:round;stroke-miterlimit:4;stroke-opacity:1;stroke-dasharray:none;stroke-dashoffset:0"
       id="rect4909"
       width="6020.2437"
       height="7100.9102"
       x="1.2413784"
       y="-6035.1436" />
    <text
       xml:space="preserve"
       style="font-size:410.52938843px;font-style:normal;font-variant:normal;font-weight:normal;font-stretch:normal;text-align:center;line-height:100%;letter-spacing:0px;word-spacing:0px;writing-mode:lr-tb;text-anchor:middle;fill:#ff0000;fill-opacity:1;stroke:none;font-family:Franklin Gothic Heavy;-inkscape-font-specification:'Franklin Gothic Heavy,'"
       x="3015.72"
       y="-5644.7769"
       id="text4233"
       sodipodi:linespacing="100%"><tspan
         sodipodi:role="line"
         id="tspan4235"
         x="3015.72"
         y="-5644.7769">АВТО-СТРАХОВАНИЕ</tspan><tspan
         sodipodi:role="line"
         x="3015.72"
         y="-5234.2476"
         id="tspan4239">ЗА 5 МИНУТ</tspan></text>
    <text
       xml:space="preserve"
       style="font-size:371.26751709px;font-style:normal;font-variant:normal;font-weight:300;font-stretch:normal;text-align:start;line-height:110.00000238%;letter-spacing:0px;word-spacing:0px;writing-mode:lr-tb;text-anchor:start;fill:#ff0000;fill-opacity:1;stroke:none;font-family:Bookman Old Style;-inkscape-font-specification:Bookman Old Style Light"
       x="389.88605"
       y="-4831.7183"
       id="text4243"
       sodipodi:linespacing="110%"><tspan
         sodipodi:role="line"
         id="tspan4245"
         x="389.88605"
         y="-4831.7183">Автогражданка</tspan><tspan
         sodipodi:role="line"
         x="389.88605"
         y="-4423.3242"
         id="tspan4247">Каско в кредит</tspan><tspan
         sodipodi:role="line"
         x="389.88605"
         y="-4014.9297"
         id="tspan4249">Несчастный случай водителя </tspan><tspan
         sodipodi:role="line"
         x="389.88605"
         y="-3606.5354"
         id="tspan4251">и пассажира</tspan><tspan
         sodipodi:role="line"
         x="389.88605"
         y="-3198.1411"
         id="tspan4253">Спец. условия для ТАКСИ</tspan><tspan
         sodipodi:role="line"
         x="389.88605"
         y="-2789.7468"
         id="tspan4255">Страхование недвижимости</tspan><tspan
         sodipodi:role="line"
         x="389.88605"
         y="-2381.3525"
         id="tspan4257">Накопительное + Рисковое </tspan><tspan
         sodipodi:role="line"
         x="389.88605"
         y="-1972.9584"
         id="tspan4259">страхование жизни <tspan
   style="font-size:371.26751709px;font-style:normal;font-variant:normal;font-weight:normal;font-stretch:normal;text-align:start;line-height:110.00000238%;writing-mode:lr-tb;text-anchor:start;font-family:Franklin Gothic Heavy;-inkscape-font-specification:'Franklin Gothic Heavy,'"
   id="tspan4919">&quot;Live&quot;</tspan></tspan></text>
    <text
       sodipodi:linespacing="110%"
       id="text4261"
       y="-344.56686"
       x="389.88605"
       style="font-size:371.26751709px;font-style:normal;font-variant:normal;font-weight:300;font-stretch:normal;text-align:start;line-height:110.00000238%;letter-spacing:0px;word-spacing:0px;writing-mode:lr-tb;text-anchor:start;fill:#ff0000;fill-opacity:1;stroke:none;font-family:Bookman Old Style;-inkscape-font-specification:Bookman Old Style Light"
       xml:space="preserve"><tspan
         id="tspan4277"
         y="-344.56686"
         x="389.88605"
         sodipodi:role="line">Авто в кредит</tspan><tspan
         y="63.827415"
         x="389.88605"
         sodipodi:role="line"
         id="tspan4305">Имущество в кредит</tspan><tspan
         y="472.22168"
         x="389.88605"
         sodipodi:role="line"
         id="tspan4307">Кредит под залог и без залога</tspan><tspan
         y="880.61597"
         x="389.88605"
         sodipodi:role="line"
         id="tspan4309">Потребительские кредиты</tspan></text>
    <text
       sodipodi:linespacing="100%"
       id="text4293"
       y="-1461.9828"
       x="2999.884"
       style="font-size:410.52938843px;font-style:normal;font-variant:normal;font-weight:normal;font-stretch:normal;text-align:center;line-height:100%;letter-spacing:0px;word-spacing:0px;writing-mode:lr-tb;text-anchor:middle;fill:#ff0000;fill-opacity:1;stroke:none;font-family:Franklin Gothic Heavy;-inkscape-font-specification:'Franklin Gothic Heavy,'"
       xml:space="preserve"><tspan
         id="tspan4297"
         y="-1461.9828"
         x="3051.2002"
         sodipodi:role="line"
         dx="0"
         style="font-size:410.52938843px;font-style:normal;font-variant:normal;font-weight:normal;font-stretch:normal;text-align:center;line-height:100%;letter-spacing:0px;word-spacing:0px;writing-mode:lr-tb;text-anchor:middle;fill:#ff0000;font-family:Franklin Gothic Heavy;-inkscape-font-specification:'Franklin Gothic Heavy,'">Помощь в оформлении </tspan><tspan
         y="-1051.4534"
         x="2999.884"
         sodipodi:role="line"
         id="tspan4301"
         style="font-size:410.52938843px;font-style:normal;font-variant:normal;font-weight:normal;font-stretch:normal;text-align:center;line-height:100%;letter-spacing:0px;word-spacing:0px;writing-mode:lr-tb;text-anchor:middle;fill:#ff0000;font-family:Franklin Gothic Heavy;-inkscape-font-specification:'Franklin Gothic Heavy,'">кредита на все случаи</tspan><tspan
         y="-640.92401"
         x="2999.884"
         sodipodi:role="line"
         id="tspan4303"
         style="font-size:410.52938843px;font-style:normal;font-variant:normal;font-weight:normal;font-stretch:normal;text-align:center;line-height:100%;letter-spacing:0px;word-spacing:0px;writing-mode:lr-tb;text-anchor:middle;fill:#ff0000;font-family:Franklin Gothic Heavy;-inkscape-font-specification:'Franklin Gothic Heavy,'">жизни</tspan></text>
    <path
       sodipodi:type="star"
       style="fill:#ff0000;fill-opacity:1;stroke:#ffffff;stroke-width:0.5;stroke-linecap:round;stroke-linejoin:round;stroke-miterlimit:4;stroke-opacity:1;stroke-dasharray:none;stroke-dashoffset:0"
       id="path4371"
       sodipodi:sides="5"
       sodipodi:cx="2517.2415"
       sodipodi:cy="8103.855"
       sodipodi:r1="746.17535"
       sodipodi:r2="322.30161"
       sodipodi:arg1="0.70361378"
       sodipodi:arg2="1.3319323"
       inkscape:flatsided="false"
       inkscape:rounded="0.028"
       inkscape:randomized="0"
       d="m 3086.207,8586.6136 c -9.4397,11.1253 -478.5332,-173.0601 -492.7093,-169.608 -14.1761,3.4521 -346.0692,382.6881 -359.567,377.1484 -13.4978,-5.5398 16.7151,-508.5906 9.0513,-521.0061 -7.6638,-12.4156 -470.8993,-210.8743 -469.8017,-225.4233 1.0975,-14.549 488.8636,-141.2662 498.3032,-152.3915 9.4397,-11.1253 55.0375,-513.0155 69.2136,-516.4676 14.1761,-3.4521 285.4193,421.2833 298.9171,426.823 13.4978,5.5397 504.9142,-106.1868 512.578,-93.7713 7.6638,12.4156 -312.4648,401.6336 -313.5623,416.1826 -1.0976,14.5491 257.0167,447.3885 247.5771,458.5138 z"
       transform="matrix(0.05725417,-0.09966707,0.09966707,0.05725417,-752.23078,-5221.2124)"
       inkscape:transform-center-x="6.0402445"
       inkscape:transform-center-y="-6.4420937" />
    <path
       inkscape:transform-center-y="-6.4420937"
       inkscape:transform-center-x="6.0402445"
       transform="matrix(0.05725417,-0.09966707,0.09966707,0.05725417,-752.23078,-4821.2124)"
       d="m 3086.207,8586.6136 c -9.4397,11.1253 -478.5332,-173.0601 -492.7093,-169.608 -14.1761,3.4521 -346.0692,382.6881 -359.567,377.1484 -13.4978,-5.5398 16.7151,-508.5906 9.0513,-521.0061 -7.6638,-12.4156 -470.8993,-210.8743 -469.8017,-225.4233 1.0975,-14.549 488.8636,-141.2662 498.3032,-152.3915 9.4397,-11.1253 55.0375,-513.0155 69.2136,-516.4676 14.1761,-3.4521 285.4193,421.2833 298.9171,426.823 13.4978,5.5397 504.9142,-106.1868 512.578,-93.7713 7.6638,12.4156 -312.4648,401.6336 -313.5623,416.1826 -1.0976,14.5491 257.0167,447.3885 247.5771,458.5138 z"
       inkscape:randomized="0"
       inkscape:rounded="0.028"
       inkscape:flatsided="false"
       sodipodi:arg2="1.3319323"
       sodipodi:arg1="0.70361378"
       sodipodi:r2="322.30161"
       sodipodi:r1="746.17535"
       sodipodi:cy="8103.855"
       sodipodi:cx="2517.2415"
       sodipodi:sides="5"
       id="path4891"
       style="fill:#ff0000;fill-opacity:1;stroke:#ffffff;stroke-width:0.5;stroke-linecap:round;stroke-linejoin:round;stroke-miterlimit:4;stroke-opacity:1;stroke-dasharray:none;stroke-dashoffset:0"
       sodipodi:type="star" />
    <path
       sodipodi:type="star"
       style="fill:#ff0000;fill-opacity:1;stroke:#ffffff;stroke-width:0.5;stroke-linecap:round;stroke-linejoin:round;stroke-miterlimit:4;stroke-opacity:1;stroke-dasharray:none;stroke-dashoffset:0"
       id="path4893"
       sodipodi:sides="5"
       sodipodi:cx="2517.2415"
       sodipodi:cy="8103.855"
       sodipodi:r1="746.17535"
       sodipodi:r2="322.30161"
       sodipodi:arg1="0.70361378"
       sodipodi:arg2="1.3319323"
       inkscape:flatsided="false"
       inkscape:rounded="0.028"
       inkscape:randomized="0"
       d="m 3086.207,8586.6136 c -9.4397,11.1253 -478.5332,-173.0601 -492.7093,-169.608 -14.1761,3.4521 -346.0692,382.6881 -359.567,377.1484 -13.4978,-5.5398 16.7151,-508.5906 9.0513,-521.0061 -7.6638,-12.4156 -470.8993,-210.8743 -469.8017,-225.4233 1.0975,-14.549 488.8636,-141.2662 498.3032,-152.3915 9.4397,-11.1253 55.0375,-513.0155 69.2136,-516.4676 14.1761,-3.4521 285.4193,421.2833 298.9171,426.823 13.4978,5.5397 504.9142,-106.1868 512.578,-93.7713 7.6638,12.4156 -312.4648,401.6336 -313.5623,416.1826 -1.0976,14.5491 257.0167,447.3885 247.5771,458.5138 z"
       transform="matrix(0.05725417,-0.09966707,0.09966707,0.05725417,-752.23078,-4401.2124)"
       inkscape:transform-center-x="6.0402445"
       inkscape:transform-center-y="-6.4420937" />
    <path
       inkscape:transform-center-y="-6.4420937"
       inkscape:transform-center-x="6.0402445"
       transform="matrix(0.05725417,-0.09966707,0.09966707,0.05725417,-752.23078,-3581.2124)"
       d="m 3086.207,8586.6136 c -9.4397,11.1253 -478.5332,-173.0601 -492.7093,-169.608 -14.1761,3.4521 -346.0692,382.6881 -359.567,377.1484 -13.4978,-5.5398 16.7151,-508.5906 9.0513,-521.0061 -7.6638,-12.4156 -470.8993,-210.8743 -469.8017,-225.4233 1.0975,-14.549 488.8636,-141.2662 498.3032,-152.3915 9.4397,-11.1253 55.0375,-513.0155 69.2136,-516.4676 14.1761,-3.4521 285.4193,421.2833 298.9171,426.823 13.4978,5.5397 504.9142,-106.1868 512.578,-93.7713 7.6638,12.4156 -312.4648,401.6336 -313.5623,416.1826 -1.0976,14.5491 257.0167,447.3885 247.5771,458.5138 z"
       inkscape:randomized="0"
       inkscape:rounded="0.028"
       inkscape:flatsided="false"
       sodipodi:arg2="1.3319323"
       sodipodi:arg1="0.70361378"
       sodipodi:r2="322.30161"
       sodipodi:r1="746.17535"
       sodipodi:cy="8103.855"
       sodipodi:cx="2517.2415"
       sodipodi:sides="5"
       id="path4895"
       style="fill:#ff0000;fill-opacity:1;stroke:#ffffff;stroke-width:0.5;stroke-linecap:round;stroke-linejoin:round;stroke-miterlimit:4;stroke-opacity:1;stroke-dasharray:none;stroke-dashoffset:0"
       sodipodi:type="star" />
    <path
       sodipodi:type="star"
       style="fill:#ff0000;fill-opacity:1;stroke:#ffffff;stroke-width:0.5;stroke-linecap:round;stroke-linejoin:round;stroke-miterlimit:4;stroke-opacity:1;stroke-dasharray:none;stroke-dashoffset:0"
       id="path4897"
       sodipodi:sides="5"
       sodipodi:cx="2517.2415"
       sodipodi:cy="8103.855"
       sodipodi:r1="746.17535"
       sodipodi:r2="322.30161"
       sodipodi:arg1="0.70361378"
       sodipodi:arg2="1.3319323"
       inkscape:flatsided="false"
       inkscape:rounded="0.028"
       inkscape:randomized="0"
       d="m 3086.207,8586.6136 c -9.4397,11.1253 -478.5332,-173.0601 -492.7093,-169.608 -14.1761,3.4521 -346.0692,382.6881 -359.567,377.1484 -13.4978,-5.5398 16.7151,-508.5906 9.0513,-521.0061 -7.6638,-12.4156 -470.8993,-210.8743 -469.8017,-225.4233 1.0975,-14.549 488.8636,-141.2662 498.3032,-152.3915 9.4397,-11.1253 55.0375,-513.0155 69.2136,-516.4676 14.1761,-3.4521 285.4193,421.2833 298.9171,426.823 13.4978,5.5397 504.9142,-106.1868 512.578,-93.7713 7.6638,12.4156 -312.4648,401.6336 -313.5623,416.1826 -1.0976,14.5491 257.0167,447.3885 247.5771,458.5138 z"
       transform="matrix(0.05725417,-0.09966707,0.09966707,0.05725417,-752.23078,-3181.2124)"
       inkscape:transform-center-x="6.0402445"
       inkscape:transform-center-y="-6.4420937" />
    <path
       inkscape:transform-center-y="-6.4420937"
       inkscape:transform-center-x="6.0402445"
       transform="matrix(0.05725417,-0.09966707,0.09966707,0.05725417,-752.23078,-2761.2124)"
       d="m 3086.207,8586.6136 c -9.4397,11.1253 -478.5332,-173.0601 -492.7093,-169.608 -14.1761,3.4521 -346.0692,382.6881 -359.567,377.1484 -13.4978,-5.5398 16.7151,-508.5906 9.0513,-521.0061 -7.6638,-12.4156 -470.8993,-210.8743 -469.8017,-225.4233 1.0975,-14.549 488.8636,-141.2662 498.3032,-152.3915 9.4397,-11.1253 55.0375,-513.0155 69.2136,-516.4676 14.1761,-3.4521 285.4193,421.2833 298.9171,426.823 13.4978,5.5397 504.9142,-106.1868 512.578,-93.7713 7.6638,12.4156 -312.4648,401.6336 -313.5623,416.1826 -1.0976,14.5491 257.0167,447.3885 247.5771,458.5138 z"
       inkscape:randomized="0"
       inkscape:rounded="0.028"
       inkscape:flatsided="false"
       sodipodi:arg2="1.3319323"
       sodipodi:arg1="0.70361378"
       sodipodi:r2="322.30161"
       sodipodi:r1="746.17535"
       sodipodi:cy="8103.855"
       sodipodi:cx="2517.2415"
       sodipodi:sides="5"
       id="path4899"
       style="fill:#ff0000;fill-opacity:1;stroke:#ffffff;stroke-width:0.5;stroke-linecap:round;stroke-linejoin:round;stroke-miterlimit:4;stroke-opacity:1;stroke-dasharray:none;stroke-dashoffset:0"
       sodipodi:type="star" />
    <path
       sodipodi:type="star"
       style="fill:#ff0000;fill-opacity:1;stroke:#ffffff;stroke-width:0.5;stroke-linecap:round;stroke-linejoin:round;stroke-miterlimit:4;stroke-opacity:1;stroke-dasharray:none;stroke-dashoffset:0"
       id="path4901"
       sodipodi:sides="5"
       sodipodi:cx="2517.2415"
       sodipodi:cy="8103.855"
       sodipodi:r1="746.17535"
       sodipodi:r2="322.30161"
       sodipodi:arg1="0.70361378"
       sodipodi:arg2="1.3319323"
       inkscape:flatsided="false"
       inkscape:rounded="0.028"
       inkscape:randomized="0"
       d="m 3086.207,8586.6136 c -9.4397,11.1253 -478.5332,-173.0601 -492.7093,-169.608 -14.1761,3.4521 -346.0692,382.6881 -359.567,377.1484 -13.4978,-5.5398 16.7151,-508.5906 9.0513,-521.0061 -7.6638,-12.4156 -470.8993,-210.8743 -469.8017,-225.4233 1.0975,-14.549 488.8636,-141.2662 498.3032,-152.3915 9.4397,-11.1253 55.0375,-513.0155 69.2136,-516.4676 14.1761,-3.4521 285.4193,421.2833 298.9171,426.823 13.4978,5.5397 504.9142,-106.1868 512.578,-93.7713 7.6638,12.4156 -312.4648,401.6336 -313.5623,416.1826 -1.0976,14.5491 257.0167,447.3885 247.5771,458.5138 z"
       transform="matrix(0.05725417,-0.09966707,0.09966707,0.05725417,-752.23078,-721.2124)"
       inkscape:transform-center-x="6.0402445"
       inkscape:transform-center-y="-6.4420937" />
    <path
       inkscape:transform-center-y="-6.4420937"
       inkscape:transform-center-x="6.0402445"
       transform="matrix(0.05725417,-0.09966707,0.09966707,0.05725417,-752.23078,-321.2124)"
       d="m 3086.207,8586.6136 c -9.4397,11.1253 -478.5332,-173.0601 -492.7093,-169.608 -14.1761,3.4521 -346.0692,382.6881 -359.567,377.1484 -13.4978,-5.5398 16.7151,-508.5906 9.0513,-521.0061 -7.6638,-12.4156 -470.8993,-210.8743 -469.8017,-225.4233 1.0975,-14.549 488.8636,-141.2662 498.3032,-152.3915 9.4397,-11.1253 55.0375,-513.0155 69.2136,-516.4676 14.1761,-3.4521 285.4193,421.2833 298.9171,426.823 13.4978,5.5397 504.9142,-106.1868 512.578,-93.7713 7.6638,12.4156 -312.4648,401.6336 -313.5623,416.1826 -1.0976,14.5491 257.0167,447.3885 247.5771,458.5138 z"
       inkscape:randomized="0"
       inkscape:rounded="0.028"
       inkscape:flatsided="false"
       sodipodi:arg2="1.3319323"
       sodipodi:arg1="0.70361378"
       sodipodi:r2="322.30161"
       sodipodi:r1="746.17535"
       sodipodi:cy="8103.855"
       sodipodi:cx="2517.2415"
       sodipodi:sides="5"
       id="path4903"
       style="fill:#ff0000;fill-opacity:1;stroke:#ffffff;stroke-width:0.5;stroke-linecap:round;stroke-linejoin:round;stroke-miterlimit:4;stroke-opacity:1;stroke-dasharray:none;stroke-dashoffset:0"
       sodipodi:type="star" />
    <path
       sodipodi:type="star"
       style="fill:#ff0000;fill-opacity:1;stroke:#ffffff;stroke-width:0.5;stroke-linecap:round;stroke-linejoin:round;stroke-miterlimit:4;stroke-opacity:1;stroke-dasharray:none;stroke-dashoffset:0"
       id="path4905"
       sodipodi:sides="5"
       sodipodi:cx="2517.2415"
       sodipodi:cy="8103.855"
       sodipodi:r1="746.17535"
       sodipodi:r2="322.30161"
       sodipodi:arg1="0.70361378"
       sodipodi:arg2="1.3319323"
       inkscape:flatsided="false"
       inkscape:rounded="0.028"
       inkscape:randomized="0"
       d="m 3086.207,8586.6136 c -9.4397,11.1253 -478.5332,-173.0601 -492.7093,-169.608 -14.1761,3.4521 -346.0692,382.6881 -359.567,377.1484 -13.4978,-5.5398 16.7151,-508.5906 9.0513,-521.0061 -7.6638,-12.4156 -470.8993,-210.8743 -469.8017,-225.4233 1.0975,-14.549 488.8636,-141.2662 498.3032,-152.3915 9.4397,-11.1253 55.0375,-513.0155 69.2136,-516.4676 14.1761,-3.4521 285.4193,421.2833 298.9171,426.823 13.4978,5.5397 504.9142,-106.1868 512.578,-93.7713 7.6638,12.4156 -312.4648,401.6336 -313.5623,416.1826 -1.0976,14.5491 257.0167,447.3885 247.5771,458.5138 z"
       transform="matrix(0.05725417,-0.09966707,0.09966707,0.05725417,-752.23078,78.7876)"
       inkscape:transform-center-x="6.0402445"
       inkscape:transform-center-y="-6.4420937" />
    <path
       inkscape:transform-center-y="-6.4420937"
       inkscape:transform-center-x="6.0402445"
       transform="matrix(0.05725417,-0.09966707,0.09966707,0.05725417,-752.23078,498.7876)"
       d="m 3086.207,8586.6136 c -9.4397,11.1253 -478.5332,-173.0601 -492.7093,-169.608 -14.1761,3.4521 -346.0692,382.6881 -359.567,377.1484 -13.4978,-5.5398 16.7151,-508.5906 9.0513,-521.0061 -7.6638,-12.4156 -470.8993,-210.8743 -469.8017,-225.4233 1.0975,-14.549 488.8636,-141.2662 498.3032,-152.3915 9.4397,-11.1253 55.0375,-513.0155 69.2136,-516.4676 14.1761,-3.4521 285.4193,421.2833 298.9171,426.823 13.4978,5.5397 504.9142,-106.1868 512.578,-93.7713 7.6638,12.4156 -312.4648,401.6336 -313.5623,416.1826 -1.0976,14.5491 257.0167,447.3885 247.5771,458.5138 z"
       inkscape:randomized="0"
       inkscape:rounded="0.028"
       inkscape:flatsided="false"
       sodipodi:arg2="1.3319323"
       sodipodi:arg1="0.70361378"
       sodipodi:r2="322.30161"
       sodipodi:r1="746.17535"
       sodipodi:cy="8103.855"
       sodipodi:cx="2517.2415"
       sodipodi:sides="5"
       id="path4907"
       style="fill:#ff0000;fill-opacity:1;stroke:#ffffff;stroke-width:0.5;stroke-linecap:round;stroke-linejoin:round;stroke-miterlimit:4;stroke-opacity:1;stroke-dasharray:none;stroke-dashoffset:0"
       sodipodi:type="star" />
  </g>
</svg>
