<?xml version="1.0" encoding="UTF-8" standalone="no"?>
<!-- Created with Inkscape (http://www.inkscape.org/) -->

<svg
   xmlns:dc="http://purl.org/dc/elements/1.1/"
   xmlns:cc="http://creativecommons.org/ns#"
   xmlns:rdf="http://www.w3.org/1999/02/22-rdf-syntax-ns#"
   xmlns:svg="http://www.w3.org/2000/svg"
   xmlns="http://www.w3.org/2000/svg"
   xmlns:sodipodi="http://sodipodi.sourceforge.net/DTD/sodipodi-0.dtd"
   xmlns:inkscape="http://www.inkscape.org/namespaces/inkscape"
   width="325.98425"
   height="184.25197"
   id="svg3016"
   version="1.1"
   inkscape:version="0.48.3.1 r9886"
   sodipodi:docname="2.svg"
   inkscape:export-filename="D:\GraphWork\WorkingProjects\My\Визитка DveriDon\2.png"
   inkscape:export-xdpi="300"
   inkscape:export-ydpi="300">
  <defs
     id="defs3018" />
  <sodipodi:namedview
     id="base"
     pagecolor="#ffffff"
     bordercolor="#666666"
     borderopacity="1.0"
     inkscape:pageopacity="0.0"
     inkscape:pageshadow="2"
     inkscape:zoom="1.8843187"
     inkscape:cx="130.05475"
     inkscape:cy="61.774373"
     inkscape:document-units="px"
     inkscape:current-layer="layer1"
     showgrid="false"
     width="1052.36px"
     units="mm"
     showguides="true"
     inkscape:guide-bbox="true"
     inkscape:window-width="1366"
     inkscape:window-height="723"
     inkscape:window-x="-4"
     inkscape:window-y="-4"
     inkscape:window-maximized="1"
     inkscape:snap-global="false"
     inkscape:showpageshadow="false">
    <sodipodi:guide
       orientation="1,0"
       position="14.328786,184.15144"
       id="guide3026" />
    <sodipodi:guide
       orientation="0,1"
       position="0.53069579,170.35335"
       id="guide3055" />
    <sodipodi:guide
       orientation="0,1"
       position="-27.596181,13.798091"
       id="guide3057" />
    <sodipodi:guide
       orientation="1,0"
       position="312.04912,170.35335"
       id="guide3059" />
    <sodipodi:guide
       orientation="1,0"
       position="7.0866142,81.727152"
       id="guide2988" />
    <sodipodi:guide
       orientation="1,0"
       position="318.89764,83.319239"
       id="guide2990" />
    <sodipodi:guide
       orientation="0,1"
       position="177.16535,177.16535"
       id="guide2992" />
    <sodipodi:guide
       orientation="0,1"
       position="148.06413,7.0866142"
       id="guide2994" />
  </sodipodi:namedview>
  <metadata
     id="metadata3021">
    <rdf:RDF>
      <cc:Work
         rdf:about="">
        <dc:format>image/svg+xml</dc:format>
        <dc:type
           rdf:resource="http://purl.org/dc/dcmitype/StillImage" />
        <dc:title></dc:title>
      </cc:Work>
    </rdf:RDF>
  </metadata>
  <g
     inkscape:label="Layer 1"
     inkscape:groupmode="layer"
     id="layer1"
     transform="translate(0,-868.11019)">
    <rect
       style="fill:#ffffff;fill-opacity:1;stroke:none"
       id="rect3027"
       width="325.3165"
       height="182.55934"
       x="0.5306958"
       y="869.27216" />
    <rect
       style="opacity:0.375;fill:#242178;fill-opacity:1;stroke:none;display:none"
       id="rect3028"
       width="425.82224"
       height="155.90552"
       x="-35.859974"
       y="882.28345" />
    <rect
       style="fill:#242178;fill-opacity:1;stroke:none;display:none"
       id="rect3028-1"
       width="297.63779"
       height="245.62006"
       x="14.173228"
       y="835.08856" />
    <path
       style="fill:#ff0000;stroke:#000000;stroke-width:0.76373804000000001px;stroke-linecap:butt;stroke-linejoin:miter;stroke-opacity:1"
       d="M 193.96875 15.84375 C 193.63914 15.822583 193.32006 15.843881 193 15.875 C 191.71976 15.999476 190.48474 16.500235 189.25 16.875 C 185.1838 21.267 184.17024 27.16003 182.75 32.875 C 180.78352 31.61985 178.76199 30.48517 174.90625 32.46875 C 169.51603 35.81025 165.01631 40.16595 162.375 46.53125 C 160.435 51.82467 159.46698 59.69049 161.46875 61.9375 C 164.38708 65.21335 169.7191 64.0857 173.96875 61.1875 C 178.14695 58.14806 179.03611 57.39147 181.9375 53.75 L 182.21875 59.96875 C 183.59678 63.58465 184.99696 64.736 186.375 64.5 C 189.6542 64.04164 192.51326 63.09505 194.4375 60.46875 C 193.9271 57.92015 193.70928 57.32073 192.875 53.65625 C 191.72428 46.70154 191.39078 42.11311 192.875 31.65625 C 193.79482 26.79867 194.84932 21.92008 197.125 17.0625 C 196.00066 16.252965 194.95758 15.90725 193.96875 15.84375 z M 40.84375 17.125 C 37.00528 17.146319 32.422377 17.505572 27.09375 18.21875 C 21.71708 18.66455 14.734094 24.06228 17.46875 27.875 C 22.073235 28.36483 21.890307 26.73585 25.9375 25.9375 L 16.3125 58.9375 C 15.870311 64.74554 41.082059 66.98399 49.46875 58.75 C 59.960182 49.16558 59.421101 41.5077 59.6875 31.625 C 59.749508 29.32464 59.040767 25.63688 56.03125 21.71875 C 54.207372 18.691729 49.288383 17.078098 40.84375 17.125 z M 154.125 17.78125 C 151.71456 19.26963 149.65535 21.43072 149.15625 26.46875 C 149.24623 31.02052 151.47356 30.79745 153.71875 30.5 C 155.32742 28.93155 157.51869 28.23652 158.34375 22.75 C 158.39777 20.43251 159.06508 17.73315 154.125 17.78125 z M 39.84375 24.40625 C 46.971374 29.2802 47.146096 33.24458 48.3125 37.125 C 48.998672 47.38117 45.625856 51.80216 41.75 55.46875 C 37.714122 57.809807 33.692128 58.59093 29.65625 57.6875 C 32.851819 56.29558 37.454601 27.881713 39.84375 24.40625 z M 131.03125 31.1875 C 130.74055 31.216316 130.39593 31.30346 129.96875 31.46875 C 128.01738 31.90605 126.51584 34.72973 124.9375 37.21875 C 122.88401 42.91939 121.82162 48.6431 121.125 54.34375 C 120.94012 57.44199 120.50098 60.55761 122 63.46875 C 123.58858 64.03592 125.21062 64.5565 127.5625 63.40625 C 129.18991 62.43695 130.84401 61.64288 132.09375 58.21875 C 132.74792 52.49489 132.9864 46.93905 133.0625 41.03125 C 133.77704 39.76384 134.49596 38.78702 135.59375 40.96875 C 135.7306 44.18081 135.866 47.39012 135.8125 50.03125 C 137.07567 49.86015 138.09439 48.78194 138.96875 47.25 C 139.60359 45.33407 140.29939 43.8651 140.5625 39.71875 C 140.77226 37.84083 140.9377 35.84912 140 32.25 C 138.80884 31.21012 138.1112 31.7062 137.28125 31.75 C 135.74716 32.1224 134.82339 33.25484 134.0625 34.59375 C 133.98158 33.68105 133.93608 32.78998 132.90625 31.6875 C 132.29699 31.511063 131.90335 31.101052 131.03125 31.1875 z M 220.0625 31.4375 C 218.6891 31.470892 217.07451 31.645939 214.90625 32.15625 C 207.61388 35.11872 202.03585 40.14219 198.875 48.0625 C 198.55445 50.32575 198.09194 52.47687 198.5625 55.53125 C 201.00613 63.73117 210.49003 65.64532 218.71875 63.78125 C 226.69744 61.95274 231.67486 54.39669 232.96875 46.625 C 233.19133 40.31826 230.74452 37.52523 227.40625 35.875 C 224.20909 36.64199 221.45743 35.67109 216.125 40.125 C 217.99218 38.71176 222.39694 45.7986 222.03125 46 C 223.19316 46.10335 223.19979 53.15625 222.75 53.15625 C 221.2887 56.35682 219.44746 58.84176 216.34375 59.03125 C 213.97879 58.79874 211.63055 58.47092 210.34375 53.65625 C 209.8675 51.36967 209.50809 48.96297 210.65625 44.78125 C 212.47593 41.03644 213.84208 38.5988 219.21875 34.75 C 222.9436 33.25103 222.91041 33.79345 225.65625 33.71875 C 226.72291 32.71331 226.18576 32.32322 225.9375 31.84375 C 223.90004 31.748481 222.3515 31.381846 220.0625 31.4375 z M 111.96875 31.53125 C 107.27873 31.7981 103.09887 33.58471 99.4375 36.9375 C 94.305471 42.04726 92.783523 48.20138 91.15625 54.3125 C 91.386089 59.35893 92.903915 62.11011 95.1875 63.5625 C 103.3658 67.0945 111.58001 60.35224 117.5625 55.0625 C 117.89071 54.03384 118.83194 53.02865 116.21875 52 C 113.13003 53.01377 112.74643 54.82597 107.53125 57.5625 C 104.44686 58.54579 103.34519 57.39501 102.71875 56.21875 C 104.22407 56.01922 105.64154 56.1892 107.71875 55.0625 C 111.70689 52.29534 114.94421 50.39363 117.5625 44.28125 C 118.61538 39.03425 118.77482 32.43199 111.96875 31.53125 z M 68.65625 32.0625 C 67.428442 32.088576 66.026248 32.318453 64.34375 32.875 C 62.666276 38.53261 63.267476 44.21739 63.5625 49.875 C 64.404796 56.6824 65.728488 62.94205 70.125 65.6875 C 78.567869 59.94048 84.247736 51.10217 89.59375 44.28125 C 90.770159 40.37078 90.266051 36.87017 89.40625 33.46875 C 87.927554 31.6973 86.447447 32.55572 84.96875 33.28125 L 74.9375 53.53125 C 75.203281 47.6559 74.156858 42.97473 74.75 34.25 C 73.139878 33.034473 71.357427 32.005132 68.65625 32.0625 z M 248.125 32.625 C 247.44324 32.637779 246.6562 32.87699 245.6875 33.40625 C 242.12587 35.47385 239.4762 40.44041 237.84375 47.46875 C 236.36471 52.88945 235.98279 57.1763 235.875 61.5 C 237.91753 65.24419 240.2906 64.04019 242.59375 63.875 C 248.64641 59.05957 250.9268 52.36907 256.03125 48.59375 L 255.5 55.40625 C 255.3631 59.78458 256.65496 62.24136 258.71875 63.59375 C 261.64164 63.44149 264.85436 66.02251 267.28125 61.40625 C 267.68482 53.82704 268.40528 46.26671 267.5 38.6875 C 266.53447 36.53885 264.49965 35.65771 260.78125 36.8125 C 257.59534 38.2263 254.21544 40.39737 249.9375 45.90625 C 250.90507 42.28984 251.97416 37.75191 250.875 33.8125 C 250.10837 33.16845 249.26127 32.603701 248.125 32.625 z M 153.03125 32.6875 C 152.4036 32.684266 151.66731 32.819345 150.8125 33.09375 C 148.42158 35.69817 146.37702 39.22309 144.8125 44.03125 C 143.72985 49.53632 142.66157 55.05067 144 61.09375 C 147.70605 67.03005 150.1232 63.32999 152.78125 61.40625 C 154.04162 58.46089 155.24966 55.31803 155.96875 49.125 C 156.47966 44.66067 157.61571 40.48077 156.59375 35.25 C 155.87154 33.821618 154.9142 32.697203 153.03125 32.6875 z M 176.75 35.875 C 178.64468 35.70287 179.24585 36.84411 178.9375 38.875 C 179.42948 43.62859 179.13484 45.69024 179.125 48.6875 C 179.40798 46.31554 182.41891 46.22133 181.71875 48.6875 C 179.37215 52.16406 177.4076 52.59791 175.3125 54.0625 C 172.57403 55.04841 170.90074 54.30822 171.1875 50.34375 C 171.72292 47.50945 172.26809 44.66692 173.34375 41.5625 C 174.42724 38.848 175.38465 36.94009 176.75 35.875 z M 108.5625 37.0625 C 112.63926 36.80869 109.23346 44.27184 108.96875 46.75 C 107.12653 51.029 105.11525 52.77692 103.09375 54.1875 C 102.91186 51.38034 102.48191 49.39593 103.5625 44.96875 C 104.967 40.82108 107.23077 38.4174 108.5625 37.0625 z M 29.03125 57.5625 C 29.22864 57.615462 29.42761 57.642895 29.625 57.6875 C 29.423097 57.764367 29.220886 57.717147 29.03125 57.5625 z "
       transform="translate(0,868.11019)"
       id="path2996" />
    <text
       transform="scale(0.93180509,1.0731858)"
       xml:space="preserve"
       style="font-size:14.31317902px;font-style:normal;font-variant:normal;font-weight:normal;font-stretch:normal;text-align:start;line-height:125%;letter-spacing:0px;word-spacing:0px;writing-mode:lr-tb;text-anchor:start;fill:#000000;fill-opacity:1;stroke:none;font-family:Forte;-inkscape-font-specification:Forte"
       x="291.76547"
       y="868.71289"
       id="text3796"
       sodipodi:linespacing="125%"><tspan
         sodipodi:role="line"
         id="tspan3798"
         x="291.76547"
         y="868.71289">com.ua</tspan></text>
    <text
       xml:space="preserve"
       style="font-size:21.74594688px;font-style:normal;font-variant:normal;font-weight:normal;font-stretch:normal;text-align:start;line-height:125%;letter-spacing:0px;word-spacing:0px;writing-mode:lr-tb;text-anchor:start;fill:#000000;fill-opacity:1;stroke:none;font-family:Mistral;-inkscape-font-specification:Mistral"
       x="15.540479"
       y="966.9743"
       id="text3800"
       sodipodi:linespacing="125%"><tspan
         sodipodi:role="line"
         id="tspan3802"
         x="15.540479"
         y="966.9743">Производство дверей, интернет магазин</tspan></text>
    <text
       xml:space="preserve"
       style="font-size:12px;font-style:normal;font-variant:normal;font-weight:bold;font-stretch:normal;text-align:start;line-height:125%;letter-spacing:0px;word-spacing:0px;writing-mode:lr-tb;text-anchor:start;fill:#000000;fill-opacity:1;stroke:none;font-family:Sans;-inkscape-font-specification:Sans Bold"
       x="17.51296"
       y="994.0719"
       id="text3082"
       sodipodi:linespacing="125%"><tspan
         sodipodi:role="line"
         id="tspan3084"
         x="17.51296"
         y="994.0719">Тел. (066) 477-93-33  |  (095) 525-86-20</tspan></text>
    <text
       xml:space="preserve"
       style="font-size:12px;font-style:normal;font-variant:normal;font-weight:bold;font-stretch:normal;text-align:start;line-height:125%;letter-spacing:0px;word-spacing:0px;writing-mode:lr-tb;text-anchor:start;fill:#000000;fill-opacity:1;stroke:none;font-family:Sans;-inkscape-font-specification:Sans Bold"
       x="16.897726"
       y="1022.1125"
       id="text3086"
       sodipodi:linespacing="125%"><tspan
         sodipodi:role="line"
         id="tspan3088"
         x="16.897726"
         y="1022.1125">E-mail: elitsinzakaz@yandex.ru</tspan></text>
  </g>
</svg>
