<?xml version="1.0" encoding="UTF-8" standalone="no"?>
<!-- Created with Inkscape (http://www.inkscape.org/) -->

<svg
   xmlns:dc="http://purl.org/dc/elements/1.1/"
   xmlns:cc="http://creativecommons.org/ns#"
   xmlns:rdf="http://www.w3.org/1999/02/22-rdf-syntax-ns#"
   xmlns:svg="http://www.w3.org/2000/svg"
   xmlns="http://www.w3.org/2000/svg"
   xmlns:sodipodi="http://sodipodi.sourceforge.net/DTD/sodipodi-0.dtd"
   xmlns:inkscape="http://www.inkscape.org/namespaces/inkscape"
   width="2104.7244"
   height="2979.9211"
   id="svg2"
   version="1.1"
   inkscape:version="0.48.3.1 r9886"
   sodipodi:docname="Новый документ 1">
  <defs
     id="defs4" />
  <sodipodi:namedview
     id="base"
     pagecolor="#ffffff"
     bordercolor="#666666"
     borderopacity="1.0"
     inkscape:pageopacity="0.0"
     inkscape:pageshadow="2"
     inkscape:zoom="0.49497475"
     inkscape:cx="916.2746"
     inkscape:cy="2416.1132"
     inkscape:document-units="px"
     inkscape:current-layer="layer1"
     showgrid="false"
     inkscape:showpageshadow="false"
     inkscape:window-width="1366"
     inkscape:window-height="723"
     inkscape:window-x="-4"
     inkscape:window-y="-4"
     inkscape:window-maximized="1" />
  <metadata
     id="metadata7">
    <rdf:RDF>
      <cc:Work
         rdf:about="">
        <dc:format>image/svg+xml</dc:format>
        <dc:type
           rdf:resource="http://purl.org/dc/dcmitype/StillImage" />
        <dc:title></dc:title>
      </cc:Work>
    </rdf:RDF>
  </metadata>
  <g
     inkscape:label="Layer 1"
     inkscape:groupmode="layer"
     id="layer1"
     transform="translate(0,1927.5591)">
    <path
       sodipodi:type="arc"
       style="fill:none;stroke:#000000;stroke-opacity:1"
       id="path3763"
       sodipodi:cx="1087.1428"
       sodipodi:cy="429.92114"
       sodipodi:rx="498.57144"
       sodipodi:ry="230"
       d="m 1585.7143,429.92114 a 498.57144,230 0 1 1 -997.14292,0 498.57144,230 0 1 1 997.14292,0 z"
       transform="matrix(1,0,0,1.3300576,0,-1875.5446)" />
    <path
       transform="matrix(1,0,0,1.3300576,0,-1875.5446)"
       d="m 1585.7143,429.92114 a 498.57144,230 0 1 1 -997.14292,0 498.57144,230 0 1 1 997.14292,0 z"
       sodipodi:ry="230"
       sodipodi:rx="498.57144"
       sodipodi:cy="429.92114"
       sodipodi:cx="1087.1428"
       id="path3761"
       style="fill:none;stroke:#000000;stroke-opacity:1"
       sodipodi:type="arc" />
    <path
       sodipodi:type="arc"
       style="fill:none;stroke:#000000;stroke-opacity:1"
       id="path3769"
       sodipodi:cx="1087.1428"
       sodipodi:cy="429.92114"
       sodipodi:rx="498.57144"
       sodipodi:ry="230"
       d="m 1585.7143,429.92114 a 498.57144,230 0 1 1 -997.14292,0 498.57144,230 0 1 1 997.14292,0 z"
       transform="matrix(0.78019113,0,0,1.0376991,232.96368,-1855.8535)" />
    <path
       sodipodi:type="arc"
       style="fill:#333333;fill-opacity:1;stroke:none"
       id="path2985"
       sodipodi:cx="1572.8572"
       sodipodi:cy="581.34973"
       sodipodi:rx="158.57143"
       sodipodi:ry="158.57143"
       d="m 1731.4286,581.34973 a 158.57143,158.57143 0 1 1 -317.1428,0 158.57143,158.57143 0 1 1 317.1428,0 z"
       transform="matrix(0.63063063,0,0,0.63063063,575.25099,-1771.3977)" />
    <path
       transform="matrix(1.1717212,0,0,1.5584566,-192.68542,-2079.7382)"
       d="m 1585.7143,429.92114 a 498.57144,230 0 1 1 -997.14292,0 498.57144,230 0 1 1 997.14292,0 z"
       sodipodi:ry="230"
       sodipodi:rx="498.57144"
       sodipodi:cy="429.92114"
       sodipodi:cx="1087.1428"
       id="path3767"
       style="fill:none;stroke:#000000;stroke-opacity:1;stroke-width:2.18378415;stroke-miterlimit:4;stroke-dasharray:none"
       sodipodi:type="arc" />
    <path
       transform="matrix(0.63063063,0,0,0.63063063,-399.03473,-1771.3977)"
       d="m 1731.4286,581.34973 a 158.57143,158.57143 0 1 1 -317.1428,0 158.57143,158.57143 0 1 1 317.1428,0 z"
       sodipodi:ry="158.57143"
       sodipodi:rx="158.57143"
       sodipodi:cy="581.34973"
       sodipodi:cx="1572.8572"
       id="path3759"
       style="fill:#333333;fill-opacity:1;stroke:none"
       sodipodi:type="arc" />
    <path
       sodipodi:type="arc"
       style="fill:none;stroke:#000000;stroke-opacity:1;stroke-width:3.25419325;stroke-miterlimit:4;stroke-dasharray:none"
       id="path2987"
       sodipodi:cx="1087.1428"
       sodipodi:cy="429.92114"
       sodipodi:rx="498.57144"
       sodipodi:ry="230"
       d="m 1585.7143,429.92114 a 498.57144,230 0 1 1 -997.14292,0 498.57144,230 0 1 1 997.14292,0 z"
       transform="matrix(1,0,0,1.3300576,0,-2073.5446)" />
    <path
       style="fill:none;stroke:#000000;stroke-width:1px;stroke-linecap:butt;stroke-linejoin:miter;stroke-opacity:1"
       d="m 492.36271,519.5572 c 6.65651,-67.54411 31.89372,-111.44007 59.18058,-152.72737 122.77727,-137.32173 140.91635,-125.53404 194.07184,-163.64472 102.16437,-54.69056 208.59044,-80.6147 318.37137,-83.89342 111.9146,-4.06676 222.9932,16.10932 333.0037,67.2618 93.0137,48.88291 173.0343,103.59038 211.1727,177.07256 32.8521,40.49061 56.9969,88.66417 57.6294,157.5838 -4.5542,53.29818 -18.2508,100.9703 -47.5279,139.05442 -39.0536,60.81551 -76.1966,122.68185 -152.2372,163.15451 -85.4979,51.60393 -175.9759,101.19981 -377.2054,106.1378 C 991.25019,926.15063 891.87293,919.24632 764.38961,857.88651 676.66943,803.67231 590.31346,748.39047 545.48237,660.6109 512.14895,622.00747 501.36663,571.26113 492.36271,519.5572 z"
       id="path3777"
       inkscape:connector-curvature="0"
       transform="translate(0,-1927.5591)"
       sodipodi:nodetypes="ccccccccccccc" />
    <path
       style="fill:none;stroke:#000000;stroke-width:1px;stroke-linecap:butt;stroke-linejoin:miter;stroke-opacity:1"
       d="m 692.45957,522.22 c -0.87428,-46.4424 17.63526,-83.65441 44.95179,-116.67262 90.54185,-51.83183 193.65044,-81.67185 311.12694,-86.36804 171.5206,-6.76342 271.9688,28.21412 359.6143,70.71068 32.2106,30.36561 58.9576,66.71517 63.1346,127.7843 -6.2334,83.75102 -51.3088,122.39511 -98.4899,158.59395 -93.4849,37.26942 -189.7001,58.15682 -289.9138,55.05331 C 946.1875,735.18504 862.89833,697.50985 772.7667,665.15659 722.08519,622.29355 696.00268,574.51072 692.45957,522.22 z"
       id="path3779"
       inkscape:connector-curvature="0"
       transform="translate(0,-1927.5591)"
       sodipodi:nodetypes="ccccccccc" />
  </g>
</svg>
