<?xml version="1.0" encoding="UTF-8" standalone="no"?>
<!-- Created with Inkscape (http://www.inkscape.org/) -->

<svg
   xmlns:dc="http://purl.org/dc/elements/1.1/"
   xmlns:cc="http://creativecommons.org/ns#"
   xmlns:rdf="http://www.w3.org/1999/02/22-rdf-syntax-ns#"
   xmlns:svg="http://www.w3.org/2000/svg"
   xmlns="http://www.w3.org/2000/svg"
   xmlns:xlink="http://www.w3.org/1999/xlink"
   xmlns:sodipodi="http://sodipodi.sourceforge.net/DTD/sodipodi-0.dtd"
   xmlns:inkscape="http://www.inkscape.org/namespaces/inkscape"
   width="751.18109"
   height="357.87399"
   id="svg2"
   version="1.1"
   inkscape:version="0.48.3.1 r9886"
   sodipodi:docname="Maket E.svg"
   inkscape:export-filename="D:\GraphWork\WorkingProjects\My\Вывоз мусора\Формат Е\Maket E.png"
   inkscape:export-xdpi="300"
   inkscape:export-ydpi="300">
  <defs
     id="defs4">
    <linearGradient
       inkscape:collect="always"
       id="linearGradient3780">
      <stop
         style="stop-color:#ff0000;stop-opacity:1"
         offset="0"
         id="stop3782" />
      <stop
         style="stop-color:#ffff00;stop-opacity:1"
         offset="1"
         id="stop3784" />
    </linearGradient>
    <linearGradient
       inkscape:collect="always"
       xlink:href="#linearGradient3780"
       id="linearGradient3786"
       x1="184.4035"
       y1="250.00159"
       x2="184.4035"
       y2="358.60287"
       gradientUnits="userSpaceOnUse" />
  </defs>
  <sodipodi:namedview
     id="base"
     pagecolor="#ffffff"
     bordercolor="#666666"
     borderopacity="1.0"
     inkscape:pageopacity="0.0"
     inkscape:pageshadow="2"
     inkscape:zoom="1.9402887"
     inkscape:cx="458.02585"
     inkscape:cy="90.899756"
     inkscape:document-units="px"
     inkscape:current-layer="layer1"
     showgrid="false"
     units="mm"
     showguides="true"
     inkscape:guide-bbox="true"
     inkscape:window-width="1366"
     inkscape:window-height="723"
     inkscape:window-x="-4"
     inkscape:window-y="-4"
     inkscape:window-maximized="1"
     inkscape:snap-global="false"
     inkscape:showpageshadow="false">
    <sodipodi:guide
       orientation="0,1"
       position="-126.0941,342.56777"
       id="guide3871" />
    <sodipodi:guide
       orientation="0,1"
       position="-115.16108,15.30622"
       id="guide3873" />
    <sodipodi:guide
       orientation="1,0"
       position="14.577352,361.51833"
       id="guide3875" />
    <sodipodi:guide
       orientation="1,0"
       position="360.0606,365.16267"
       id="guide3877" />
    <sodipodi:guide
       orientation="1,0"
       position="391.4019,342.56777"
       id="guide3775" />
    <sodipodi:guide
       orientation="1,0"
       position="737.61401,342.56777"
       id="guide3777" />
    <sodipodi:guide
       orientation="1,0"
       position="376.09568,245.62838"
       id="guide3434" />
    <sodipodi:guide
       orientation="0,1"
       position="134.11164,108.60127"
       id="guide4373" />
    <sodipodi:guide
       orientation="0,1"
       position="612.24878,178.57256"
       id="guide4379" />
    <sodipodi:guide
       orientation="1,0"
       position="561.22805,162.53747"
       id="guide4381" />
    <sodipodi:guide
       orientation="0,1"
       position="619.53746,88.192979"
       id="guide4385" />
    <sodipodi:guide
       orientation="1,0"
       position="651.60763,161.07974"
       id="guide4389" />
    <sodipodi:guide
       orientation="1,0"
       position="3.5433071,205.54066"
       id="guide3013" />
    <sodipodi:guide
       orientation="0,1"
       position="104.95693,3.5433071"
       id="guide3015" />
    <sodipodi:guide
       orientation="1,0"
       position="747.6378,94.752787"
       id="guide3017" />
    <sodipodi:guide
       orientation="0,1"
       position="427.11641,354.33071"
       id="guide3019" />
    <sodipodi:guide
       orientation="1,0"
       position="0,273.32535"
       id="guide3250" />
    <sodipodi:guide
       orientation="0,1"
       position="104.22807,357.87399"
       id="guide3252" />
    <sodipodi:guide
       orientation="0,1"
       position="147.23125,0"
       id="guide3254" />
    <sodipodi:guide
       orientation="1,0"
       position="751.46249,-16.763955"
       id="guide3256" />
  </sodipodi:namedview>
  <metadata
     id="metadata7">
    <rdf:RDF>
      <cc:Work
         rdf:about="">
        <dc:format>image/svg+xml</dc:format>
        <dc:type
           rdf:resource="http://purl.org/dc/dcmitype/StillImage" />
        <dc:title></dc:title>
      </cc:Work>
    </rdf:RDF>
  </metadata>
  <g
     inkscape:label="Layer 1"
     inkscape:groupmode="layer"
     id="layer1"
     transform="translate(0,-694.48818)">
    <rect
       y="694.41632"
       x="0.77144223"
       height="357.96689"
       width="750.92065"
       id="rect3863"
       style="fill:#ffffff;fill-opacity:1;stroke:none" />
    <rect
       style="fill:#00ffff;fill-opacity:1;stroke:none"
       id="rect3007"
       width="184.98083"
       height="178.62309"
       x="376.0957"
       y="873.78961"
       inkscape:export-filename="D:\GraphWork\WorkingProjects\My\Вывоз мусора\Формат Е\Макет.png"
       inkscape:export-xdpi="300"
       inkscape:export-ydpi="300" />
    <text
       xml:space="preserve"
       style="font-size:15.79354477px;font-style:normal;font-variant:normal;font-weight:bold;font-stretch:normal;text-align:start;line-height:120.00000477%;letter-spacing:0px;word-spacing:0px;writing-mode:lr-tb;text-anchor:start;fill:#000080;fill-opacity:1;stroke:none;font-family:BankGothic RUSS;-inkscape-font-specification:BankGothic RUSS Bold"
       x="539.36237"
       y="634.96198"
       id="text3777"
       sodipodi:linespacing="120%"
       transform="scale(0.71083554,1.4067952)"><tspan
         sodipodi:role="line"
         x="539.36237"
         y="634.96198"
         id="tspan3785">Вывоз мусора</tspan><tspan
         sodipodi:role="line"
         x="539.36237"
         y="653.91418"
         id="tspan3787">Доставка сыпучих</tspan><tspan
         sodipodi:role="line"
         x="539.36237"
         y="672.86652"
         id="tspan3789">от 5 до 10 тонн</tspan><tspan
         sodipodi:role="line"
         x="539.36237"
         y="691.81873"
         id="tspan3805">Грузчики</tspan><tspan
         sodipodi:role="line"
         x="539.36237"
         y="710.771"
         id="tspan3807">Помощь при переездах</tspan></text>
    <path
       sodipodi:type="inkscape:offset"
       inkscape:radius="2"
       inkscape:original="M 397.46875 1012.4062 C 395.70382 1012.4063 394.32978 1013.2255 393.34375 1014.9062 C 392.15056 1016.9457 391.5625 1020.2985 391.5625 1024.9375 C 391.5625 1029.6662 392.10203 1032.938 393.1875 1034.7812 C 394.27297 1036.6245 395.69553 1037.5625 397.46875 1037.5625 C 399.23367 1037.5625 400.6077 1036.7121 401.59375 1035.0312 C 402.78693 1032.9919 403.37499 1029.6302 403.375 1024.9688 C 403.37499 1020.2961 402.77864 1016.9545 401.59375 1014.9375 C 400.59942 1013.2343 399.23367 1012.4063 397.46875 1012.4062 z M 425.8125 1012.4062 C 424.04757 1012.4063 422.67353 1013.2255 421.6875 1014.9062 C 420.49431 1016.9457 419.875 1020.2985 419.875 1024.9375 C 419.875 1029.6662 420.41453 1032.938 421.5 1034.7812 C 422.58547 1036.6245 424.03928 1037.5625 425.8125 1037.5625 C 427.57742 1037.5625 428.95145 1036.7121 429.9375 1035.0312 C 431.13068 1032.9919 431.71874 1029.6302 431.71875 1024.9688 C 431.71874 1020.2961 431.12239 1016.9545 429.9375 1014.9375 C 428.94317 1013.2343 427.57742 1012.4063 425.8125 1012.4062 z M 446.6875 1012.4062 C 444.98886 1012.4063 443.5979 1013.158 442.5 1014.6875 C 441.4021 1016.2171 440.84375 1018.22 440.84375 1020.7188 C 440.84375 1023.1167 441.36635 1025.0666 442.40625 1026.5625 C 443.44614 1028.0584 444.69151 1028.8125 446.125 1028.8125 C 447.44247 1028.8125 448.52792 1028.1283 449.40625 1026.75 C 449.26538 1029.5738 448.94294 1031.4473 448.4375 1032.3438 C 447.93204 1033.2402 447.31463 1033.6875 446.59375 1033.6875 C 446.02201 1033.6875 445.56676 1033.4482 445.21875 1033 C 444.87073 1032.5518 444.67661 1031.8676 444.59375 1030.9375 L 441.1875 1031.4375 C 441.43608 1033.4769 442.02793 1035.006 442.90625 1036.0312 C 443.78457 1037.0565 444.91855 1037.5625 446.34375 1037.5625 C 448.3241 1037.5625 449.92162 1036.5883 451.15625 1034.5938 C 452.39086 1032.5992 453.03124 1029.3483 453.03125 1024.8438 C 453.03124 1020.4176 452.43489 1017.2142 451.25 1015.2812 C 450.06509 1013.3483 448.53528 1012.4063 446.6875 1012.4062 z M 461.3125 1012.4062 C 459.67186 1012.4063 458.3125 1012.962 457.21875 1014.0938 C 456.12499 1015.2255 455.45715 1017.0879 455.25 1019.6875 L 458.75 1020.1562 C 458.81628 1018.778 459.06912 1017.7814 459.5 1017.1875 C 459.93087 1016.5936 460.48957 1016.3125 461.21875 1016.3125 C 461.9562 1016.3125 462.5503 1016.5904 462.96875 1017.1562 C 463.38719 1017.7221 463.59374 1018.5405 463.59375 1019.5938 C 463.59374 1020.5462 463.35558 1021.4939 462.875 1022.4688 C 462.51869 1023.1747 461.54309 1024.5167 459.96875 1026.5 C 458.01324 1028.954 456.69413 1030.9215 456.03125 1032.4062 C 455.36837 1033.891 454.97633 1035.4666 454.84375 1037.125 L 467.09375 1037.125 L 467.09375 1032.75 L 460.15625 1032.75 C 460.33854 1032.3242 460.58084 1031.8857 460.875 1031.4375 C 461.16915 1030.9893 461.8667 1030.0858 462.96875 1028.7188 C 464.07078 1027.3517 464.8274 1026.2909 465.25 1025.5625 C 465.88801 1024.4644 466.36208 1023.4091 466.65625 1022.4062 C 466.95039 1021.4034 467.09374 1020.3594 467.09375 1019.25 C 467.09374 1017.3003 466.58996 1015.6861 465.5625 1014.375 C 464.53502 1013.064 463.11056 1012.4063 461.3125 1012.4062 z M 496.59375 1012.4062 C 494.82882 1012.4063 493.45478 1013.2255 492.46875 1014.9062 C 491.27556 1016.9457 490.6875 1020.2985 490.6875 1024.9375 C 490.6875 1029.6662 491.22703 1032.938 492.3125 1034.7812 C 493.39797 1036.6245 494.82053 1037.5625 496.59375 1037.5625 C 498.35867 1037.5625 499.7327 1036.7121 500.71875 1035.0312 C 501.91193 1032.9919 502.49999 1029.6302 502.5 1024.9688 C 502.49999 1020.2961 501.93489 1016.9545 500.75 1014.9375 C 499.75567 1013.2343 498.35867 1012.4063 496.59375 1012.4062 z M 512.15625 1012.4062 L 504.25 1028.0312 L 504.25 1032.1875 L 511.71875 1032.1875 L 511.71875 1037.125 L 515.09375 1037.125 L 515.09375 1032.1875 L 517.34375 1032.1875 L 517.34375 1028.0312 L 515.09375 1028.0312 L 515.09375 1012.4062 L 512.15625 1012.4062 z M 532 1012.4062 C 530.23507 1012.4063 528.86103 1013.2255 527.875 1014.9062 C 526.68181 1016.9457 526.09375 1020.2985 526.09375 1024.9375 C 526.09375 1029.6662 526.63328 1032.938 527.71875 1034.7812 C 528.80422 1036.6245 530.22678 1037.5625 532 1037.5625 C 533.76492 1037.5625 535.13895 1036.7121 536.125 1035.0312 C 537.31818 1032.9919 537.90624 1029.6302 537.90625 1024.9688 C 537.90624 1020.2961 537.30989 1016.9545 536.125 1014.9375 C 535.13067 1013.2343 533.76492 1012.4063 532 1012.4062 z M 546.03125 1012.4062 C 545.02863 1012.4063 544.12038 1012.6464 543.3125 1013.1562 C 542.50461 1013.6661 541.85784 1014.3592 541.40625 1015.25 C 540.95466 1016.1409 540.62997 1017.3535 540.40625 1018.8438 L 543.625 1019.5625 C 543.71614 1018.4868 543.95241 1017.6853 544.375 1017.125 C 544.79758 1016.5648 545.30965 1016.2813 545.90625 1016.2812 C 546.51112 1016.2813 547.01041 1016.5382 547.375 1017.0312 C 547.73958 1017.5243 547.90624 1018.1708 547.90625 1019 C 547.90624 1019.9749 547.68465 1020.7555 547.1875 1021.3438 C 546.69033 1021.932 545.9446 1022.2211 545 1022.1875 L 544.625 1026.0312 C 545.24645 1025.7959 545.7713 1025.6875 546.21875 1025.6875 C 546.8982 1025.6875 547.49644 1026.024 547.96875 1026.7188 C 548.44104 1027.4135 548.65624 1028.3435 548.65625 1029.5312 C 548.65624 1030.7863 548.43051 1031.7917 547.9375 1032.5312 C 547.44447 1033.2708 546.81463 1033.625 546.09375 1033.625 C 545.42257 1033.625 544.8473 1033.3351 544.375 1032.7188 C 543.90269 1032.1025 543.63896 1031.1966 543.53125 1030.0312 L 540.125 1030.5938 C 540.29901 1032.6668 540.94578 1034.342 542.03125 1035.625 C 543.11672 1036.908 544.47607 1037.5625 546.125 1037.5625 C 547.86506 1037.5625 549.33166 1036.8052 550.5 1035.2812 C 551.66832 1033.7573 552.24999 1031.9126 552.25 1029.75 C 552.24999 1028.2597 551.93808 1026.9908 551.3125 1025.9375 C 550.68689 1024.8842 549.85653 1024.2088 548.8125 1023.9062 C 550.56084 1022.6176 551.43749 1020.8814 551.4375 1018.7188 C 551.43749 1017.1948 551.0097 1015.8352 550.15625 1014.625 C 549.12049 1013.1459 547.74645 1012.4063 546.03125 1012.4062 z M 408 1012.8438 L 406.1875 1025.6562 L 409.03125 1026.2188 C 409.8267 1025.0198 410.71613 1024.4063 411.71875 1024.4062 C 412.52249 1024.4063 413.18619 1024.7749 413.6875 1025.5312 C 414.1888 1026.2876 414.43749 1027.4248 414.4375 1028.9375 C 414.43749 1030.5511 414.19294 1031.7613 413.6875 1032.5625 C 413.18204 1033.3637 412.57291 1033.7813 411.84375 1033.7812 C 411.20572 1033.7813 410.64512 1033.4657 410.15625 1032.8438 C 409.66737 1032.2219 409.34943 1031.377 409.25 1030.3125 L 405.78125 1030.8125 C 405.9884 1032.8743 406.62689 1034.4974 407.6875 1035.7188 C 408.74811 1036.9401 410.09918 1037.5625 411.78125 1037.5625 C 413.88589 1037.5625 415.53384 1036.4551 416.71875 1034.2812 C 417.58877 1032.6901 418.03124 1030.9032 418.03125 1028.875 C 418.03124 1026.4434 417.48342 1024.4614 416.40625 1022.9375 C 415.32905 1021.4136 414.01823 1020.6563 412.46875 1020.6562 C 411.65671 1020.6563 410.87263 1020.9109 410.09375 1021.4375 L 410.625 1017.25 L 417.21875 1017.25 L 417.21875 1012.8438 L 408 1012.8438 z M 471.71875 1012.8438 L 469.9375 1025.6562 L 472.78125 1026.2188 C 473.5767 1025.0198 474.46613 1024.4063 475.46875 1024.4062 C 476.27249 1024.4063 476.93619 1024.7749 477.4375 1025.5312 C 477.9388 1026.2876 478.18749 1027.4248 478.1875 1028.9375 C 478.18749 1030.5511 477.91169 1031.7613 477.40625 1032.5625 C 476.90079 1033.3637 476.29166 1033.7813 475.5625 1033.7812 C 474.92447 1033.7813 474.36387 1033.4657 473.875 1032.8438 C 473.38612 1032.2219 473.09943 1031.377 473 1030.3125 L 469.5 1030.8125 C 469.70715 1032.8743 470.34564 1034.4974 471.40625 1035.7188 C 472.46686 1036.9401 473.84918 1037.5625 475.53125 1037.5625 C 477.63589 1037.5625 479.28384 1036.4551 480.46875 1034.2812 C 481.33877 1032.6901 481.78124 1030.9032 481.78125 1028.875 C 481.78124 1026.4434 481.23342 1024.4614 480.15625 1022.9375 C 479.07905 1021.4136 477.76823 1020.6563 476.21875 1020.6562 C 475.40671 1020.6563 474.62263 1020.9109 473.84375 1021.4375 L 474.375 1017.25 L 480.96875 1017.25 L 480.96875 1012.8438 L 471.71875 1012.8438 z M 397.46875 1016.3125 C 397.89133 1016.3125 398.26644 1016.4796 398.59375 1016.8438 C 398.92104 1017.2079 399.1908 1017.9499 399.40625 1019.0312 C 399.62168 1020.1126 399.71874 1022.0778 399.71875 1024.9688 C 399.71874 1027.8598 399.61529 1029.9148 399.375 1031.125 C 399.1927 1032.0663 398.92518 1032.7296 398.59375 1033.0938 C 398.2623 1033.4579 397.89133 1033.625 397.46875 1033.625 C 397.04616 1033.625 396.67104 1033.4523 396.34375 1033.0938 C 396.01645 1032.7352 395.74668 1032.0188 395.53125 1030.9375 C 395.31581 1029.8562 395.1875 1027.8598 395.1875 1024.9688 C 395.1875 1022.0778 395.3222 1020.0339 395.5625 1018.8125 C 395.74479 1017.8713 396.0123 1017.2079 396.34375 1016.8438 C 396.67519 1016.4796 397.04616 1016.3125 397.46875 1016.3125 z M 425.8125 1016.3125 C 426.23508 1016.3125 426.61019 1016.4796 426.9375 1016.8438 C 427.26479 1017.2079 427.53455 1017.9499 427.75 1019.0312 C 427.96543 1020.1126 428.06249 1022.0778 428.0625 1024.9688 C 428.06249 1027.8598 427.95904 1029.9148 427.71875 1031.125 C 427.53645 1032.0663 427.26893 1032.7296 426.9375 1033.0938 C 426.60605 1033.4579 426.23508 1033.625 425.8125 1033.625 C 425.38991 1033.625 425.01479 1033.4523 424.6875 1033.0938 C 424.3602 1032.7352 424.09043 1032.0188 423.875 1030.9375 C 423.65956 1029.8562 423.53125 1027.8598 423.53125 1024.9688 C 423.53125 1022.0778 423.66595 1020.0339 423.90625 1018.8125 C 424.08854 1017.8713 424.3248 1017.2079 424.65625 1016.8438 C 424.98769 1016.4796 425.38991 1016.3125 425.8125 1016.3125 z M 446.53125 1016.3125 C 447.2107 1016.3125 447.82587 1016.7221 448.34375 1017.5625 C 448.86162 1018.4029 449.09374 1019.6011 449.09375 1021.125 C 449.09374 1022.5145 448.86612 1023.5641 448.40625 1024.2812 C 447.94637 1024.9984 447.38991 1025.3438 446.71875 1025.3438 C 446.02272 1025.3438 445.43276 1024.9952 444.96875 1024.25 C 444.50473 1023.5049 444.28125 1022.3099 444.28125 1020.7188 C 444.28125 1019.15 444.51076 1018.0329 444.9375 1017.3438 C 445.36423 1016.6546 445.88493 1016.3125 446.53125 1016.3125 z M 496.59375 1016.3125 C 497.01633 1016.3125 497.39144 1016.4796 497.71875 1016.8438 C 498.04604 1017.2079 498.3158 1017.9499 498.53125 1019.0312 C 498.74668 1020.1126 498.87499 1022.0778 498.875 1024.9688 C 498.87499 1027.8598 498.74029 1029.9148 498.5 1031.125 C 498.3177 1032.0663 498.05018 1032.7296 497.71875 1033.0938 C 497.3873 1033.4579 497.01633 1033.625 496.59375 1033.625 C 496.17116 1033.625 495.79604 1033.4523 495.46875 1033.0938 C 495.14145 1032.7352 494.87168 1032.0188 494.65625 1030.9375 C 494.44081 1029.8562 494.34375 1027.8598 494.34375 1024.9688 C 494.34375 1022.0778 494.4472 1020.0339 494.6875 1018.8125 C 494.86979 1017.8713 495.1373 1017.2079 495.46875 1016.8438 C 495.80019 1016.4796 496.17116 1016.3125 496.59375 1016.3125 z M 532 1016.3125 C 532.42258 1016.3125 532.79769 1016.4796 533.125 1016.8438 C 533.45229 1017.2079 533.72205 1017.9499 533.9375 1019.0312 C 534.15293 1020.1126 534.24999 1022.0778 534.25 1024.9688 C 534.24999 1027.8598 534.14654 1029.9148 533.90625 1031.125 C 533.72395 1032.0663 533.45643 1032.7296 533.125 1033.0938 C 532.79355 1033.4579 532.42258 1033.625 532 1033.625 C 531.57741 1033.625 531.20229 1033.4523 530.875 1033.0938 C 530.5477 1032.7352 530.27793 1032.0188 530.0625 1030.9375 C 529.84706 1029.8562 529.71875 1027.8598 529.71875 1024.9688 C 529.71875 1022.0778 529.85345 1020.0339 530.09375 1018.8125 C 530.27604 1017.8713 530.54355 1017.2079 530.875 1016.8438 C 531.20644 1016.4796 531.57741 1016.3125 532 1016.3125 z M 511.71875 1019.5938 L 511.71875 1028.0312 L 507.53125 1028.0312 L 511.71875 1019.5938 z "
       xlink:href="#text3797"
       style="font-size:29.60112571999999900px;font-style:normal;font-variant:normal;font-weight:bold;font-stretch:normal;text-align:start;line-height:125%;letter-spacing:0px;word-spacing:0px;writing-mode:lr-tb;text-anchor:start;fill:#ffffff;fill-opacity:1;stroke:#000000;font-family:Sans;-inkscape-font-specification:Sans Bold;stroke-opacity:1;stroke-width:0.2;stroke-miterlimit:4;stroke-dasharray:none"
       id="path3801"
       inkscape:href="#text3797"
       d="m 397.46875,1010.9375 c -2.21598,10e-5 -4.19449,1.2066 -5.375,3.2187 -1.43941,2.4604 -2,6.0191 -2,10.7813 0,4.8396 0.48269,8.2826 1.84375,10.5937 1.25833,2.1369 3.24394,3.5 5.53125,3.5 2.23319,0 4.19847,-1.2443 5.375,-3.25 0.73089,-1.2491 1.21684,-2.7957 1.53125,-4.625 0.25152,2.1966 0.96665,4.0894 2.21875,5.5313 1.30171,1.4989 3.14582,2.3437 5.1875,2.3437 2.616,0 4.86157,-1.5725 6.21875,-4.0624 0.49064,-0.8973 0.87606,-1.8345 1.125,-2.8438 0.28423,1.2679 0.59145,2.5002 1.125,3.4062 1.26454,2.1474 3.27519,3.5 5.5625,3.5 2.23319,0 4.19847,-1.2443 5.375,-3.25 1.44039,-2.4618 1.99999,-6.0284 2,-10.8124 -10e-6,-4.7968 -0.56714,-8.3422 -2,-10.7813 -1.18365,-2.0275 -3.15418,-3.2499 -5.375,-3.25 -2.21598,10e-5 -4.19449,1.2066 -5.375,3.2187 -1.32634,2.2671 -1.88713,5.6011 -1.96875,9.8438 -0.26902,-0.6476 -0.47948,-1.3467 -0.875,-1.9062 -1.26756,-1.7933 -3.10058,-2.9062 -5.125,-2.9063 -0.22024,0 -0.43812,0.065 -0.65625,0.094 l 0.0937,-0.5624 5.3125,0 a 1.457931,1.457931 0 0 0 1.46875,-1.4688 l 0,-4.4062 a 1.457931,1.457931 0 0 0 -1.46875,-1.4688 l -9.21875,0 a 1.457931,1.457931 0 0 0 -1.4375,1.25 l -1.71875,12.2188 c -0.0108,-4.7246 -0.58132,-8.2413 -2,-10.6563 -1.18365,-2.0275 -3.15418,-3.2499 -5.375,-3.25 z m 49.21875,0 c -2.12867,10e-5 -4.06891,1.0867 -5.375,2.9063 -1.3129,1.8291 -1.9375,4.159 -1.9375,6.875 0,2.6097 0.59561,4.892 1.84375,6.6874 0.68045,0.9789 1.5479,1.6878 2.5,2.1876 l -2.75,0.4062 a 1.457931,1.457931 0 0 0 -1.21875,1.625 c 0.27162,2.2284 0.92873,4.0204 2.0625,5.3438 1.12747,1.3161 2.761,2.0624 4.53125,2.0624 2.45844,0 4.64348,-1.3638 6.0625,-3.6562 1.48896,-2.4055 2.09374,-5.8886 2.09375,-10.5312 0,-1.5781 -0.16621,-2.8496 -0.3125,-4.1563 a 1.457931,1.457931 0 0 0 0.875,0.4375 l 3.5,0.4688 a 1.457931,1.457931 0 0 0 1.65625,-1.375 c 0.0593,-1.2343 0.3339,-2.0017 0.46875,-2.1876 0.20752,-0.286 0.17672,-0.25 0.53125,-0.25 0.37122,0 0.4006,0.031 0.5625,0.25 0.15532,0.2101 0.34374,0.6998 0.34375,1.5626 -10e-6,0.7093 -0.16313,1.4085 -0.5625,2.2187 -0.20887,0.4138 -1.19242,1.8191 -2.75,3.7813 l 0.0312,0 0,0.031 c -1.98185,2.4891 -3.39796,4.4891 -4.15625,6.1875 -0.73216,1.64 -1.16757,3.3747 -1.3125,5.1875 a 1.457931,1.457931 0 0 0 1.46875,1.5938 l 12.25,0 a 1.457931,1.457931 0 0 0 1.46875,-1.4688 l 0,-3.9688 c 0.38327,1.33 0.90717,2.5607 1.75,3.5313 1.311,1.5096 3.17707,2.3437 5.21875,2.3437 2.616,0 4.86157,-1.5725 6.21875,-4.0624 0.99063,-1.8117 1.49999,-3.8536 1.5,-6.0938 -10e-6,-2.6505 -0.61966,-4.9611 -1.90625,-6.7812 -1.26756,-1.7933 -3.10058,-2.9062 -5.125,-2.9063 -0.22024,0 -0.43812,0.065 -0.65625,0.094 l 0.0937,-0.5624 5.3125,0 a 1.457931,1.457931 0 0 0 1.46875,-1.4688 l 0,-4.4062 a 1.457931,1.457931 0 0 0 -1.46875,-1.4688 l -9.25,0 a 1.457931,1.457931 0 0 0 -1.4375,1.2812 L 468.5,1025.4688 a 1.457931,1.457931 0 0 0 1.15625,1.625 l 2.84375,0.5624 a 1.457931,1.457931 0 0 0 1.5,-0.625 c 0.64535,-0.9727 1.06072,-1.1562 1.46875,-1.1562 0.35814,0 0.45555,0.024 0.75,0.4688 0.25225,0.3806 0.49999,1.2408 0.5,2.5937 -10e-6,1.4475 -0.25158,2.4004 -0.53125,2.8437 -0.34543,0.5476 -0.45255,0.5313 -0.625,0.5313 -0.15717,0 -0.22892,0.01 -0.53125,-0.375 -0.26355,-0.3353 -0.51181,-0.8727 -0.59375,-1.75 a 1.457931,1.457931 0 0 0 -1.65625,-1.3125 l -3.5,0.5 a 1.457931,1.457931 0 0 0 -1.21875,1.5938 c 0.0352,0.3501 0.15952,0.6347 0.21875,0.9687 a 1.457931,1.457931 0 0 0 -1.1875,-0.6563 l -4.25,0 c 0.35439,-0.4693 0.56231,-0.8032 1.25,-1.6562 1.12867,-1.4001 1.91293,-2.4935 2.40625,-3.3438 0.68424,-1.1776 1.22701,-2.3249 1.5625,-3.4687 0.33505,-1.1423 0.49999,-2.3275 0.5,-3.5625 -10e-6,-2.2008 -0.60067,-4.195 -1.84375,-5.7812 -1.28498,-1.6396 -3.25274,-2.5312 -5.40625,-2.5313 -1.96977,10e-5 -3.80876,0.7619 -5.15625,2.1563 -1.26708,1.311 -1.88488,3.2382 -2.1875,5.5624 -0.31956,-1.6197 -0.77696,-2.9964 -1.46875,-4.125 -1.36681,-2.2296 -3.46931,-3.5936 -5.8125,-3.5937 z m 49.90625,0 c -2.21598,10e-5 -4.19449,1.2066 -5.375,3.2187 -1.43941,2.4604 -2,6.0191 -2,10.7813 0,4.8396 0.48269,8.2826 1.84375,10.5937 1.25833,2.1369 3.24394,3.5 5.53125,3.5 2.23319,0 4.19847,-1.2443 5.375,-3.25 0.46278,-0.7909 0.7111,-1.8854 1,-2.9062 a 1.457931,1.457931 0 0 0 1.28125,0.7812 l 6,0 0,3.4688 a 1.457931,1.457931 0 0 0 1.46875,1.4688 l 3.375,0 a 1.457931,1.457931 0 0 0 1.46875,-1.4688 l 0,-3.4688 0.78125,0 a 1.457931,1.457931 0 0 0 1.46875,-1.4687 l 0,-4.1563 a 1.457931,1.457931 0 0 0 -1.46875,-1.4687 l -0.78125,0 0,-14.1563 a 1.457931,1.457931 0 0 0 -1.46875,-1.4687 l -2.9375,0 a 1.457931,1.457931 0 0 0 -1.3125,0.8125 l -6.90625,13.6562 c 0.001,-0.1635 0.0312,-0.2709 0.0312,-0.4374 -10e-6,-4.7903 -0.53022,-8.3325 -1.96875,-10.7813 -1.19035,-2.039 -3.18543,-3.2499 -5.40625,-3.25 z m 35.40625,0 c -2.21598,10e-5 -4.19449,1.2066 -5.375,3.2187 -1.43941,2.4604 -2,6.0191 -2,10.7813 0,4.8396 0.48269,8.2826 1.84375,10.5937 1.25833,2.1369 3.24394,3.5 5.53125,3.5 2.23319,0 4.19847,-1.2443 5.375,-3.25 0.69044,-1.18 1.15229,-2.6469 1.46875,-4.3437 0.28198,1.9872 0.90315,3.7547 2.0625,5.125 1.31519,1.5545 3.18407,2.4687 5.21875,2.4687 2.16303,0 4.14639,-1.0685 5.53125,-2.875 1.37179,-1.7892 2.06249,-3.9822 2.0625,-6.4062 -10e-6,-1.6937 -0.37682,-3.2502 -1.15625,-4.5625 -0.40013,-0.6737 -0.91176,-1.2536 -1.5,-1.7187 1.07865,-1.3656 1.84374,-2.9327 1.84375,-4.75 -10e-6,-1.7968 -0.54491,-3.4946 -1.5625,-4.9376 -1.25226,-1.7882 -3.17828,-2.8436 -5.3125,-2.8437 -1.23527,10e-5 -2.4498,0.3373 -3.5,1 -1.01514,0.6407 -1.86998,1.5368 -2.4375,2.6563 -0.56537,1.1153 -0.88777,2.4509 -1.125,4.0312 a 1.457931,1.457931 0 0 0 -0.0312,0.2812 1.457931,1.457931 0 0 0 1.15625,1.375 L 543.3125,1021 a 1.457931,1.457931 0 0 0 1.75,-1.3125 c 0.0784,-0.9252 0.29131,-1.4522 0.46875,-1.6875 0.22401,-0.297 0.24008,-0.25 0.375,-0.25 0.19224,0 0.15103,-0.02 0.28125,0.1562 0.12871,0.1741 0.24999,0.4599 0.25,1.0938 -10e-6,0.754 -0.15035,1.1404 -0.375,1.4062 -0.18525,0.2192 -0.37952,0.3346 -1,0.3126 a 1.457931,1.457931 0 0 0 -1.5,1.3124 l -0.375,3.8438 a 1.457931,1.457931 0 0 0 1.96875,1.5312 c 0.50591,-0.1915 0.85049,-0.25 1.0625,-0.25 0.19813,0 0.25767,-0.027 0.53125,0.375 0.24795,0.3648 0.43749,0.9884 0.4375,2 -10e-6,1.0804 -0.2001,1.7846 -0.46875,2.1876 -0.29435,0.4415 -0.38164,0.4374 -0.625,0.4374 -0.25141,0 -0.30358,0.025 -0.5625,-0.3124 -0.21215,-0.2769 -0.46849,-0.9204 -0.5625,-1.9376 a 1.457931,1.457931 0 0 0 -1.6875,-1.3124 l -3.40625,0.5624 a 1.457931,1.457931 0 0 0 -0.84375,0.5 c 0.16913,-1.4494 0.34375,-2.9025 0.34375,-4.6874 0,-2.3145 -0.14421,-4.3173 -0.4375,-6.0626 -0.31456,-1.8719 -0.82099,-3.4565 -1.5625,-4.7187 -1.18365,-2.0275 -3.15418,-3.2499 -5.375,-3.25 z m -134.53125,6.8437 c 0.0383,0 -0.0741,-0.086 0.0312,0.031 -0.0647,-0.072 0.27389,0.5221 0.46875,1.5 0.16571,0.8318 0.28124,2.7979 0.28125,5.6563 -10e-6,2.8562 -0.11804,4.8956 -0.3125,5.875 -0.15599,0.8054 -0.43626,1.2798 -0.4375,1.2812 0.002,0.01 -0.008,0.031 -0.0312,0.031 -0.0254,0 0.048,0.09 -0.0625,-0.031 0.0555,0.061 -0.24353,-0.4952 -0.4375,-1.4688 -0.16992,-0.8528 -0.3125,-2.8396 -0.3125,-5.6874 0,-2.8458 0.143,-4.8547 0.34375,-5.875 0.15598,-0.8054 0.40534,-1.2803 0.40625,-1.2813 a 1.457931,1.457931 0 0 0 0.0312,0 c 0.11639,-0.1279 -0.007,-0.031 0.0312,-0.031 z m 28.34375,0 c 0.0383,0 -0.0741,-0.086 0.0312,0.031 -0.0647,-0.072 0.27389,0.5221 0.46875,1.5 0.16571,0.8318 0.28124,2.7979 0.28125,5.6563 -10e-6,2.8562 -0.11804,4.8956 -0.3125,5.875 -0.15599,0.8054 -0.43626,1.2798 -0.4375,1.2812 0.002,0.01 -0.008,0.031 -0.0312,0.031 -0.0254,0 0.048,0.09 -0.0625,-0.031 0.0555,0.061 -0.24353,-0.4952 -0.4375,-1.4688 -0.16992,-0.8528 -0.3125,-2.8396 -0.3125,-5.6874 0,-2.8458 0.143,-4.8547 0.34375,-5.875 0.16189,-0.8359 0.4048,-1.314 0.375,-1.2813 a 1.457931,1.457931 0 0 0 0.0312,0 c 0.0857,-0.094 0.0242,-0.031 0.0625,-0.031 z m 20.71875,0 c 0.0936,0 0.20413,-0.05 0.5625,0.5313 0.29528,0.4792 0.53124,1.4366 0.53125,2.8125 -10e-6,1.2303 -0.20857,2.018 -0.4375,2.375 -0.28625,0.4464 -0.29774,0.375 -0.46875,0.375 -0.20928,0 -0.22123,0.042 -0.5,-0.4062 -0.20531,-0.3297 -0.46875,-1.2955 -0.46875,-2.75 0,-1.4267 0.25887,-2.3053 0.4375,-2.5938 0.26098,-0.4215 0.21184,-0.3438 0.34375,-0.3438 z m 50.0625,0 c 0.0383,0 -0.0741,-0.086 0.0312,0.031 -0.0647,-0.072 0.27389,0.5221 0.46875,1.5 0.17098,0.8583 0.31249,2.8084 0.3125,5.6563 -10e-6,2.8457 -0.14459,4.8719 -0.34375,5.875 -0.15599,0.8054 -0.43626,1.2798 -0.4375,1.2812 0.002,0.01 -0.008,0.031 -0.0312,0.031 -0.0254,0 0.048,0.09 -0.0625,-0.031 0.0555,0.061 -0.24353,-0.4952 -0.4375,-1.4688 -0.16465,-0.8263 -0.28125,-2.8291 -0.28125,-5.6874 0,-2.8563 0.11637,-4.8781 0.3125,-5.875 0.15598,-0.8054 0.40534,-1.2803 0.40625,-1.2813 a 1.457931,1.457931 0 0 0 0.0312,0 c 0.11639,-0.1279 -0.007,-0.031 0.0312,-0.031 z m 35.40625,0 c 0.0383,0 -0.0741,-0.086 0.0312,0.031 -0.0647,-0.072 0.27389,0.5221 0.46875,1.5 0.16571,0.8318 0.28124,2.7979 0.28125,5.6563 -10e-6,2.8562 -0.11804,4.8956 -0.3125,5.875 -0.15599,0.8054 -0.43626,1.2798 -0.4375,1.2812 0.002,0.01 -0.008,0.031 -0.0312,0.031 -0.0254,0 0.048,0.09 -0.0625,-0.031 0.0555,0.061 -0.24353,-0.4952 -0.4375,-1.4688 -0.16992,-0.8528 -0.3125,-2.8396 -0.3125,-5.6874 0,-2.8458 0.143,-4.8547 0.34375,-5.875 0.15598,-0.8054 0.40534,-1.2803 0.40625,-1.2813 a 1.457931,1.457931 0 0 0 0.0312,0 c 0.11639,-0.1279 -0.007,-0.031 0.0312,-0.031 z m -21.75,8.0626 0,0.7187 -0.34375,0 0.34375,-0.7187 z m -98.53125,0.031 c 0.35814,0 0.45555,0.024 0.75,0.4688 0.25225,0.3806 0.49999,1.2408 0.5,2.5937 -10e-6,1.4663 -0.23479,2.4234 -0.5,2.8437 -0.34543,0.5476 -0.45255,0.5313 -0.625,0.5313 -0.15717,0 -0.22892,0.01 -0.53125,-0.375 -0.2822,-0.359 -0.54569,-0.9009 -0.625,-1.75 a 1.457931,1.457931 0 0 0 -1.65625,-1.3125 l -3.46875,0.5 a 1.457931,1.457931 0 0 0 -1.09375,0.8438 c 0.17145,-1.2599 0.28121,-2.6619 0.3125,-4.1876 a 1.457931,1.457931 0 0 0 1.125,1.0626 l 2.84375,0.5624 a 1.457931,1.457931 0 0 0 1.5,-0.625 c 0.64535,-0.9727 1.06072,-1.1562 1.46875,-1.1562 z m 35.71875,4.0312 c -0.10578,0.4612 -0.20844,1.5897 -0.28125,1.7188 -0.35791,0.6347 -0.44465,0.5938 -0.5625,0.5938 -0.16497,0 -0.0943,0.035 -0.21875,-0.125 -0.0683,-0.088 -0.27314,-0.4887 -0.34375,-1.2813 a 1.457931,1.457931 0 0 0 -0.1875,-0.625 c 0.10071,0.01 0.17943,0.094 0.28125,0.094 0.47106,0 0.87327,-0.239 1.3125,-0.375 z" />
    <text
       xml:space="preserve"
       style="font-size:29.60112571999999900px;font-style:normal;font-variant:normal;font-weight:bold;font-stretch:normal;text-align:start;line-height:125%;letter-spacing:0px;word-spacing:0px;writing-mode:lr-tb;text-anchor:start;fill:#0000ff;fill-opacity:1;stroke:none;font-family:Sans;-inkscape-font-specification:Sans Bold"
       x="454.08591"
       y="891.85724"
       id="text3797"
       sodipodi:linespacing="125%"
       transform="scale(0.85992332,1.1628944)"><tspan
         sodipodi:role="line"
         id="tspan3799"
         x="454.08591"
         y="891.85724">050 925 04 03</tspan></text>
  </g>
</svg>
