<?xml version="1.0" encoding="UTF-8" standalone="no"?>
<!-- Created with Inkscape (http://www.inkscape.org/) -->

<svg
   xmlns:dc="http://purl.org/dc/elements/1.1/"
   xmlns:cc="http://creativecommons.org/ns#"
   xmlns:rdf="http://www.w3.org/1999/02/22-rdf-syntax-ns#"
   xmlns:svg="http://www.w3.org/2000/svg"
   xmlns="http://www.w3.org/2000/svg"
   xmlns:xlink="http://www.w3.org/1999/xlink"
   xmlns:sodipodi="http://sodipodi.sourceforge.net/DTD/sodipodi-0.dtd"
   xmlns:inkscape="http://www.inkscape.org/namespaces/inkscape"
   width="751.18109"
   height="357.87399"
   id="svg2"
   version="1.1"
   inkscape:version="0.48.3.1 r9886"
   sodipodi:docname="1.svg"
   inkscape:export-filename="D:\GraphWork\WorkingProjects\My\Флаер Scorini\1 сторона.png"
   inkscape:export-xdpi="300"
   inkscape:export-ydpi="300">
  <defs
     id="defs4" />
  <sodipodi:namedview
     id="base"
     pagecolor="#ffffff"
     bordercolor="#666666"
     borderopacity="1.0"
     inkscape:pageopacity="0.0"
     inkscape:pageshadow="2"
     inkscape:zoom="2.7439826"
     inkscape:cx="564.70684"
     inkscape:cy="164.35964"
     inkscape:document-units="px"
     inkscape:current-layer="layer1"
     showgrid="false"
     units="mm"
     showguides="true"
     inkscape:guide-bbox="true"
     inkscape:window-width="1366"
     inkscape:window-height="723"
     inkscape:window-x="-4"
     inkscape:window-y="-4"
     inkscape:window-maximized="1"
     inkscape:snap-global="false"
     inkscape:showpageshadow="false">
    <sodipodi:guide
       orientation="0,1"
       position="-126.0941,342.56777"
       id="guide3871" />
    <sodipodi:guide
       orientation="0,1"
       position="-115.16108,15.30622"
       id="guide3873" />
    <sodipodi:guide
       orientation="1,0"
       position="14.577352,361.51833"
       id="guide3875" />
    <sodipodi:guide
       orientation="1,0"
       position="360.0606,365.16267"
       id="guide3877" />
    <sodipodi:guide
       orientation="1,0"
       position="391.4019,342.56777"
       id="guide3775" />
    <sodipodi:guide
       orientation="1,0"
       position="737.61401,342.56777"
       id="guide3777" />
    <sodipodi:guide
       orientation="1,0"
       position="376.09568,245.62838"
       id="guide3434" />
    <sodipodi:guide
       orientation="0,1"
       position="134.11164,108.60127"
       id="guide4373" />
    <sodipodi:guide
       orientation="0,1"
       position="612.24878,178.57256"
       id="guide4379" />
    <sodipodi:guide
       orientation="1,0"
       position="561.22805,162.53747"
       id="guide4381" />
    <sodipodi:guide
       orientation="0,1"
       position="619.53746,88.192979"
       id="guide4385" />
    <sodipodi:guide
       orientation="1,0"
       position="651.60763,161.07974"
       id="guide4389" />
    <sodipodi:guide
       orientation="0,1"
       position="682.22007,48.834129"
       id="guide4393" />
    <sodipodi:guide
       orientation="1,0"
       position="7.0866142,205.54066"
       id="guide3013" />
    <sodipodi:guide
       orientation="0,1"
       position="104.95693,7.0866142"
       id="guide3015" />
    <sodipodi:guide
       orientation="1,0"
       position="744.09449,94.752787"
       id="guide3017" />
    <sodipodi:guide
       orientation="0,1"
       position="427.11641,349.85645"
       id="guide3019" />
    <sodipodi:guide
       orientation="1,0"
       position="0,273.32535"
       id="guide3250" />
    <sodipodi:guide
       orientation="0,1"
       position="104.22807,357.87399"
       id="guide3252" />
    <sodipodi:guide
       orientation="0,1"
       position="147.23125,0"
       id="guide3254" />
    <sodipodi:guide
       orientation="1,0"
       position="751.46249,-16.763955"
       id="guide3256" />
  </sodipodi:namedview>
  <metadata
     id="metadata7">
    <rdf:RDF>
      <cc:Work
         rdf:about="">
        <dc:format>image/svg+xml</dc:format>
        <dc:type
           rdf:resource="http://purl.org/dc/dcmitype/StillImage" />
        <dc:title />
      </cc:Work>
    </rdf:RDF>
  </metadata>
  <g
     inkscape:label="Layer 1"
     inkscape:groupmode="layer"
     id="layer1"
     transform="translate(0,-694.48818)">
    <image
       y="-0.16029501"
       x="-1052.553"
       id="image3018"
       xlink:href="file:///D:/GraphWork/WorkingProjects/My/%D0%A4%D0%BB%D0%B0%D0%B5%D1%80%20Scorini/1.png"
       height="751.58527"
       width="358.00308"
       transform="matrix(0,-1,1,0,0,0)" />
    <path
       sodipodi:type="inkscape:offset"
       inkscape:radius="3.5"
       inkscape:original="M 657.0625 707.375 L 641.0625 713.40625 L 641.0625 718.78125 L 657.0625 724.78125 L 657.0625 719.75 L 654.4375 718.96875 L 654.4375 713.34375 L 657.0625 712.5625 L 657.0625 707.375 z M 650.96875 714.375 L 650.96875 717.90625 L 645.21875 716.15625 L 650.96875 714.375 z M 646 725.78125 C 644.4287 725.78127 643.19489 726.23388 642.34375 727.125 C 641.49264 728.01615 641.06252 729.33546 641.0625 731.125 L 641.0625 739.34375 L 657.0625 739.34375 L 657.0625 734.375 L 651.125 734.375 L 651.125 731.6875 C 651.12501 729.69427 650.69058 728.22117 649.78125 727.25 C 648.87193 726.27886 647.61497 725.78127 646 725.78125 z M 646.125 730.59375 C 646.64151 730.59376 647.07527 730.77071 647.40625 731.15625 C 647.73725 731.54181 647.90626 732.23454 647.90625 733.1875 L 647.90625 734.375 L 644.34375 734.375 L 644.34375 732.96875 C 644.34376 732.04489 644.49458 731.42839 644.84375 731.09375 C 645.19294 730.75913 645.62306 730.59376 646.125 730.59375 z M 653.4375 742 L 653.4375 750.53125 L 650.3125 750.53125 L 650.3125 742.84375 L 647.03125 742.84375 L 647.03125 750.53125 L 644.5 750.53125 L 644.5 742.25 L 641.0625 742.25 L 641.0625 755.5 L 657.0625 755.5 L 657.0625 742 L 653.4375 742 z M 657.0625 757.0625 L 641.0625 763.0625 L 641.0625 768.46875 L 657.0625 774.46875 L 657.0625 769.40625 L 654.4375 768.625 L 654.4375 763 L 657.0625 762.21875 L 657.0625 757.0625 z M 650.96875 764.03125 L 650.96875 767.5625 L 645.21875 765.8125 L 650.96875 764.03125 z M 641.0625 776.125 L 641.0625 789.875 L 651.65625 789.875 C 652.44191 789.875 652.98663 790.00482 653.28125 790.28125 C 653.57587 790.55769 653.71875 791.04949 653.71875 791.71875 L 653.71875 792.4375 L 656.96875 792.4375 C 657.08514 791.73914 657.125 791.13207 657.125 790.59375 C 657.125 788.8333 656.9125 787.57055 656.46875 786.78125 C 656.025 785.99196 655.32434 785.46461 654.375 785.25 C 653.42567 785.03541 651.95984 784.93751 649.9375 784.9375 L 645 784.9375 L 645 781.09375 L 657.0625 781.09375 L 657.0625 776.125 L 641.0625 776.125 z M 613.15625 790.6875 L 613.15625 795.3125 L 622 801.34375 L 613.15625 801.34375 L 613.15625 806 L 629.125 806 L 629.125 801.34375 L 620.34375 795.34375 L 629.125 795.34375 L 629.125 790.6875 L 613.15625 790.6875 z M 648.84375 793.25 C 644.98823 793.25002 642.82174 795.67184 642.3125 800.53125 L 641.0625 800.53125 L 641.0625 805.03125 L 642.3125 805.03125 C 642.81446 809.88341 644.98095 812.3125 648.84375 812.3125 C 652.77931 812.3125 654.96035 809.88341 655.375 805.03125 L 657.0625 805.03125 L 657.0625 800.53125 L 655.40625 800.53125 C 654.9625 795.67184 652.77931 793.25002 648.84375 793.25 z M 648.78125 798.09375 C 649.58874 798.09377 650.26543 798.28956 650.84375 798.71875 C 651.42209 799.14797 651.83699 799.75288 652.0625 800.53125 L 645.40625 800.53125 C 645.6536 799.77471 646.07281 799.19013 646.6875 798.75 C 647.30221 798.3099 648.01015 798.09377 648.78125 798.09375 z M 645.5 805.03125 L 652.09375 805.03125 C 651.85369 805.77327 651.46425 806.36512 650.875 806.8125 C 650.28576 807.25989 649.61702 807.50001 648.875 807.5 C 648.08208 807.50001 647.37199 807.26353 646.75 806.8125 C 646.12803 806.36148 645.71097 805.76599 645.5 805.03125 z M 618.0625 808.59375 C 616.4912 808.59377 615.25739 809.04638 614.40625 809.9375 C 613.55514 810.82865 613.15627 812.17921 613.15625 813.96875 L 613.15625 822.1875 L 629.125 822.1875 L 629.125 817.21875 L 623.1875 817.21875 L 623.1875 814.5 C 623.18751 812.50677 622.75308 811.03367 621.84375 810.0625 C 620.93443 809.09136 619.67747 808.59377 618.0625 808.59375 z M 618.1875 813.40625 C 618.70401 813.40626 619.13777 813.61446 619.46875 814 C 619.79975 814.38556 619.96876 815.04704 619.96875 816 L 619.96875 817.21875 L 616.40625 817.21875 L 616.40625 815.8125 C 616.40626 814.88864 616.55708 814.24089 616.90625 813.90625 C 617.25544 813.57163 617.68556 813.40626 618.1875 813.40625 z M 583.25 818.71875 C 580.51564 818.7188 578.3047 819.53129 576.65625 821.1875 C 575.00783 822.84379 574.18752 825.14066 574.1875 828.03125 C 574.18752 829.96878 574.59377 831.65628 575.375 833.09375 C 576.15626 834.53128 577.25783 835.59378 578.6875 836.28125 C 580.1172 836.96878 581.64063 837.31253 583.25 837.3125 C 584.85938 837.31253 586.38282 836.96878 587.8125 836.28125 C 589.24219 835.59378 590.34375 834.53128 591.125 833.09375 C 591.90625 831.65628 592.28125 829.96878 592.28125 828.03125 C 592.28125 825.14066 591.46094 822.84379 589.8125 821.1875 C 588.16406 819.53129 585.98438 818.7188 583.25 818.71875 z M 641.0625 822.28125 L 641.0625 826.875 L 649.9375 832.90625 L 641.0625 832.90625 L 641.0625 837.5625 L 657.0625 837.5625 L 657.0625 832.90625 L 648.28125 826.90625 L 657.0625 826.90625 L 657.0625 822.28125 L 641.0625 822.28125 z M 583.28125 825.3125 C 585.21876 825.31254 586.625 825.62504 587.5 826.25 C 588.0625 826.65629 588.34375 827.25004 588.34375 828.03125 C 588.34375 828.81254 588.0625 829.39066 587.5 829.78125 C 586.625 830.40628 585.21876 830.71878 583.28125 830.71875 C 581.34376 830.71878 579.93751 830.40628 579.0625 829.78125 C 578.48439 829.39066 578.18751 828.81254 578.1875 828.03125 C 578.18751 827.25004 578.46876 826.65629 579.03125 826.25 C 579.92189 825.62504 581.34376 825.31254 583.28125 825.3125 z M 613.15625 825.46875 L 613.15625 840.78125 L 629.125 840.78125 L 629.125 835.84375 L 617.0625 835.84375 L 617.0625 830.40625 L 629.125 830.40625 L 629.125 825.46875 L 613.15625 825.46875 z M 555.625 827.9375 L 555.625 832.90625 L 592.34375 852.6875 L 592.34375 847.8125 L 555.625 827.9375 z M 641.0625 840.90625 L 641.0625 845.53125 L 649.9375 851.5625 L 641.0625 851.5625 L 641.0625 856.21875 L 657.0625 856.21875 L 657.0625 851.5625 L 648.28125 845.5625 L 657.0625 845.5625 L 657.0625 840.90625 L 641.0625 840.90625 z M 564.65625 843.5 C 561.9219 843.50002 559.73441 844.31252 558.09375 845.96875 C 556.45316 847.62502 555.62503 849.90626 555.625 852.78125 C 555.62503 854.73438 556.00785 856.41407 556.78125 857.84375 C 557.55472 859.27344 558.65628 860.33594 560.09375 861.03125 C 561.53128 861.72657 563.06253 862.0625 564.65625 862.0625 C 566.26565 862.0625 567.78127 861.72657 569.21875 861.03125 C 570.65627 860.33594 571.75783 859.27344 572.53125 857.84375 C 573.3047 856.41407 573.68752 854.73438 573.6875 852.78125 C 573.68752 849.90626 572.89064 847.62502 571.25 845.96875 C 569.6094 844.31252 567.40627 843.50002 564.65625 843.5 z M 564.6875 850.0625 C 566.62502 850.06251 568.03127 850.37501 568.90625 851 C 569.4844 851.39064 569.78127 852.00001 569.78125 852.78125 C 569.78127 853.56251 569.4844 854.15626 568.90625 854.5625 C 568.03127 855.18751 566.62502 855.50001 564.6875 855.5 C 562.75003 855.50001 561.34378 855.18751 560.46875 854.5625 C 559.90628 854.15626 559.62503 853.56251 559.625 852.78125 C 559.62503 852.00001 559.90628 851.39064 560.46875 851 C 561.3594 850.37501 562.76565 850.06251 564.6875 850.0625 z M 613.15625 851.59375 L 613.15625 856.1875 L 622 862.21875 L 613.15625 862.21875 L 613.15625 866.875 L 629.125 866.875 L 629.125 862.21875 L 620.34375 856.21875 L 629.125 856.21875 L 629.125 851.59375 L 613.15625 851.59375 z M 641.0625 859.53125 L 641.0625 864.5 L 646.6875 864.5 L 646.6875 869.90625 L 641.0625 869.90625 L 641.0625 874.84375 L 657.0625 874.84375 L 657.0625 869.90625 L 650.59375 869.90625 L 650.59375 864.5 L 657.0625 864.5 L 657.0625 859.53125 L 641.0625 859.53125 z M 573.125 866.40625 C 570.34377 866.40628 567.68752 866.7344 565.125 867.375 C 563.78128 867.70315 562.60159 868.11722 561.59375 868.65625 C 560.58597 869.19534 559.63284 869.93753 558.71875 870.875 C 557.80472 871.81252 557.07035 873.0469 556.5 874.53125 C 555.92972 876.01565 555.62503 877.90627 555.625 880.21875 C 555.62503 885.03126 556.92191 888.6172 559.53125 890.96875 C 562.14065 893.32032 566.71877 894.5 573.25 894.5 C 575.90626 894.5 578.33595 894.24219 580.53125 893.78125 C 582.72657 893.32032 584.45313 892.70313 585.71875 891.875 C 587.5 890.73438 588.85938 889.25001 589.78125 887.46875 C 590.70312 885.68751 591.15625 883.35939 591.15625 880.46875 C 591.15625 875.31252 589.70313 871.6719 586.8125 869.5625 C 583.92188 867.45315 579.35939 866.40628 573.125 866.40625 z M 629.125 868.65625 L 624.75 870.84375 C 623.54242 871.44028 622.66481 872.00022 622.09375 872.53125 C 621.5227 873.06231 621.1078 873.69335 620.875 874.40625 C 620.66405 873.88249 620.38408 873.45816 620.03125 873.15625 C 619.67844 872.85437 619.15406 872.5744 618.4375 872.3125 C 617.72096 872.05063 617.19509 871.71989 616.875 871.3125 C 616.55493 870.90514 616.40626 870.28137 616.40625 869.4375 L 616.40625 869.1875 L 613.03125 869.1875 C 613.03127 871.00616 613.12338 872.33638 613.3125 873.1875 C 613.50166 874.03864 613.81718 874.65298 614.25 875.03125 C 614.68285 875.40954 615.37839 875.78525 616.375 876.15625 C 617.72081 876.66548 618.5288 877.0412 618.8125 877.28125 C 619.09622 877.52132 619.25944 877.85206 619.28125 878.28125 L 613.15625 878.28125 L 613.15625 883.21875 L 629.125 883.21875 L 629.125 878.28125 L 622.8125 878.28125 C 622.81251 877.83023 622.94381 877.47337 623.1875 877.21875 C 623.4312 876.96415 624.02521 876.61456 625 876.15625 L 629.125 874.21875 L 629.125 868.65625 z M 573.53125 875.90625 C 576.64064 875.90627 578.93751 876.07033 580.40625 876.40625 C 581.87501 876.74221 582.94532 877.25783 583.625 877.96875 C 584.30469 878.67971 584.65626 879.53127 584.65625 880.5 C 584.65626 881.96876 583.85157 883.07033 582.25 883.84375 C 580.64845 884.6172 577.65626 885.03126 573.28125 885.03125 C 568.95315 885.03126 565.97659 884.67189 564.375 883.96875 C 562.77347 883.26564 561.96878 882.10939 561.96875 880.53125 C 561.96878 878.98439 562.77347 877.83596 564.34375 877.0625 C 565.91409 876.28908 568.96877 875.90627 573.53125 875.90625 z M 653.4375 877.53125 L 653.4375 886.0625 L 650.3125 886.0625 L 650.3125 878.375 L 647.03125 878.375 L 647.03125 886.0625 L 644.5 886.0625 L 644.5 877.78125 L 641.0625 877.78125 L 641.0625 891.03125 L 657.0625 891.03125 L 657.0625 877.53125 L 653.4375 877.53125 z M 625.4375 885.15625 L 625.4375 886.875 L 613.15625 886.875 L 613.15625 900.28125 L 616.71875 900.28125 C 619.96323 900.28125 622.85503 900.76363 625.4375 901.6875 L 625.4375 903.3125 L 632.625 903.3125 L 632.625 899.34375 L 629.125 899.34375 L 629.125 889.125 L 632.625 889.125 L 632.625 885.15625 L 625.4375 885.15625 z M 617.0625 891.8125 L 625.4375 891.8125 L 625.4375 896.90625 C 622.20031 896.15697 619.49274 895.78126 617.28125 895.78125 L 617.0625 895.78125 L 617.0625 891.8125 z M 641.0625 894.28125 L 641.0625 908.03125 L 651.65625 908.03125 C 652.44191 908.03125 652.98663 908.16107 653.28125 908.4375 C 653.57587 908.71394 653.71875 909.20574 653.71875 909.875 L 653.71875 910.59375 L 656.96875 910.59375 C 657.08514 909.89539 657.125 909.28832 657.125 908.75 C 657.125 906.98955 656.9125 905.7268 656.46875 904.9375 C 656.025 904.14821 655.32434 903.62086 654.375 903.40625 C 653.42567 903.19166 651.95984 903.09376 649.9375 903.09375 L 645 903.09375 L 645 899.21875 L 657.0625 899.21875 L 657.0625 894.28125 L 641.0625 894.28125 z M 582.78125 898.625 L 582.78125 913.53125 C 581.92188 912.65627 581.25001 911.8672 580.71875 911.21875 C 580.18751 910.57033 579.23439 909.29689 577.90625 907.375 C 575.62501 904.14065 573.53127 901.91409 571.625 900.6875 C 569.71877 899.46097 567.71877 898.84378 565.625 898.84375 C 563.65628 898.84378 561.89847 899.36722 560.3125 900.4375 C 558.72659 901.50784 557.54691 902.97659 556.78125 904.84375 C 556.01566 906.71096 555.62503 909.32814 555.625 912.6875 C 555.62503 915.90626 556.0391 918.4297 556.84375 920.25 C 557.64847 922.07032 558.80472 923.50001 560.3125 924.5 C 561.82034 925.5 563.90628 926.1875 566.59375 926.5625 L 567.375 917 C 565.43753 916.73439 564.07815 916.21095 563.3125 915.4375 C 562.5469 914.66408 562.15628 913.65626 562.15625 912.4375 C 562.15628 911.26564 562.53909 910.30471 563.28125 909.53125 C 564.02346 908.75783 564.9219 908.37502 565.96875 908.375 C 566.93752 908.37502 567.95315 908.75002 569.03125 909.53125 C 570.1094 910.31252 571.70314 912.10939 573.78125 914.90625 C 577.17189 919.48438 580.10157 922.58594 582.59375 924.25 C 585.08594 925.91407 587.73438 926.92188 590.5625 927.25 L 590.5625 898.625 L 582.78125 898.625 z M 613.15625 905.28125 L 613.15625 909.875 L 622 915.90625 L 613.15625 915.90625 L 613.15625 920.5625 L 629.125 920.5625 L 629.125 915.90625 L 620.34375 909.90625 L 629.125 909.90625 L 629.125 905.28125 L 613.15625 905.28125 z M 652.53125 911.5625 C 651.51281 911.56252 650.67291 911.83306 650 912.375 C 649.32711 912.91697 648.83894 913.75688 648.5625 914.90625 C 648.30062 914.14971 647.95103 913.58034 647.5 913.1875 C 646.82347 912.59827 646.00821 912.31252 645.0625 912.3125 C 643.93495 912.31252 642.9826 912.7056 642.21875 913.53125 C 641.45493 914.35693 641.06252 915.55155 641.0625 917.09375 L 641.0625 926.34375 L 657.0625 926.34375 L 657.0625 917.8125 C 657.0625 917.44878 656.98924 916.70677 656.84375 915.59375 C 656.73463 914.75718 656.58381 914.13342 656.34375 913.71875 C 655.9582 913.0495 655.41199 912.54182 654.75 912.15625 C 654.08801 911.77071 653.36056 911.56252 652.53125 911.5625 z M 651.96875 916.53125 C 652.47798 916.53126 652.88561 916.68208 653.1875 917.03125 C 653.4894 917.38044 653.625 917.99263 653.625 918.84375 L 653.625 921.375 L 650.40625 921.375 L 650.40625 918.84375 C 650.40626 917.97808 650.52516 917.3768 650.8125 917.03125 C 651.09985 916.68572 651.49591 916.53126 651.96875 916.53125 z M 645.8125 917.15625 C 646.31446 917.15626 646.67199 917.29187 646.9375 917.59375 C 647.20303 917.89566 647.34376 918.44765 647.34375 919.21875 L 647.34375 921.375 L 644.3125 921.375 L 644.3125 919.1875 C 644.31251 918.43823 644.45688 917.89566 644.71875 917.59375 C 644.98065 917.29187 645.34694 917.15626 645.8125 917.15625 z M 629.125 922.34375 L 624.75 924.53125 C 623.54242 925.12778 622.66481 925.68772 622.09375 926.21875 C 621.5227 926.74981 621.1078 927.38085 620.875 928.09375 C 620.66405 927.56999 620.38408 927.14566 620.03125 926.84375 C 619.67844 926.54187 619.15406 926.2619 618.4375 926 C 617.72096 925.73813 617.19509 925.40739 616.875 925 C 616.55493 924.59264 616.40626 923.96887 616.40625 923.125 L 616.40625 922.875 L 613.03125 922.875 C 613.03127 924.69366 613.12338 926.02388 613.3125 926.875 C 613.50166 927.72614 613.81718 928.34048 614.25 928.71875 C 614.68285 929.09704 615.37839 929.47275 616.375 929.84375 C 617.72081 930.35298 618.5288 930.7287 618.8125 930.96875 C 619.09622 931.20882 619.25944 931.53956 619.28125 931.96875 L 613.15625 931.96875 L 613.15625 936.90625 L 629.125 936.90625 L 629.125 931.96875 L 622.8125 931.96875 C 622.81251 931.51773 622.94381 931.16087 623.1875 930.90625 C 623.4312 930.65165 624.02521 930.30206 625 929.84375 L 629.125 927.90625 L 629.125 922.34375 z M 641.0625 929.625 L 641.0625 937.84375 C 641.06252 939.37142 641.20688 940.53627 641.46875 941.34375 C 641.73065 942.15123 642.22824 942.81783 642.9375 943.3125 C 643.64679 943.80717 644.51282 944.0625 645.53125 944.0625 C 646.41876 944.0625 647.16871 943.84703 647.8125 943.46875 C 648.45631 943.09047 648.97491 942.56824 649.375 941.90625 C 649.62962 941.48433 649.83269 940.92224 650 940.1875 C 650.19642 940.77675 650.39734 941.19959 650.59375 941.46875 C 650.7247 941.65062 651.0083 941.90446 651.4375 942.25 C 651.86671 942.59555 652.20472 942.85236 652.4375 942.96875 L 657.0625 945.34375 L 657.0625 939.75 L 652.1875 937.125 C 651.55462 936.79038 651.12665 936.48064 650.9375 936.21875 C 650.69017 935.8623 650.59376 935.45103 650.59375 935 L 650.59375 934.5625 L 657.0625 934.5625 L 657.0625 929.625 L 641.0625 929.625 z M 644.3125 934.5625 L 647.5625 934.5625 L 647.5625 936.65625 C 647.56251 936.88177 647.48925 937.32132 647.34375 937.96875 C 647.27829 938.29611 647.11292 938.57393 646.84375 938.78125 C 646.5746 938.98858 646.25544 939.09376 645.90625 939.09375 C 645.38977 939.09376 644.9952 938.92111 644.71875 938.59375 C 644.44233 938.2664 644.31251 937.65206 644.3125 936.75 L 644.3125 934.5625 z M 623.90625 939.28125 L 622.59375 943.625 C 623.60492 943.84325 624.37521 944.20375 624.90625 944.6875 C 625.4373 945.17127 625.71875 945.86681 625.71875 946.8125 C 625.71875 947.7873 625.3771 948.55544 624.71875 949.09375 C 624.0604 949.63208 622.83751 949.90626 621.0625 949.90625 C 619.62941 949.90626 618.57552 949.66978 617.90625 949.21875 C 617.00421 948.62224 616.56251 947.77655 616.5625 946.65625 C 616.56251 946.16159 616.67132 945.71261 616.875 945.3125 C 617.0787 944.91241 617.37173 944.5577 617.75 944.28125 C 617.97552 944.11395 618.32511 943.96528 618.8125 943.8125 L 617.84375 939.4375 C 616.15606 939.99766 614.90852 940.84699 614.09375 942 C 613.27901 943.15304 612.87502 944.73495 612.875 946.75 C 612.87502 949.32521 613.57783 951.34237 615 952.75 C 616.4222 954.15764 618.44581 954.84375 621.09375 954.84375 C 623.07972 954.84375 624.72695 954.45646 626 953.65625 C 627.27306 952.85605 628.15067 951.91461 628.65625 950.8125 C 629.16183 949.71041 629.4375 948.26989 629.4375 946.53125 C 629.4375 945.09817 629.22715 943.92752 628.8125 943 C 628.39785 942.0725 627.78351 941.28188 626.96875 940.65625 C 626.154 940.03065 625.12111 939.57225 623.90625 939.28125 z M 652.5 946.34375 C 649.05912 946.34377 647.34376 948.70391 647.34375 953.46875 L 647.34375 956.125 L 641.0625 956.125 L 641.0625 967.25 L 644.3125 967.25 L 644.3125 961.0625 L 657.0625 961.0625 L 657.0625 952.5625 C 657.0625 952.3079 656.99288 951.55432 656.84375 950.28125 C 656.69462 949.00821 656.2043 948.02031 655.375 947.34375 C 654.5457 946.66723 653.58392 946.34377 652.5 946.34375 z M 651.96875 951.25 C 653.08904 951.25002 653.625 952.04428 653.625 953.59375 L 653.625 956.125 L 650.375 956.125 L 650.375 953.59375 C 650.37501 952.04428 650.91394 951.25002 651.96875 951.25 z M 653.375 968.09375 L 653.375 969.84375 L 641.0625 969.84375 L 641.0625 983.25 L 644.65625 983.25 C 647.90073 983.25 650.79253 983.70113 653.375 984.625 L 653.375 986.28125 L 660.5625 986.28125 L 660.5625 982.3125 L 657.0625 982.3125 L 657.0625 972.09375 L 660.5625 972.09375 L 660.5625 968.09375 L 653.375 968.09375 z M 645 974.78125 L 653.375 974.78125 L 653.375 979.875 C 650.13781 979.12572 647.43024 978.75001 645.21875 978.75 L 645 978.75 L 645 974.78125 z M 653.4375 987.5625 L 653.4375 996.09375 L 650.3125 996.09375 L 650.3125 988.40625 L 647.03125 988.40625 L 647.03125 996.09375 L 644.5 996.09375 L 644.5 987.8125 L 641.0625 987.8125 L 641.0625 1001.0625 L 657.0625 1001.0625 L 657.0625 987.5625 L 653.4375 987.5625 z M 646 1003.625 C 644.4287 1003.625 643.19489 1004.0776 642.34375 1004.9688 C 641.49264 1005.8599 641.06252 1007.2105 641.0625 1009 L 641.0625 1017.2188 L 657.0625 1017.2188 L 657.0625 1012.25 L 651.125 1012.25 L 651.125 1009.5312 C 651.12501 1007.538 650.69058 1006.0649 649.78125 1005.0938 C 648.87193 1004.1226 647.61497 1003.625 646 1003.625 z M 646.125 1008.4375 C 646.64151 1008.4375 647.07527 1008.6457 647.40625 1009.0312 C 647.73725 1009.4168 647.90626 1010.0783 647.90625 1011.0312 L 647.90625 1012.25 L 644.34375 1012.25 L 644.34375 1010.8438 C 644.34376 1009.9199 644.49458 1009.2721 644.84375 1008.9375 C 645.19294 1008.6029 645.62306 1008.4375 646.125 1008.4375 z M 641.0625 1020.5 L 641.0625 1035.8125 L 657.0625 1035.8125 L 657.0625 1030.875 L 645 1030.875 L 645 1025.4375 L 657.0625 1025.4375 L 657.0625 1020.5 L 641.0625 1020.5 z "
       xlink:href="#text3021"
       style="font-size:22.34755516px;font-style:normal;font-variant:normal;font-weight:900;font-stretch:normal;text-align:center;line-height:125%;letter-spacing:0px;word-spacing:0px;writing-mode:lr-tb;text-anchor:middle;fill:#ffffff;fill-opacity:1;stroke:none;font-family:Arial Black;-inkscape-font-specification:'Arial Black, Heavy'"
       id="path3811"
       inkscape:href="#text3021"
       d="m 657.34375,703.875 a 3.50035,3.50035 0 0 0 -1.15625,0.21875 l -16,6.03125 a 3.50035,3.50035 0 0 0 -2.25,3.28125 l 0,5.375 a 3.50035,3.50035 0 0 0 2.28125,3.28125 l 2.5625,0.96875 c -0.95492,0.398 -1.87264,0.93252 -2.59375,1.6875 -1.636,1.71296 -2.24997,4.05591 -2.25,6.40625 l 0,8.21875 a 3.50035,3.50035 0 0 0 0.3125,1.4375 3.50035,3.50035 0 0 0 -0.3125,1.46875 l 0,13.25 a 3.50035,3.50035 0 0 0 3.5,3.5 l 0.875,0 -2.09375,0.78125 a 3.50035,3.50035 0 0 0 -2.28125,3.28125 l 0,5.40625 a 3.50035,3.50035 0 0 0 2.28125,3.28125 l 2.34375,0.875 -1.125,0 a 3.50035,3.50035 0 0 0 -3.5,3.5 l 0,13.75 a 3.50035,3.50035 0 0 0 3.5,3.5 l 0.25,0 c -0.91251,1.19294 -1.50873,2.57961 -1.90625,4.09375 -5.5e-4,0.002 -0.0307,-0.002 -0.0312,0 a 3.50035,3.50035 0 0 0 -1.8125,3.0625 l 0,4.5 a 3.50035,3.50035 0 0 0 1.84375,3.0625 c 0.46396,1.77388 1.1208,3.42905 2.3125,4.75 1.78171,1.97494 4.45995,2.96875 7.125,2.96875 2.68787,0 5.3984,-0.97469 7.1875,-2.96875 1.13502,-1.26505 1.77112,-2.85477 2.21875,-4.53125 a 3.50035,3.50035 0 0 0 2.3125,-3.28125 l 0,-4.5 A 3.50035,3.50035 0 0 0 658.65625,797.25 c -0.131,-0.48546 -0.2563,-0.98165 -0.4375,-1.4375 A 3.50035,3.50035 0 0 0 660.78125,793 C 660.93041,792.10502 661,791.30484 661,790.59375 c 0,-2.0421 -0.10243,-3.76799 -1.09375,-5.53125 -0.19402,-0.3451 -0.54913,-0.59845 -0.8125,-0.90625 a 3.50035,3.50035 0 0 0 1.84375,-3.0625 l 0,-4.96875 a 3.50035,3.50035 0 0 0 -0.0937,-0.84375 3.50035,3.50035 0 0 0 0,-0.0312 3.50035,3.50035 0 0 0 0.0937,-0.78125 l 0,-5.0625 a 3.50035,3.50035 0 0 0 -2.5,-3.34375 l -0.125,-0.0312 0,-0.4375 0.125,-0.0312 a 3.50035,3.50035 0 0 0 2.5,-3.34375 l 0,-5.15625 a 3.50035,3.50035 0 0 0 -0.0937,-0.8125 3.50035,3.50035 0 0 0 0.0937,-0.75 l 0,-13.5 a 3.50035,3.50035 0 0 0 -0.28125,-1.34375 3.50035,3.50035 0 0 0 0.28125,-1.3125 l 0,-4.96875 a 3.50035,3.50035 0 0 0 -3.5,-3.5 l -2.5625,0 c -0.0717,-1.28157 -0.36256,-2.48871 -0.84375,-3.625 l 2.1875,0.8125 a 3.50035,3.50035 0 0 0 4.71875,-3.28125 l 0,-5.03125 a 3.50035,3.50035 0 0 0 -2.5,-3.34375 l -0.125,-0.0312 0,-0.4375 0.125,-0.0312 a 3.50035,3.50035 0 0 0 2.5,-3.34375 l 0,-5.1875 a 3.50035,3.50035 0 0 0 -3.59375,-3.5 z M 613.5,787.1875 a 3.50035,3.50035 0 0 0 -3.5,3.5 l 0,4.625 a 3.50035,3.50035 0 0 0 1.53125,2.90625 l 0.1875,0.125 a 3.50035,3.50035 0 0 0 -1.71875,3 L 610,806 a 3.50035,3.50035 0 0 0 1.46875,2.84375 c -0.94693,1.5464 -1.46873,3.29146 -1.46875,5.125 l 0,8.21875 a 3.50035,3.50035 0 0 0 0.40625,1.625 A 3.50035,3.50035 0 0 0 610,825.46875 l 0,15.3125 a 3.50035,3.50035 0 0 0 3.5,3.5 l 16,0 a 3.50035,3.50035 0 0 0 3.5,-3.5 l 0,-4.9375 A 3.50035,3.50035 0 0 0 631.71875,833.125 3.50035,3.50035 0 0 0 633,830.40625 l 0,-4.9375 a 3.50035,3.50035 0 0 0 -0.40625,-1.625 A 3.50035,3.50035 0 0 0 633,822.1875 l 0,-4.96875 a 3.50035,3.50035 0 0 0 -3.5,-3.5 l -2.53125,0 c -0.0755,-1.50373 -0.48914,-2.91195 -1.15625,-4.21875 l 3.6875,0 A 3.50035,3.50035 0 0 0 633,806 l 0,-4.65625 a 3.50035,3.50035 0 0 0 -1.53125,-2.875 l -0.1875,-0.125 a 3.50035,3.50035 0 0 0 1.71875,-3 l 0,-4.65625 a 3.50035,3.50035 0 0 0 -3.5,-3.5 l -16,0 z m -29.90625,28.03125 c -3.42765,6e-5 -6.69831,1.15608 -9.03125,3.5 -2.38015,2.39151 -3.49998,5.75975 -3.5,9.3125 2e-5,1.57538 0.29219,3.08093 0.75,4.53125 L 557.65625,824.875 A 3.50035,3.50035 0 0 0 552.5,827.9375 l 0,4.96875 A 3.50035,3.50035 0 0 0 554.34375,836 l 8.21875,4.4375 c -2.48036,0.43407 -4.84434,1.29648 -6.59375,3.0625 -2.35695,2.37948 -3.46871,5.73417 -3.46875,9.28125 4e-5,2.41044 0.47321,4.70514 1.5625,6.71875 1.08991,2.0146 2.8103,3.6888 4.875,4.6875 0.84791,0.41012 1.75721,0.67978 2.65625,0.90625 -0.41626,0.17635 -0.88256,0.25552 -1.28125,0.46875 -1.35004,0.72218 -2.60369,1.69937 -3.75,2.875 -1.33186,1.36609 -2.30188,3.02688 -3,4.84375 -0.79276,2.06349 -1.06247,4.34914 -1.0625,6.9375 3e-5,5.44129 1.56711,10.19369 5.0625,13.34375 1.20991,1.09036 2.67483,1.87883 4.25,2.53125 -1.08721,0.36151 -2.16273,0.78812 -3.125,1.4375 -2.16712,1.4626 -3.79392,3.59227 -4.78125,6 -1.04256,2.54272 -1.40622,5.52558 -1.40625,9.15625 3e-5,3.49626 0.37772,6.4299 1.5,8.96875 1.03199,2.33443 2.61727,4.35626 4.71875,5.75 2.1497,1.42568 4.76308,2.20385 7.78125,2.625 a 3.50035,3.50035 0 0 0 3.96875,-3.1875 l 0.78125,-9.5625 a 3.50035,3.50035 0 0 0 0,-0.34375 c 0.0288,0.0386 0.0335,0.0235 0.0625,0.0625 3.52068,4.75372 6.62098,8.08783 9.71875,10.15625 2.90179,1.93757 6.10538,3.16865 9.5,3.5625 A 3.50035,3.50035 0 0 0 594.4375,927.25 l 0,-28.625 a 3.50035,3.50035 0 0 0 -3.5,-3.5 l -3.5625,0 c 0.1931,-0.11164 0.40694,-0.19087 0.59375,-0.3125 0.0125,-0.008 0.0188,-0.0232 0.0312,-0.0312 2.24413,-1.44592 4.05405,-3.40791 5.25,-5.71875 1.27888,-2.47107 1.78125,-5.33734 1.78125,-8.59375 0,-5.81381 -1.79279,-10.80822 -5.78125,-13.71875 -3.86179,-2.81803 -9.12381,-3.84372 -15.75,-3.84375 -0.21209,0 -0.41393,0.0278 -0.625,0.0312 1.24255,-0.94819 2.37904,-2.05858 3.125,-3.4375 1.08938,-2.01365 1.56252,-4.30826 1.5625,-6.71875 10e-6,-1.64218 -0.28834,-3.20678 -0.78125,-4.6875 l 14.25,7.6875 a 3.50035,3.50035 0 0 0 5.15625,-3.09375 l 0,-4.875 A 3.50035,3.50035 0 0 0 594.34375,844.75 L 586.5,840.5 c 1.09515,-0.22944 2.17386,-0.57504 3.1875,-1.0625 2.0662,-0.99354 3.74889,-2.67292 4.84375,-4.6875 1.08695,-1.99995 1.625,-4.29198 1.625,-6.71875 0,-3.55276 -1.11982,-6.92098 -3.5,-9.3125 -2.34853,-2.3596 -5.63483,-3.49994 -9.0625,-3.5 z m 57.84375,3.5625 a 3.50035,3.50035 0 0 0 -3.5,3.5 l 0,4.59375 a 3.50035,3.50035 0 0 0 1.53125,2.90625 l 0.1875,0.125 a 3.50035,3.50035 0 0 0 -1.71875,3 l 0,4.65625 a 3.50035,3.50035 0 0 0 0.4375,1.65625 3.50035,3.50035 0 0 0 0,0.0312 3.50035,3.50035 0 0 0 -0.4375,1.65625 l 0,4.625 a 3.50035,3.50035 0 0 0 1.53125,2.90625 l 0.1875,0.125 a 3.50035,3.50035 0 0 0 -1.71875,3 l 0,4.65625 a 3.50035,3.50035 0 0 0 0.40625,1.65625 3.50035,3.50035 0 0 0 -0.40625,1.65625 l 0,4.96875 a 3.50035,3.50035 0 0 0 1.25,2.71875 3.50035,3.50035 0 0 0 -1.25,2.6875 l 0,4.9375 a 3.50035,3.50035 0 0 0 0.3125,1.46875 3.50035,3.50035 0 0 0 -0.3125,1.46875 l 0,13.25 a 3.50035,3.50035 0 0 0 0.40625,1.625 3.50035,3.50035 0 0 0 -0.40625,1.625 l 0,13.75 a 3.50035,3.50035 0 0 0 2.0625,3.1875 c -1.46503,1.6167 -2.06247,3.76223 -2.0625,5.875 l 0,9.25 a 3.50035,3.50035 0 0 0 0.40625,1.625 3.50035,3.50035 0 0 0 -0.40625,1.65625 l 0,8.21875 c 2e-5,1.74814 0.11237,3.20576 0.5625,4.59375 0.46367,1.42957 1.45232,2.82315 2.78125,3.75 1.24581,0.86885 2.75719,1.25318 4.25,1.3125 -0.74686,1.54606 -1.14951,3.2502 -1.21875,5.125 l -2.875,0 a 3.50035,3.50035 0 0 0 -3.5,3.5 l 0,11.125 a 3.50035,3.50035 0 0 0 0.25,1.3125 3.50035,3.50035 0 0 0 -0.25,1.28125 l 0,13.40625 a 3.50035,3.50035 0 0 0 0.84375,2.28125 3.50035,3.50035 0 0 0 -0.84375,2.28125 l 0,13.25 a 3.50035,3.50035 0 0 0 1.46875,2.8437 c -0.93641,1.5416 -1.46873,3.2694 -1.46875,5.0938 l 0,8.2188 a 3.50035,3.50035 0 0 0 0.40625,1.625 3.50035,3.50035 0 0 0 -0.40625,1.6562 l 0,15.3125 a 3.50035,3.50035 0 0 0 3.5,3.5 l 16,0 a 3.50035,3.50035 0 0 0 3.5,-3.5 l 0,-4.9375 a 3.50035,3.50035 0 0 0 -1.28125,-2.7188 3.50035,3.50035 0 0 0 1.28125,-2.7187 l 0,-4.9375 a 3.50035,3.50035 0 0 0 -0.40625,-1.625 3.50035,3.50035 0 0 0 0.40625,-1.6562 l 0,-4.9688 a 3.50035,3.50035 0 0 0 -3.5,-3.5 l -2.5625,0 c -0.0807,-1.5012 -0.46931,-2.9014 -1.125,-4.1875 l 3.6875,0 a 3.50035,3.50035 0 0 0 3.5,-3.5 l 0,-11.28125 a 3.50035,3.50035 0 0 0 3.46875,-3.5 l 0,-3.96875 a 3.50035,3.50035 0 0 0 -3.46875,-3.5 l 0,-3.21875 a 3.50035,3.50035 0 0 0 3.46875,-3.5 l 0,-4 a 3.50035,3.50035 0 0 0 -3.5,-3.5 l -7.15625,0 a 3.50035,3.50035 0 0 0 -3.03125,1.75 l -2.53125,0 0,-1.78125 9.25,0 a 3.50035,3.50035 0 0 0 3.5,-3.5 l 0,-8.5 c 0,-0.89265 -0.0969,-1.38093 -0.25,-2.6875 -0.088,-0.75126 -0.36527,-1.4959 -0.65625,-2.21875 a 3.50035,3.50035 0 0 0 0.90625,-2.3125 l 0,-5.59375 a 3.50035,3.50035 0 0 0 -1.15625,-2.59375 3.50035,3.50035 0 0 0 1.15625,-2.59375 l 0,-4.9375 a 3.50035,3.50035 0 0 0 -0.40625,-1.625 3.50035,3.50035 0 0 0 0.40625,-1.65625 l 0,-8.53125 c 0,-0.82409 -0.10119,-1.51907 -0.25,-2.65625 -0.001,-0.01 0.001,-0.0213 0,-0.0312 -0.10313,-0.78278 -0.39556,-1.51367 -0.6875,-2.25 a 3.50035,3.50035 0 0 0 0.78125,-1.71875 C 660.93041,910.26127 661,909.46109 661,908.75 c 0,-2.0421 -0.10243,-3.76799 -1.09375,-5.53125 -0.19737,-0.35106 -0.57474,-0.59388 -0.84375,-0.90625 a 3.50035,3.50035 0 0 0 1.875,-3.09375 l 0,-4.9375 a 3.50035,3.50035 0 0 0 -0.40625,-1.625 3.50035,3.50035 0 0 0 0.40625,-1.625 l 0,-13.5 a 3.50035,3.50035 0 0 0 -0.28125,-1.34375 3.50035,3.50035 0 0 0 0,-0.0312 3.50035,3.50035 0 0 0 0.28125,-1.3125 l 0,-4.9375 a 3.50035,3.50035 0 0 0 -1.25,-2.71875 3.50035,3.50035 0 0 0 1.25,-2.6875 l 0,-4.96875 a 3.50035,3.50035 0 0 0 -0.40625,-1.65625 3.50035,3.50035 0 0 0 0.40625,-1.65625 l 0,-4.65625 a 3.50035,3.50035 0 0 0 -1.53125,-2.875 l -0.1875,-0.125 a 3.50035,3.50035 0 0 0 1.71875,-3 l 0,-4.65625 A 3.50035,3.50035 0 0 0 660.5,839.25 a 3.50035,3.50035 0 0 0 0,-0.0312 3.50035,3.50035 0 0 0 0.4375,-1.65625 l 0,-4.65625 a 3.50035,3.50035 0 0 0 -1.53125,-2.875 l -0.1875,-0.125 a 3.50035,3.50035 0 0 0 1.71875,-3 l 0,-4.625 a 3.50035,3.50035 0 0 0 -3.5,-3.5 l -16,0 z M 613.5,848.09375 a 3.50035,3.50035 0 0 0 -3.5,3.5 l 0,4.59375 a 3.50035,3.50035 0 0 0 1.53125,2.90625 l 0.1875,0.125 a 3.50035,3.50035 0 0 0 -1.71875,3 l 0,4.65625 a 3.50035,3.50035 0 0 0 0.15625,1 3.50035,3.50035 0 0 0 0,0.0312 3.50035,3.50035 0 0 0 -0.28125,1.28125 c 2e-5,1.93682 0.0706,3.37998 0.375,4.75 0.1453,0.65379 0.33135,1.33466 0.65625,1.96875 0.004,0.007 -0.004,0.0243 0,0.0312 A 3.50035,3.50035 0 0 0 610,878.28125 l 0,4.9375 a 3.50035,3.50035 0 0 0 0.53125,1.84375 A 3.50035,3.50035 0 0 0 610,886.875 l 0,13.40625 a 3.50035,3.50035 0 0 0 1.0625,2.5 3.50035,3.50035 0 0 0 -1.0625,2.5 l 0,4.59375 a 3.50035,3.50035 0 0 0 1.53125,2.90625 l 0.1875,0.125 a 3.50035,3.50035 0 0 0 -1.71875,3 l 0,4.65625 a 3.50035,3.50035 0 0 0 0.15625,1 3.50035,3.50035 0 0 0 0,0.0312 3.50035,3.50035 0 0 0 -0.28125,1.28125 c 2e-5,1.93682 0.0706,3.37998 0.375,4.75 0.1453,0.65379 0.33135,1.33466 0.65625,1.96875 0.004,0.007 -0.004,0.0243 0,0.0312 A 3.50035,3.50035 0 0 0 610,931.96875 l 0,4.9375 a 3.50035,3.50035 0 0 0 1.6875,3 c -0.0176,0.0244 -0.0452,0.0379 -0.0625,0.0625 -1.34637,1.90541 -1.90622,4.26223 -1.90625,6.78125 3e-5,3.24031 1.00512,6.33993 3.1875,8.5 2.19783,2.17533 5.30997,3.09375 8.5625,3.09375 2.441,0 4.7873,-0.4654 6.78125,-1.71875 1.70664,-1.07273 3.1381,-2.53302 3.96875,-4.34375 0.80928,-1.7641 1.0625,-3.68334 1.0625,-5.75 0,-1.77557 -0.25502,-3.44214 -0.9375,-4.96875 -0.26932,-0.60242 -0.63993,-1.14746 -1.03125,-1.6875 A 3.50035,3.50035 0 0 0 633,936.90625 l 0,-4.9375 A 3.50035,3.50035 0 0 0 632.34375,929.9375 3.50035,3.50035 0 0 0 633,927.90625 l 0,-5.5625 a 3.50035,3.50035 0 0 0 -0.125,-0.84375 3.50035,3.50035 0 0 0 0,-0.0312 3.50035,3.50035 0 0 0 0.125,-0.90625 l 0,-4.65625 a 3.50035,3.50035 0 0 0 -1.53125,-2.875 l -0.1875,-0.125 a 3.50035,3.50035 0 0 0 1.71875,-3 l 0,-3.09375 a 3.50035,3.50035 0 0 0 3.46875,-3.5 l 0,-3.96875 a 3.50035,3.50035 0 0 0 -3.46875,-3.5 l 0,-3.21875 a 3.50035,3.50035 0 0 0 3.46875,-3.5 l 0,-3.96875 a 3.50035,3.50035 0 0 0 -3.46875,-3.5 l 0,-3.375 A 3.50035,3.50035 0 0 0 632.34375,876.25 3.50035,3.50035 0 0 0 633,874.21875 l 0,-5.5625 a 3.50035,3.50035 0 0 0 -0.125,-0.84375 3.50035,3.50035 0 0 0 0,-0.0312 A 3.50035,3.50035 0 0 0 633,866.875 l 0,-4.65625 a 3.50035,3.50035 0 0 0 -1.53125,-2.875 l -0.1875,-0.125 a 3.50035,3.50035 0 0 0 1.71875,-3 l 0,-4.625 a 3.50035,3.50035 0 0 0 -3.5,-3.5 l -16,0 z m -39.59375,31.3125 c 2.98629,2e-5 5.15668,0.19193 6.09375,0.40625 1.07024,0.2448 1.47322,0.56717 1.46875,0.5625 0.0946,0.0989 0.0312,-0.0722 0.0312,0.125 0,0.19038 0.40558,-0.21963 -0.4375,0.1875 -0.52082,0.25152 -3.25208,0.84376 -7.40625,0.84375 -4.13436,10e-6 -6.95802,-0.54331 -7.5,-0.78125 -0.70344,-0.30882 -0.31249,0.16966 -0.3125,-0.21875 10e-6,-0.38021 -0.37199,0.0242 0.375,-0.34375 0.35055,-0.17265 3.32079,-0.78123 7.6875,-0.78125 z M 579.875,897.375 a 3.50035,3.50035 0 0 0 -0.21875,1.25 l 0,4.84375 c -1.81157,-2.32889 -3.60633,-4.24404 -5.53125,-5.53125 2.05289,-0.0251 3.92135,-0.26835 5.75,-0.5625 z m -13.53125,14.5 c 0.0656,0 0.33669,0.0193 1,0.5 0.0801,0.058 0.76343,0.94608 1,1.1875 a 3.50035,3.50035 0 0 0 -0.125,-0.0312 c -1.5427,-0.21149 -2.16733,-0.69997 -2.03125,-0.5625 -0.11489,-0.11607 -0.15624,-0.0603 -0.15625,-0.53125 10e-6,-0.40968 4.8e-4,-0.30641 0.15625,-0.46875 0.16469,-0.17162 -0.0374,-0.0937 0.15625,-0.0937 z" />
    <text
       xml:space="preserve"
       style="font-size:22.34755515999999900px;font-style:normal;font-variant:normal;font-weight:900;font-stretch:normal;text-align:center;line-height:125%;letter-spacing:0px;word-spacing:0px;writing-mode:lr-tb;text-anchor:middle;fill:#843c3c;fill-opacity:1;stroke:none;font-family:Arial Black;-inkscape-font-specification:'Arial Black, Heavy'"
       x="-872.45538"
       y="590.57434"
       id="text3021"
       sodipodi:linespacing="125%"
       transform="matrix(0,-1,1,0,0,0)"><tspan
         sodipodi:role="line"
         id="tspan3023"
         x="-864.43976"
         y="590.57434"><tspan
           style="font-size:40px;font-style:normal;font-variant:normal;font-weight:900;font-stretch:normal;text-align:center;line-height:125%;writing-mode:lr-tb;text-anchor:middle;font-family:Arial Black;-inkscape-font-specification:'Arial Black, Heavy';fill:#843c3c;fill-opacity:1"
           id="tspan3807"><tspan
             style="font-size:48px;font-style:normal;font-variant:normal;font-weight:900;font-stretch:normal;text-align:center;line-height:125%;writing-mode:lr-tb;text-anchor:middle;font-family:Arial Black;-inkscape-font-specification:'Arial Black, Heavy';fill:#843c3c;fill-opacity:1"
             id="tspan3809">20% </tspan></tspan></tspan><tspan
         sodipodi:role="line"
         x="-872.45538"
         y="629.13892"
         id="tspan3801">СКИДКИ ПРИ</tspan><tspan
         sodipodi:role="line"
         x="-872.45538"
         y="657.07336"
         id="tspan3805">ПРЕДЪЯВЛЕНИИ ФЛАЕРА</tspan></text>
  </g>
</svg>
