<?xml version="1.0" encoding="UTF-8" standalone="no"?>
<!-- Created with Inkscape (http://www.inkscape.org/) -->

<svg
   xmlns:dc="http://purl.org/dc/elements/1.1/"
   xmlns:cc="http://creativecommons.org/ns#"
   xmlns:rdf="http://www.w3.org/1999/02/22-rdf-syntax-ns#"
   xmlns:svg="http://www.w3.org/2000/svg"
   xmlns="http://www.w3.org/2000/svg"
   xmlns:xlink="http://www.w3.org/1999/xlink"
   xmlns:sodipodi="http://sodipodi.sourceforge.net/DTD/sodipodi-0.dtd"
   xmlns:inkscape="http://www.inkscape.org/namespaces/inkscape"
   width="751.18109"
   height="357.87399"
   id="svg2"
   version="1.1"
   inkscape:version="0.48.3.1 r9886"
   sodipodi:docname="2.svg"
   inkscape:export-filename="D:\GraphWork\WorkingProjects\My\Флаер Scorini\2 сторона.png"
   inkscape:export-xdpi="300"
   inkscape:export-ydpi="300">
  <defs
     id="defs4" />
  <sodipodi:namedview
     id="base"
     pagecolor="#ffffff"
     bordercolor="#666666"
     borderopacity="1.0"
     inkscape:pageopacity="0.0"
     inkscape:pageshadow="2"
     inkscape:zoom="1.9402887"
     inkscape:cx="173.8936"
     inkscape:cy="287.04251"
     inkscape:document-units="px"
     inkscape:current-layer="layer1"
     showgrid="false"
     units="mm"
     showguides="true"
     inkscape:guide-bbox="true"
     inkscape:window-width="1366"
     inkscape:window-height="723"
     inkscape:window-x="-4"
     inkscape:window-y="-4"
     inkscape:window-maximized="1"
     inkscape:snap-global="false"
     inkscape:showpageshadow="false">
    <sodipodi:guide
       orientation="0,1"
       position="-126.0941,342.56777"
       id="guide3871" />
    <sodipodi:guide
       orientation="0,1"
       position="-115.16108,15.30622"
       id="guide3873" />
    <sodipodi:guide
       orientation="1,0"
       position="14.577352,361.51833"
       id="guide3875" />
    <sodipodi:guide
       orientation="1,0"
       position="360.0606,365.16267"
       id="guide3877" />
    <sodipodi:guide
       orientation="1,0"
       position="391.4019,342.56777"
       id="guide3775" />
    <sodipodi:guide
       orientation="1,0"
       position="737.61401,342.56777"
       id="guide3777" />
    <sodipodi:guide
       orientation="1,0"
       position="376.09568,245.62838"
       id="guide3434" />
    <sodipodi:guide
       orientation="0,1"
       position="134.11164,108.60127"
       id="guide4373" />
    <sodipodi:guide
       orientation="0,1"
       position="612.24878,178.57256"
       id="guide4379" />
    <sodipodi:guide
       orientation="1,0"
       position="561.22805,162.53747"
       id="guide4381" />
    <sodipodi:guide
       orientation="0,1"
       position="619.53746,88.192979"
       id="guide4385" />
    <sodipodi:guide
       orientation="1,0"
       position="651.60763,161.07974"
       id="guide4389" />
    <sodipodi:guide
       orientation="0,1"
       position="682.22007,48.834129"
       id="guide4393" />
    <sodipodi:guide
       orientation="1,0"
       position="3.5433071,205.54066"
       id="guide3013" />
    <sodipodi:guide
       orientation="0,1"
       position="104.95693,3.5433071"
       id="guide3015" />
    <sodipodi:guide
       orientation="1,0"
       position="747.6378,94.752787"
       id="guide3017" />
    <sodipodi:guide
       orientation="0,1"
       position="427.11641,354.33071"
       id="guide3019" />
    <sodipodi:guide
       orientation="1,0"
       position="0,273.32535"
       id="guide3250" />
    <sodipodi:guide
       orientation="0,1"
       position="104.22807,357.87399"
       id="guide3252" />
    <sodipodi:guide
       orientation="0,1"
       position="147.23125,0"
       id="guide3254" />
    <sodipodi:guide
       orientation="1,0"
       position="751.1811,-16.763955"
       id="guide3256" />
    <sodipodi:guide
       orientation="0,1"
       position="92.7697,221.10112"
       id="guide4418" />
  </sodipodi:namedview>
  <metadata
     id="metadata7">
    <rdf:RDF>
      <cc:Work
         rdf:about="">
        <dc:format>image/svg+xml</dc:format>
        <dc:type
           rdf:resource="http://purl.org/dc/dcmitype/StillImage" />
        <dc:title></dc:title>
      </cc:Work>
    </rdf:RDF>
  </metadata>
  <g
     inkscape:label="Layer 1"
     inkscape:groupmode="layer"
     id="layer1"
     transform="translate(0,-694.48818)">
    <image
       y="-751.2522"
       x="694.66492"
       id="image3887"
       xlink:href="file:///D:/GraphWork/WorkingProjects/My/%D0%A4%D0%BB%D0%B0%D0%B5%D1%80%20Scorini/2.png"
       height="750.96594"
       width="357.72342"
       style="fill:#843e3c;fill-opacity:1"
       transform="matrix(0,1,-1,0,0,0)" />
    <path
       sodipodi:type="inkscape:offset"
       inkscape:radius="3"
       inkscape:original="M 39.25 829.90625 L 29.90625 833.8125 C 29.408204 833.63086 29.06836 833.41699 28.875 833.15625 C 28.681642 832.8955 28.593751 832.54687 28.59375 832.125 C 28.593751 831.49219 28.679689 830.92187 28.84375 830.40625 L 26.34375 830.6875 C 26.203129 831.76562 26.125004 832.57812 26.125 833.09375 C 26.125004 834.36523 26.406254 835.3164 26.96875 835.9375 C 27.36719 836.37695 28.144533 836.79687 29.28125 837.21875 L 39.25 840.90625 L 39.25 837.40625 L 33.03125 835.625 L 39.25 833.6875 L 39.25 829.90625 z M 59.9375 830.9375 C 58.500566 830.9375 57.18757 831.06315 56 831.3125 C 54.812419 831.56185 53.87215 831.89577 53.1875 832.34375 C 52.223913 832.96078 51.467447 833.75516 50.96875 834.71875 C 50.470052 835.68233 50.25 836.93628 50.25 838.5 C 50.25 841.28932 51.030036 843.26515 52.59375 844.40625 C 54.15746 845.54732 56.627444 846.12498 60 846.125 C 61.504535 846.12498 62.926277 845.94029 64.3125 845.59375 C 65.039401 845.41623 65.673548 845.19785 66.21875 844.90625 C 66.76392 844.61462 67.286762 844.19464 67.78125 843.6875 C 68.275704 843.18034 68.691465 842.52173 69 841.71875 C 69.308498 840.91575 69.468731 839.90721 69.46875 838.65625 C 69.468731 836.05287 68.7553 834.11585 67.34375 832.84375 C 65.932166 831.57165 63.470634 830.9375 59.9375 830.9375 z M 59.90625 836.0625 C 62.247582 836.06249 63.852355 836.24463 64.71875 836.625 C 65.585117 837.00536 66.031235 837.61504 66.03125 838.46875 C 66.031235 839.30554 65.599462 839.92534 64.75 840.34375 C 63.90051 840.76214 62.24937 840.96874 59.78125 840.96875 C 58.099194 840.96874 56.857029 840.90047 56.0625 840.71875 C 55.26796 840.53701 54.68018 840.22833 54.3125 839.84375 C 53.944813 839.45915 53.749997 839.02405 53.75 838.5 C 53.749997 837.70546 54.196115 837.10589 55.0625 836.6875 C 55.928876 836.26909 57.539542 836.06249 59.90625 836.0625 z M 29.90625 841.09375 C 29.72461 841.88476 29.625 842.78515 29.625 843.78125 C 29.625 844.66015 29.902344 845.32519 30.40625 845.75 C 30.910155 846.1748 31.675779 846.37499 32.71875 846.375 L 36.625 846.375 L 36.625 849.09375 L 29.90625 849.09375 L 29.90625 852.65625 L 39.25 852.65625 L 39.25 842.78125 L 33.4375 842.78125 C 32.722653 842.78125 32.374998 842.54297 32.375 842.0625 C 32.374998 841.83984 32.433591 841.51562 32.5625 841.09375 L 29.90625 841.09375 z M 59.75 848.3125 C 57.459364 848.3125 55.609182 848.64052 54.21875 849.3125 C 52.828311 849.98447 51.821437 850.87581 51.1875 852 C 50.553562 853.12418 50.25 854.60919 50.25 856.46875 C 50.25 858.01555 50.511421 859.31676 51.03125 860.34375 C 51.551078 861.37072 52.298198 862.17099 53.3125 862.75 C 54.326797 863.32898 55.461882 863.62498 56.6875 863.625 C 58.504781 863.62498 60.00414 863.05155 61.1875 861.90625 C 62.370839 860.76092 62.937488 859.34418 62.9375 857.6875 C 62.937488 856.83379 62.800052 856.08833 62.5 855.4375 C 62.199924 854.78665 61.750474 854.14828 61.125 853.53125 C 63.119779 853.69184 64.422656 853.94314 65.03125 854.28125 C 65.876485 854.74613 66.281234 855.38194 66.28125 856.21875 C 66.281234 856.68363 66.139572 857.08927 65.84375 857.40625 C 65.547897 857.72321 65.030948 857.9585 64.3125 858.09375 L 64.96875 863.21875 C 65.96613 862.9229 66.778188 862.5038 67.4375 861.9375 C 68.096778 861.37117 68.595156 860.63917 68.9375 859.78125 C 69.279808 858.92331 69.468731 857.76043 69.46875 856.28125 C 69.468731 853.7793 68.684469 851.81781 67.125 850.40625 C 65.565498 848.99468 63.105632 848.3125 59.75 848.3125 z M 56.6875 853.71875 C 57.676436 853.71874 58.436234 853.95147 58.96875 854.4375 C 59.501249 854.92351 59.749991 855.53153 59.75 856.25 C 59.749991 856.95155 59.486904 857.52665 58.9375 858 C 58.388079 858.47333 57.579354 858.71874 56.53125 858.71875 C 55.508492 858.71874 54.734349 858.48767 54.21875 858.03125 C 53.703144 857.5748 53.468747 857.01994 53.46875 856.34375 C 53.468747 855.60837 53.741953 854.97589 54.3125 854.46875 C 54.88304 853.96159 55.681647 853.71874 56.6875 853.71875 z M 29.90625 854.84375 L 29.90625 858.6875 L 33.5 858.6875 L 33.5 854.84375 L 29.90625 854.84375 z M 59.75 865.65625 C 57.459364 865.65625 55.609182 865.98427 54.21875 866.65625 C 52.828311 867.32822 51.821437 868.21956 51.1875 869.34375 C 50.553562 870.46793 50.25 871.95294 50.25 873.8125 C 50.25 875.3593 50.511421 876.66051 51.03125 877.6875 C 51.551078 878.71447 52.298198 879.51474 53.3125 880.09375 C 54.326797 880.67273 55.461882 880.96873 56.6875 880.96875 C 58.504781 880.96873 60.00414 880.3953 61.1875 879.25 C 62.370839 878.10467 62.937488 876.68793 62.9375 875.03125 C 62.937488 874.17754 62.800052 873.43208 62.5 872.78125 C 62.199924 872.1304 61.750474 871.49203 61.125 870.875 C 63.119779 871.03559 64.422656 871.28689 65.03125 871.625 C 65.876485 872.08988 66.281234 872.75694 66.28125 873.59375 C 66.281234 874.05863 66.139572 874.43302 65.84375 874.75 C 65.547897 875.06696 65.030948 875.30225 64.3125 875.4375 L 64.96875 880.5625 C 65.96613 880.26665 66.778188 879.84755 67.4375 879.28125 C 68.096778 878.71492 68.595156 877.98292 68.9375 877.125 C 69.279808 876.26706 69.468731 875.10418 69.46875 873.625 C 69.468731 871.12305 68.684469 869.16156 67.125 867.75 C 65.565498 866.33843 63.105632 865.65625 59.75 865.65625 z M 29.90625 867.125 L 29.90625 871.09375 L 39.625 871.09375 L 39.625 875.46875 L 29.90625 875.46875 L 29.90625 879.4375 L 42.8125 879.4375 L 42.8125 867.125 L 29.90625 867.125 z M 56.6875 871.0625 C 57.676436 871.06249 58.436234 871.29522 58.96875 871.78125 C 59.501249 872.26726 59.749991 872.87528 59.75 873.59375 C 59.749991 874.2953 59.486904 874.8704 58.9375 875.34375 C 58.388079 875.81708 57.579354 876.06249 56.53125 876.0625 C 55.508492 876.06249 54.734349 875.83142 54.21875 875.375 C 53.703144 874.91855 53.468747 874.36369 53.46875 873.6875 C 53.468747 872.95212 53.741953 872.31964 54.3125 871.8125 C 54.88304 871.30534 55.681647 871.06249 56.6875 871.0625 z M 34.5625 881.4375 C 33.0332 881.4375 31.787108 882.01953 30.84375 883.15625 C 30.082031 884.08203 29.6875 885.28125 29.6875 886.78125 C 29.6875 888.46288 30.145508 889.79784 31.0625 890.75 C 31.97949 891.70214 33.1582 892.15624 34.59375 892.15625 C 35.871088 892.15624 36.970696 891.79882 37.84375 891.03125 C 38.927725 890.07616 39.46874 888.65038 39.46875 886.78125 C 39.46874 885.14648 38.985342 883.83593 38.0625 882.875 C 37.139641 881.91406 35.986322 881.4375 34.5625 881.4375 z M 34.5625 885.03125 C 35.382807 885.03125 36.004877 885.1914 36.40625 885.53125 C 36.80761 885.87109 36.999993 886.32226 37 886.84375 C 36.999993 887.33593 36.801751 887.72851 36.40625 888.0625 C 36.010736 888.39648 35.402338 888.56249 34.59375 888.5625 C 33.726559 888.56249 33.111325 888.39355 32.71875 888.0625 C 32.326169 887.73144 32.124998 887.32812 32.125 886.8125 C 32.124998 886.30273 32.32031 885.86816 32.71875 885.53125 C 33.117184 885.19433 33.730465 885.03125 34.5625 885.03125 z M 55.46875 891.46875 C 54.310753 891.80685 53.327449 892.30779 52.5625 892.9375 C 51.797547 893.56721 51.241017 894.36748 50.84375 895.34375 C 50.446482 896.32001 50.25 897.65324 50.25 899.34375 C 50.25 901.0765 50.494516 902.46622 51.03125 903.53125 C 51.567983 904.59625 52.350579 905.43367 53.34375 906 C 54.336916 906.5663 55.355575 906.84373 56.4375 906.84375 C 57.299649 906.84373 58.066233 906.65481 58.6875 906.3125 C 59.30875 905.97016 59.807128 905.49202 60.1875 904.875 C 60.42416 904.49462 60.634987 903.9372 60.8125 903.21875 C 61.302735 904.10625 61.849146 904.77921 62.5 905.21875 C 63.15083 905.65827 63.884499 905.87498 64.6875 905.875 C 66.05679 905.87498 67.189315 905.33191 68.09375 904.25 C 68.99815 903.16807 69.468731 901.42586 69.46875 899 C 69.468731 896.88687 69.047077 895.24751 68.21875 894.09375 C 67.390388 892.93998 66.180245 892.15572 64.625 891.75 L 63.75 896.65625 C 64.671309 896.79148 65.319801 897.02588 65.6875 897.40625 C 66.055168 897.78661 66.249984 898.29766 66.25 898.90625 C 66.249984 899.49792 66.088085 899.94314 65.75 900.28125 C 65.411885 900.61934 64.941303 900.81249 64.375 900.8125 C 63.783311 900.81249 63.274815 900.5772 62.84375 900.125 C 62.41266 899.67278 62.218738 899.11369 62.21875 898.4375 C 62.218738 898.27689 62.238976 898.03738 62.28125 897.75 L 58.59375 897.5 C 58.796602 898.21 58.874992 898.75052 58.875 899.15625 C 58.874992 899.91697 58.660832 900.52498 58.1875 900.96875 C 57.714153 901.4125 57.018399 901.62499 56.15625 901.625 C 55.310995 901.62499 54.663396 901.39815 54.15625 900.9375 C 53.649097 900.47683 53.374997 899.91185 53.375 899.21875 C 53.374997 898.55945 53.567253 898.02059 53.96875 897.59375 C 54.37024 897.16689 55.116587 896.8591 56.15625 896.65625 L 55.46875 891.46875 z M 34.53125 893.46875 C 33.611324 893.46875 32.869138 893.60547 32.3125 893.875 C 31.755858 894.14453 31.288085 894.52539 30.875 895 C 30.461914 895.47461 30.15332 896.02832 29.96875 896.6875 C 29.78418 897.34668 29.6875 898.19726 29.6875 899.1875 C 29.6875 900.21288 29.837891 901.0537 30.125 901.71875 C 30.412109 902.38378 30.825194 902.91601 31.34375 903.34375 C 31.862303 903.77147 32.478513 904.09374 33.1875 904.28125 L 33.5625 900.875 C 33.06445 900.71679 32.677732 900.47558 32.4375 900.15625 C 32.197263 899.83691 32.093748 899.43749 32.09375 898.96875 C 32.093748 898.40624 32.28906 897.95703 32.6875 897.59375 C 33.085934 897.23046 33.669918 897.03125 34.4375 897.03125 C 35.298823 897.03125 35.950189 897.22753 36.375 897.59375 C 36.799798 897.95996 36.999993 898.43945 37 899.03125 C 36.999993 899.49999 36.889641 899.87792 36.6875 900.15625 C 36.485345 900.43456 36.210931 900.61327 35.8125 900.71875 L 36.25 904.09375 C 37.298821 903.77147 38.08007 903.20604 38.625 902.40625 C 39.169913 901.60644 39.46874 900.42968 39.46875 898.90625 C 39.46874 897.8164 39.31835 896.94726 39.03125 896.25 C 38.8496 895.81054 38.559562 895.38476 38.1875 894.96875 C 37.815422 894.55273 37.406243 894.20898 36.9375 893.96875 C 36.298822 893.64062 35.492182 893.46875 34.53125 893.46875 z M 36.625 905.03125 L 36.625 907.625 L 29.90625 907.625 L 29.90625 911.21875 L 36.625 911.21875 L 36.625 913.8125 L 39.25 913.8125 L 39.25 905.03125 L 36.625 905.03125 z M 60.25 910.03125 C 60.613448 911.22305 60.977722 912.20969 61.375 913 C 61.772257 913.7903 62.295098 914.62349 62.9375 915.46875 L 50.5625 915.46875 L 50.5625 920.6875 L 69.46875 920.6875 L 69.46875 916.40625 C 68.302287 915.85683 67.325769 915.09703 66.53125 914.125 C 65.736699 913.15296 65.035053 911.78937 64.46875 910.03125 L 60.25 910.03125 z M 29.90625 915.1875 L 29.90625 920.53125 C 29.90625 923.22069 30.914062 924.56249 32.90625 924.5625 C 34.92187 924.56249 35.937494 923.16601 35.9375 920.40625 L 35.9375 918.78125 L 39.25 918.78125 L 39.25 915.1875 L 29.90625 915.1875 z M 32.125 918.78125 L 33.75 918.78125 L 33.75 919.9375 C 33.749996 920.5996 33.468746 920.93749 32.90625 920.9375 C 32.648435 920.93749 32.447263 920.84081 32.3125 920.65625 C 32.177732 920.47167 32.124998 920.23046 32.125 919.9375 L 32.125 918.78125 z M 29.90625 925.5625 L 29.90625 929.15625 L 39.25 929.15625 L 39.25 925.5625 L 29.90625 925.5625 z M 64.78125 926.40625 L 64.78125 935.59375 C 62.439894 933.70883 60.241449 932.33935 58.1875 931.46875 C 56.133536 930.59814 53.596946 929.93697 50.5625 929.53125 L 50.5625 934.6875 C 52.743244 934.85654 54.621223 935.19724 56.21875 935.6875 C 58.272701 936.30452 60.138894 937.12247 61.8125 938.1875 C 63.190246 939.06655 64.472885 940.18985 65.65625 941.5 L 69.125 941.5 L 69.125 926.40625 L 64.78125 926.40625 z M 29.90625 931.40625 L 29.90625 946.15625 L 39.25 946.15625 L 39.25 942.5625 L 32.53125 942.5625 L 32.53125 940.5625 L 39.25 940.5625 L 39.25 936.96875 L 32.53125 936.96875 L 32.53125 934.96875 L 39.25 934.96875 L 39.25 931.40625 L 29.90625 931.40625 z M 34.5625 948.09375 C 33.537106 948.09375 32.633786 948.31543 31.875 948.78125 C 31.11621 949.24707 30.567382 949.85351 30.21875 950.5625 C 29.870117 951.27148 29.6875 952.23242 29.6875 953.46875 C 29.6875 954.89257 29.905273 955.98827 30.3125 956.75 C 30.719726 957.51171 31.406249 958.14843 32.34375 958.6875 L 32.65625 955.1875 C 32.374998 954.96484 32.173826 954.75585 32.0625 954.5625 C 31.886717 954.24609 31.812498 953.91406 31.8125 953.5625 C 31.812498 953.00585 32.001951 952.5332 32.40625 952.1875 C 32.687497 951.9414 33.113278 951.7832 33.6875 951.71875 L 33.6875 958.90625 L 34.09375 958.90625 C 35.324213 958.90624 36.326165 958.68554 37.09375 958.28125 C 37.86132 957.87694 38.439445 957.30468 38.84375 956.53125 C 39.248038 955.7578 39.46874 954.71093 39.46875 953.375 C 39.46874 951.72851 38.996085 950.43457 38.09375 949.5 C 37.191399 948.56543 36.021478 948.09375 34.5625 948.09375 z M 35.40625 951.75 C 35.962885 951.80859 36.374994 951.93945 36.65625 952.15625 C 37.107415 952.49609 37.343743 952.93164 37.34375 953.5 C 37.343743 953.99218 37.205071 954.41699 36.90625 954.71875 C 36.607415 955.0205 36.09765 955.17968 35.40625 955.25 L 35.40625 951.75 z M 54.03125 951.8125 L 54.03125 961.21875 L 50.5625 961.21875 L 50.5625 965.71875 L 54.03125 965.71875 L 54.03125 968.0625 L 58.03125 968.0625 L 58.03125 965.71875 L 69.46875 965.71875 L 69.46875 961.21875 L 58.28125 951.8125 L 54.03125 951.8125 z M 58.03125 956.25 L 63.875 961.21875 L 58.03125 961.21875 L 58.03125 956.25 z M 29.90625 960.5625 L 29.90625 965.875 C 29.90625 967.39257 30.120117 968.4453 30.5625 969.03125 C 31.004882 969.61718 31.671873 969.93749 32.5625 969.9375 C 33.230465 969.93749 33.789059 969.70019 34.1875 969.28125 C 34.585933 968.8623 34.804683 968.30273 34.875 967.59375 L 34.90625 967.59375 C 35.029292 968.1621 35.284174 968.64257 35.65625 969 C 36.028314 969.35741 36.464837 969.53124 36.96875 969.53125 C 37.683586 969.53124 38.226554 969.26659 38.625 968.71875 C 39.023428 968.17089 39.249991 967.35546 39.25 966.3125 L 39.25 960.5625 L 29.90625 960.5625 z M 32.125 964.15625 L 33.75 964.15625 L 33.75 965.3125 C 33.749996 965.96874 33.468746 966.31249 32.90625 966.3125 C 32.648435 966.31249 32.447263 966.21288 32.3125 966.03125 C 32.177732 965.8496 32.124998 965.60546 32.125 965.3125 L 32.125 964.15625 z M 35.6875 964.15625 L 37.15625 964.15625 L 37.15625 965 C 37.156243 965.63281 36.939446 965.93749 36.5 965.9375 C 35.955072 965.93749 35.687494 965.6289 35.6875 965.03125 L 35.6875 964.15625 z M 59.9375 969.6875 C 58.500566 969.6875 57.18757 969.81315 56 970.0625 C 54.812419 970.31185 53.87215 970.64577 53.1875 971.09375 C 52.223913 971.71078 51.467447 972.50516 50.96875 973.46875 C 50.470052 974.43233 50.25 975.68628 50.25 977.25 C 50.25 980.03932 51.030036 982.01515 52.59375 983.15625 C 54.15746 984.29732 56.627444 984.87498 60 984.875 C 61.504535 984.87498 62.926277 984.69029 64.3125 984.34375 C 65.039401 984.16623 65.673548 983.94785 66.21875 983.65625 C 66.76392 983.36462 67.286762 982.94464 67.78125 982.4375 C 68.275704 981.93034 68.691465 981.30298 69 980.5 C 69.308498 979.697 69.468731 978.65721 69.46875 977.40625 C 69.468731 974.80287 68.7553 972.86585 67.34375 971.59375 C 65.932166 970.32165 63.470634 969.6875 59.9375 969.6875 z M 32.375 971.1875 C 31.619139 971.1875 30.984374 971.48535 30.46875 972.0625 C 29.953125 972.63965 29.6875 973.48047 29.6875 974.59375 C 29.6875 975.43164 29.835938 976.17968 30.09375 976.8125 C 30.287109 977.27538 30.611327 977.74999 31.0625 978.21875 C 30.792968 978.25976 30.594726 978.27148 30.46875 978.3125 C 30.342773 978.35351 30.146484 978.45898 29.90625 978.59375 L 29.90625 981.9375 C 30.292968 981.74999 30.625976 981.6494 30.875 981.59375 C 31.124022 981.53807 31.466795 981.49999 31.90625 981.5 L 36.03125 981.5 C 36.470697 981.49999 36.922845 981.42577 37.40625 981.25 C 37.88964 981.07421 38.26757 980.80468 38.53125 980.5 C 38.9121 980.0664 39.161124 979.52538 39.28125 978.875 C 39.401358 978.2246 39.46874 977.38476 39.46875 976.3125 C 39.46874 975.64453 39.4121 975.01171 39.3125 974.4375 C 39.212881 973.86328 39.056631 973.42187 38.875 973.09375 C 38.623038 972.63672 38.342765 972.27441 38 972.03125 C 37.657219 971.78808 37.191399 971.59766 36.59375 971.46875 L 36.21875 974.90625 C 36.62304 975.04687 36.916009 975.20898 37.0625 975.4375 C 37.249993 975.73046 37.343743 976.19531 37.34375 976.78125 C 37.343743 977.23827 37.238274 977.5371 37.0625 977.71875 C 36.886712 977.90038 36.595696 977.99999 36.15625 978 C 35.980463 977.55468 35.827143 977.14843 35.71875 976.75 C 35.610346 976.35156 35.425776 975.46679 35.15625 974.125 C 34.933589 973.00586 34.582027 972.22851 34.125 971.8125 C 33.667965 971.39648 33.083981 971.1875 32.375 971.1875 z M 32.65625 974.78125 C 32.902341 974.78125 33.119137 974.89453 33.3125 975.09375 C 33.499996 975.2871 33.681637 975.74218 33.875 976.46875 C 34.009762 977.00195 34.167964 977.50781 34.34375 978 L 33.78125 978 C 33.335934 977.99999 32.965817 977.9248 32.6875 977.78125 C 32.409177 977.63769 32.162107 977.40527 31.96875 977.0625 C 31.775389 976.71972 31.687498 976.33593 31.6875 975.9375 C 31.687498 975.55664 31.790037 975.29003 31.96875 975.09375 C 32.147459 974.89746 32.374998 974.78125 32.65625 974.78125 z M 59.90625 974.8125 C 62.247582 974.81249 63.852355 974.99463 64.71875 975.375 C 65.585117 975.75536 66.031235 976.36504 66.03125 977.21875 C 66.031235 978.05554 65.599462 978.70659 64.75 979.125 C 63.90051 979.54339 62.24937 979.74999 59.78125 979.75 C 58.099194 979.74999 56.857029 979.65047 56.0625 979.46875 C 55.26796 979.28701 54.68018 979.00958 54.3125 978.625 C 53.944813 978.2404 53.749997 977.77405 53.75 977.25 C 53.749997 976.45546 54.196115 975.85589 55.0625 975.4375 C 55.928876 975.01909 57.539542 974.81249 59.90625 974.8125 z M 36.625 990.0625 C 36.876946 990.88867 37.130852 991.57715 37.40625 992.125 C 37.681633 992.67285 38.054679 993.22656 38.5 993.8125 L 29.90625 993.8125 L 29.90625 997.4375 L 43.03125 997.4375 L 43.03125 994.46875 C 42.222644 994.08789 41.51952 993.58007 40.96875 992.90625 C 40.417958 992.23242 39.955068 991.28125 39.5625 990.0625 L 36.625 990.0625 z M 63 995.53125 C 61.191153 995.53125 59.683342 996.10468 58.5 997.25 C 57.316643 998.39531 56.749994 999.8036 56.75 1001.4688 C 56.749994 1002.3224 56.891656 1003.0679 57.1875 1003.7188 C 57.483331 1004.3696 57.959805 1005.008 58.59375 1005.625 C 56.598953 1005.4559 55.273278 1005.2131 54.65625 1004.875 C 53.819449 1004.4101 53.406247 1003.7658 53.40625 1002.9375 C 53.406247 1002.4726 53.547909 1002.0712 53.84375 1001.75 C 54.139584 1001.4288 54.656533 1001.1977 55.375 1001.0625 L 54.71875 995.9375 C 53.729804 996.24179 52.909293 996.65243 52.25 997.21875 C 51.590704 997.78506 51.092326 998.52129 50.75 999.375 C 50.407674 1000.2287 50.25 1001.3958 50.25 1002.875 C 50.25 1005.3769 51.003012 1007.3072 52.5625 1008.7188 C 54.121984 1010.1303 56.58185 1010.8437 59.9375 1010.8438 C 62.219665 1010.8437 64.078299 1010.5157 65.46875 1009.8438 C 66.859171 1009.1718 67.861819 1008.2804 68.5 1007.1562 C 69.138146 1006.0321 69.468731 1004.547 69.46875 1002.6875 C 69.468731 1001.1407 69.20731 999.83525 68.6875 998.8125 C 68.167653 997.78974 67.389284 996.98947 66.375 996.40625 C 65.360685 995.82303 64.234052 995.53125 63 995.53125 z M 63.15625 1000.4375 C 64.187442 1000.4375 64.953133 1000.6728 65.46875 1001.125 C 65.984337 1001.5772 66.249984 1002.1278 66.25 1002.8125 C 66.249984 1003.5394 65.945529 1004.1803 65.375 1004.6875 C 64.804442 1005.1946 64.037085 1005.4375 63.03125 1005.4375 C 62.042295 1005.4375 61.251247 1005.2005 60.71875 1004.7188 C 60.186233 1004.2369 59.937491 1003.6332 59.9375 1002.9062 C 59.937491 1002.2047 60.200578 1001.6254 60.75 1001.1562 C 61.299402 1000.6871 62.11658 1000.4375 63.15625 1000.4375 z M 36.625 1002.0938 C 36.876946 1002.9199 37.130852 1003.6084 37.40625 1004.1562 C 37.681633 1004.7041 38.054679 1005.2578 38.5 1005.8438 L 29.90625 1005.8438 L 29.90625 1009.4688 L 43.03125 1009.4688 L 43.03125 1006.5 C 42.222644 1006.1191 41.51952 1005.6113 40.96875 1004.9375 C 40.417958 1004.2637 39.955068 1003.3125 39.5625 1002.0938 L 36.625 1002.0938 z M 59.75 1013.0625 C 57.459364 1013.0625 55.609182 1013.3905 54.21875 1014.0625 C 52.828311 1014.7345 51.821437 1015.6571 51.1875 1016.7812 C 50.553562 1017.9054 50.25 1019.3904 50.25 1021.25 C 50.25 1022.7968 50.511421 1024.0668 51.03125 1025.0938 C 51.551078 1026.1207 52.298198 1026.9522 53.3125 1027.5312 C 54.326797 1028.1102 55.461882 1028.375 56.6875 1028.375 C 58.504781 1028.375 60.00414 1027.8015 61.1875 1026.6562 C 62.370839 1025.5109 62.937488 1024.1254 62.9375 1022.4688 C 62.937488 1021.615 62.800052 1020.8696 62.5 1020.2188 C 62.199924 1019.5679 61.750474 1018.9295 61.125 1018.3125 C 63.119779 1018.4731 64.422656 1018.7244 65.03125 1019.0625 C 65.876485 1019.5274 66.281234 1020.1632 66.28125 1021 C 66.281234 1021.4649 66.139572 1021.8705 65.84375 1022.1875 C 65.547897 1022.5045 65.030948 1022.7085 64.3125 1022.8438 L 64.96875 1028 C 65.96613 1027.7041 66.778188 1027.2538 67.4375 1026.6875 C 68.096778 1026.1212 68.595156 1025.4204 68.9375 1024.5625 C 69.279808 1023.7046 69.468731 1022.5417 69.46875 1021.0625 C 69.468731 1018.5606 68.684469 1016.5991 67.125 1015.1875 C 65.565498 1013.7759 63.105632 1013.0625 59.75 1013.0625 z M 39.78125 1013.4375 L 39.78125 1019.8125 C 38.158195 1018.5059 36.642571 1017.541 35.21875 1016.9375 C 33.794918 1016.334 32.009764 1015.9062 29.90625 1015.625 L 29.90625 1019.1875 C 31.417967 1019.3047 32.736325 1019.5351 33.84375 1019.875 C 35.267573 1020.3027 36.558587 1020.8867 37.71875 1021.625 C 38.673819 1022.2344 39.554678 1022.9668 40.375 1023.875 L 42.8125 1023.875 L 42.8125 1013.4375 L 39.78125 1013.4375 z M 56.6875 1018.4688 C 57.676436 1018.4687 58.436234 1018.7327 58.96875 1019.2188 C 59.501249 1019.7048 59.749991 1020.3128 59.75 1021.0312 C 59.749991 1021.7328 59.486904 1022.3079 58.9375 1022.7812 C 58.388079 1023.2546 57.579354 1023.5 56.53125 1023.5 C 55.508492 1023.5 54.734349 1023.2689 54.21875 1022.8125 C 53.703144 1022.3561 53.468747 1021.7699 53.46875 1021.0938 C 53.468747 1020.3584 53.741953 1019.7571 54.3125 1019.25 C 54.88304 1018.7428 55.681647 1018.4687 56.6875 1018.4688 z M 32.375 1025.3125 C 31.619139 1025.3125 30.984374 1025.5791 30.46875 1026.1562 C 29.953125 1026.7334 29.6875 1027.6055 29.6875 1028.7188 C 29.6875 1029.5566 29.835938 1030.2734 30.09375 1030.9062 C 30.287109 1031.3691 30.611327 1031.8437 31.0625 1032.3125 C 30.792968 1032.3535 30.594726 1032.3965 30.46875 1032.4375 C 30.342773 1032.4785 30.146484 1032.5527 29.90625 1032.6875 L 29.90625 1036.0625 C 30.292968 1035.875 30.625976 1035.7432 30.875 1035.6875 C 31.124022 1035.6318 31.466795 1035.5937 31.90625 1035.5938 L 36.03125 1035.5938 C 36.470697 1035.5937 36.922845 1035.5195 37.40625 1035.3438 C 37.88964 1035.168 38.26757 1034.9297 38.53125 1034.625 C 38.9121 1034.1914 39.161124 1033.6504 39.28125 1033 C 39.401358 1032.3496 39.46874 1031.4785 39.46875 1030.4062 C 39.46874 1029.7383 39.4121 1029.1367 39.3125 1028.5625 C 39.212881 1027.9883 39.056631 1027.5156 38.875 1027.1875 C 38.623038 1026.7305 38.342765 1026.3994 38 1026.1562 C 37.657219 1025.9131 37.191399 1025.7227 36.59375 1025.5938 L 36.21875 1029 C 36.62304 1029.1406 36.916009 1029.334 37.0625 1029.5625 C 37.249993 1029.8555 37.343743 1030.2891 37.34375 1030.875 C 37.343743 1031.332 37.238274 1031.6621 37.0625 1031.8438 C 36.886712 1032.0254 36.595696 1032.0937 36.15625 1032.0938 C 35.980463 1031.6484 35.827143 1031.2422 35.71875 1030.8438 C 35.610346 1030.4453 35.425776 1029.5605 35.15625 1028.2188 C 34.933589 1027.0996 34.582027 1026.3535 34.125 1025.9375 C 33.667965 1025.5215 33.083981 1025.3125 32.375 1025.3125 z M 32.65625 1028.875 C 32.902341 1028.875 33.119137 1028.9883 33.3125 1029.1875 C 33.499996 1029.3809 33.681637 1029.8359 33.875 1030.5625 C 34.009762 1031.0957 34.167964 1031.6016 34.34375 1032.0938 L 33.78125 1032.0938 C 33.335934 1032.0937 32.965817 1032.0498 32.6875 1031.9062 C 32.409177 1031.7627 32.162107 1031.499 31.96875 1031.1562 C 31.775389 1030.8135 31.687498 1030.4609 31.6875 1030.0625 C 31.687498 1029.6816 31.790037 1029.3838 31.96875 1029.1875 C 32.147459 1028.9912 32.374998 1028.875 32.65625 1028.875 z "
       xlink:href="#text4398"
       style="font-size:25.96609497px;font-style:normal;font-variant:normal;font-weight:900;font-stretch:normal;text-align:start;line-height:100%;letter-spacing:0px;word-spacing:0px;writing-mode:lr-tb;text-anchor:start;fill:#ffffff;fill-opacity:1;stroke:none;font-family:Arial Black;-inkscape-font-specification:'Arial Black, Heavy'"
       id="path4404"
       inkscape:href="#text4398"
       d="m 39.15625,824.90625 a 3.0003,3.0003 0 0 0 -1.0625,0.21875 l -6.3125,2.65625 A 3.0003,3.0003 0 0 0 28.5,825.4375 l -2.5,0.28125 a 3.0003,3.0003 0 0 0 -2.625,2.59375 c -0.147191,1.12849 -0.249994,1.96262 -0.25,2.78125 5e-6,1.71387 0.373523,3.46189 1.625,4.84375 0.784806,0.86558 1.630371,1.31235 2.53125,1.6875 a 3.0003,3.0003 0 0 0 -0.3125,0.8125 c -0.239235,1.04182 -0.34375,2.14765 -0.34375,3.34375 0,1.11777 0.445578,2.23041 1.125,3.21875 a 3.0003,3.0003 0 0 0 -0.84375,2.09375 l 0,3.5625 a 3.0003,3.0003 0 0 0 0.21875,1.09375 3.0003,3.0003 0 0 0 -0.21875,1.09375 l 0,3.84375 a 3.0003,3.0003 0 0 0 3,3 l 3.59375,0 a 3.0003,3.0003 0 0 0 3,-3 l 0,-3.03125 2.75,0 a 3.0003,3.0003 0 0 0 3,-3 l 0,-9.875 a 3.0003,3.0003 0 0 0 -0.15625,-0.90625 3.0003,3.0003 0 0 0 0,-0.0312 3.0003,3.0003 0 0 0 0.15625,-0.9375 l 0,-3.5 a 3.0003,3.0003 0 0 0 -0.65625,-1.84375 3.0003,3.0003 0 0 0 0.65625,-1.875 l 0,-3.78125 a 3.0003,3.0003 0 0 0 -3.09375,-3 z m 20.78125,1.03125 c -1.61182,0 -3.138087,0.13842 -4.5625,0.4375 -1.389293,0.2917 -2.655769,0.68898 -3.8125,1.4375 -0.01145,0.007 -0.01982,0.0238 -0.03125,0.0312 -1.332016,0.86118 -2.467162,2.04777 -3.21875,3.5 -0.821451,1.5872 -1.0625,3.31108 -1.0625,5.15625 0,3.34862 1.050502,6.51065 3.5625,8.34375 0.310763,0.22677 0.728787,0.28089 1.0625,0.46875 -1.337211,0.83867 -2.547254,1.8617 -3.3125,3.21875 -0.987899,1.75187 -1.3125,3.75145 -1.3125,5.9375 0,1.88482 0.29583,3.64236 1.09375,5.21875 0.67239,1.32837 1.733627,2.4679 3,3.3125 -1.105473,0.78812 -2.11965,1.70175 -2.78125,2.875 -0.987899,1.75187 -1.3125,3.75145 -1.3125,5.9375 0,1.88482 0.29583,3.64236 1.09375,5.21875 0.759302,1.50007 1.97169,2.80166 3.46875,3.65625 1.46885,0.83845 3.166391,1.28122 4.875,1.28125 2.068976,-2e-5 4.028268,-0.7603 5.65625,-1.96875 a 3.0003,3.0003 0 0 0 3.46875,1.4375 c 1.312295,-0.38926 2.565781,-0.99205 3.59375,-1.875 1.061653,-0.91198 1.81641,-2.06929 2.3125,-3.3125 0.54729,-1.37169 0.749978,-2.8904 0.75,-4.625 -2.4e-5,-3.12886 -1.13015,-6.0901 -3.34375,-8.09375 -0.293594,-0.26574 -0.648423,-0.43274 -0.96875,-0.65625 0.401998,-0.24341 0.891968,-0.34873 1.25,-0.65625 1.061653,-0.91198 1.81641,-2.06929 2.3125,-3.3125 0.54729,-1.37169 0.749978,-2.8904 0.75,-4.625 -2.4e-5,-3.12886 -1.13015,-6.0901 -3.34375,-8.09375 -0.371954,-0.33667 -0.804206,-0.5743 -1.21875,-0.84375 0.756036,-0.45016 1.456684,-0.97323 2.03125,-1.5625 0.813915,-0.83483 1.439816,-1.86741 1.875,-3 0.485359,-1.26336 0.656227,-2.61789 0.65625,-4.125 -2.3e-5,-3.15145 -0.961842,-6.0818 -3.125,-8.03125 -2.331679,-2.10128 -5.514143,-2.6875 -9.40625,-2.6875 z M 29.59375,862.125 a 3.0003,3.0003 0 0 0 -2.6875,3 l 0,3.96875 a 3.0003,3.0003 0 0 0 0.9375,2.1875 3.0003,3.0003 0 0 0 -0.9375,2.1875 l 0,3.96875 a 3.0003,3.0003 0 0 0 1.28125,2.46875 c -0.94478,1.42196 -1.5,3.10566 -1.5,4.875 0,2.21725 0.689496,4.43096 2.21875,6.03125 -0.07931,0.0837 -0.206875,0.1333 -0.28125,0.21875 -0.685941,0.7881 -1.230193,1.76854 -1.53125,2.84375 -0.291898,1.0425 -0.40625,2.12699 -0.40625,3.3125 0,1.31872 0.186792,2.55893 0.6875,3.71875 0.330758,0.76613 0.895687,1.34546 1.4375,1.9375 a 3.0003,3.0003 0 0 0 -1.90625,2.78125 l 0,3.59375 a 3.0003,3.0003 0 0 0 0.75,1.96875 3.0003,3.0003 0 0 0 -0.75,2 l 0,5.34375 c 0,1.12884 0.239886,2.18703 0.625,3.21875 a 3.0003,3.0003 0 0 0 -0.625,1.8125 l 0,3.59375 a 3.0003,3.0003 0 0 0 0.21875,1.125 3.0003,3.0003 0 0 0 0,0.0312 3.0003,3.0003 0 0 0 -0.21875,1.09375 l 0,14.75 a 3.0003,3.0003 0 0 0 1.125,2.34375 c -0.167359,0.25135 -0.36785,0.48125 -0.5,0.75 -0.639249,1.29998 -0.84375,2.687 -0.84375,4.21875 0,1.72972 0.207244,3.26308 0.96875,4.6875 0.05043,0.0943 0.133216,0.15916 0.1875,0.25 a 3.0003,3.0003 0 0 0 -0.9375,2.15625 l 0,5.3125 c 0,1.6605 0.140425,3.12484 1.09375,4.59375 -0.910236,1.21797 -1.3125,2.68358 -1.3125,4.125 0,0.96884 0.223814,1.85413 0.5,2.71875 a 3.0003,3.0003 0 0 0 -0.28125,1.28125 l 0,3.34375 a 3.0003,3.0003 0 0 0 4.3125,2.6875 c 0.157348,-0.0763 0.258855,-0.0818 0.3125,-0.0937 -0.03883,0.009 0.108886,-0.0313 0.375,-0.0312 l 4.125,0 c 0.777188,-2e-5 1.613131,-0.14912 2.40625,-0.4375 0.928512,-0.33766 1.726896,-0.88796 2.34375,-1.59375 0.0064,-0.007 -0.0064,-0.0239 0,-0.0312 0.758189,-0.8724 1.238524,-1.95396 1.4375,-3.03125 0.167471,-0.90688 0.249989,-1.89582 0.25,-3.09375 -1.3e-5,-0.83753 -0.0572,-1.6238 -0.1875,-2.375 -0.145666,-0.83964 -0.400565,-1.59353 -0.78125,-2.28125 -0.16917,-0.30685 -0.539908,-0.59282 -0.78125,-0.90625 0.09706,-0.10707 0.260533,-0.16683 0.34375,-0.28125 0.913061,-1.25551 1.187487,-2.67884 1.1875,-4.15625 l 0,-5.75 a 3.0003,3.0003 0 0 0 -1.03125,-2.28125 c 0.08166,-0.13298 0.209201,-0.23717 0.28125,-0.375 0.711465,-1.36112 0.968738,-2.86492 0.96875,-4.53125 -1.1e-5,-1.74296 -0.584752,-3.37044 -1.5,-4.78125 a 3.0003,3.0003 0 0 0 1.28125,-2.4375 l 0,-3.59375 a 3.0003,3.0003 0 0 0 -0.1875,-1 3.0003,3.0003 0 0 0 0.1875,-1 l 0,-3.59375 a 3.0003,3.0003 0 0 0 -0.1875,-1 3.0003,3.0003 0 0 0 0.1875,-1 l 0,-3.5625 a 3.0003,3.0003 0 0 0 -0.21875,-1.125 3.0003,3.0003 0 0 0 0.21875,-1.125 l 0,-3.59375 a 3.0003,3.0003 0 0 0 -3,-3 l -0.5625,0 c 0.04898,-0.25333 0.06578,-0.5222 0.09375,-0.78125 l 0.46875,0 a 3.0003,3.0003 0 0 0 3,-3 l 0,-3.59375 a 3.0003,3.0003 0 0 0 -0.0625,-0.65625 3.0003,3.0003 0 0 0 0.0625,-0.71875 l 0,-8.78125 a 3.0003,3.0003 0 0 0 -0.71875,-1.9375 c 0.605116,-1.28048 0.93749,-2.6631 0.9375,-4.1875 -1.3e-5,-1.36582 -0.175405,-2.6447 -0.65625,-3.8125 -0.350982,-0.84912 -0.841325,-1.52829 -1.375,-2.125 -0.07316,-0.0818 -0.203114,-0.13777 -0.28125,-0.21875 1.501189,-1.59401 2.312488,-3.7375 2.3125,-5.96875 -1e-5,-1.56245 -0.513081,-3.01954 -1.25,-4.34375 l 1.59375,0 a 3.0003,3.0003 0 0 0 3,-3 l 0,-12.3125 a 3.0003,3.0003 0 0 0 -3,-3 l -12.90625,0 a 3.0003,3.0003 0 0 0 -0.3125,0 z m 4.96875,21.59375 c 0.01042,0.0104 0.07292,0.0521 0.09375,0.0625 0.06359,0.0536 0.124521,0.27788 0.21875,0.46875 0.112132,0.22714 0.250001,0.41867 0.25,0.5625 0,0.007 3.43e-4,0.0243 0,0.0312 -0.0064,0.13098 -0.161184,0.27801 -0.25,0.46875 -0.09133,0.19615 -0.11812,0.41491 -0.21875,0.5 -0.03047,0.0258 -0.03524,0.0107 -0.0625,0.0312 -0.01704,0.0129 -0.01556,0.0202 -0.03125,0.0312 -0.04157,-0.0295 -0.04243,-0.019 -0.09375,-0.0625 -0.237156,-0.20081 -0.468747,-0.75244 -0.46875,-0.96875 3e-6,-0.17722 0.161346,-0.35832 0.28125,-0.59375 0.09212,-0.18087 0.138703,-0.42754 0.1875,-0.46875 0.05148,-0.0435 0.0519,-0.0334 0.09375,-0.0625 z m 20.71875,2.75 a 3.0003,3.0003 0 0 0 -0.65625,0.125 c -1.484682,0.43348 -2.832588,1.09596 -3.96875,2.03125 -1.17661,0.96859 -2.043535,2.24161 -2.59375,3.59375 -0.626512,1.53961 -0.8125,3.20204 -0.8125,5.125 0,2.01498 0.249794,3.85661 1.09375,5.53125 0.779742,1.54718 1.990454,2.85797 3.5,3.71875 1.393707,0.79469 2.999015,1.24997 4.59375,1.25 0.277146,-10e-6 0.539132,-0.0675 0.8125,-0.0937 a 3.0003,3.0003 0 0 0 0.125,1.15625 c 0.178,0.58369 0.400954,1.0382 0.59375,1.5625 l -7.40625,0 a 3.0003,3.0003 0 0 0 -3,3 l 0,5.21875 a 3.0003,3.0003 0 0 0 3,3 l 13,0 a 3.0003,3.0003 0 0 0 -1.78125,2.71875 l 0,3.5625 c -0.809543,-0.45405 -1.636575,-0.91051 -2.4375,-1.25 -2.368601,-1.00397 -5.133881,-1.7229 -8.375,-2.15625 a 3.0003,3.0003 0 0 0 -3.40625,2.96875 l 0,5.15625 a 3.0003,3.0003 0 0 0 2.78125,3 c 2.003389,0.15529 3.660208,0.46384 5,0.875 1.833835,0.5509 3.435393,1.26002 4.84375,2.15625 1.112541,0.70984 2.217678,1.63833 3.25,2.78125 a 3.0003,3.0003 0 0 0 2.21875,1 l 3.46875,0 a 3.0003,3.0003 0 0 0 3,-3 l 0,-15.09375 a 3.0003,3.0003 0 0 0 -1.96875,-2.8125 3.0003,3.0003 0 0 0 2.3125,-2.90625 l 0,-4.28125 A 3.0003,3.0003 0 0 0 70.75,911.6875 c -0.78581,-0.37013 -1.389218,-0.8362 -1.90625,-1.46875 -0.472193,-0.57767 -1.04787,-1.59307 -1.53125,-3.09375 a 3.0003,3.0003 0 0 0 -0.34375,-0.78125 c 1.31604,-0.44789 2.558049,-1.10423 3.4375,-2.15625 1.592366,-1.90494 2.062478,-4.37368 2.0625,-7.1875 -2.3e-5,-2.5122 -0.480305,-4.80066 -1.8125,-6.65625 -1.260026,-1.75501 -3.180105,-2.95187 -5.28125,-3.5 a 3.0003,3.0003 0 0 0 -3.71875,2.375 l -0.625,3.4375 -2.125,-0.15625 -0.46875,-3.4375 a 3.0003,3.0003 0 0 0 -3.15625,-2.59375 z m -22.375,29.46875 c 0.442245,2e-5 1.20272,0.37311 1.65625,0.84375 l -0.8125,0 -0.84375,0 -0.78125,0 -0.875,0 c 0.01047,-0.013 -0.01096,-0.0182 0,-0.0312 0.490161,-0.58292 1.336809,-0.81249 1.65625,-0.8125 z m 20.8125,30.875 a 3.0003,3.0003 0 0 0 -2.6875,3 l 0,6.40625 -0.46875,0 a 3.0003,3.0003 0 0 0 -3,3 l 0,4.5 a 3.0003,3.0003 0 0 0 3,3 l 0.53125,0 a 3.0003,3.0003 0 0 0 0.0625,0.1875 c -1.1586,0.83189 -2.16941,1.88453 -2.84375,3.1875 -0.821451,1.5872 -1.0625,3.31108 -1.0625,5.15625 0,3.34862 1.050502,6.51065 3.5625,8.34375 2.389405,1.7436 5.472388,2.28123 9.1875,2.28125 1.750021,-2e-5 3.420114,-0.22223 5.03125,-0.625 0.887104,-0.21664 1.744727,-0.4834 2.59375,-0.9375 0.898026,-0.48038 1.65805,-1.11006 2.3125,-1.78125 0.770915,-0.79073 1.430469,-1.81183 1.875,-2.96875 0.494704,-1.28768 0.656227,-2.64914 0.65625,-4.15625 -2.3e-5,-3.15145 -0.961842,-6.0818 -3.125,-8.03125 -0.294701,-0.26558 -0.646919,-0.43747 -0.96875,-0.65625 l 1.09375,0 a 3.0003,3.0003 0 0 0 3,-3 l 0,-4.5 a 3.0003,3.0003 0 0 0 -1.0625,-2.28125 l -11.1875,-9.40625 a 3.0003,3.0003 0 0 0 -1.9375,-0.71875 l -4.25,0 a 3.0003,3.0003 0 0 0 -0.3125,0 z m -18.625,3.4375 0.0625,0.71875 0.0625,0.53125 0,0.0937 A 3.0003,3.0003 0 0 0 35.15625,951.5 3.0003,3.0003 0 0 0 34.625,950.90625 c 0.06436,-0.12868 0.02948,-0.18448 0.15625,-0.3125 0.530269,-0.53544 0.698174,-0.38298 0.3125,-0.34375 z m -0.5,0.71875 c 0.05665,0.21156 0.09152,0.0611 -0.0625,0.1875 0.01682,-0.0579 0.03207,-0.11784 0.0625,-0.1875 z m 0.09375,0.125 c 0.125848,0.27641 0.03383,0.33244 0.125,0.46875 0,0.0595 -0.14441,0.26435 -0.21875,0.4375 -0.103558,-0.20903 -0.249998,-0.37472 -0.25,-0.5 0,-0.0228 0.135268,-0.196 0.15625,-0.28125 l 0.1875,-0.125 z M 36.5,960.9375 c 0.293822,10e-6 1.102458,0.19351 1.625,0.78125 0.174181,0.19591 0.105118,0.25907 0.1875,0.4375 l -1.15625,0 -0.65625,0 -0.8125,0 -0.5625,0 -0.59375,0 -0.0625,0 -0.3125,0 -0.40625,0 -0.84375,0 -0.78125,0 -0.875,0 c 0.01034,-0.0128 -0.01082,-0.0183 0,-0.0312 0.483948,-0.57805 1.326391,-0.81249 1.65625,-0.8125 0.444335,2e-5 1.111641,0.38373 1.5625,0.8125 0.04597,-0.0834 -0.0048,-0.0606 0.0625,-0.15625 0.438805,-0.62434 1.495157,-1.03124 1.96875,-1.03125 z m -0.1875,24.125 a 3.0003,3.0003 0 0 0 -2.59375,3.75 l -3.8125,0 a 3.0003,3.0003 0 0 0 -3,3 l 0,3.625 a 3.0003,3.0003 0 0 0 3,3 l 4.21875,0 a 3.0003,3.0003 0 0 0 -0.40625,2.4063 l -3.8125,0 a 3.0003,3.0003 0 0 0 -3,3 l 0,3.625 a 3.0003,3.0003 0 0 0 3,3 l 7.03125,0 a 3.0003,3.0003 0 0 0 -0.15625,0.9687 l 0,1 c -0.135775,-0.062 -0.269892,-0.1922 -0.40625,-0.25 -1.784357,-0.7563 -3.783851,-1.2266 -6.0625,-1.5313 a 3.0003,3.0003 0 0 0 -3.40625,2.9688 l 0,3.5625 a 3.0003,3.0003 0 0 0 2.78125,3 c 0.754753,0.058 1.243384,0.1993 1.84375,0.3125 -1.223344,0.2055 -2.479835,0.7243 -3.3125,1.6562 -1.174812,1.3152 -1.53125,2.9721 -1.53125,4.5626 0,0.9667 0.228668,1.8412 0.5,2.6874 a 3.0003,3.0003 0 0 0 -0.28125,1.2813 l 0,3.375 a 3.0003,3.0003 0 0 0 4.3125,2.6875 c 0.274968,-0.1333 0.49129,-0.165 0.3125,-0.125 -0.03887,0.01 0.109297,-0.031 0.375,-0.031 l 4.125,0 c 0.776676,-2e-4 1.613244,-0.1493 2.40625,-0.4376 0.822111,-0.2989 1.661611,-0.7833 2.34375,-1.5624 0.0064,-0.01 -0.0064,-0.024 0,-0.031 0.758161,-0.8724 1.238525,-1.9539 1.4375,-3.0313 0.170589,-0.9237 0.249989,-1.927 0.25,-3.125 -1.3e-5,-0.8374 -0.06033,-1.6105 -0.1875,-2.3437 -0.07329,-0.4224 -0.278888,-0.7958 -0.40625,-1.1875 l 0.9375,0 a 3.0003,3.0003 0 0 0 3,-3 l 0,-10.4375 a 3.0003,3.0003 0 0 0 -0.65625,-1.8437 3.0003,3.0003 0 0 0 0.875,-2.125 l 0,-2.9688 a 3.0003,3.0003 0 0 0 -1.71875,-2.7188 c -0.485233,-0.2285 -0.804851,-0.473 -1.03125,-0.75 -0.196451,-0.2403 -0.55377,-0.8465 -0.875,-1.8437 a 3.0003,3.0003 0 0 0 -0.34375,-0.75 l 0.96875,0 a 3.0003,3.0003 0 0 0 3,-3 l 0,-2.96875 A 3.0003,3.0003 0 0 0 44.3125,989.75 c -0.485114,-0.22849 -0.804838,-0.473 -1.03125,-0.75 -0.19653,-0.24043 -0.553775,-0.84649 -0.875,-1.84375 A 3.0003,3.0003 0 0 0 39.5625,985.0625 l -2.9375,0 a 3.0003,3.0003 0 0 0 -0.3125,0 z M 63,990.53125 c -2.06435,0 -4.025195,0.75837 -5.65625,1.96875 a 3.0003,3.0003 0 0 0 -3.5,-1.4375 c -1.268246,0.39023 -2.513694,0.9741 -3.5625,1.875 -1.067329,0.91679 -1.817573,2.07823 -2.3125,3.3125 -0.575425,1.43501 -0.71875,2.93261 -0.71875,4.625 0,3.1039 1.100426,6.0602 3.3125,8.0625 0.452126,0.4092 0.952244,0.7181 1.46875,1.0313 -1.424398,0.8671 -2.680811,1.9465 -3.46875,3.3437 -0.987877,1.7519 -1.3125,3.7514 -1.3125,5.9375 0,1.8848 0.306898,3.633 1.09375,5.1875 0.748236,1.4781 1.931338,2.8099 3.46875,3.6875 1.509165,0.8615 3.217273,1.25 4.875,1.25 2.069056,0 4.028297,-0.7603 5.65625,-1.9688 a 3.0003,3.0003 0 0 0 3.46875,1.4688 c 1.367338,-0.4057 2.607097,-1.0588 3.59375,-1.9062 1.020396,-0.8765 1.80713,-2.0149 2.3125,-3.2813 0.547327,-1.3717 0.749978,-2.8904 0.75,-4.625 -2.4e-5,-3.1288 -1.13018,-6.0901 -3.34375,-8.0937 -0.445694,-0.4035 -0.929202,-0.7213 -1.4375,-1.0313 1.39547,-0.849 2.615632,-1.9198 3.40625,-3.3125 0.978593,-1.7238 1.374977,-3.7225 1.375,-5.9375 -2.3e-5,-1.8848 -0.290835,-3.63898 -1.09375,-5.21875 -0.781511,-1.53756 -2.032618,-2.8125 -3.5,-3.65625 -1.471673,-0.8462 -3.168067,-1.28125 -4.875,-1.28125 z" />
    <text
       xml:space="preserve"
       style="font-size:25.96609497px;font-style:normal;font-variant:normal;font-weight:900;font-stretch:normal;text-align:start;line-height:100%;letter-spacing:0px;word-spacing:0px;writing-mode:lr-tb;text-anchor:start;fill:#864642;fill-opacity:1;stroke:none;font-family:Arial Black;-inkscape-font-specification:'Arial Black, Heavy'"
       x="829.86206"
       y="-50.5532"
       id="text4398"
       sodipodi:linespacing="100%"
       inkscape:export-xdpi="300"
       inkscape:export-ydpi="300"
       transform="matrix(0,1,-1,0,0,0)"><tspan
         sodipodi:role="line"
         id="tspan4400"
         x="829.86206"
         y="-50.5532">066 317 40 96</tspan><tspan
         sodipodi:role="line"
         x="829.86206"
         y="-29.912346"
         id="tspan4402"
         style="font-size:18px;font-style:normal;font-variant:normal;font-weight:900;font-stretch:normal;text-align:start;line-height:100%;writing-mode:lr-tb;text-anchor:start;fill:#864642;fill-opacity:1;font-family:Arial Black;-inkscape-font-specification:'Arial Black, Heavy'">ул. Постышева 117а</tspan></text>
  </g>
</svg>
