<?xml version="1.0" encoding="UTF-8" standalone="no"?>
<!-- Created with Inkscape (http://www.inkscape.org/) -->

<svg
   xmlns:dc="http://purl.org/dc/elements/1.1/"
   xmlns:cc="http://creativecommons.org/ns#"
   xmlns:rdf="http://www.w3.org/1999/02/22-rdf-syntax-ns#"
   xmlns:svg="http://www.w3.org/2000/svg"
   xmlns="http://www.w3.org/2000/svg"
   xmlns:xlink="http://www.w3.org/1999/xlink"
   xmlns:sodipodi="http://sodipodi.sourceforge.net/DTD/sodipodi-0.dtd"
   xmlns:inkscape="http://www.inkscape.org/namespaces/inkscape"
   width="751.18109"
   height="357.87399"
   id="svg2"
   version="1.1"
   inkscape:version="0.48.3.1 r9886"
   sodipodi:docname="Макет D.svg"
   inkscape:export-filename="D:\GraphWork\WorkingProjects\My\Макет СПД Пенсионеров\Макет D.png"
   inkscape:export-xdpi="300"
   inkscape:export-ydpi="300">
  <defs
     id="defs4">
    <linearGradient
       gradientTransform="translate(1.5375621,694.31905)"
       inkscape:collect="always"
       xlink:href="#linearGradient3780-7"
       id="linearGradient3786-1"
       x1="184.4035"
       y1="250.00159"
       x2="184.4035"
       y2="358.60287"
       gradientUnits="userSpaceOnUse" />
    <linearGradient
       inkscape:collect="always"
       id="linearGradient3780-7">
      <stop
         style="stop-color:#ff0000;stop-opacity:1"
         offset="0"
         id="stop3782-4" />
      <stop
         style="stop-color:#ffff00;stop-opacity:1"
         offset="1"
         id="stop3784-0" />
    </linearGradient>
  </defs>
  <sodipodi:namedview
     id="base"
     pagecolor="#ffffff"
     bordercolor="#666666"
     borderopacity="1.0"
     inkscape:pageopacity="0.0"
     inkscape:pageshadow="2"
     inkscape:zoom="1.3719913"
     inkscape:cx="282.65211"
     inkscape:cy="116.78709"
     inkscape:document-units="px"
     inkscape:current-layer="layer1"
     showgrid="false"
     units="mm"
     showguides="true"
     inkscape:guide-bbox="true"
     inkscape:window-width="1366"
     inkscape:window-height="723"
     inkscape:window-x="-4"
     inkscape:window-y="-4"
     inkscape:window-maximized="1"
     inkscape:snap-global="false"
     inkscape:showpageshadow="false">
    <sodipodi:guide
       orientation="0,1"
       position="-126.0941,342.56777"
       id="guide3871" />
    <sodipodi:guide
       orientation="0,1"
       position="-115.16108,15.30622"
       id="guide3873" />
    <sodipodi:guide
       orientation="1,0"
       position="14.577352,361.51833"
       id="guide3875" />
    <sodipodi:guide
       orientation="1,0"
       position="360.0606,365.16267"
       id="guide3877" />
    <sodipodi:guide
       orientation="1,0"
       position="391.4019,342.56777"
       id="guide3775" />
    <sodipodi:guide
       orientation="1,0"
       position="737.61401,342.56777"
       id="guide3777" />
    <sodipodi:guide
       orientation="1,0"
       position="376.09568,245.62838"
       id="guide3434" />
    <sodipodi:guide
       orientation="0,1"
       position="134.11164,108.60127"
       id="guide4373" />
    <sodipodi:guide
       orientation="0,1"
       position="612.24878,178.57256"
       id="guide4379" />
    <sodipodi:guide
       orientation="1,0"
       position="561.22805,162.53747"
       id="guide4381" />
    <sodipodi:guide
       orientation="0,1"
       position="619.53746,88.192979"
       id="guide4385" />
    <sodipodi:guide
       orientation="1,0"
       position="651.60763,161.07974"
       id="guide4389" />
    <sodipodi:guide
       orientation="1,0"
       position="3.5433071,205.54066"
       id="guide3013" />
    <sodipodi:guide
       orientation="0,1"
       position="104.95693,3.5433071"
       id="guide3015" />
    <sodipodi:guide
       orientation="1,0"
       position="747.6378,94.752787"
       id="guide3017" />
    <sodipodi:guide
       orientation="0,1"
       position="427.11641,354.33071"
       id="guide3019" />
    <sodipodi:guide
       orientation="1,0"
       position="0,273.32535"
       id="guide3250" />
    <sodipodi:guide
       orientation="0,1"
       position="104.22807,357.87399"
       id="guide3252" />
    <sodipodi:guide
       orientation="0,1"
       position="147.23125,0"
       id="guide3254" />
    <sodipodi:guide
       orientation="1,0"
       position="751.46249,-16.763955"
       id="guide3256" />
  </sodipodi:namedview>
  <metadata
     id="metadata7">
    <rdf:RDF>
      <cc:Work
         rdf:about="">
        <dc:format>image/svg+xml</dc:format>
        <dc:type
           rdf:resource="http://purl.org/dc/dcmitype/StillImage" />
        <dc:title></dc:title>
      </cc:Work>
    </rdf:RDF>
  </metadata>
  <g
     inkscape:label="Layer 1"
     inkscape:groupmode="layer"
     id="layer1"
     transform="translate(0,-694.48818)">
    <rect
       y="694.41632"
       x="0.77144223"
       height="357.96689"
       width="750.92065"
       id="rect3863"
       style="fill:#ffffff;fill-opacity:1;stroke:none" />
    <rect
       y="694.69049"
       x="-0.24203563"
       height="357.96689"
       width="750.92065"
       id="rect3863-9"
       style="fill:#ffffff;fill-opacity:1;stroke:none" />
    <rect
       style="fill:url(#linearGradient3786-1);fill-opacity:1;stroke:none"
       id="rect3778"
       width="376.82455"
       height="108.60127"
       x="0.80869085"
       y="943.59174"
       inkscape:export-filename="D:\GraphWork\WorkingProjects\My\Макет СПД Пенсионеров\Макет.png"
       inkscape:export-xdpi="300"
       inkscape:export-ydpi="300" />
    <g
       id="g3911"
       transform="matrix(0.79870502,0,0,0.79870502,-75.033281,191.02671)">
      <path
         inkscape:connector-curvature="0"
         id="path3820"
         d="m 125.58426,947.65138 -12.88416,9.96676 0.0639,32.78863 13.07593,0.31382 0.0814,-10.79781 5.2885,-4.09713 19.42211,14.86007 L 150.39367,976 l -9.17059,-8.01991 23.07757,-19.05599 -18.39929,0 -20.12531,15.37149 -0.19178,-16.64421 z m 53.0999,13.63965 -9.03111,0.029 -8.92069,7.31671 -0.31963,21.70024 9.65876,0.0814 0.20921,-22.18259 4.6899,-0.0581 c 2.41506,0.45798 3.31428,1.99646 3.69613,3.72519 -0.40962,1.86219 -1.04456,3.54927 -3.71938,3.64964 l -3.14984,0.0174 -0.11623,7.04938 5.25362,-0.0174 c 8.2685,-1.14995 10.04181,-6.82411 10.29801,-9.82148 -0.0661,-2.73656 1.21882,-6.87466 -8.54875,-11.48938 z m 45.97498,0.0465 -23.58317,0.13948 -9.00786,6.69487 -0.11623,22.34531 23.04269,0 0.0639,-7.62471 -13.39556,0.0174 -0.064,-4.3877 13.36651,-0.0639 0.0116,-6.47405 -13.3607,0.0639 -0.0174,-3.98671 13.90698,0.20922 9.15315,-6.93315 z m 142.92864,0.0407 -9.54833,0.0988 0.0116,29.16804 9.45536,0.17435 0.0813,-29.44119 z m -58.6499,0.0349 -8.91488,6.84016 8.94394,0.0174 -0.093,22.37437 8.81608,0.0232 0.0291,-22.35113 3.28932,0 7.35158,-6.82854 -19.42212,-0.0756 z m 28.67406,0 -9.45535,7.9211 0.0581,21.20626 13.45949,0.029 c 6.5374,-1.34075 11.49068,-3.06429 13.38393,-10.391 0.1528,-6.33397 -3.27167,-10.19128 -9.76336,-11.92525 l -6.21832,-0.12786 0,6.63096 2.96386,0 c 3.25245,0.18589 4.49181,1.85297 4.55044,4.30633 -0.14575,2.25097 -2.13676,3.3304 -5.0909,3.28352 l -3.79492,0 -0.093,-20.93311 z m -63.735,0.0349 -9.72268,6.54959 c 0,0 -0.0116,21.60963 -0.0116,22.694 l 23.49019,-17.73677 0.0465,17.70191 8.57781,0.0232 0.0407,-29.20291 -6.47984,-0.0116 -16.04563,11.6986 0.10461,-11.71604 z m -24.27474,0.093 -25.2162,18.9107 12.47153,-0.0465 12.74467,-9.57158 0,11.73928 -28.33118,-0.22665 0.006,8.20006 37.54245,0.0639 0,-29.06925 -9.21708,0 z"
         style="fill:#ffffff;stroke:#000000;stroke-width:1.29999995;stroke-linecap:butt;stroke-linejoin:miter;stroke-miterlimit:4;stroke-opacity:1;stroke-dasharray:none" />
      <path
         inkscape:connector-curvature="0"
         style="fill:#a00000;fill-opacity:1;stroke:#000000;stroke-width:1.29999995;stroke-linecap:butt;stroke-linejoin:miter;stroke-miterlimit:4;stroke-opacity:1;stroke-dasharray:none"
         d="m 128.55976,945.04781 -12.88415,9.96677 0.0639,32.78863 13.07594,0.31382 0.0814,-10.79781 5.28848,-4.09713 19.42212,14.86008 -0.23827,-14.68574 -9.17059,-8.0199 23.07757,-19.05599 -18.39929,0 -20.12531,15.37148 -0.19178,-16.64421 z m 53.09991,13.63966 -9.03111,0.029 -8.92069,7.31671 -0.31964,21.70024 9.65875,0.0814 0.20922,-22.1826 4.6899,-0.0581 c 2.41506,0.45797 3.31428,1.99645 3.69613,3.72519 -0.40962,1.86219 -1.04456,3.54927 -3.71938,3.64963 l -3.14984,0.0175 -0.11623,7.04938 5.25361,-0.0174 c 8.26851,-1.14994 10.04182,-6.8241 10.29802,-9.82147 -0.0661,-2.73656 1.21882,-6.87466 -8.54874,-11.48939 z m 45.97497,0.0465 -23.58317,0.13947 -9.00787,6.69488 -0.11623,22.34531 23.0427,0 0.064,-7.62472 -13.39557,0.0174 -0.0639,-4.3877 13.36651,-0.0639 0.0116,-6.47404 -13.3607,0.0639 -0.0174,-3.98671 13.90697,0.20922 9.15315,-6.93315 z m 142.92864,0.0407 -9.54833,0.0988 0.0115,29.16804 9.45536,0.17434 0.0813,-29.44118 z m -58.6499,0.0349 -8.91488,6.84016 8.94394,0.0174 -0.093,22.37438 8.81609,0.0232 0.029,-22.35113 3.28933,0 7.35156,-6.82854 -19.4221,-0.0756 z m 28.67406,0 -9.45535,7.92111 0.0581,21.20625 13.45949,0.029 c 6.5374,-1.34076 11.49068,-3.0643 13.38394,-10.39101 0.15278,-6.33397 -3.27168,-10.19128 -9.76337,-11.92525 l -6.21833,-0.12785 0,6.63095 2.96388,0 c 3.25245,0.1859 4.4918,1.85297 4.55043,4.30634 -0.14574,2.25096 -2.13676,3.3304 -5.09089,3.28351 l -3.79493,0 -0.093,-20.93311 z m -63.73499,0.0349 -9.72269,6.54959 c 0,0 -0.0116,21.60964 -0.0116,22.694 l 23.49018,-17.73677 0.0465,17.70191 8.57781,0.0232 0.0407,-29.2029 -6.47985,-0.0116 -16.04562,11.6986 0.10461,-11.71604 z m -24.27475,0.093 -25.2162,18.9107 12.47153,-0.0465 12.74467,-9.57158 0,11.73928 -28.33118,-0.22665 0.006,8.20007 37.54245,0.0639 0,-29.06924 -9.21708,0 z"
         id="path3863" />
    </g>
    <g
       id="g3877"
       transform="matrix(0.39863138,0,0,0.39863138,15.144324,988.47368)"
       style="fill:#0000ff">
      <text
         id="text3879"
         style="font-size:22.49927329999999900px;font-style:normal;font-weight:normal;text-align:start;text-anchor:start;fill:#0000ff;font-family:Calibri"
         y="21.43869"
         x="0"
         xml:space="preserve">Кредит до 50000 грн. Для физ лиц. СПД. Пенсионеров, </text>
      <text
         id="text3881"
         style="font-size:22.49927329999999900px;font-style:normal;font-weight:normal;text-align:start;text-anchor:start;fill:#0000ff;font-family:Calibri"
         y="53.072002"
         x="0"
         xml:space="preserve">автокредитование,возраст от 19</text>
      <text
         id="text3883"
         style="font-size:22.49927329999999900px;font-style:normal;font-weight:normal;text-align:start;text-anchor:start;fill:#0000ff;font-family:Calibri"
         y="53.072002"
         x="310.03998"
         xml:space="preserve">-</text>
      <text
         id="text3885"
         style="font-size:22.49927329999999900px;font-style:normal;font-weight:normal;text-align:start;text-anchor:start;fill:#0000ff;font-family:Calibri"
         y="53.072002"
         x="316.93976"
         xml:space="preserve">65 лет. Официальное </text>
      <text
         id="text3887"
         style="font-size:22.49927329999999900px;font-style:normal;font-weight:normal;text-align:start;text-anchor:start;fill:#0000ff;font-family:Calibri"
         y="84.705315"
         x="0"
         xml:space="preserve">трудоустройство без первоночальных</text>
      <text
         id="text3889"
         style="font-size:22.49927329999999900px;font-style:normal;font-weight:normal;text-align:start;text-anchor:start;fill:#0000ff;font-family:Calibri"
         y="84.705315"
         x="364.48822"
         xml:space="preserve"> </text>
      <text
         id="text3891"
         style="font-size:22.49927329999999900px;font-style:normal;font-weight:normal;text-align:start;text-anchor:start;fill:#0000ff;font-family:Calibri"
         y="84.705315"
         x="369.58804"
         xml:space="preserve">взносов  срок </text>
      <text
         id="text3893"
         style="font-size:22.49927329999999900px;font-style:normal;font-weight:normal;text-align:start;text-anchor:start;fill:#0000ff;font-family:Calibri"
         y="116.18871"
         x="0"
         xml:space="preserve">кредитования до 4 лет льготный кредит.</text>
      <text
         id="text3895"
         style="font-size:13.79955387000000000px;font-style:normal;font-weight:normal;text-align:start;text-anchor:start;fill:#0000ff;font-family:Calibri"
         y="116.18871"
         x="389.9874"
         xml:space="preserve"> </text>
    </g>
    <text
       xml:space="preserve"
       style="font-size:26.99612617px;font-style:normal;font-variant:normal;font-weight:bold;font-stretch:normal;text-align:start;line-height:125%;letter-spacing:0px;word-spacing:0px;writing-mode:lr-tb;text-anchor:start;fill:#ffffff;fill-opacity:1;stroke:#000000;stroke-opacity:1;font-family:Agency FB;-inkscape-font-specification:Agency FB Bold"
       x="229.67192"
       y="970.13336"
       id="text3057"
       sodipodi:linespacing="125%"><tspan
         sodipodi:role="line"
         id="tspan3059"
         x="229.67192"
         y="970.13336">095-257-80-16</tspan><tspan
         sodipodi:role="line"
         x="229.67192"
         y="1003.8785"
         id="tspan3829">095-327-65-71</tspan></text>
    <text
       xml:space="preserve"
       style="font-size:12px;font-style:normal;font-variant:normal;font-weight:normal;font-stretch:normal;text-align:start;line-height:125%;letter-spacing:0px;word-spacing:0px;writing-mode:lr-tb;text-anchor:start;fill:#0000ff;fill-opacity:1;stroke:none;font-family:Sans;-inkscape-font-specification:Sans"
       x="229.59329"
       y="1034.292"
       id="text3831"
       sodipodi:linespacing="125%"><tspan
         sodipodi:role="line"
         id="tspan3833"
         x="229.59329"
         y="1034.292">Донецк, ул. Пушкина 20</tspan></text>
  </g>
</svg>
