<?xml version="1.0" encoding="UTF-8" standalone="no"?>
<!-- Created with Inkscape (http://www.inkscape.org/) -->

<svg
   xmlns:dc="http://purl.org/dc/elements/1.1/"
   xmlns:cc="http://creativecommons.org/ns#"
   xmlns:rdf="http://www.w3.org/1999/02/22-rdf-syntax-ns#"
   xmlns:svg="http://www.w3.org/2000/svg"
   xmlns="http://www.w3.org/2000/svg"
   xmlns:sodipodi="http://sodipodi.sourceforge.net/DTD/sodipodi-0.dtd"
   xmlns:inkscape="http://www.inkscape.org/namespaces/inkscape"
   width="325.98425"
   height="184.25197"
   id="svg3016"
   version="1.1"
   inkscape:version="0.48.3.1 r9886"
   sodipodi:docname="Визитка 1.svg"
   inkscape:export-filename="D:\GraphWork\WorkingProjects\My\Визитка СТО\1 сторона.png"
   inkscape:export-xdpi="300"
   inkscape:export-ydpi="300">
  <defs
     id="defs3018">
    <clipPath
       id="clipPath">
      <path
         style="fill:#575757;fill-opacity:1;stroke:#ffffff;stroke-width:2.23399997;stroke-linecap:round;stroke-linejoin:round;stroke-miterlimit:4;stroke-opacity:1;stroke-dasharray:none;stroke-dashoffset:2.27962611"
         d="m 519.18511,377.27036 c 0,0 2.52243,-2.49169 8.69916,-5.61668 6.17673,-3.12496 16.01871,-6.85669 29.70054,-8.97285 8.12012,9.34211 15.53792,19.29452 22.17017,29.74559 -11.87499,25.01332 -24.95392,32.62962 -24.95392,32.62962 l -10.93328,5.94032 c 8.95106,16.47463 15.53272,34.23423 19.47975,52.56331 l 12.16401,-2.61943 c 0,0 3.4691,-0.73241 10.35479,-0.0219 6.88569,0.71051 17.18281,2.89214 29.83677,8.50887 1.78035,12.24916 2.63993,24.63203 2.56907,37.00969 -11.75655,7.31122 -21.65348,10.89463 -28.37497,12.54969 -6.72149,1.65506 -10.25851,1.40899 -10.25851,1.40899 l -12.40925,-0.91366 c -1.37674,18.69865 -5.44149,37.19728 -12.03045,54.75069 l 11.64918,4.3726 c 0,0 14.00578,5.73626 29.22291,28.86885 -5.12469,11.26735 -11.09625,22.1492 -17.84772,32.52367 -13.84298,-0.20602 -24.10616,-2.54167 -30.65544,-4.78331 -6.54926,-2.24164 -9.39174,-4.36076 -9.39174,-4.36076 l -9.94536,-7.47756 c -11.26744,14.98602 -24.68802,28.3505 -39.7211,39.55499 l 7.43584,9.97647 c 0,0 2.10733,2.85136 4.32146,9.40992 2.21413,6.55879 4.50723,16.83156 4.6547,30.67522 -10.40263,6.70804 -21.30941,12.63386 -32.59796,17.71129 -23.06871,-15.31383 -28.74618,-29.34356 -28.74618,-29.34356 l -4.32389,-11.66738 c -17.5808,6.51545 -36.09633,10.50256 -54.80056,11.80086 l 0.86166,12.41315 c 0,0 0.23124,3.53801 -1.45196,10.25239 -1.68319,6.71462 -5.30806,16.5964 -12.66846,28.32225 -12.37785,0.0219 -24.75702,-0.89245 -36.99861,-2.72424 -5.56365,-12.67726 -7.70213,-22.98356 -8.38378,-29.87219 -0.68163,-6.88862 0.0653,-10.35453 0.0653,-10.35453 l 2.67036,-12.15294 c -18.31239,-4.02366 -36.04425,-10.67969 -52.48123,-19.69977 l -5.98608,10.90827 c 0,0 -7.67103,13.047 -32.7339,24.8169 -10.42316,-6.67582 -20.34442,-14.13537 -29.65242,-22.29451 2.17347,-13.67292 5.9464,-23.49904 9.09723,-29.66266 3.15083,-6.16362 5.65305,-8.67549 5.65305,-8.67549 l 8.81684,-8.7801 c -13.22994,-13.28535 -24.54845,-28.47143 -33.4995,-44.94598 l -10.93329,5.94031 c 0,0 -3.12223,1.68013 -9.92917,2.93836 -6.80695,1.25824 -17.3016,2.06587 -31.0254,0.24174 -5.15919,-11.25137 -9.47259,-22.89043 -12.89181,-34.78679 18.44105,-20.65449 33.13593,-24.27753 33.13593,-24.27753 l 12.16401,-2.61945 c -3.94706,-18.32909 -5.25863,-37.22358 -3.8819,-55.9222 l -12.40926,-0.91367 c 0,0 -3.53491,-0.27462 -9.9415,-2.89627 -6.40662,-2.62164 -15.67199,-7.61594 -26.23096,-16.57019 1.74275,-12.25455 4.40665,-24.37801 7.96182,-36.23431 13.34015,-3.70286 23.84577,-4.35286 30.76126,-4.0472 6.9155,0.30565 10.2399,1.53824 10.2399,1.53824 l 11.64921,4.37274 c 6.58896,-17.55334 15.70073,-34.15748 26.96814,-49.14347 l -9.94536,-7.47755 c 0,0 -2.82527,-2.14214 -6.79749,-7.81128 -3.97222,-5.66914 -9.06662,-14.87986 -13.10836,-28.12127 8.09141,-9.36698 16.88686,-18.12567 26.28767,-26.17776 13.22434,4.09719 22.41365,9.23013 28.06609,13.22607 5.65244,3.99593 7.78272,6.83017 7.78272,6.83017 l 7.43585,9.97662 c 15.03304,-11.20455 31.67522,-20.24665 49.256,-26.76203 l -4.32388,-11.66742 c 0,0 -1.21865,-3.32953 -1.49533,-10.24625 -0.27665,-6.91673 0.41734,-17.41951 4.17604,-30.74403 11.87112,-3.50546 24.00563,-6.11854 36.26737,-7.80994 8.90993,10.5964 13.86537,19.88262 16.46016,26.30014 2.59475,6.41756 2.85457,9.95357 2.85457,9.95357 l 0.86165,12.41299 c 18.70424,-1.29837 37.59308,0.0925 55.90546,4.11617 l 2.67037,-12.15293 c 0,0 3.68459,-14.67956 24.41619,-33.03391 11.88182,3.46901 23.50275,7.83115 34.73243,13.03748 1.76666,13.73131 0.91494,24.22248 -0.37179,31.0241 -1.28671,6.80162 -2.97988,9.91679 -2.97988,9.91679 l -5.98608,10.90829 c 16.43696,9.02002 31.57537,20.40206 44.8053,33.68752 l 8.81682,-8.77995"
         id="path2989"
         inkscape:connector-curvature="0"
         sodipodi:nodetypes="csccccccsccsccccccsccccsccccccsccsccccccsccccsccccccsccsccccsccsccccsccsccccccscccc" />
    </clipPath>
    <filter
       color-interpolation-filters="sRGB"
       id="filter"
       height="3"
       width="3.5999999"
       x="-0.5"
       y="-0.5">
      <feGaussianBlur
         stdDeviation="5.0"
         id="feGaussianBlur4945" />
    </filter>
    <filter
       color-interpolation-filters="sRGB"
       id="filter6149"
       height="3"
       width="3.5999999"
       x="-0.5"
       y="-0.5">
      <feGaussianBlur
         stdDeviation="5.0"
         id="feGaussianBlur6151" />
    </filter>
    <filter
       color-interpolation-filters="sRGB"
       id="filter6153"
       height="3"
       width="3.5999999"
       x="-0.5"
       y="-0.5">
      <feGaussianBlur
         stdDeviation="5.0"
         id="feGaussianBlur6155" />
    </filter>
    <filter
       color-interpolation-filters="sRGB"
       id="filter6157"
       height="3"
       width="3.5999999"
       x="-0.5"
       y="-0.5">
      <feGaussianBlur
         stdDeviation="5.0"
         id="feGaussianBlur6159" />
    </filter>
    <filter
       color-interpolation-filters="sRGB"
       id="filter6161"
       height="3"
       width="3.5999999"
       x="-0.5"
       y="-0.5">
      <feGaussianBlur
         stdDeviation="5.0"
         id="feGaussianBlur6163" />
    </filter>
    <filter
       color-interpolation-filters="sRGB"
       id="filter6165"
       height="3"
       width="3.5999999"
       x="-0.5"
       y="-0.5">
      <feGaussianBlur
         stdDeviation="5.0"
         id="feGaussianBlur6167" />
    </filter>
    <filter
       color-interpolation-filters="sRGB"
       id="filter6169"
       height="3"
       width="3.5999999"
       x="-0.5"
       y="-0.5">
      <feGaussianBlur
         stdDeviation="5.0"
         id="feGaussianBlur6171" />
    </filter>
    <filter
       color-interpolation-filters="sRGB"
       id="filter6173"
       height="3"
       width="3.5999999"
       x="-0.5"
       y="-0.5">
      <feGaussianBlur
         stdDeviation="5.0"
         id="feGaussianBlur6175" />
    </filter>
    <filter
       color-interpolation-filters="sRGB"
       id="filter6177"
       height="3"
       width="3.5999999"
       x="-0.5"
       y="-0.5">
      <feGaussianBlur
         stdDeviation="5.0"
         id="feGaussianBlur6179" />
    </filter>
    <filter
       color-interpolation-filters="sRGB"
       id="filter6181"
       height="3"
       width="3.5999999"
       x="-0.5"
       y="-0.5">
      <feGaussianBlur
         stdDeviation="5.0"
         id="feGaussianBlur6183" />
    </filter>
    <filter
       color-interpolation-filters="sRGB"
       id="filter6185"
       height="3"
       width="3.5999999"
       x="-0.5"
       y="-0.5">
      <feGaussianBlur
         stdDeviation="5.0"
         id="feGaussianBlur6187" />
    </filter>
    <filter
       color-interpolation-filters="sRGB"
       id="filter6189"
       height="3"
       width="3.5999999"
       x="-0.5"
       y="-0.5">
      <feGaussianBlur
         stdDeviation="5.0"
         id="feGaussianBlur6191" />
    </filter>
    <filter
       color-interpolation-filters="sRGB"
       id="filter6193"
       height="3"
       width="3.5999999"
       x="-0.5"
       y="-0.5">
      <feGaussianBlur
         stdDeviation="5.0"
         id="feGaussianBlur6195" />
    </filter>
    <filter
       color-interpolation-filters="sRGB"
       id="filter6197"
       height="3"
       width="3.5999999"
       x="-0.5"
       y="-0.5">
      <feGaussianBlur
         stdDeviation="5.0"
         id="feGaussianBlur6199" />
    </filter>
  </defs>
  <sodipodi:namedview
     id="base"
     pagecolor="#ffffff"
     bordercolor="#666666"
     borderopacity="1.0"
     inkscape:pageopacity="0.0"
     inkscape:pageshadow="2"
     inkscape:zoom="1.8843187"
     inkscape:cx="156.57737"
     inkscape:cy="106.94245"
     inkscape:document-units="px"
     inkscape:current-layer="layer1"
     showgrid="false"
     width="1052.36px"
     units="mm"
     showguides="true"
     inkscape:guide-bbox="true"
     inkscape:window-width="1366"
     inkscape:window-height="723"
     inkscape:window-x="-4"
     inkscape:window-y="-4"
     inkscape:window-maximized="1"
     inkscape:snap-global="false">
    <sodipodi:guide
       orientation="1,0"
       position="14.328786,184.15144"
       id="guide3026" />
    <sodipodi:guide
       orientation="0,1"
       position="0.53069579,170.35335"
       id="guide3055" />
    <sodipodi:guide
       orientation="0,1"
       position="-27.596181,13.798091"
       id="guide3057" />
    <sodipodi:guide
       orientation="1,0"
       position="312.04912,170.35335"
       id="guide3059" />
  </sodipodi:namedview>
  <metadata
     id="metadata3021">
    <rdf:RDF>
      <cc:Work
         rdf:about="">
        <dc:format>image/svg+xml</dc:format>
        <dc:type
           rdf:resource="http://purl.org/dc/dcmitype/StillImage" />
        <dc:title></dc:title>
      </cc:Work>
    </rdf:RDF>
  </metadata>
  <g
     inkscape:label="Layer 1"
     inkscape:groupmode="layer"
     id="layer1"
     transform="translate(0,-868.11019)">
    <rect
       style="fill:#efefef;fill-opacity:1;stroke:none"
       id="rect4084"
       width="326.9223"
       height="185.22653"
       x="0.11592878"
       y="868.20392" />
    <rect
       style="opacity:0.375;fill:#242178;fill-opacity:1;stroke:none;display:none"
       id="rect3028"
       width="425.82224"
       height="155.90552"
       x="-35.859974"
       y="882.28345" />
    <rect
       style="fill:#242178;fill-opacity:1;stroke:none;display:none"
       id="rect3028-1"
       width="297.63779"
       height="245.62006"
       x="14.173228"
       y="835.08856" />
    <path
       inkscape:connector-curvature="0"
       style="fill:#838383;fill-opacity:1;fill-rule:nonzero;stroke:none;stroke-width:0.41707118999999998px;stroke-linecap:butt;stroke-linejoin:miter;stroke-miterlimit:4;stroke-opacity:1;stroke-dasharray:none"
       d="m 192.43835,991.09757 0.73743,-0.0544 1.95842,0.32035 2.72003,1.13637 0,1.91007 -2.72003,1.13636 -1.95842,0.32641 -0.73743,-0.0605 -0.38685,2.93763 0.72534,0.13298 1.80731,0.81601 2.33923,1.80725 -0.49565,1.8436 -2.92555,0.3929 -1.97655,-0.1934 -0.69512,-0.2479 -1.13032,2.7382 0.66489,0.3143 1.53531,1.2573 1.78917,2.3513 -0.95503,1.6501 -2.92554,-0.3747 -1.86171,-0.7012 -0.60445,-0.4171 -1.80731,2.3514 0.56214,0.4775 1.16054,1.6139 1.11824,2.7321 -1.34793,1.3479 -2.73212,-1.1182 -1.61388,-1.1606 -0.47752,-0.5621 -2.35131,1.8073 0.41707,0.6044 0.70116,1.8618 0.37476,2.9255 -1.65015,0.955 -2.35131,-1.7891 -1.25726,-1.5353 -0.31431,-0.6649 -2.73817,1.1303 0.24783,0.6951 0.19342,1.9766 -0.39289,2.9255 -1.84358,0.4956 -1.80731,-2.3392 -0.81601,-1.8073 -0.13298,-0.7253 -2.93763,0.3868 0.0544,0.7375 -0.32036,1.9584 -1.13636,2.72 -1.91007,0 -1.13637,-2.72 -0.3264,-1.9584 0.0604,-0.7375 -2.93763,-0.3868 -0.13298,0.7253 -0.816,1.8073 -1.80731,2.3392 -1.84358,-0.4956 -0.39289,-2.9255 0.19342,-1.9766 0.24783,-0.6951 -2.73817,-1.1303 -0.31431,0.6649 -1.25726,1.5353 -2.35131,1.7891 -1.65015,-0.955 0.37476,-2.9255 0.70116,-1.8618 0.41707,-0.6044 -2.35132,-1.8073 -0.47751,0.5621 -1.61389,1.1606 -2.73211,1.1182 -1.34793,-1.3479 1.11823,-2.7321 1.16055,-1.6139 0.56214,-0.4775 -1.80731,-2.3514 -0.60445,0.4171 -1.86171,0.7012 -2.92554,0.3747 -0.95503,-1.6501 1.78917,-2.3513 1.53531,-1.2573 0.66489,-0.3143 -1.13032,-2.7382 -0.69512,0.2479 -1.97655,0.1934 -2.92555,-0.3929 -0.49565,-1.8436 2.33923,-1.80725 1.80731,-0.81601 0.72534,-0.13298 -0.38685,-2.93763 -0.73743,0.0605 -1.95842,-0.32641 -2.72003,-1.13636 0,-1.91007 2.72003,-1.13637 1.95842,-0.32035 0.73743,0.0544 0.38685,-2.93763 -0.72534,-0.13298 -1.80731,-0.816 -2.33923,-1.80731 0.49565,-1.84358 2.92555,-0.39289 1.97655,0.19342 0.69512,0.24783 1.13032,-2.73817 -0.66489,-0.31431 -1.53531,-1.25726 -1.78917,-2.35131 0.95503,-1.65015 2.92554,0.37476 1.86171,0.70116 0.60445,0.41707 1.80731,-2.35132 -0.56214,-0.47751 -1.16055,-1.61389 -1.11823,-2.73211 1.34793,-1.34793 2.73211,1.11823 1.61389,1.16055 0.47751,0.56214 2.35132,-1.80731 -0.41707,-0.60445 -0.70116,-1.86171 -0.37476,-2.92554 1.65015,-0.95503 2.35131,1.78917 1.25726,1.53531 0.31431,0.66489 2.73817,-1.13032 -0.24783,-0.69512 -0.19342,-1.97655 0.39289,-2.92555 1.84358,-0.49565 1.80731,2.33923 0.816,1.80731 0.13298,0.72534 2.93763,-0.38685 -0.0604,-0.73743 0.3264,-1.95842 1.13637,-2.72003 1.91007,0 1.13636,2.72003 0.32036,1.95842 -0.0544,0.73743 2.93763,0.38685 0.13298,-0.72534 0.81601,-1.80731 1.80731,-2.33923 1.84358,0.49565 0.39289,2.92555 -0.19342,1.97655 -0.24783,0.69512 2.73817,1.13032 0.31431,-0.66489 1.25726,-1.53531 2.35131,-1.78917 1.65015,0.95503 -0.37476,2.92554 -0.70116,1.86171 -0.41707,0.60445 2.35131,1.80731 0.47752,-0.56214 1.61388,-1.16055 2.73212,-1.11823 1.34793,1.34793 -1.11824,2.73211 -1.16054,1.61389 -0.56214,0.47751 1.80731,2.35132 0.60445,-0.41707 1.86171,-0.70116 2.92554,-0.37476 0.95503,1.65015 -1.78917,2.35131 -1.53531,1.25726 -0.66489,0.31431 1.13032,2.73817 0.69512,-0.24783 1.97655,-0.19342 2.92555,0.39289 0.49565,1.84358 -2.33923,1.80731 -1.80731,0.816 -0.72534,0.13298 z"
       id="path5008" />
    <path
       inkscape:connector-curvature="0"
       style="fill:#ffffff;fill-opacity:1;fill-rule:nonzero;stroke:#030303;stroke-width:0.98525512px;stroke-linecap:round;stroke-linejoin:round;stroke-opacity:1;stroke-dasharray:none"
       d="m 142.92172,999.45109 c -3.29426,-11.19443 3.11292,-22.93892 14.30736,-26.23318 11.19443,-3.28821 22.93891,3.11293 26.22713,14.30736 3.25799,11.0675 -2.96181,22.69713 -14.22878,26.11233 -11.27301,3.4151 -23.0175,-2.9921 -26.30571,-14.18651 z"
       id="path5010" />
    <path
       inkscape:connector-curvature="0"
       style="fill:#ffffff;fill-opacity:1;fill-rule:nonzero;stroke:#030303;stroke-width:0.82809794px;stroke-linecap:round;stroke-linejoin:round;stroke-opacity:1;stroke-dasharray:none"
       d="m 146.15553,998.49606 c -2.76838,-9.41131 2.61728,-19.28199 12.02254,-22.04433 9.4113,-2.76839 19.27594,2.61123 22.04432,12.02253 2.73817,9.29646 -2.49033,19.07044 -11.96208,21.94154 -9.4657,2.8712 -19.33639,-2.5145 -22.10478,-11.91974 z"
       id="path5012" />
    <rect
       style="fill:#b5b5b5;fill-opacity:1;stroke:#474747;stroke-width:0.64899868000000005;stroke-linecap:round;stroke-linejoin:round;stroke-miterlimit:4;stroke-opacity:1;stroke-dasharray:none;stroke-dashoffset:2.27962611000000010"
       id="rect3199"
       width="326.24631"
       height="43.566162"
       x="0.68683815"
       y="1009.3512" />
    <path
       style="fill:none;stroke:#aaaaaa;stroke-width:0.63908738px;stroke-linecap:butt;stroke-linejoin:miter;stroke-opacity:1"
       d="m 0.7261983,943.44674 133.7369117,0"
       id="path3974"
       inkscape:connector-curvature="0" />
    <path
       sodipodi:nodetypes="ccccc"
       inkscape:connector-curvature="0"
       id="path3982"
       d="m 325.51864,924.30093 c 0,0 -76.88164,0 -89.26479,0 l -11.85043,9.44964 101.11522,0 z"
       style="fill:#f2f2f2;fill-opacity:1;stroke:#000000;stroke-width:0.08321508;stroke-miterlimit:4;stroke-opacity:1;stroke-dasharray:none" />
    <path
       style="fill:#f2f2f2;fill-opacity:1;stroke:#000000;stroke-width:0.08321508;stroke-miterlimit:4;stroke-opacity:1;stroke-dasharray:none"
       d="m 325.11819,958.30093 c 0,0 -76.88164,0 -89.26479,0 l -11.85043,9.44964 101.11522,0 z"
       id="path4006"
       inkscape:connector-curvature="0"
       sodipodi:nodetypes="ccccc" />
    <text
       xml:space="preserve"
       style="font-size:18.64856148px;font-style:normal;font-variant:normal;font-weight:normal;font-stretch:normal;text-align:start;line-height:125%;letter-spacing:0px;word-spacing:0px;writing-mode:lr;text-anchor:start;fill:#e60000;fill-opacity:1;stroke:none;font-family:Arial Unicode MS;-inkscape-font-specification:Arial Unicode MS"
       x="14.047674"
       y="895.86841"
       id="text4042"
       sodipodi:linespacing="125%"><tspan
         sodipodi:role="line"
         id="tspan4044"
         x="14.047674"
         y="895.86841">Ремонт и продажа</tspan></text>
    <path
       inkscape:connector-curvature="0"
       id="path4046"
       d="m 0.8723993,901.44674 210.9260907,0"
       style="fill:none;stroke:#aaaaaa;stroke-width:0.8026011px;stroke-linecap:butt;stroke-linejoin:miter;stroke-opacity:1" />
    <text
       sodipodi:linespacing="125%"
       id="text4048"
       y="916.60083"
       x="14.106608"
       style="font-size:18.64856148px;font-style:normal;font-variant:normal;font-weight:normal;font-stretch:normal;text-align:start;line-height:125%;letter-spacing:0px;word-spacing:0px;writing-mode:lr-tb;text-anchor:start;fill:#e60000;fill-opacity:1;stroke:none;font-family:Arial Unicode MS;-inkscape-font-specification:Arial Unicode MS"
       xml:space="preserve"><tspan
         y="916.60083"
         x="14.106608"
         sodipodi:role="line"
         id="tspan4056"
         style="font-size:18.64856148px;font-style:normal;font-variant:normal;font-weight:normal;font-stretch:normal;text-align:start;line-height:125%;writing-mode:lr-tb;text-anchor:start;stroke:none;font-family:Arial Unicode MS;-inkscape-font-specification:Arial Unicode MS">стартеров</tspan><tspan
         y="939.91156"
         x="14.106608"
         sodipodi:role="line"
         style="font-size:18.64856148px;font-style:normal;font-variant:normal;font-weight:normal;font-stretch:normal;text-align:start;line-height:125%;writing-mode:lr-tb;text-anchor:start;stroke:none;font-family:Arial Unicode MS;-inkscape-font-specification:Arial Unicode MS"
         id="tspan4488">генераторов</tspan><tspan
         y="963.22223"
         x="14.106608"
         sodipodi:role="line"
         style="font-size:18.64856148px;font-style:normal;font-variant:normal;font-weight:normal;font-stretch:normal;text-align:start;line-height:125%;writing-mode:lr-tb;text-anchor:start;stroke:none;font-family:Arial Unicode MS;-inkscape-font-specification:Arial Unicode MS"
         id="tspan4490">рулевых реек</tspan><tspan
         y="986.53296"
         x="14.106608"
         sodipodi:role="line"
         style="font-size:18.64856148px;font-style:normal;font-variant:normal;font-weight:normal;font-stretch:normal;text-align:start;line-height:125%;writing-mode:lr-tb;text-anchor:start;stroke:none;font-family:Arial Unicode MS;-inkscape-font-specification:Arial Unicode MS"
         id="tspan4492">турбин</tspan></text>
    <text
       xml:space="preserve"
       style="font-size:9.383708px;font-style:normal;font-weight:normal;line-height:125%;letter-spacing:0px;word-spacing:0px;fill:#ffffff;fill-opacity:1;stroke:none;font-family:Sans"
       x="14.988741"
       y="1024.8756"
       id="text4062"
       sodipodi:linespacing="125%"><tspan
         sodipodi:role="line"
         id="tspan4064"
         x="14.988741"
         y="1024.8756">www.avtosklad.net.ua</tspan><tspan
         sodipodi:role="line"
         x="14.988741"
         y="1036.6052"
         id="tspan4066">e-mail: info@avtosklad.net.ua</tspan></text>
    <text
       sodipodi:linespacing="125%"
       id="text4068"
       y="1024.8756"
       x="311.99191"
       style="font-size:9.383708px;font-style:normal;font-weight:normal;line-height:125%;letter-spacing:0px;word-spacing:0px;fill:#ffffff;fill-opacity:1;stroke:none;font-family:Sans"
       xml:space="preserve"><tspan
         id="tspan4072"
         y="1024.8756"
         x="311.99191"
         sodipodi:role="line"
         style="font-size:9.383708px;font-style:normal;font-variant:normal;font-weight:normal;font-stretch:normal;text-align:end;line-height:125%;writing-mode:lr-tb;text-anchor:end;font-family:Sans;-inkscape-font-specification:Sans">(066) 441 88 55, (062) 213 09 07</tspan><tspan
         y="1036.6052"
         x="311.99191"
         sodipodi:role="line"
         style="font-size:9.383708px;font-style:normal;font-variant:normal;font-weight:normal;font-stretch:normal;text-align:end;line-height:125%;writing-mode:lr-tb;text-anchor:end;font-family:Sans;-inkscape-font-specification:Sans"
         id="tspan4076">г. Донецк, ул. Левобережная, 108 А</tspan></text>
    <path
       style="fill:#bc3434;fill-opacity:1;stroke:#000000;stroke-width:0.08321508000000000;stroke-miterlimit:4;stroke-opacity:1;stroke-dasharray:none"
       d="m 325.51864,939.13939 c 0,0 -99.28209,0 -111.66524,0 l -11.85043,9.44964 123.51567,0 z"
       id="path3984"
       inkscape:connector-curvature="0"
       sodipodi:nodetypes="ccccc" />
    <path
       style="fill:none;stroke:#ffffff;stroke-width:3.27070069;stroke-linecap:butt;stroke-linejoin:miter;stroke-miterlimit:4;stroke-opacity:1;stroke-dasharray:none"
       d="m 3.685637,998.5995 321.129413,0"
       id="path4086"
       inkscape:connector-curvature="0" />
    <path
       style="fill:#bc3434;stroke:none;stroke-width:1px;stroke-linecap:butt;stroke-linejoin:miter;stroke-opacity:1;fill-opacity:1"
       d="m 325.84721,113.13873 -112.5075,0 -11.94066,11.94066 13.5432,7.81917 111.43566,0 z"
       id="path4078"
       inkscape:connector-curvature="0"
       transform="translate(0,868.11019)"
       sodipodi:nodetypes="cccccc" />
    <path
       sodipodi:nodetypes="cccccc"
       inkscape:connector-curvature="0"
       id="path4080"
       d="m 325.67278,984.78485 -108.24216,0 -7.66721,7.66721 8.69622,5.02076 107.55392,0 z"
       style="fill:#bc3434;fill-opacity:1;stroke:#000000;stroke-width:0.64210975px;stroke-linecap:butt;stroke-linejoin:miter;stroke-opacity:1" />
    <path
       style="fill:none;stroke:#e60000;stroke-width:1.9;stroke-linecap:butt;stroke-linejoin:miter;stroke-opacity:1;stroke-miterlimit:4;stroke-dasharray:none"
       d="m 0.53069579,144.98048 326.90860421,0"
       id="path4082"
       inkscape:connector-curvature="0"
       transform="translate(0,868.11019)" />
    <path
       id="path5024"
       d="m 199.79948,928.80573 0.4681,-0.0345 1.24317,0.20336 1.72661,0.72134 0,1.21246 -1.72661,0.72134 -1.24317,0.2072 -0.4681,-0.0384 -0.24556,1.86474 0.46043,0.0844 1.14724,0.51799 1.48488,1.14724 -0.31462,1.17026 -1.85707,0.2494 -1.25467,-0.12279 -0.44125,-0.15731 -0.7175,1.73813 0.42206,0.19952 0.97457,0.79807 1.13573,1.49257 -0.60623,1.04747 -1.85707,-0.23788 -1.18177,-0.44509 -0.38369,-0.26474 -1.14724,1.49256 0.35683,0.30311 0.73669,1.02446 0.70983,1.73429 -0.85563,0.85563 -1.73429,-0.70983 -1.02446,-0.73669 -0.30311,-0.35683 -1.49256,1.14724 0.26474,0.38369 0.44509,1.18177 0.23788,1.85707 -1.04747,0.60623 -1.49257,-1.13573 -0.79807,-0.97457 -0.19952,-0.42206 -1.73813,0.7175 0.15731,0.44125 0.12279,1.25467 -0.2494,1.85707 -1.17026,0.31462 -1.14724,-1.48488 -0.51799,-1.14724 -0.0844,-0.46043 -1.86474,0.24556 0.0345,0.4681 -0.20336,1.24317 -0.72134,1.72661 -1.21246,0 -0.72134,-1.72661 -0.2072,-1.24317 0.0384,-0.4681 -1.86474,-0.24556 -0.0844,0.46043 -0.51799,1.14724 -1.14723,1.48488 -1.17027,-0.31462 -0.2494,-1.85707 0.12279,-1.25467 0.15731,-0.44125 -1.73812,-0.7175 -0.19952,0.42206 -0.79808,0.97457 -1.49256,1.13573 -1.04748,-0.60623 0.23789,-1.85707 0.44508,-1.18177 0.26475,-0.38369 -1.49257,-1.14724 -0.30311,0.35683 -1.02446,0.73669 -1.73429,0.70983 -0.85563,-0.85563 0.70983,-1.73429 0.73669,-1.02446 0.35683,-0.30311 -1.14724,-1.49256 -0.38369,0.26474 -1.18177,0.44509 -1.85707,0.23788 -0.60623,-1.04747 1.13573,-1.49257 0.97457,-0.79807 0.42207,-0.19952 -0.71751,-1.73813 -0.44124,0.15731 -1.25468,0.12279 -1.85707,-0.2494 -0.31462,-1.17026 1.48489,-1.14724 1.14723,-0.51799 0.46043,-0.0844 -0.24556,-1.86474 -0.4681,0.0384 -1.24316,-0.2072 -1.72662,-0.72134 0,-1.21246 1.72662,-0.72134 1.24316,-0.20336 0.4681,0.0345 0.24556,-1.86474 -0.46043,-0.0844 -1.14723,-0.51799 -1.48489,-1.14723 0.31462,-1.17027 1.85707,-0.2494 1.25468,0.12279 0.44124,0.15731 0.71751,-1.73812 -0.42207,-0.19952 -0.97457,-0.79808 -1.13573,-1.49256 0.60623,-1.04748 1.85707,0.23789 1.18177,0.44508 0.38369,0.26475 1.14724,-1.49257 -0.35683,-0.30311 -0.73669,-1.02446 -0.70983,-1.73429 0.85563,-0.85563 1.73429,0.70983 1.02446,0.73669 0.30311,0.35683 1.49257,-1.14724 -0.26475,-0.38369 -0.44508,-1.18177 -0.23789,-1.85707 1.04748,-0.60623 1.49256,1.13573 0.79808,0.97457 0.19952,0.42207 1.73812,-0.71751 -0.15731,-0.44124 -0.12279,-1.25468 0.2494,-1.85707 1.17027,-0.31462 1.14723,1.48489 0.51799,1.14723 0.0844,0.46043 1.86474,-0.24556 -0.0384,-0.4681 0.2072,-1.24316 0.72134,-1.72662 1.21246,0 0.72134,1.72662 0.20336,1.24316 -0.0345,0.4681 1.86474,0.24556 0.0844,-0.46043 0.51799,-1.14723 1.14724,-1.48489 1.17026,0.31462 0.2494,1.85707 -0.12279,1.25468 -0.15731,0.44124 1.73813,0.71751 0.19952,-0.42207 0.79807,-0.97457 1.49257,-1.13573 1.04747,0.60623 -0.23788,1.85707 -0.44509,1.18177 -0.26474,0.38369 1.49256,1.14724 0.30311,-0.35683 1.02446,-0.73669 1.73429,-0.70983 0.85563,0.85563 -0.70983,1.73429 -0.73669,1.02446 -0.35683,0.30311 1.14724,1.49257 0.38369,-0.26475 1.18177,-0.44508 1.85707,-0.23789 0.60623,1.04748 -1.13573,1.49256 -0.97457,0.79808 -0.42206,0.19952 0.7175,1.73812 0.44125,-0.15731 1.25467,-0.12279 1.85707,0.2494 0.31462,1.17027 -1.48488,1.14723 -1.14724,0.51799 -0.46043,0.0844 z"
       style="fill:#838383;fill-opacity:1;fill-rule:nonzero;stroke:none;stroke-width:0.26474737999999998px;stroke-linecap:butt;stroke-linejoin:miter;stroke-miterlimit:4;stroke-opacity:1;stroke-dasharray:none"
       inkscape:connector-curvature="0" />
    <path
       id="path5026"
       d="m 168.36744,934.10835 c -2.09112,-7.10597 1.97602,-14.5611 9.08199,-16.65222 7.10597,-2.08729 14.56111,1.97601 16.64839,9.08198 2.0681,7.0254 -1.88009,14.40763 -9.03211,16.57549 -7.15585,2.16786 -14.61098,-1.89927 -16.69827,-9.00525 z"
       style="fill:#ffffff;fill-opacity:1;fill-rule:nonzero;stroke:#030303;stroke-width:0.62541771px;stroke-linecap:round;stroke-linejoin:round;stroke-opacity:1;stroke-dasharray:none"
       inkscape:connector-curvature="0" />
    <path
       id="path5028"
       d="m 170.42019,933.50212 c -1.7573,-5.97408 1.66139,-12.23977 7.63164,-13.99324 5.97408,-1.75731 12.23593,1.65755 13.99324,7.63163 1.73812,5.90118 -1.58081,12.10548 -7.59326,13.92801 -6.00862,1.82254 -12.27431,-1.59615 -14.03162,-7.5664 z"
       style="fill:#ffffff;fill-opacity:1;fill-rule:nonzero;stroke:#030303;stroke-width:0.52565789px;stroke-linecap:round;stroke-linejoin:round;stroke-opacity:1;stroke-dasharray:none"
       inkscape:connector-curvature="0" />
    <path
       inkscape:connector-curvature="0"
       style="fill:#bc3434;fill-opacity:1;fill-rule:nonzero;stroke:none;stroke-width:0.21397279000000000px;stroke-linecap:butt;stroke-linejoin:miter;stroke-miterlimit:4;stroke-opacity:1;stroke-dasharray:none"
       d="m 280.61927,903.08862 0.37833,-0.0279 1.00474,0.16435 1.39548,0.583 0,0.97993 -1.39548,0.583 -1.00474,0.16746 -0.37833,-0.031 -0.19846,1.50711 0.37212,0.0682 0.92722,0.41865 1.20011,0.92721 -0.25429,0.94582 -1.50091,0.20157 -1.01405,-0.0992 -0.35662,-0.12714 -0.57989,1.40477 0.34111,0.16126 0.78767,0.64502 0.91791,1.20631 -0.48996,0.84659 -1.50092,-0.19227 -0.95512,-0.35972 -0.31011,-0.21397 -0.92721,1.20631 0.2884,0.24498 0.5954,0.82798 0.57369,1.40168 -0.69153,0.69153 -1.40168,-0.57369 -0.82798,-0.59541 -0.24498,-0.28839 -1.20631,0.92721 0.21397,0.31011 0.35972,0.95512 0.19227,1.50091 -0.84659,0.48997 -1.20631,-0.91791 -0.64502,-0.78767 -0.16125,-0.34112 -1.40478,0.5799 0.12714,0.35662 0.0992,1.01405 -0.20156,1.50091 -0.94583,0.25428 -0.92721,-1.2001 -0.41864,-0.92722 -0.0682,-0.37213 -1.50711,0.19847 0.0279,0.37833 -0.16436,1.00474 -0.58299,1.39548 -0.97994,0 -0.583,-1.39548 -0.16745,-1.00474 0.031,-0.37833 -1.50712,-0.19847 -0.0682,0.37213 -0.41864,0.92722 -0.92722,1.2001 -0.94582,-0.25428 -0.20157,-1.50091 0.0992,-1.01405 0.12714,-0.35662 -1.40478,-0.5799 -0.16125,0.34112 -0.64502,0.78767 -1.20631,0.91791 -0.84659,-0.48997 0.19227,-1.50091 0.35972,-0.95512 0.21397,-0.31011 -1.20631,-0.92721 -0.24498,0.28839 -0.82798,0.59541 -1.40168,0.57369 -0.69154,-0.69153 0.5737,-1.40168 0.5954,-0.82798 0.2884,-0.24498 -0.92722,-1.20631 -0.3101,0.21397 -0.95513,0.35972 -1.50091,0.19227 -0.48996,-0.84659 0.91791,-1.20631 0.78767,-0.64502 0.34111,-0.16126 -0.5799,-1.40477 -0.35662,0.12714 -1.01404,0.0992 -1.50091,-0.20157 -0.25429,-0.94582 1.20011,-0.92721 0.92722,-0.41865 0.37212,-0.0682 -0.19847,-1.50711 -0.37832,0.031 -1.00475,-0.16746 -1.39547,-0.583 0,-0.97993 1.39547,-0.583 1.00475,-0.16435 0.37832,0.0279 0.19847,-1.50712 -0.37212,-0.0682 -0.92722,-0.41864 -1.20011,-0.92722 0.25429,-0.94582 1.50091,-0.20157 1.01404,0.0992 0.35662,0.12715 0.5799,-1.40478 -0.34111,-0.16125 -0.78767,-0.64502 -0.91791,-1.20631 0.48996,-0.84659 1.50091,0.19226 0.95513,0.35973 0.3101,0.21397 0.92722,-1.20631 -0.2884,-0.24499 -0.5954,-0.82798 -0.5737,-1.40167 0.69154,-0.69154 1.40168,0.5737 0.82798,0.5954 0.24498,0.2884 1.20631,-0.92722 -0.21397,-0.3101 -0.35972,-0.95513 -0.19227,-1.50091 0.84659,-0.48997 1.20631,0.91792 0.64502,0.78766 0.16125,0.34112 1.40478,-0.5799 -0.12714,-0.35662 -0.0992,-1.01404 0.20157,-1.50091 0.94582,-0.25429 0.92722,1.20011 0.41864,0.92721 0.0682,0.37213 1.50712,-0.19847 -0.031,-0.37833 0.16745,-1.00474 0.583,-1.39547 0.97994,0 0.58299,1.39547 0.16436,1.00474 -0.0279,0.37833 1.50711,0.19847 0.0682,-0.37213 0.41864,-0.92721 0.92721,-1.20011 0.94583,0.25429 0.20156,1.50091 -0.0992,1.01404 -0.12714,0.35662 1.40478,0.5799 0.16125,-0.34112 0.64502,-0.78766 1.20631,-0.91792 0.84659,0.48997 -0.19227,1.50091 -0.35972,0.95513 -0.21397,0.3101 1.20631,0.92722 0.24498,-0.2884 0.82798,-0.5954 1.40168,-0.5737 0.69153,0.69154 -0.57369,1.40167 -0.5954,0.82798 -0.2884,0.24499 0.92721,1.20631 0.31011,-0.21397 0.95512,-0.35973 1.50092,-0.19226 0.48996,0.84659 -0.91791,1.20631 -0.78767,0.64502 -0.34111,0.16125 0.57989,1.40478 0.35662,-0.12715 1.01405,-0.0992 1.50091,0.20157 0.25429,0.94582 -1.20011,0.92722 -0.92722,0.41864 -0.37212,0.0682 z"
       id="path5032" />
    <path
       inkscape:connector-curvature="0"
       style="fill:#ffffff;fill-opacity:1;fill-rule:nonzero;stroke:#030303;stroke-width:0.50547194px;stroke-linecap:round;stroke-linejoin:round;stroke-opacity:1;stroke-dasharray:none"
       d="m 255.21543,907.37427 c -1.69007,-5.74315 1.59705,-11.7685 7.3402,-13.45857 5.74315,-1.68698 11.7685,1.59704 13.45548,7.34019 1.67147,5.67803 -1.51952,11.64446 -7.29989,13.39656 -5.78346,1.7521 -11.80881,-1.53502 -13.49579,-7.27818 z"
       id="path5034" />
    <path
       inkscape:connector-curvature="0"
       style="fill:#ffffff;fill-opacity:1;fill-rule:nonzero;stroke:#030303;stroke-width:0.42484453px;stroke-linecap:round;stroke-linejoin:round;stroke-opacity:1;stroke-dasharray:none"
       d="m 256.8745,906.88431 c -1.42029,-4.82835 1.34275,-9.89237 6.16799,-11.30955 4.82835,-1.42028 9.88927,1.33966 11.30955,6.168 1.40478,4.76942 -1.27763,9.78383 -6.13699,11.25683 -4.85625,1.473 -9.92027,-1.29004 -11.34055,-6.11528 z"
       id="path5036" />
  </g>
</svg>
