<?xml version="1.0" encoding="UTF-8" standalone="no"?>
<!-- Created with Inkscape (http://www.inkscape.org/) -->

<svg
   xmlns:dc="http://purl.org/dc/elements/1.1/"
   xmlns:cc="http://creativecommons.org/ns#"
   xmlns:rdf="http://www.w3.org/1999/02/22-rdf-syntax-ns#"
   xmlns:svg="http://www.w3.org/2000/svg"
   xmlns="http://www.w3.org/2000/svg"
   xmlns:sodipodi="http://sodipodi.sourceforge.net/DTD/sodipodi-0.dtd"
   xmlns:inkscape="http://www.inkscape.org/namespaces/inkscape"
   sodipodi:docname="Новый документ 3.2012_07_22_12_46_56.0.svg"
   inkscape:version="0.48.2 r9819"
   version="1.1"
   id="svg3986"
   height="1052.3622047"
   width="744.09448819">
  <sodipodi:namedview
     id="base"
     pagecolor="#ffffff"
     bordercolor="#666666"
     borderopacity="1.0"
     inkscape:pageopacity="0.0"
     inkscape:pageshadow="2"
     inkscape:zoom="0.7"
     inkscape:cx="396.09481"
     inkscape:cy="558.022"
     inkscape:document-units="px"
     inkscape:current-layer="svg3986"
     showgrid="false"
     inkscape:snap-global="false"
     showguides="true"
     inkscape:guide-bbox="true"
     inkscape:window-width="1280"
     inkscape:window-height="977"
     inkscape:window-x="-4"
     inkscape:window-y="-4"
     inkscape:window-maximized="1" />
  <defs
     id="defs3988">
    <filter
       id="filter4787"
       inkscape:label="Drop shadow"
       width="1.5"
       height="1.5"
       x="-.25"
       y="-.25">
      <feGaussianBlur
         id="feGaussianBlur4789"
         in="SourceAlpha"
         stdDeviation="5"
         result="blur" />
      <feColorMatrix
         id="feColorMatrix4791"
         result="bluralpha"
         type="matrix"
         values="1 0 0 0 0 0 1 0 0 0 0 0 1 0 0 0 0 0 0.747 0 " />
      <feOffset
         id="feOffset4793"
         in="bluralpha"
         dx="24"
         dy="24"
         result="offsetBlur" />
      <feMerge
         id="feMerge4795">
        <feMergeNode
           id="feMergeNode4797"
           in="offsetBlur" />
        <feMergeNode
           id="feMergeNode4799"
           in="SourceGraphic" />
      </feMerge>
    </filter>
    <filter
       id="filter5031"
       inkscape:label="Inner Shadow"
       inkscape:menu="Shadows and Glows"
       inkscape:menu-tooltip="Adds a colorizable drop shadow inside"
       color-interpolation-filters="sRGB">
      <feGaussianBlur
         id="feGaussianBlur5033"
         stdDeviation="4"
         result="result8" />
      <feOffset
         id="feOffset5035"
         dx="4"
         dy="4"
         result="result11" />
      <feComposite
         id="feComposite5037"
         in2="result11"
         result="result6"
         in="SourceGraphic"
         operator="in" />
      <feFlood
         id="feFlood5039"
         result="result10"
         in="result6"
         flood-opacity="1"
         flood-color="rgb(0,0,0)" />
      <feBlend
         id="feBlend5041"
         in2="result10"
         mode="normal"
         in="result6"
         result="result12" />
      <feComposite
         id="feComposite5043"
         in2="SourceGraphic"
         result="result2"
         operator="in" />
    </filter>
  </defs>
  <metadata
     id="metadata3991">
    <rdf:RDF>
      <cc:Work
         rdf:about="">
        <dc:format>image/svg+xml</dc:format>
        <dc:type
           rdf:resource="http://purl.org/dc/dcmitype/StillImage" />
        <dc:title></dc:title>
      </cc:Work>
    </rdf:RDF>
  </metadata>
  <g
     inkscape:label="Layer 1"
     inkscape:groupmode="layer"
     id="layer1">
    <path
       id="path22"
       sodipodi:type="star"
       style="fill:#ffb416;fill-opacity:1;stroke:#ff0000;stroke-width:48.64599991;stroke-miterlimit:4;stroke-opacity:1;stroke-dasharray:none;filter:url(#filter4787)"
       sodipodi:sides="3"
       sodipodi:cx="246.47722"
       sodipodi:cy="143.22488"
       sodipodi:r1="198.81281"
       sodipodi:r2="99.406403"
       sodipodi:arg1="0.9151007"
       sodipodi:arg2="1.9622983"
       inkscape:flatsided="false"
       inkscape:rounded="0"
       inkscape:randomized="0"
       d="M 367.69553,300.80868 208.546,235.1099 49.396492,169.41112 185.86807,64.432982 322.33964,-40.545148 345.01758,130.13177 z"
       inkscape:transform-center-x="-54.735161"
       inkscape:transform-center-y="-114.55147"
       transform="matrix(1.5709111,-0.65499087,0.65499087,1.5709111,-106.14024,446.81866)" />
    <path
       style="fill:#000000;fill-opacity:1;stroke:none"
       d="m 346.08916,368.06681 c -25.78288,11.60301 -43.73404,37.51677 -43.73404,67.62419 0,13.87492 3.81058,26.86171 10.44566,37.96597 -12.93355,-0.19242 -26.07855,2.99136 -38.0951,9.92912 -26.07379,15.05371 -39.54625,43.55467 -36.70331,71.6848 -0.42713,-22.18492 10.91932,-43.92181 31.49482,-55.80108 30.11769,-17.38845 68.6161,-7.07408 86.00455,23.0436 17.38845,30.11768 7.07409,68.63044 -23.04359,86.01889 -20.5755,11.87927 -45.06664,10.83103 -64.06578,-0.63133 22.93994,16.52713 54.3492,19.11432 80.423,4.06061 12.01624,-6.93758 21.3504,-16.73833 27.64944,-28.03685 6.30019,11.30064 15.64419,21.09733 27.66379,28.03685 26.07379,15.05371 57.48306,12.46651 80.423,-4.06061 -18.99914,11.46236 -43.49028,12.5106 -64.06578,0.63133 -30.11768,-17.38845 -40.43204,-55.88687 -23.04359,-86.00454 17.38845,-30.11769 55.88686,-40.44639 86.00454,-23.05795 20.5755,11.87927 31.92195,33.61616 31.49483,55.80108 2.84293,-28.13014 -10.62951,-56.63109 -36.70331,-71.6848 -12.01347,-6.93598 -25.16365,-10.12165 -38.09511,-9.92912 6.6329,-11.10426 10.44567,-24.09105 10.44567,-37.96597 0,-30.10742 -17.95116,-56.02118 -43.73405,-67.62419 19.42628,10.72256 32.58531,31.41121 32.58531,55.16975 0,33.69493 -26.45534,61.19595 -59.73255,62.87486 l 0,12.61228 c 4.78351,1.32626 8.30774,5.71334 8.30774,10.91916 0,0.99247 -0.13332,1.938 -0.37306,2.85534 l 11.63659,6.71507 -3.2571,5.62459 -11.75137,-6.78682 c -2.00849,1.8131 -4.67145,2.89839 -7.59032,2.89839 -2.99798,0 -5.72186,-1.14045 -7.74816,-3.04187 l -12.03834,6.9303 -3.24275,-5.62459 12.02399,-6.9303 c -0.20514,-0.85283 -0.33001,-1.72433 -0.33001,-2.64011 0,-5.04888 3.30001,-9.34115 7.86294,-10.80438 l 0,-12.72706 c -33.25791,-1.70035 -59.70385,-29.19441 -59.70385,-62.87486 0,-23.75854 13.15903,-44.44719 32.5853,-55.16975 z m 30.8061,72.80398 c -15.02614,-0.0762 -29.82486,4.74381 -41.96918,13.78885 0.45996,0.61025 0.89163,1.2477 1.37745,1.8366 1.05848,1.28305 2.16829,2.51221 3.34318,3.68755 1.1749,1.17534 2.40494,2.29861 3.68755,3.35753 1.28262,1.05892 2.62159,2.06504 4.00322,2.99883 0.21884,0.1479 0.45317,0.27146 0.67438,0.4161 15.88281,-10.39057 36.87932,-11.71582 54.43797,-1.57833 0.82101,0.47401 1.58262,1.00971 2.3675,1.52094 0.19558,-0.12834 0.40889,-0.22781 0.60263,-0.35871 1.38206,-0.93379 2.72016,-1.93991 4.00322,-2.99883 1.28305,-1.05892 2.5122,-2.18219 3.68754,-3.35753 1.17535,-1.17534 2.29862,-2.4045 3.35754,-3.68755 0.49696,-0.60214 0.93624,-1.25519 1.40615,-1.87965 -2.11811,-1.57108 -4.31812,-3.06857 -6.65768,-4.41932 -10.38329,-5.99479 -21.6733,-9.00562 -32.87227,-9.29779 -0.48512,-0.0126 -0.96448,-0.0262 -1.4492,-0.0287 z m 68.5425,61.75568 c -0.72309,0.0904 -1.44862,0.13784 -2.16662,0.25827 -1.64039,0.27514 -3.27314,0.63197 -4.87847,1.06179 -1.60532,0.42981 -3.19097,0.92527 -4.74933,1.50658 -1.55835,0.58132 -3.092,1.2361 -4.5915,1.96574 -0.24991,0.12161 -0.48368,0.27608 -0.73177,0.40176 0.4811,9.64175 -1.67192,19.52683 -6.85855,28.51034 -5.23023,9.05903 -12.79664,15.9155 -21.47962,20.3174 0.0179,0.35831 0.003,0.71855 0.0287,1.07613 0.11765,1.66378 0.31276,3.32394 0.58829,4.96456 0.27552,1.64061 0.63157,3.27292 1.06178,4.87847 0.4302,1.60554 0.93924,3.19076 1.52093,4.74933 0.22382,0.59968 0.51456,1.17335 0.76047,1.76486 13.27127,-5.71079 24.92123,-15.51046 32.70009,-28.98385 7.71797,-13.3679 10.40476,-28.22775 8.7956,-42.47138 z m -137.98894,0.0144 c -2.95764,26.59615 9.63895,53.66292 34.29277,67.89681 2.32817,1.34418 4.70923,2.49884 7.11682,3.54407 0.2457,-0.5907 0.53682,-1.166 0.76047,-1.76486 0.58192,-1.55819 1.0905,-3.14417 1.52093,-4.74933 0.43044,-1.60516 0.7717,-3.22389 1.04744,-4.86412 0.27574,-1.64024 0.48478,-3.30114 0.60264,-4.96456 0.028,-0.39561 0.01,-0.79442 0.0287,-1.19092 -0.77566,-0.3974 -1.56115,-0.75024 -2.32444,-1.19092 -17.40525,-10.04893 -26.7536,-28.65324 -25.88459,-47.43594 -0.29663,-0.1515 -0.57599,-0.34218 -0.87525,-0.48785 -1.49971,-0.73 -3.01858,-1.38404 -4.57716,-1.96574 -1.55857,-0.5817 -3.14378,-1.09073 -4.74933,-1.52093 -1.60555,-0.43021 -3.23785,-0.78626 -4.87847,-1.06179 -0.68744,-0.11545 -1.38841,-0.15603 -2.08052,-0.24392 z"
       id="path4602"
       inkscape:connector-curvature="0" />
    <path
       inkscape:connector-curvature="0"
       id="path5280"
       d="m 346.08916,368.06681 c -25.78288,11.60301 -43.73404,37.51677 -43.73404,67.62419 0,13.87492 3.81058,26.86171 10.44566,37.96597 -12.93355,-0.19242 -26.07855,2.99136 -38.0951,9.92912 -26.07379,15.05371 -39.54625,43.55467 -36.70331,71.6848 -0.42713,-22.18492 10.91932,-43.92181 31.49482,-55.80108 30.11769,-17.38845 68.6161,-7.07408 86.00455,23.0436 17.38845,30.11768 7.07409,68.63044 -23.04359,86.01889 -20.5755,11.87927 -45.06664,10.83103 -64.06578,-0.63133 22.93994,16.52713 54.3492,19.11432 80.423,4.06061 12.01624,-6.93758 21.3504,-16.73833 27.64944,-28.03685 6.30019,11.30064 15.64419,21.09733 27.66379,28.03685 26.07379,15.05371 57.48306,12.46651 80.423,-4.06061 -18.99914,11.46236 -43.49028,12.5106 -64.06578,0.63133 -30.11768,-17.38845 -40.43204,-55.88687 -23.04359,-86.00454 17.38845,-30.11769 55.88686,-40.44639 86.00454,-23.05795 20.5755,11.87927 31.92195,33.61616 31.49483,55.80108 2.84293,-28.13014 -10.62951,-56.63109 -36.70331,-71.6848 -12.01347,-6.93598 -25.16365,-10.12165 -38.09511,-9.92912 6.6329,-11.10426 10.44567,-24.09105 10.44567,-37.96597 0,-30.10742 -17.95116,-56.02118 -43.73405,-67.62419 19.42628,10.72256 32.58531,31.41121 32.58531,55.16975 0,33.69493 -26.45534,61.19595 -59.73255,62.87486 l 0,12.61228 c 4.78351,1.32626 8.30774,5.71334 8.30774,10.91916 0,0.99247 -0.13332,1.938 -0.37306,2.85534 l 11.63659,6.71507 -3.2571,5.62459 -11.75137,-6.78682 c -2.00849,1.8131 -4.67145,2.89839 -7.59032,2.89839 -2.99798,0 -5.72186,-1.14045 -7.74816,-3.04187 l -12.03834,6.9303 -3.24275,-5.62459 12.02399,-6.9303 c -0.20514,-0.85283 -0.33001,-1.72433 -0.33001,-2.64011 0,-5.04888 3.30001,-9.34115 7.86294,-10.80438 l 0,-12.72706 c -33.25791,-1.70035 -59.70385,-29.19441 -59.70385,-62.87486 0,-23.75854 13.15903,-44.44719 32.5853,-55.16975 z m 30.8061,72.80398 c -15.02614,-0.0762 -29.82486,4.74381 -41.96918,13.78885 0.45996,0.61025 0.89163,1.2477 1.37745,1.8366 1.05848,1.28305 2.16829,2.51221 3.34318,3.68755 1.1749,1.17534 2.40494,2.29861 3.68755,3.35753 1.28262,1.05892 2.62159,2.06504 4.00322,2.99883 0.21884,0.1479 0.45317,0.27146 0.67438,0.4161 15.88281,-10.39057 36.87932,-11.71582 54.43797,-1.57833 0.82101,0.47401 1.58262,1.00971 2.3675,1.52094 0.19558,-0.12834 0.40889,-0.22781 0.60263,-0.35871 1.38206,-0.93379 2.72016,-1.93991 4.00322,-2.99883 1.28305,-1.05892 2.5122,-2.18219 3.68754,-3.35753 1.17535,-1.17534 2.29862,-2.4045 3.35754,-3.68755 0.49696,-0.60214 0.93624,-1.25519 1.40615,-1.87965 -2.11811,-1.57108 -4.31812,-3.06857 -6.65768,-4.41932 -10.38329,-5.99479 -21.6733,-9.00562 -32.87227,-9.29779 -0.48512,-0.0126 -0.96448,-0.0262 -1.4492,-0.0287 z m 68.5425,61.75568 c -0.72309,0.0904 -1.44862,0.13784 -2.16662,0.25827 -1.64039,0.27514 -3.27314,0.63197 -4.87847,1.06179 -1.60532,0.42981 -3.19097,0.92527 -4.74933,1.50658 -1.55835,0.58132 -3.092,1.2361 -4.5915,1.96574 -0.24991,0.12161 -0.48368,0.27608 -0.73177,0.40176 0.4811,9.64175 -1.67192,19.52683 -6.85855,28.51034 -5.23023,9.05903 -12.79664,15.9155 -21.47962,20.3174 0.0179,0.35831 0.003,0.71855 0.0287,1.07613 0.11765,1.66378 0.31276,3.32394 0.58829,4.96456 0.27552,1.64061 0.63157,3.27292 1.06178,4.87847 0.4302,1.60554 0.93924,3.19076 1.52093,4.74933 0.22382,0.59968 0.51456,1.17335 0.76047,1.76486 13.27127,-5.71079 24.92123,-15.51046 32.70009,-28.98385 7.71797,-13.3679 10.40476,-28.22775 8.7956,-42.47138 z m -137.98894,0.0144 c -2.95764,26.59615 9.63895,53.66292 34.29277,67.89681 2.32817,1.34418 4.70923,2.49884 7.11682,3.54407 0.2457,-0.5907 0.53682,-1.166 0.76047,-1.76486 0.58192,-1.55819 1.0905,-3.14417 1.52093,-4.74933 0.43044,-1.60516 0.7717,-3.22389 1.04744,-4.86412 0.27574,-1.64024 0.48478,-3.30114 0.60264,-4.96456 0.028,-0.39561 0.01,-0.79442 0.0287,-1.19092 -0.77566,-0.3974 -1.56115,-0.75024 -2.32444,-1.19092 -17.40525,-10.04893 -26.7536,-28.65324 -25.88459,-47.43594 -0.29663,-0.1515 -0.57599,-0.34218 -0.87525,-0.48785 -1.49971,-0.73 -3.01858,-1.38404 -4.57716,-1.96574 -1.55857,-0.5817 -3.14378,-1.09073 -4.74933,-1.52093 -1.60555,-0.43021 -3.23785,-0.78626 -4.87847,-1.06179 -0.68744,-0.11545 -1.38841,-0.15603 -2.08052,-0.24392 z"
       style="fill:#000000;fill-opacity:1;stroke:none" />
  </g>
</svg>
