<?xml version="1.0" encoding="UTF-8" standalone="no"?>
<!-- Created with Inkscape (http://www.inkscape.org/) -->

<svg
   xmlns:dc="http://purl.org/dc/elements/1.1/"
   xmlns:cc="http://creativecommons.org/ns#"
   xmlns:rdf="http://www.w3.org/1999/02/22-rdf-syntax-ns#"
   xmlns:svg="http://www.w3.org/2000/svg"
   xmlns="http://www.w3.org/2000/svg"
   xmlns:xlink="http://www.w3.org/1999/xlink"
   xmlns:sodipodi="http://sodipodi.sourceforge.net/DTD/sodipodi-0.dtd"
   xmlns:inkscape="http://www.inkscape.org/namespaces/inkscape"
   width="744.09448819"
   height="1052.3622047"
   id="svg2"
   version="1.1"
   inkscape:version="0.48.2 r9819"
   sodipodi:docname="Листик.pdf"
   inkscape:export-filename="D:\Рабочий стол\Листик.png"
   inkscape:export-xdpi="90"
   inkscape:export-ydpi="90">
  <defs
     id="defs4">
    <linearGradient
       id="linearGradient4010">
      <stop
         style="stop-color:#ffffff;stop-opacity:1"
         offset="0"
         id="stop4012" />
      <stop
         style="stop-color:#ffffff;stop-opacity:0"
         offset="1"
         id="stop4014" />
    </linearGradient>
    <linearGradient
       id="linearGradient3989">
      <stop
         id="stop3991"
         offset="0"
         style="stop-color:#438200;stop-opacity:0.32222223;" />
      <stop
         id="stop3993"
         offset="1"
         style="stop-color:#e0ffc1;stop-opacity:0.68137252" />
    </linearGradient>
    <linearGradient
       inkscape:collect="always"
       id="linearGradient3859">
      <stop
         style="stop-color:#ffffff;stop-opacity:0"
         offset="0"
         id="stop3861" />
      <stop
         style="stop-color:#ffffff;stop-opacity:0.52450979"
         offset="1"
         id="stop3863" />
    </linearGradient>
    <linearGradient
       inkscape:collect="always"
       id="linearGradient3842">
      <stop
         style="stop-color:#490000;stop-opacity:1"
         offset="0"
         id="stop3844" />
      <stop
         style="stop-color:#aa0000;stop-opacity:0;"
         offset="1"
         id="stop3846" />
    </linearGradient>
    <linearGradient
       id="linearGradient3799">
      <stop
         style="stop-color:#ffffff;stop-opacity:1"
         offset="0"
         id="stop3801" />
      <stop
         style="stop-color:#ffffff;stop-opacity:0"
         offset="1"
         id="stop3803" />
    </linearGradient>
    <linearGradient
       inkscape:collect="always"
       xlink:href="#linearGradient3842"
       id="linearGradient3850"
       x1="362.64908"
       y1="507.41034"
       x2="374.73352"
       y2="494.17496"
       gradientUnits="userSpaceOnUse" />
    <linearGradient
       inkscape:collect="always"
       xlink:href="#linearGradient3859"
       id="linearGradient3865"
       x1="381.94928"
       y1="491.26053"
       x2="392.14337"
       y2="486.08148"
       gradientUnits="userSpaceOnUse" />
    <filter
       id="filter3962"
       inkscape:label="Drop shadow"
       width="1.5"
       height="1.5"
       x="-.25"
       y="-.25">
      <feGaussianBlur
         id="feGaussianBlur3964"
         in="SourceAlpha"
         stdDeviation="4.4"
         result="blur" />
      <feColorMatrix
         id="feColorMatrix3966"
         result="bluralpha"
         type="matrix"
         values="1 0 0 0 0 0 1 0 0 0 0 0 1 0 0 0 0 0 0.673 0 " />
      <feOffset
         id="feOffset3968"
         in="bluralpha"
         dx="-4"
         dy="4"
         result="offsetBlur" />
      <feMerge
         id="feMerge3970">
        <feMergeNode
           id="feMergeNode3972"
           in="offsetBlur" />
        <feMergeNode
           id="feMergeNode3974"
           in="SourceGraphic" />
      </feMerge>
    </filter>
    <radialGradient
       inkscape:collect="always"
       xlink:href="#linearGradient4010"
       id="radialGradient4016"
       cx="376.22971"
       cy="647.82031"
       fx="376.22971"
       fy="647.82031"
       r="4.4885159"
       gradientTransform="matrix(1,0,0,0.74358973,0,166.10778)"
       gradientUnits="userSpaceOnUse" />
    <filter
       id="filter4031"
       inkscape:label="Drop shadow"
       width="1.5"
       height="1.5"
       x="-.25"
       y="-.25">
      <feGaussianBlur
         id="feGaussianBlur4033"
         in="SourceAlpha"
         stdDeviation="1"
         result="blur" />
      <feColorMatrix
         id="feColorMatrix4035"
         result="bluralpha"
         type="matrix"
         values="-1 0 0 0 1 0 -1 0 0 1 0 0 -1 0 1 0 0 0 0.95 0 " />
      <feOffset
         id="feOffset4037"
         in="bluralpha"
         dx="-4"
         dy="4"
         result="offsetBlur" />
      <feMerge
         id="feMerge4039">
        <feMergeNode
           id="feMergeNode4041"
           in="offsetBlur" />
        <feMergeNode
           id="feMergeNode4043"
           in="SourceGraphic" />
      </feMerge>
    </filter>
    <linearGradient
       inkscape:collect="always"
       xlink:href="#linearGradient3799"
       id="linearGradient4099"
       gradientUnits="userSpaceOnUse"
       gradientTransform="translate(21.372041,-12.242706)"
       x1="388.47702"
       y1="674.55127"
       x2="442.76678"
       y2="454.31088" />
  </defs>
  <sodipodi:namedview
     id="base"
     pagecolor="#ffffff"
     bordercolor="#666666"
     borderopacity="1.0"
     inkscape:pageopacity="0.0"
     inkscape:pageshadow="2"
     inkscape:zoom="0.27152628"
     inkscape:cx="376.12748"
     inkscape:cy="413.20738"
     inkscape:document-units="px"
     inkscape:current-layer="layer1"
     showgrid="false"
     inkscape:object-paths="true"
     inkscape:object-nodes="true"
     inkscape:snap-global="false"
     inkscape:window-width="1280"
     inkscape:window-height="977"
     inkscape:window-x="-4"
     inkscape:window-y="-4"
     inkscape:window-maximized="1" />
  <metadata
     id="metadata7">
    <rdf:RDF>
      <cc:Work
         rdf:about="">
        <dc:format>image/svg+xml</dc:format>
        <dc:type
           rdf:resource="http://purl.org/dc/dcmitype/StillImage" />
        <dc:title></dc:title>
      </cc:Work>
    </rdf:RDF>
  </metadata>
  <g
     inkscape:label="Layer 1"
     inkscape:groupmode="layer"
     id="layer1">
    <rect
       style="fill:#ffffff;fill-opacity:0.99019608;stroke:none"
       id="rect4101"
       width="742.10132"
       height="1044.0978"
       x="1.8414423"
       y="4.5814848" />
    <g
       id="g4204">
      <path
         inkscape:export-ydpi="90"
         inkscape:export-xdpi="90"
         inkscape:export-filename="D:\Рабочий стол\Листик.png"
         sodipodi:nodetypes="ccc"
         inkscape:connector-curvature="0"
         id="path2987"
         d="M 739.81847,118.98467 C 596.28932,586.69483 515.80816,1090.3628 100.67943,852.75655 175.90431,116.83001 316.49847,476.96432 739.81847,118.98467 z"
         style="fill:#60b400;fill-opacity:1;stroke:none" />
      <g
         style="fill:#597100;fill-opacity:1"
         id="g4103">
        <path
           style="fill:#597100;fill-opacity:1;stroke:none"
           d="M 739.81847,118.98467 C 474.26434,580.54287 209.10105,848.54615 12.978729,872.71936 11.427244,881.53363 16.389716,885.6729 26.112808,886.39551 332.13426,804.48407 559.0254,420.36072 739.81847,118.98467 z"
           id="path2989"
           inkscape:connector-curvature="0"
           sodipodi:nodetypes="cccc"
           inkscape:export-filename="D:\Рабочий стол\Листик.png"
           inkscape:export-xdpi="90"
           inkscape:export-ydpi="90" />
        <path
           style="fill:#597100;fill-opacity:1;stroke:none"
           d="m 500.43011,784.86966 c -96.72219,36.36616 -192.74654,42.83192 -271.60094,-0.54832 l -6.281,4.07501 c 68.38512,30.94237 159.42806,54.2474 277.88194,-3.52669"
           id="path3003"
           inkscape:connector-curvature="0"
           sodipodi:nodetypes="cccc"
           inkscape:export-filename="D:\Рабочий стол\Листик.png"
           inkscape:export-xdpi="90"
           inkscape:export-ydpi="90" />
        <path
           style="fill:#597100;fill-opacity:1;stroke:none"
           d="m 345.99143,322.43082 c -61.97519,139.66804 -56.84662,287.8196 -51.7633,391.8223 -1.13082,1.11433 -2.80547,2.68139 -4.49028,4.31866 -12.37058,-54.44559 -15.77554,-249.09471 56.25358,-396.14096"
           id="path3005"
           inkscape:connector-curvature="0"
           sodipodi:nodetypes="cccc"
           inkscape:export-filename="D:\Рабочий стол\Листик.png"
           inkscape:export-xdpi="90"
           inkscape:export-ydpi="90" />
        <path
           style="fill:#597100;fill-opacity:1;stroke:none"
           d="m 590.99468,601.29965 c -63.05015,28.72732 -126.15199,25.44009 -180.27357,7.52153 -1.46565,1.27821 -2.23395,2.48972 -3.26456,3.67174 46.35839,14.33586 109.40848,28.84796 183.08026,-10.06439"
           id="path3007"
           inkscape:connector-curvature="0"
           sodipodi:nodetypes="cccc"
           inkscape:export-filename="D:\Рабочий стол\Листик.png"
           inkscape:export-xdpi="90"
           inkscape:export-ydpi="90" />
        <path
           style="fill:#597100;fill-opacity:1;stroke:none"
           d="m 484.4868,504.52378 c -1.58828,2.32125 -0.82544,0.961 -3.38866,3.64772 -48.89524,-68.00361 -4.89871,-152.64839 33.19025,-243.72838 -22.43334,77.96992 -74.34506,156.71639 -29.80159,240.08066 z"
           id="path3009"
           inkscape:connector-curvature="0"
           sodipodi:nodetypes="cccc"
           inkscape:export-filename="D:\Рабочий стол\Листик.png"
           inkscape:export-xdpi="90"
           inkscape:export-ydpi="90" />
        <path
           style="fill:#597100;fill-opacity:1;stroke:none"
           d="m 616.41895,320.62497 c -2.03265,3.87431 -2.4215,2.37403 -2.0281,2.9267 -20.94271,-28.45235 11.70116,-94.07676 10.91218,-119.54515 -3.26972,39.02141 -21.86578,86.1072 -8.88402,116.61851 z"
           id="path3013"
           inkscape:connector-curvature="0"
           sodipodi:nodetypes="cccc"
           inkscape:export-filename="D:\Рабочий стол\Листик.png"
           inkscape:export-xdpi="90"
           inkscape:export-ydpi="90" />
        <path
           style="fill:#597100;fill-opacity:1;stroke:none"
           d="m 672.04448,350.25558 c -31.32434,30.08065 -70.46608,46.90762 -102.07804,43.3832 -2.07831,2.32924 -3.17222,4.22675 -4.14356,5.89343 38.19353,-0.23802 77.20123,-7.35371 106.2216,-49.27663"
           id="path3793"
           inkscape:connector-curvature="0"
           sodipodi:nodetypes="cccc"
           inkscape:export-filename="D:\Рабочий стол\Листик.png"
           inkscape:export-xdpi="90"
           inkscape:export-ydpi="90" />
      </g>
      <path
         inkscape:export-ydpi="90"
         inkscape:export-xdpi="90"
         inkscape:export-filename="D:\Рабочий стол\Листик.png"
         transform="matrix(1.356685,0.8653696,-0.8653696,1.356685,301.1762,-283.94976)"
         sodipodi:nodetypes="cccc"
         inkscape:connector-curvature="0"
         id="path3797"
         d="m 419.91608,560.84691 c 30.12865,-48.2185 33.96351,-83.67704 41.63892,-146.16115 3.63357,68.70105 11.83272,125.05331 -14.44616,162.30685 -14.22368,11.60121 -34.48791,2.27231 -27.19276,-16.1457 z"
         style="opacity:0.56666667;fill:url(#linearGradient4099);fill-opacity:1;stroke:none;filter:url(#filter4031)" />
      <path
         inkscape:export-ydpi="90"
         inkscape:export-xdpi="90"
         inkscape:export-filename="D:\Рабочий стол\Листик.png"
         transform="matrix(4.3792334,0,0,4.3792334,-1251.7605,-1973.6921)"
         sodipodi:open="true"
         sodipodi:end="6.2757651"
         sodipodi:start="0"
         d="m 380.71822,647.82031 c 0,1.84332 -2.00958,3.33762 -4.48851,3.33762 -2.47894,0 -4.48852,-1.4943 -4.48852,-3.33762 0,-1.84331 2.00958,-3.33761 4.48852,-3.33761 2.46594,0 4.47009,1.47925 4.48839,3.31285"
         sodipodi:ry="3.3376143"
         sodipodi:rx="4.4885159"
         sodipodi:cy="647.82031"
         sodipodi:cx="376.22971"
         id="path4008"
         style="fill:url(#radialGradient4016);fill-opacity:1;stroke:none"
         sodipodi:type="arc" />
    </g>
    <g
       id="g3887"
       transform="matrix(2.895667,0,0,2.895667,-883.26065,-1409.1516)"
       inkscape:export-filename="D:\Рабочий стол\Листик.png"
       inkscape:export-xdpi="90"
       inkscape:export-ydpi="90">
      <g
         id="g3924"
         transform="matrix(0.99828026,0.05862186,-0.05862186,0.99828026,73.446926,126.3306)"
         style="filter:url(#filter3962)"
         inkscape:export-filename="D:\Рабочий стол\Листик.png"
         inkscape:export-xdpi="90"
         inkscape:export-ydpi="90">
        <path
           sodipodi:nodetypes="cccccccc"
           inkscape:connector-curvature="0"
           id="path3848"
           d="m 374.71709,481.66182 0.73266,-3.70108 -2.18057,-2.0561 0.0761,-4.59769 -0.82651,4.56564 1.57793,2.43632 -0.63263,4.1429 z"
           style="fill:#000000;fill-opacity:1;stroke:#000000;stroke-width:0.2;stroke-linecap:butt;stroke-linejoin:miter;stroke-miterlimit:4;stroke-opacity:1;stroke-dasharray:none" />
        <path
           sodipodi:nodetypes="cccccccc"
           inkscape:connector-curvature="0"
           id="path3850"
           d="m 368.02183,488.03873 -2.03054,-6.06789 -4.78873,2.22131 -0.7169,-3.98502 0.14583,4.68234 4.30232,-1.7459 2.02016,6.09371 z"
           style="fill:#000000;fill-opacity:1;stroke:#000000;stroke-width:0.2;stroke-linecap:butt;stroke-linejoin:miter;stroke-miterlimit:4;stroke-opacity:1;stroke-dasharray:none" />
        <path
           sodipodi:nodetypes="cccccccc"
           inkscape:connector-curvature="0"
           id="path3852"
           d="m 364.11545,497.24776 -5.10077,-1.08686 c -2.22415,1.12911 -1.08701,0.46189 -5.32016,2.09325 l -1.92266,-2.15706 2.14408,3.30923 5.74297,-2.13533 3.85893,1.6752 z"
           style="fill:#000000;fill-opacity:1;stroke:#000000;stroke-width:0.2;stroke-linecap:butt;stroke-linejoin:miter;stroke-miterlimit:4;stroke-opacity:1;stroke-dasharray:none" />
        <path
           style="fill:#aa0000;fill-opacity:1;stroke:none"
           d="m 384.04197,509.07503 c -8.1969,3.58392 -16.64377,2.99864 -20.8967,-1.07882 -0.85069,-0.8156 -1.58883,-1.82617 -2.06284,-2.91028 -2.8437,-6.50393 0.91311,-19.72421 10.74962,-24.02501 9.83651,-4.30079 22.02783,1.94651 24.87153,8.45044 2.82879,6.46982 -2.76591,15.17943 -12.5296,19.50556"
           id="path3830"
           inkscape:connector-curvature="0"
           sodipodi:nodetypes="cssssc" />
        <path
           style="fill:none;stroke:#000000;stroke-width:0.40000001;stroke-linecap:butt;stroke-linejoin:miter;stroke-miterlimit:4;stroke-opacity:1;stroke-dasharray:none"
           d="m 363.14108,508.06569 c 0.71572,-7.16129 0.60461,-15.42431 7.57285,-20.85812 8.59417,-5.49705 13.12166,-5.06701 21.46968,-2.84976"
           id="path3833"
           inkscape:connector-curvature="0"
           sodipodi:nodetypes="ccc" />
        <path
           style="fill:#000000;fill-opacity:1;stroke:#000000;stroke-width:0.30000001;stroke-linecap:butt;stroke-linejoin:miter;stroke-miterlimit:4;stroke-opacity:1;stroke-dasharray:none"
           d="m 387.41803,481.32457 c 4.36788,-3.7689 10.77676,-1.64887 12.09272,0.0751 2.14539,2.56782 0.94557,6.76067 -2.51352,8.84932 -0.71525,-1.81298 -2.1604,-3.20509 -3.34081,-4.68697 z"
           id="path3835"
           inkscape:connector-curvature="0"
           sodipodi:nodetypes="ccccc" />
        <path
           style="fill:#000000;fill-opacity:1;stroke:#000000;stroke-width:0.30000001;stroke-linecap:butt;stroke-linejoin:miter;stroke-miterlimit:4;stroke-opacity:1;stroke-dasharray:none"
           d="m 365.78631,509.86642 c 11.65948,3.18843 16.06825,-0.32402 21.01111,-2.27716 4.24699,-2.33103 7.72271,-6.23907 10.36748,-12.1751 -1.02631,5.43621 -3.56725,8.6128 -7.79401,12.04873 -4.92646,2.71422 -12.69325,7.95319 -23.58458,2.40353"
           id="path3837"
           inkscape:connector-curvature="0"
           sodipodi:nodetypes="ccccc" />
        <path
           style="fill:#000000;fill-opacity:1;stroke:#000000;stroke-width:0.2;stroke-linecap:butt;stroke-linejoin:miter;stroke-miterlimit:4;stroke-opacity:1;stroke-dasharray:none"
           d="m 396.31338,499.09796 4.77997,-0.206 3.82399,3.50532 4.56754,-0.53111 -4.46132,1.27466 -4.14265,-2.86799 -5.22953,0.15023 z"
           id="path3839"
           inkscape:connector-curvature="0"
           sodipodi:nodetypes="cccccccc" />
        <path
           style="fill:#000000;fill-opacity:1;stroke:#000000;stroke-width:0.2;stroke-linecap:butt;stroke-linejoin:miter;stroke-miterlimit:4;stroke-opacity:1;stroke-dasharray:none"
           d="m 390.63097,506.39192 6.02997,1.81865 1.69955,4.14265 4.03643,0.31867 -4.67376,0.31866 -2.12444,-3.61154 -6.05463,-1.80577 z"
           id="path3841"
           inkscape:connector-curvature="0"
           sodipodi:nodetypes="cccccccc" />
        <path
           style="fill:#000000;fill-opacity:1;stroke:#000000;stroke-width:0.2;stroke-linecap:butt;stroke-linejoin:miter;stroke-miterlimit:4;stroke-opacity:1;stroke-dasharray:none"
           d="m 381.85414,511.19122 2.40554,3.7371 -2.76176,7.3293 2.33688,1.69955 -3.50532,-1.80577 2.76176,-7.75419 -2.86798,-2.4431 z"
           id="path3843"
           inkscape:connector-curvature="0"
           sodipodi:nodetypes="cccccccc" />
        <path
           style="fill:#ffffff;fill-opacity:1;stroke:none"
           d="m 398.28207,485.57231 c -0.76132,0.17134 -1.63962,-0.44759 -1.76894,-1.12904 -0.14784,-0.77905 0.4728,-1.6651 1.16371,-1.74866 1.08291,-0.13096 1.94477,0.67304 1.95484,1.36339 10e-6,0.69828 -0.50407,1.324 -1.34961,1.51431 z"
           id="path3845"
           inkscape:connector-curvature="0"
           sodipodi:nodetypes="ssscs" />
        <path
           sodipodi:nodetypes="sssscss"
           inkscape:connector-curvature="0"
           id="path3854"
           d="m 394.26574,479.13878 c 0.50078,0.0214 1.06867,0.12947 1.29524,0.19506 0.21564,0.0624 0.0718,0.34699 -0.10629,0.48566 -0.34793,0.27083 -0.44714,0.36895 -1.04675,0.35814 -0.83689,-0.0151 -1.08037,-0.32667 -1.35388,-0.475 -0.13508,-0.26612 -0.23211,0.0165 -0.1952,-0.48151 0.0149,-0.20338 0.98146,-0.10057 1.40688,-0.0823 z"
           style="fill:#ffffff;fill-opacity:1;stroke:none" />
        <path
           sodipodi:nodetypes="ccccc"
           inkscape:connector-curvature="0"
           id="path3784"
           d="m 370.65314,504.87663 c -0.24264,-2.27226 0.37428,-3.27798 3.06964,-4.22544 2.42172,-0.64663 4.85274,0.54012 5.3733,2.92167 0.33818,2.33225 -1.0524,3.25054 -3.16962,3.90546 -2.13679,0.48297 -4.64981,-0.73405 -5.27331,-2.60171 z"
           style="fill:#000000;fill-opacity:1;stroke:none" />
        <path
           style="fill:#000000;fill-opacity:1;stroke:none"
           d="m 373.10767,493.86322 c -1.11475,-1.99483 -0.94192,-3.16196 1.16554,-5.09102 1.97379,-1.54499 4.67551,-1.40728 6.08878,0.57904 1.22617,2.01253 0.30741,3.4028 -1.38305,4.83594 -1.77593,1.28265 -4.56495,1.14926 -5.87126,-0.32398 z"
           id="path3786"
           inkscape:connector-curvature="0"
           sodipodi:nodetypes="ccccc" />
        <path
           style="fill:#000000;fill-opacity:1;stroke:none"
           d="m 371.97135,482.19093 c -0.98378,-0.72861 -2.46637,-0.38254 -4.25832,1.55371 -1.48119,1.04767 -2.12881,2.97752 -1.49618,3.79798 0.68037,0.63865 2.21668,-0.007 3.97061,-1.43862 1.57769,-1.16598 2.3555,-2.93536 1.78389,-3.91307 z"
           id="path3788"
           inkscape:connector-curvature="0"
           sodipodi:nodetypes="ccccc" />
        <path
           style="fill:#000000;fill-opacity:1;stroke:none"
           d="m 361.09534,497.61301 c -1.09733,-0.65859 -0.31413,-1.41118 -0.0575,-3.5678 0.76156,-1.73142 1.09882,-2.75302 2.3018,-2.41689 1.05205,0.84029 1.24205,1.48207 0.46036,3.85552 -1.14163,2.00252 -1.74106,2.36509 -2.70462,2.12917 z"
           id="path3790"
           inkscape:connector-curvature="0"
           sodipodi:nodetypes="ccccc" />
        <path
           style="fill:#000000;fill-opacity:1;stroke:none"
           d="m 398.03927,480.06176 0.40282,-1.26599 1.49617,-0.74808 -1.1509,0.86317 -0.34527,1.38108 z"
           id="path3792"
           inkscape:connector-curvature="0" />
        <path
           style="fill:#000000;fill-opacity:1;stroke:none"
           d="m 400.28353,482.13339 1.43863,-0.11509 1.61126,-1.03582 -1.49617,1.43863 -1.43863,0.17264 z"
           id="path3794"
           inkscape:connector-curvature="0" />
        <path
           style="fill:url(#linearGradient3850);fill-opacity:1;stroke:none"
           d="m 370.245,481.86032 c -1.49402,2.646 -1.73436,4.21997 -1.26599,6.32996 3.42577,7.79927 13.33774,15.56991 21.75204,16.22771 -4.05021,4.23159 -18.05007,10.84089 -27.27636,3.68289 -2.01492,-0.62285 -5.2627,-7.37986 -1.61127,-16.11262 1.83703,-4.98172 6.64455,-9.50198 8.40158,-10.12794 z"
           id="path3840"
           inkscape:connector-curvature="0"
           sodipodi:nodetypes="cccccc" />
        <path
           style="fill:url(#linearGradient3865);fill-opacity:1;stroke:none"
           d="m 391.65177,487.26957 c 1.47655,6.51135 -2.50178,8.73533 -4.08569,10.87601 1.1475,-6.28612 -0.7897,-14.67775 -7.25069,-15.8249 3.87137,0.27682 9.86566,1.59123 11.33638,4.94889 z"
           id="path3857"
           inkscape:connector-curvature="0"
           sodipodi:nodetypes="cccc" />
        <path
           style="fill:#000000;fill-opacity:1;stroke:none"
           d="m 388.18139,483.8032 c 0.1509,0.98701 -1.73518,2.05811 -2.9057,1.70695 -2.17957,-0.17427 -3.24795,-1.67735 -3.27942,-2.73457 0.10168,-0.90169 1.34922,-1.64369 2.90236,-1.36168 1.29804,0.23347 2.52059,1.05924 3.28276,2.3893 z"
           id="path3856"
           inkscape:connector-curvature="0"
           sodipodi:nodetypes="ccccc" />
        <path
           style="fill:#000000;fill-opacity:1;stroke:none"
           d="m 386.78998,498.17777 c -1.2693,-1.90024 -1.18948,-3.0774 0.75851,-5.16737 1.84517,-1.69652 4.54931,-1.77329 6.11551,0.0948 1.38177,1.90905 0.57605,3.36775 -0.99554,4.93032 -1.66872,1.41933 -4.45954,1.50734 -5.87848,0.14223 z"
           id="path3782"
           inkscape:connector-curvature="0"
           sodipodi:nodetypes="ccccc" />
      </g>
    </g>
  </g>
</svg>
