<?xml version="1.0" encoding="UTF-8" standalone="no"?>
<!-- Created with Inkscape (http://www.inkscape.org/) -->

<svg
   xmlns:dc="http://purl.org/dc/elements/1.1/"
   xmlns:cc="http://creativecommons.org/ns#"
   xmlns:rdf="http://www.w3.org/1999/02/22-rdf-syntax-ns#"
   xmlns:svg="http://www.w3.org/2000/svg"
   xmlns="http://www.w3.org/2000/svg"
   xmlns:xlink="http://www.w3.org/1999/xlink"
   xmlns:sodipodi="http://sodipodi.sourceforge.net/DTD/sodipodi-0.dtd"
   xmlns:inkscape="http://www.inkscape.org/namespaces/inkscape"
   width="375.59055"
   height="357.87399"
   id="svg2"
   version="1.1"
   inkscape:version="0.48.3.1 r9886"
   sodipodi:docname="Обложка фирмы.svg">
  <defs
     id="defs4" />
  <sodipodi:namedview
     id="base"
     pagecolor="#ffffff"
     bordercolor="#666666"
     borderopacity="1.0"
     inkscape:pageopacity="0.0"
     inkscape:pageshadow="2"
     inkscape:zoom="1.3719913"
     inkscape:cx="187.79527"
     inkscape:cy="178.937"
     inkscape:document-units="px"
     inkscape:current-layer="layer1"
     showgrid="false"
     units="mm"
     showguides="true"
     inkscape:guide-bbox="true"
     inkscape:window-width="1366"
     inkscape:window-height="723"
     inkscape:window-x="-4"
     inkscape:window-y="-4"
     inkscape:window-maximized="1"
     inkscape:snap-nodes="false"
     inkscape:snap-bbox="true"
     inkscape:snap-bbox-edge-midpoints="true"
     inkscape:snap-global="false">
    <sodipodi:guide
       orientation="0,1"
       position="-126.0941,342.56777"
       id="guide3871" />
    <sodipodi:guide
       orientation="0,1"
       position="-115.16108,15.30622"
       id="guide3873" />
    <sodipodi:guide
       orientation="1,0"
       position="14.577352,361.51833"
       id="guide3875" />
    <sodipodi:guide
       orientation="1,0"
       position="360.0606,365.16267"
       id="guide3877" />
  </sodipodi:namedview>
  <metadata
     id="metadata7">
    <rdf:RDF>
      <cc:Work
         rdf:about="">
        <dc:format>image/svg+xml</dc:format>
        <dc:type
           rdf:resource="http://purl.org/dc/dcmitype/StillImage" />
        <dc:title></dc:title>
      </cc:Work>
    </rdf:RDF>
  </metadata>
  <g
     inkscape:label="Layer 1"
     inkscape:groupmode="layer"
     id="layer1"
     transform="translate(0,-694.48818)">
    <image
       y="695.21704"
       x="-3.5246626e-007"
       id="image3026"
       xlink:href="file:///D:/GraphWork/WorkingProjects/%D0%9A%D0%B0%D1%80%D1%82%D0%B8%D0%BD%D0%BA%D0%B8/%D0%A3%D0%B7%D0%BE%D1%80%D1%8B/%D0%A1%D0%BF%D0%B8%D1%80%D0%B0%D0%BB%D1%8C.jpg"
       height="359.33173"
       width="377.55344"
       inkscape:export-filename="C:\Documents and Settings\Admin\Рабочий стол\Новая папка\Обложка.png"
       inkscape:export-xdpi="300"
       inkscape:export-ydpi="300" />
    <g
       id="g3814"
       transform="translate(196.06538,3.2711324)"
       inkscape:export-filename="C:\Documents and Settings\Admin\Рабочий стол\Новая папка\Обложка.png"
       inkscape:export-xdpi="300"
       inkscape:export-ydpi="300">
      <g
         style="stroke:#000000;stroke-width:7.62131739;stroke-miterlimit:4;stroke-opacity:1;stroke-dasharray:none"
         transform="matrix(0.03017851,0,0,0.03017851,12.201168,691.81895)"
         id="g2984">
        <path
           style="fill:#ea0669;stroke:#000000;stroke-width:7.62131739;stroke-miterlimit:4;stroke-opacity:1;stroke-dasharray:none"
           d="m 1676.6592,2073.5743 c -102.712,-26.6556 -202.0412,-61.2431 -289.3806,-100.7655 -60.2453,-27.2618 -137.8755,-70.5556 -183,-102.0575 -82.4756,-57.5771 -133.8654,-113.6251 -160.9319,-175.5193 -8.6543,-19.7902 -15.6738,-44.9582 -18.7305,-67.157 -1.731,-12.5714 -1.7262,-49.8317 0.01,-61.5 12.1573,-81.8012 62.4996,-154.2329 157.1545,-226.1108 69.3779,-52.6835 163.2044,-103.7786 267,-145.4001 25.5771,-10.2563 90.5802,-33.4166 121.5,-43.2899 43.1399,-13.7754 118.0457,-35.4869 119.0313,-34.5013 0.1957,0.1958 -2.2062,1.332 -5.3377,2.5249 -3.1315,1.1928 -18.7013,7.1532 -34.5995,13.2452 -111.8,42.8403 -214.1064,97.9602 -289.5941,156.0253 -31.9533,24.5784 -53.2274,43.8104 -82.0286,74.1546 -37.586,39.5996 -64.3173,77.9378 -82.4233,118.2122 -12.8417,28.5647 -19.8432,51.766 -24.2495,80.3567 -2.3888,15.5001 -2.3559,54.4777 0.06,70.7832 9.4858,64.0284 40.0671,123.629 96.2071,187.5 21.357,24.298 47.0364,48.4683 76.9346,72.4133 82.1874,65.8225 194.8207,125.9675 330.9501,176.7237 32.4065,12.0828 32.5206,12.4307 1.4305,4.3623 z m 2007.1699,-3.3896 c 0.8528,-0.5422 10.9778,-4.5556 22.5,-8.9186 166.904,-63.1998 292.8383,-137.7352 376.5025,-222.8366 69.0596,-70.2459 104.2332,-135.1346 115.109,-212.3545 2.2412,-15.9132 1.6786,-56.1998 -1.047,-74.9629 -6.4809,-44.6151 -23.7729,-88.7007 -50.4171,-128.5371 -42.9894,-64.2745 -106.9267,-124.4998 -184.7809,-174.0529 -79.8591,-50.8291 -153.2653,-86.3776 -263.1939,-127.4572 -9.2273,-3.4481 -16.6205,-6.4258 -16.4293,-6.617 0.8818,-0.8818 53.6442,13.5686 88.7062,24.2947 171.4182,52.4398 301.3816,111.7231 401.5,183.1457 62.6952,44.7256 111.262,93.684 139.9379,141.0662 46.3272,76.5481 50.2244,159.1411 11.1771,236.8739 -17.6401,35.1166 -40.2223,65.0062 -74.2416,98.2653 -78.5394,76.7844 -206.4057,150.2653 -361.9148,207.9814 -59.5047,22.0848 -126.1799,43.5873 -185.9662,59.9733 -20.1537,5.5237 -19.3091,5.3234 -17.4419,4.1363 z"
           id="path2987"
           inkscape:connector-curvature="0"
           sodipodi:nodetypes="cssssssssccssssscssscccsssssssssssssssc" />
        <path
           inkscape:connector-curvature="0"
           id="path3000"
           d="m 3903.2786,2493.9447 c 0.55,-0.5629 16.3,-4.9062 35,-9.6519 59.2653,-15.0402 164.4198,-45.3959 220.5,-63.6534 59.1032,-19.2415 138.6309,-47.7671 179.5,-64.3843 104.0538,-42.3079 181.737,-79.687 260.5,-125.3455 52.0845,-30.1931 117.3233,-74.6808 153.7648,-104.8554 82.5623,-68.364 140.1813,-137.7065 173.5079,-208.8108 17.8555,-38.0959 28.5194,-75.2352 32.8764,-114.5 1.8606,-16.7675 1.585,-55.4443 -0.5131,-72 -8.5966,-67.8342 -32.4882,-125.4259 -77.9909,-188 -44.4887,-61.1797 -112.4413,-123.7173 -200.6497,-184.6603 -57.1686,-39.4976 -110.507,-70.7934 -177.4954,-104.1438 -130.5424,-64.9909 -285.2754,-122.414 -459.5935,-170.5601 -121.8377,-33.6511 -285.436,-68.4801 -427.9065,-91.09851 -19.525,-3.0998 -36.2828,-5.9513 -37.2396,-6.3366 -1.5043,-0.6059 -1.1213,-1.4784 2.831,-6.4507 2.5139,-3.1625 5.2024,-5.75 5.9746,-5.75 3.8726,0 80.5977,11.7122 113.934,17.3922 183.5474,31.27361 346.6876,68.91481 512.5,118.24851 65.1808,19.3931 139.5143,44.3018 191.5,64.1705 107.2793,41.0017 195.542,81.2634 275,125.4435 94.184,52.368 176.3942,112.1056 236.9213,172.1577 43.5922,43.2502 71.4134,79.1215 95.8524,123.5876 70.6598,128.5634 55.2057,268.4593 -43.6351,395 -46.3602,59.3525 -116.6889,122.0518 -194.5723,173.4647 -53.6359,35.4065 -88.9313,56.0179 -148.5663,86.7579 -96.3922,49.6874 -205.8974,95.0111 -332,137.4132 -120.8229,40.6268 -246.2917,75.39 -373,103.3457 -7.7,1.6988 -14.9,3.3486 -16,3.666 -1.3546,0.391 -1.6773,0.247 -1,-0.4462 z m -2555,-23.6743 c -37.95,-8.4128 -80.7,-18.5402 -95,-22.5054 -166.1976,-46.0842 -316.59649,-99.4531 -434.00008,-154.0044 -99.3633,-46.1689 -189.70962,-97.6604 -254.79977,-145.2192 -82.56073,-60.3238 -147.33222,-125.4394 -185.86688,-186.8543 -17.26319,-27.5134 -29.26485,-51.2512 -37.89109,-74.9437 -14.9515,-41.0653 -20.66379,-70.9058 -21.63134,-113 -1.0336,-44.9679 6.48439,-85.2835 24.42868,-131 19.23034,-48.993 55.39344,-102.3498 103.2604,-152.3557 11.77207,-12.2981 41.18683,-39.5554 58.5,-54.2094 53.60889,-45.3748 126.52199,-94.457 200,-134.6321 89.21508,-48.7796 171.09677,-85.8077 286,-129.3333 45.89218,-17.3841 141.51318,-48.9462 205.50008,-67.8304 169.6555,-50.0698 408.5527,-100.6016 634,-134.10431 20.625,-3.065 38.5778,-5.6767 39.8951,-5.8038 2.0898,-0.2015 2.6448,0.5099 4.3542,5.5815 1.0775,3.1969 1.7997,5.9485 1.6049,6.1148 -0.1948,0.1662 -17.6792,2.8703 -38.8542,6.0091 -133.3345,19.76451 -270.6236,46.67891 -387.9933,76.06291 -141.7522,35.4883 -317.5135,91.3176 -425.3055,135.0951 -101.91279,41.3898 -177.98366,78.4943 -253.70128,123.7458 -96.80867,57.8563 -174.54252,118.1966 -233.4011,181.1757 -51.87527,55.507 -90.54904,119.4414 -108.87191,179.9841 -10.95073,36.1835 -14.24918,59.0264 -14.15097,98 0.0374,14.85 0.62654,31.95 1.30915,38 9.98797,88.5238 50.441,167.8412 128.24112,251.4462 57.41041,61.6939 146.16297,127.634 249.37371,185.2761 93.10825,52 192.82591,96.437 313.00008,139.4817 85.9969,30.8028 204.7605,66.8023 298,90.3293 7.15,1.8042 13.4275,3.6597 13.95,4.1235 1.3816,1.2263 4.8414,1.9499 -69.95,-14.6298 z m 1158.5,-93.5676 c -130.1488,-3.105 -165.7443,-4.2559 -199,-6.4345 -192.5766,-12.6159 -392.6155,-37.5072 -567,-70.553 -212.7018,-40.307 -435.3194,-103.8338 -589.5,-168.2214 -97.8079,-40.8457 -181.09032,-84.5332 -245.73082,-128.9033 -85.99617,-59.0288 -148.03504,-119.6722 -184.49714,-180.3472 -38.13246,-63.4546 -51.45091,-127.9766 -40.25136,-195 6.08312,-36.4043 22.99957,-76.8521 48.72365,-116.5 28.38563,-43.7501 84.34502,-99.8234 145.49743,-145.7936 75.96114,-57.1024 181.01584,-113.4896 300.75824,-161.4294 35.4589,-14.1963 86.627,-33.068 88.2198,-32.5371 0.4697,0.1566 -5.3501,3.1462 -12.9329,6.6436 -33.4926,15.4476 -96.4738,49.2679 -127.7869,68.6203 -35.9797,22.2364 -77.7867,52.0109 -107,76.2042 -39.00382,32.3014 -81.66048,77.039 -105.94354,111.1119 -38.11543,53.4819 -60.15617,105.9636 -66.01089,157.1801 -3.12807,27.3641 -1.5785,67.7613 3.52899,92 12.12548,57.5442 38.99644,109.9025 84.4235,164.5 67.6866,81.3506 179.14484,160.7166 319.59944,227.5771 140.6848,66.9701 290.7198,118.2994 472.9025,161.7873 142.2421,33.9538 329.0157,63.8028 498,79.5873 102.0419,9.5315 109.4889,9.9571 301.0513,17.2038 l 179.5512,6.7923 69.9488,-2.291 c 173.6141,-5.6864 282.4525,-13.1549 417.9487,-28.6798 220.4032,-25.2533 388.4631,-56.7397 566.5,-106.1349 148.833,-41.2928 298.0404,-98.0439 403.5181,-153.4783 107.5738,-56.5359 182.3921,-108.7628 244.0245,-170.3413 40.3126,-40.2774 67.8603,-78.2798 90.4537,-124.7823 32.5589,-67.014 40.1678,-147.4218 20.4372,-215.9714 -11.2444,-39.0661 -26.224,-70.241 -51.6239,-107.4377 -66.8333,-97.8736 -182.4004,-184.4647 -347.4973,-260.3697 -16.0532,-7.3807 -29.0189,-13.5882 -28.8126,-13.7944 0.8586,-0.8586 46.4107,15.0391 78.5003,27.3967 78.8341,30.3587 146.5701,61.3209 210.5,96.2198 128.9232,70.3783 224.805,151.9571 274.556,233.5997 40.2127,65.9902 53.4414,134.0786 39.3443,202.5063 -5.0098,24.3176 -12.6172,45.6694 -25.8705,72.6105 -16.4115,33.3613 -35.9668,60.903 -67.234,94.6929 -13.9492,15.0747 -41.8793,41.8585 -56.2958,53.9855 -51.1657,43.0397 -117.0057,86.1904 -189,123.868 -77.3779,40.4951 -173.6354,81.9369 -263.5,113.4447 -77.2931,27.1001 -173.7592,55.883 -256.5,76.5328 -248.7847,62.0896 -516.9506,101.4626 -813.5,119.4408 -83.4083,5.0565 -243.6874,9.7217 -323,9.4013 -17.05,-0.069 -102.325,-1.8268 -189.5,-3.9066 z"
           style="fill:#16b0ca;stroke:#000000;stroke-width:7.62131739;stroke-miterlimit:4;stroke-opacity:1;stroke-dasharray:none"
           sodipodi:nodetypes="ssssssssssssssccsssssssssssscssssssssssssssscscsssssssssssscssssssssssscssssssssssscssssssssscsssssssssssss" />
      </g>
      <path
         d="m 113.63742,725.53935 0,-0.76059 -1.92413,0.18239 0.83259,-1.14925 c 0.0583,-0.006 0.0977,-0.01 0.11532,-0.01 0.30141,0 0.11471,-0.31568 0.11471,-0.31568 0,0 -0.0206,0.003 -0.0592,0.009 l -2.06234,-4.40442 c 0.0468,-0.0775 0.14006,-0.14916 0.28369,-0.25685 0.28712,-0.21538 0.37327,-0.48823 0.28712,-0.45931 -0.036,0.0122 -0.14682,10e-4 -0.26718,-0.0148 l -2.3192,-2.99388 c 0.0545,-0.17353 0.15311,-0.45968 0.23163,-0.5382 0.0559,-0.0557 0.0572,-0.12172 0.0441,-0.17451 l 0.001,-0.002 -0.002,-10e-4 c -0.0142,-0.0545 -0.0433,-0.0949 -0.0433,-0.0949 l -0.0283,0.0398 -2.00413,-1.55282 -1.45682,-1.88056 0,-2.79462 -0.30153,0 0.0294,1.80044 -1.01586,0.59813 -6.290633,0.91308 -2.181348,-1.93852 c -0.0875,-0.38965 -0.207991,-0.90114 -0.190523,-1.01425 0.02868,-0.18645 0.02868,-0.37365 -0.05747,-0.4598 -0.08615,-0.0861 -0.301529,0.21538 -0.301529,0.21538 l 0,-1.65103 -0.272977,0 0.02892,1.80918 c 0,0 -0.818438,0.78951 -0.933505,0.91874 -0.04099,0.0465 -0.08209,0.26928 -0.118152,0.54263 l -4.276561,3.67349 -3.801614,-2.79241 c -0.04873,-0.41673 0.04567,-0.93573 0.08382,-1.05018 0.04307,-0.12911 0.100298,-0.28738 0.02867,-0.30141 -0.07175,-0.0145 -0.847105,0.31568 -0.847105,0.31568 l 0,-0.44503 -0.215381,0 0.02867,0.56011 -1.249312,0.73216 c 0,0 -0.122827,0.72034 -0.18338,1.19885 l -10.458755,12.89339 c -0.01785,0.007 -0.03606,0.0148 -0.05502,0.0224 -0.315806,0.12922 -0.11495,0.40219 0.01427,0.40219 0.01711,0 0.09514,0.0249 0.217723,0.0686 l -0.02622,0.0324 0.01748,0.0134 0.03102,-0.0377 c 0.192729,0.0687 0.484902,0.17907 0.819793,0.30695 l -0.04985,0.0619 0.01747,0.0134 0.05416,-0.0666 c 1.107904,0.42533 2.666008,1.04316 2.666008,1.04316 0,0 0.459438,0.4598 0.760967,0.575 0.301528,0.11434 2.139258,1.32045 2.139258,1.32045 l 32.623246,0 1.99586,-2.23993 -0.47382,-0.86151 z m -0.95431,-2.03871 c -0.81721,0.12517 -6.75499,1.03382 -6.9284,1.03382 -0.18682,0 -0.1152,-0.1003 -0.1152,-0.1003 0,0 5.93028,-1.04859 6.21765,-1.04859 0.28701,0 0.34449,-0.0714 0.24394,-0.14338 -0.10055,-0.072 -1.36389,-3.60432 -1.45005,-3.86277 -0.0363,-0.10843 -0.0417,-0.18375 -0.0151,-0.25107 l 2.0472,4.37229 z m -1.77164,-5.14765 c -0.15408,-0.0223 -0.30965,-0.0505 -0.33242,-0.0505 -0.0432,0 -0.48798,-0.28713 -1.03381,-0.81844 -0.54558,-0.53106 -0.94779,-1.9816 -0.94779,-1.9816 0,0 0.0111,-0.039 0.0293,-0.0982 l 2.28472,2.94871 z m -2.08818,-3.73146 -0.36455,0.51211 -1.54014,-1.98788 1.90469,1.47577 z m -2.08929,-1.6605 -1.35282,-1.04797 0,-0.69795 1.35282,1.74592 z m -1.52513,3.28864 -0.0176,1.04722 -0.41623,0.57414 -1.49534,-1.32796 c 0.18276,-0.61241 0.35838,-1.1991 0.49943,-1.66715 l 1.38715,-1.23184 0.0426,2.60559 z m -0.0183,1.08562 -0.0151,0.89179 -0.38361,-0.34128 0.39875,-0.55051 z m -0.91505,1.16846 c -0.0573,0.0861 -2.09618,1.73718 -2.09618,1.73718 0,0 0.57303,-1.93114 1.09203,-3.66894 l 1.48746,1.32132 -0.47457,0.65548 c 0.005,-0.0443 0.004,-0.0645 -0.009,-0.045 z m -7.681851,2.87167 c 0.0083,-0.0448 0.02375,-0.098 0.04294,-0.15446 l 5.534241,-4.91616 -0.40799,0.57611 -4.43691,6.21753 c 0,0 -1.148766,1.5938 -1.206121,1.56525 -0.05735,-0.029 0.430762,-3.0585 0.473836,-3.28827 z m 0.229656,-0.68934 c -0.04296,0 -1.608077,0.24406 -1.608077,0.24406 l 0.01428,-0.81844 c 0,0 1.091415,0.20123 1.33546,0.28738 0.244059,0.0863 0.387679,0.0141 0.330216,-0.18671 -0.03619,-0.12701 -0.164069,-1.07184 -0.23532,-1.81705 l 4.332046,-3.84788 1.4877,1.32131 -0.23937,0.33784 -5.585431,4.96182 c 0.08074,-0.22547 0.200859,-0.48233 0.168499,-0.48233 z m -0.200856,-3.18759 c 0.07163,-0.25845 0.215375,-0.4022 0.215375,-0.44516 0,-0.0431 -1.866771,0.43076 -1.866771,0.43076 l -0.02855,-0.74656 c 0,0 1.134489,-0.0144 1.378422,0.0141 0.244045,0.029 0.387676,-0.0141 0.387676,-0.0141 0,0 -0.182145,-0.7793 -0.317034,-1.41067 l 3.294295,-1.93975 1.285628,1.14224 -4.314708,3.83225 c -0.03975,-0.41992 -0.06018,-0.77056 -0.03433,-0.86311 z m -0.373161,-2.94366 c 0,-0.21538 -0.04307,-0.91875 -0.0576,-1.01942 -0.01452,-0.10055 -1.019421,0.37328 -1.019421,0.37328 0,0 -0.129228,-0.51691 -0.129228,-0.70336 0,-0.18683 0.37316,-0.21538 0.703371,-0.14338 0.330575,0.0714 0.416596,0.11446 0.516906,0.14338 0.06966,0.0196 -0.06695,-0.7094 -0.224362,-1.24649 l 1.752801,-0.25439 1.876376,1.66653 -3.28162,1.93238 c -0.07705,-0.36159 -0.137225,-0.67038 -0.137225,-0.74853 z m 7.839632,-0.68921 c 0.0288,-0.0767 0.0351,-0.12788 0.0308,-0.16148 l 1.02434,-1.41411 0.0217,1.31812 -1.37165,1.21867 c 0.16171,-0.53783 0.27482,-0.90804 0.29488,-0.9612 z m 0.0238,-0.18978 c -0.0169,-0.0398 -0.0526,-0.0398 -0.0526,-0.0398 l -1.56487,2.2104 -1.48278,-1.31713 4.10842,-3.64949 0.0226,1.37313 -1.03086,1.42285 z m 1.0076,-2.83216 -4.12837,3.66733 -1.281442,-1.13843 4.386702,-2.58281 1.01979,-0.14818 0.003,0.20209 z m -0.0107,-0.65032 0.007,0.42337 -0.96317,0.13993 0.95615,-0.5633 z m -1.07272,0.60503 -4.344361,2.55832 -1.865659,-1.6573 6.21002,-0.90102 z m -6.269218,0.88452 -1.735832,0.25169 c -0.06793,-0.22818 -0.139316,-0.4187 -0.199245,-0.49537 -0.200856,-0.25845 0,-0.86164 -0.02855,-0.94766 -0.02855,-0.0862 -0.775358,0.31568 -0.775358,0.31568 0,0 0.02855,-0.37328 0.02855,-0.47383 0,-0.10031 0.129227,-0.22953 0.301529,-0.21538 0.172301,0.0144 0.301646,0.11507 0.344605,0.086 0.01587,-0.0103 -0.02081,-0.18843 -0.07201,-0.41858 l 2.13631,1.89742 z m -3.995699,-1.54949 c -0.06227,0.48565 -0.10732,1.11 -0.10732,1.19074 0,0.12922 0.186464,-0.0282 0.25846,-0.14338 0.07175,-0.11508 0.244054,-0.64614 0.459435,-0.83259 0.215375,-0.18708 0.47383,-0.17231 0.47383,-0.17231 l -0.04308,0.76047 c 0,0 -1.091412,0.7041 -1.292268,0.83333 -0.199257,0.12787 -0.18695,1.17104 -0.200609,1.38642 l -2.149102,1.8461 -1.653369,-1.21474 4.25402,-3.65404 z m -6.807417,14.42455 -0.753081,-0.55322 c 0.09784,-0.67506 0.230507,-1.52586 0.273583,-1.63896 0.01958,-0.0497 0.03668,-0.11372 0.05551,-0.18105 l 0.849694,-0.73019 1.464693,1.47934 -1.890403,1.62408 z m 1.905908,-1.60796 3.195352,3.22796 -2.849388,0.034 -2.23366,-1.64044 1.887696,-1.62149 z m -7.080515,-4.11618 -1.622599,2.45543 c 0,0 1.321071,-2.85751 1.421499,-3.00089 0.04307,-0.0615 0.07298,-0.13599 0.09292,-0.20122 l 0.6993,-0.96527 c -0.0491,0.47753 -0.09857,0.96921 -0.120735,1.2156 l -0.430509,0.59358 c -0.01415,-0.0565 -0.03987,-0.0972 -0.03987,-0.0972 z m 0.595676,-1.75625 -0.686752,0.94754 c 0.01379,-0.0565 0.0192,-0.0959 0.0192,-0.0959 l -0.947669,1.22064 c 0,0 0.861515,-1.62284 1.062619,-1.73742 0.127009,-0.0724 0.08763,-0.12837 0.04147,-0.15926 l 0.575242,-0.79357 c -0.0192,0.18436 -0.04147,0.39876 -0.06411,0.61795 z m 0.122331,-1.17313 c 0,0 -0.02228,0.21045 -0.05354,0.51075 l -0.599122,0.82656 c -0.01981,-0.0105 -0.03655,-0.0161 -0.03655,-0.0161 l -2.756966,2.78576 c 0,0 -1.399948,1.39601 -2.706002,2.69567 l 6.488042,-7.99803 c -0.03285,0.26977 -0.06129,0.48958 -0.0774,0.57807 -0.0576,0.31568 0.04307,0.22953 0.157776,0.0861 0.11495,-0.14338 1.033931,-0.89043 1.321068,-1.01966 0.287251,-0.12923 0.445033,-0.0714 0.445033,-0.0714 l 0,0.12935 c 0,0 -0.243933,0.014 -0.358883,0.0282 -0.114829,0.0148 0.100543,0.33045 0.201101,0.4166 0.100425,0.0862 0.12923,0.28738 0.12923,0.28738 0,0 -1.780625,0.54534 -1.952927,0.61734 -0.172304,0.0719 -0.200856,0.14338 -0.200856,0.14338 z m 3.575275,-1.52193 c 0.244051,0.10031 0.430756,0.11508 0.430756,0.11508 0,0 -0.06634,-0.25169 -0.155075,-0.58952 l 1.371653,1.3858 -1.067046,0.91677 -0.182888,-0.18485 c -0.05919,-0.52331 -0.110272,-0.98324 -0.110272,-1.0257 0,-0.10055 0.229782,-0.37315 0.229782,-0.37315 l -1.694475,0.43075 -0.05748,-0.37353 0.660656,-0.0572 -0.574508,-0.25858 -0.01414,-0.10055 c 0,0 0.918736,0.0144 1.16304,0.1147 z m 0.875663,7.15068 -2.038703,0.15814 c 0,0 -0.05748,-0.34448 -0.01453,-0.5889 0.04308,-0.24393 0.200977,-0.27261 0.200977,-0.27261 0,0 1.119967,0.30165 1.349866,0.38781 0.229897,0.086 0.359007,0.0282 0.359007,-0.0862 0,-0.0215 -0.0094,-0.12664 -0.02425,-0.2822 l 0.583607,0.58964 -0.823104,0.70681 c 0.0491,-0.17169 0.112732,-0.35334 0.249344,-0.383 0.200853,-0.0431 0.157779,-0.22953 0.157779,-0.22953 z m -0.474572,-5.47405 0.163323,0.16492 -0.131572,0.11298 c -0.01083,-0.0928 -0.02128,-0.18634 -0.03175,-0.2779 z m -0.300786,1.65447 c 0.31605,0.0148 0.473827,0 0.473827,-0.0861 0,-0.0417 -0.0683,-0.64552 -0.138333,-1.26347 l 0.143997,-0.12381 1.40943,1.42346 -1.481059,1.27209 c -0.02621,-0.2395 -0.04505,-0.40344 -0.04874,-0.41784 -0.01452,-0.0572 0.08615,-0.22953 0.229782,-0.22953 0.143375,0 0.143375,-0.0863 0.143375,-0.17242 0,-0.086 -2.038694,0.2438 -2.038694,0.2438 l 0.04307,-0.74656 c 0,0 0.947662,0.0863 1.263345,0.10043 z m 0.604415,3.1028 c -0.04517,-0.46448 -0.135631,-1.32661 -0.193474,-1.85373 l 1.493863,-1.28279 1.683022,1.70013 -2.380598,2.04474 -0.602813,-0.60835 z m 1.316139,-3.15067 1.067167,-0.91665 1.683025,1.70074 -1.067173,0.91665 -1.683019,-1.70074 z m -0.01564,-0.0155 -1.409186,-1.4242 1.067176,-0.91665 1.409182,1.4242 -1.067172,0.91665 z m -3.326418,-6.31168 -0.08602,0.83295 c 0,0 -1.234914,0.57414 -1.407101,0.68921 -0.01821,0.0122 -0.03507,0.0229 -0.05095,0.033 l 1.256331,-1.54863 c 0.148065,-0.0331 0.287746,-0.007 0.287746,-0.007 z m 0.789887,13.46838 c 0.287003,0.10067 0.545455,0.12923 0.545455,0.0431 0,-0.0336 0.04813,-0.38892 0.110767,-0.82176 l 0.739914,0.54385 -2.315253,1.98899 0,-1.96953 c 0,0 0.631989,0.11519 0.919117,0.21537 z m 1.85459,-3.36593 2.380595,-2.04473 1.464325,1.47934 -2.380722,2.04486 -1.464198,-1.47947 z m 2.396481,-2.05889 1.067161,-0.91677 1.347042,1.36168 c -0.01133,0.0861 -0.02314,0.1696 -0.03459,0.24824 l -0.91542,0.78656 -1.464195,-1.47971 z m 2.669703,-1.15098 c -0.258458,0.0572 -0.258458,0.24356 -0.186464,0.50214 0.04135,0.14941 -0.008,0.63272 -0.06559,1.06754 l -1.334732,-1.34888 1.795395,-1.54211 c -0.06794,0.45229 -0.122455,0.8401 -0.122455,0.93363 0,0.24369 0.05747,0.21538 0.143619,0.0431 0.08615,-0.1723 0.962185,-0.77536 1.277873,-0.94767 0.315924,-0.1723 0.732288,-0.1723 0.732288,-0.1723 l 0,0.74644 c 0,0 -1.981479,0.66017 -2.239931,0.71813 z m 0.213655,-1.35491 -1.815953,1.55983 -1.683263,-1.7005 1.98615,-1.70629 1.614722,1.18667 c -0.03397,0.21674 -0.06893,0.44491 -0.101656,0.66029 z m -3.514728,-0.15606 -1.40943,-1.42432 1.739516,-1.49411 1.653119,1.21412 -1.983205,1.70431 z m 0.311623,-2.93197 -1.736803,1.49177 -1.398361,-1.41226 c -0.176369,-0.67112 -0.432723,-1.645 -0.451561,-1.71072 -0.02867,-0.10055 0.12923,-0.31593 0.12923,-0.38768 0,-0.0716 -1.077007,0.30153 -1.077007,0.30153 0,0 0.02867,-0.25845 0.01452,-0.41623 -0.01452,-0.15815 0.01415,-0.27298 0.143378,-0.30153 0.129224,-0.0289 0.344602,0.0716 0.588906,0.20085 0.244051,0.12935 0.129228,0.0145 0.02868,-0.41623 -0.0095,-0.0411 -0.01723,-0.0834 -0.0229,-0.1275 l 3.78192,2.778 z m -16.136244,11.00471 c -0.03827,-0.0768 -0.168121,-0.0283 -0.418811,0.0747 l 10.410626,-12.83406 c -0.01415,0.11581 -0.02424,0.21402 -0.02695,0.28134 -0.01427,0.34461 0.02867,0.28738 0.1579,0.0575 0.129224,-0.22978 0.617464,-0.77536 0.804287,-0.93314 0.0491,-0.0417 0.106696,-0.0687 0.164301,-0.0852 l -1.277622,1.57472 c -0.0891,0.053 -0.121596,0.0612 -0.121596,0.0612 0,0 -0.0041,0.0378 -0.01132,0.10301 l -9.605364,11.84124 c -0.03594,-0.0657 -0.06388,-0.1184 -0.07545,-0.14129 z m 0.387676,0.61721 c -0.05071,-0.0202 -0.2011,-0.27593 -0.300659,-0.455 l 9.589484,-11.82179 c -0.0331,0.29882 -0.110761,1.0028 -0.174637,1.53398 l -6.641889,8.18781 c -1.035406,1.03037 -1.974704,1.96327 -2.055814,2.0381 -0.186829,0.17217 -0.344609,0.54582 -0.416485,0.5169 z m 0.186579,0.0144 0.310277,-0.13427 -0.160619,0.1979 c -0.09069,-0.0384 -0.149658,-0.0636 -0.149658,-0.0636 z m 0.170955,0.0731 0.183497,-0.22695 2.330762,-1.0092 c 0,0 -0.674936,0.83296 -0.919107,1.04833 -0.173657,0.15335 -0.15114,0.27717 -0.123443,0.33649 l -0.179438,0.24713 c -0.207876,-0.0351 -0.355681,-0.0608 -0.400611,-0.0667 -0.144488,-0.0209 -0.629886,-0.21944 -0.89166,-0.32909 z m 1.316885,0.39973 0.166639,-0.22952 c 0.0063,0.01 0.0112,0.0151 0.0112,0.0151 l 2.656413,-1.19159 c 0,0 -0.904592,1.42149 -0.962191,1.49312 -0.04086,0.0512 -0.01612,0.13157 0.03286,0.168 l -0.03569,0.0491 c -0.595669,-0.0875 -1.384816,-0.2214 -1.869232,-0.30424 z m 6.050522,-3.47361 c -0.02855,0.24356 -0.114835,0.96182 -0.157906,1.206 -0.04308,0.24405 0,1.07701 0,1.07701 l -0.24405,0.0286 c 0,0 -0.0288,1.10555 -0.0288,1.34985 0,0.24406 0.08615,0.37329 -0.157909,0.34461 -0.244041,-0.0289 -2.369158,-0.11519 -2.900453,-0.14375 -0.133661,-0.007 -0.375998,-0.038 -0.667434,-0.0804 l 0.02991,-0.0417 c 0.01526,0.007 0.03175,0.0101 0.04886,0.007 0.08615,-0.0145 0.918866,-0.38768 1.363896,-0.60306 0.445278,-0.21538 1.220636,-0.33058 1.220636,-0.50288 0,-0.17217 0.488237,-1.75157 0.574388,-2.16781 0.08616,-0.41672 1.177321,-3.64739 1.263472,-3.77674 0.03531,-0.0523 0.039,-0.10991 0.03162,-0.15938 l 0.420664,-0.58091 c -0.0035,0.0425 -0.006,0.0743 -0.007,0.0942 -0.01452,0.25858 0.05735,0.20135 0.200856,0.0432 0.143749,-0.1579 0.445278,-0.40195 0.919107,-0.66028 0.473833,-0.25846 1.263472,-0.1872 1.263472,-0.1872 l -0.07176,0.71813 c 0,0 -2.096301,0.47396 -2.311679,0.53119 -0.215381,0.058 -0.272977,0.10092 -0.272977,0.10092 0,0 -0.272729,2.35439 -0.229653,2.56976 0.04307,0.21538 0.387677,-0.2726 0.789639,-0.54521 0.402198,-0.27334 1.608316,-0.4166 1.852363,-0.4166 0.244063,0 0.129113,0.1003 0.129113,0.25845 0,0.15815 -0.157779,0.1152 -0.229655,0.14338 -0.07176,0.0289 -0.01428,0.1872 0.07188,0.25846 0.08615,0.072 0.157779,0.47383 0.157779,0.47383 0,0 -2.771115,0.31642 -2.914619,0.31642 -0.143753,0 -0.114947,0.10018 -0.143753,0.3446 z m 6.260484,4.39371 -0.660541,0.84699 -2.426757,-0.1147 0,-0.95973 2.333849,-2.00436 2.215063,1.62677 -1.375346,0.016 -0.08627,0.58903 z m 6.892213,-0.84736 -0.718128,0.10092 -0.01416,0.0861 -1.784923,0.0208 -3.208516,-3.24149 2.380598,-2.04536 0.654753,0.66164 c -0.149287,0.0417 -0.110275,0.0908 -0.124061,0.32504 -0.0144,0.2443 -0.502381,1.66592 -0.545461,1.8813 -0.04307,0.21537 -0.172301,1.04784 -0.115197,1.26322 0.0576,0.21537 0.129354,-0.27249 0.258581,-0.58816 0.12923,-0.31643 0.746683,-0.38769 0.904592,-0.38769 0.158141,0 0.804275,0.22941 1.335339,0.37279 0.531431,0.14375 0.976582,0.24443 0.976582,0.24443 l 0,1.30641 z m -2.666995,-4.42349 -0.662376,-0.6689 0.894868,-0.76872 c -0.02745,0.18843 -0.05194,0.34264 -0.06388,0.41931 -0.04308,0.27261 -0.072,0.43076 0.01416,0.57414 0.08615,0.14399 0.603057,-0.67444 0.976579,-0.9329 0.373158,-0.25845 1.564883,-0.1723 1.564883,-0.1723 l 0.04307,1.00502 c 0,0 -2.566698,0.49598 -2.767306,0.54435 z m 1.460884,-6.74748 c -0.158151,0.0861 -0.445287,0.24442 -0.459679,0.38768 -0.006,0.0607 -0.07606,0.4998 -0.154825,1.0055 l -1.602295,-1.17645 2.128309,-1.82838 c -0.02327,0.25476 -0.168607,1.30002 -0.126891,1.41042 0.04307,0.11507 0.200853,-0.18633 0.24393,-0.38768 0.04307,-0.20061 0.473833,-0.67432 0.689204,-0.84674 0.215382,-0.17218 0.646137,-0.2443 0.646137,-0.2443 l 0.01453,0.89043 c 0,0 -1.220518,0.70336 -1.378415,0.78952 z m 2.670563,11.17097 c 0,0 5.435515,-1.86775 6.522505,-2.16264 l -1.45854,2.01323 c -2.349212,0.1339 -4.900896,0.27852 -4.977812,0.27852 -0.143502,0 -0.08615,-0.12911 -0.08615,-0.12911 z m 5.092635,-0.15076 1.46421,-2.02135 c 0.0444,-0.0115 0.0801,-0.0198 0.10571,-0.0249 0.60306,-0.11471 0.54546,-0.25846 0.54546,-0.63137 0,-0.37353 0.87604,-3.76234 0.87604,-3.89157 0,-0.0916 0.0861,-0.47051 0.11643,-0.65352 l 0.49845,-0.68859 0.39913,0.35469 -0.12381,7.3343 c 0,0 -1.86173,0.10682 -3.88161,0.22227 z m 4.21181,-13.86456 1.43332,1.11049 1.62444,2.09668 -3.05776,4.30362 0,-7.51079 z m 0.12911,12.86705 c 0,0 5.96116,-0.88772 7.00557,-1.00698 l -0.83211,1.14901 -6.21666,0.59026 0.0432,-0.73229"
         style="fill:#ffffff;fill-opacity:1;fill-rule:nonzero;stroke:#000000;stroke-width:0;stroke-miterlimit:4;stroke-opacity:1;stroke-dasharray:none"
         id="path3095"
         inkscape:connector-curvature="0" />
      <text
         sodipodi:linespacing="125%"
         id="text3293"
         y="746.25146"
         x="53.177593"
         style="font-size:18.80707741px;font-style:normal;font-variant:normal;font-weight:bold;font-stretch:normal;text-align:start;line-height:125%;letter-spacing:0px;word-spacing:0px;writing-mode:lr-tb;text-anchor:start;fill:#000000;fill-opacity:1;stroke:#000000;stroke-width:0.40000001;stroke-miterlimit:4;stroke-opacity:1;stroke-dasharray:none;font-family:Impact;-inkscape-font-specification:Impact Bold"
         xml:space="preserve"><tspan
           y="746.25146"
           x="53.177593"
           id="tspan3295"
           sodipodi:role="line"><tspan
             id="tspan3297"
             style="fill:#eb0769;stroke:#000000;stroke-width:0.40000001;stroke-miterlimit:4;stroke-opacity:1;stroke-dasharray:none">Круг</tspan><tspan
             id="tspan3299"
             style="fill:#16b0ca;stroke:#000000;stroke-width:0.40000001;stroke-miterlimit:4;stroke-opacity:1;stroke-dasharray:none"> Услуг</tspan></tspan></text>
      <text
         sodipodi:linespacing="125%"
         id="text3301"
         y="756.96289"
         x="66.626045"
         style="font-size:10.08949375px;font-style:normal;font-variant:normal;font-weight:normal;font-stretch:normal;text-align:start;line-height:125%;letter-spacing:0px;word-spacing:0px;writing-mode:lr-tb;text-anchor:start;fill:#ffffff;fill-opacity:1;stroke:none;font-family:SmartyCond;-inkscape-font-specification:SmartyCond"
         xml:space="preserve"><tspan
           y="756.96289"
           x="66.626045"
           id="tspan3303"
           sodipodi:role="line">www.krug.in.ua</tspan></text>
    </g>
    <text
       xml:space="preserve"
       style="font-size:28.58339691px;font-style:normal;font-weight:normal;line-height:125%;letter-spacing:0px;word-spacing:0px;fill:#ff0101;fill-opacity:1;stroke:#f8f700;stroke-width:0.30118111;stroke-miterlimit:4;stroke-opacity:1;stroke-dasharray:none;font-family:Sans"
       x="141.97449"
       y="970.65985"
       id="text3826"
       sodipodi:linespacing="125%"
       inkscape:export-filename="C:\Documents and Settings\Admin\Рабочий стол\Новая папка\Обложка.png"
       inkscape:export-xdpi="300"
       inkscape:export-ydpi="300"><tspan
         sodipodi:role="line"
         id="tspan3828"
         x="141.97449"
         y="970.65985"
         style="font-size:28.58339691px;font-style:normal;font-variant:normal;font-weight:normal;font-stretch:normal;text-align:start;line-height:125%;writing-mode:lr-tb;text-anchor:start;fill:#ff0101;fill-opacity:1;stroke:#f8f700;stroke-width:0.30118111;stroke-linecap:round;stroke-linejoin:round;stroke-miterlimit:4;stroke-opacity:1;stroke-dasharray:none;stroke-dashoffset:0;font-family:Algerian;-inkscape-font-specification:Algerian">344 09 12</tspan><tspan
         sodipodi:role="line"
         x="141.97449"
         y="1006.3891"
         style="font-size:28.58339691px;font-style:normal;font-variant:normal;font-weight:normal;font-stretch:normal;text-align:start;line-height:125%;writing-mode:lr-tb;text-anchor:start;fill:#ff0101;fill-opacity:1;stroke:#f8f700;stroke-width:0.30118111;stroke-linecap:round;stroke-linejoin:round;stroke-miterlimit:4;stroke-opacity:1;stroke-dasharray:none;stroke-dashoffset:0;font-family:Algerian;-inkscape-font-specification:Algerian"
         id="tspan3832">(095) 170 68 23</tspan></text>
    <text
       xml:space="preserve"
       style="font-size:24px;font-style:normal;font-variant:normal;font-weight:normal;font-stretch:normal;text-align:start;line-height:125%;letter-spacing:0px;word-spacing:0px;writing-mode:lr-tb;text-anchor:start;fill:#ff0000;fill-opacity:1;stroke:#fbff16;stroke-width:0.40000001;stroke-miterlimit:4;stroke-opacity:1;stroke-dasharray:none;font-family:Sans;-inkscape-font-specification:Sans"
       x="17.119616"
       y="1031.989"
       id="text3836"
       sodipodi:linespacing="125%"
       inkscape:export-filename="C:\Documents and Settings\Admin\Рабочий стол\Новая папка\Обложка.png"
       inkscape:export-xdpi="300"
       inkscape:export-ydpi="300"><tspan
         sodipodi:role="line"
         id="tspan3838"
         x="17.119616"
         y="1031.989"
         style="font-size:24px;font-style:normal;font-variant:normal;font-weight:normal;font-stretch:normal;text-align:start;line-height:125%;writing-mode:lr-tb;text-anchor:start;fill:#ff0000;fill-opacity:1;stroke:#fbff16;stroke-width:0.40000001;stroke-miterlimit:4;stroke-opacity:1;stroke-dasharray:none;font-family:Sans;-inkscape-font-specification:Sans">по вопросам распространения</tspan></text>
    <text
       xml:space="preserve"
       style="font-size:29.24940681px;font-style:normal;font-variant:normal;font-weight:normal;font-stretch:normal;text-align:start;line-height:125%;letter-spacing:0px;word-spacing:0px;writing-mode:lr-tb;text-anchor:start;fill:#ff0000;fill-opacity:1;stroke:#fbff16;stroke-width:0.48749015;stroke-miterlimit:4;stroke-opacity:1;stroke-dasharray:none;font-family:Sans;-inkscape-font-specification:Sans"
       x="-1038.3267"
       y="17.481552"
       id="text3836-1"
       sodipodi:linespacing="125%"
       transform="matrix(-0.01830571,-0.97275254,1.0276846,-0.01732723,0,0)"
       inkscape:export-filename="C:\Documents and Settings\Admin\Рабочий стол\Новая папка\Обложка.png"
       inkscape:export-xdpi="300"
       inkscape:export-ydpi="300"><tspan
         sodipodi:role="line"
         id="tspan3838-7"
         x="-1038.3267"
         y="17.481552"
         style="font-size:29.24940681px;font-style:normal;font-variant:normal;font-weight:normal;font-stretch:normal;text-align:start;line-height:125%;writing-mode:lr-tb;text-anchor:start;fill:#ff0000;fill-opacity:1;stroke:#fbff16;stroke-width:0.48749015;stroke-miterlimit:4;stroke-opacity:1;stroke-dasharray:none;font-family:Sans;-inkscape-font-specification:Sans">Реклама из рук в руки</tspan></text>
    <text
       xml:space="preserve"
       style="font-size:56.39247513px;font-style:normal;font-weight:normal;line-height:125%;letter-spacing:0px;word-spacing:0px;fill:#ff0000;fill-opacity:1;stroke:#eeff29;stroke-width:0.88200003;stroke-miterlimit:4;stroke-opacity:1;stroke-dasharray:none;font-family:Sans"
       x="57.506474"
       y="876.84363"
       id="text3867"
       sodipodi:linespacing="125%"
       inkscape:export-filename="D:\GraphWork\WorkingProjects\Обложка.png"
       inkscape:export-xdpi="300"
       inkscape:export-ydpi="300"><tspan
         sodipodi:role="line"
         id="tspan3869"
         x="57.506474"
         y="876.84363"
         style="font-size:56.39247513px;font-style:normal;font-variant:normal;font-weight:normal;font-stretch:normal;text-align:start;line-height:125%;writing-mode:lr-tb;text-anchor:start;fill:#ff0000;fill-opacity:1;stroke:#eeff29;stroke-width:0.88200003;stroke-miterlimit:4;stroke-opacity:1;stroke-dasharray:none;font-family:Agency FB;-inkscape-font-specification:Agency FB" /></text>
  </g>
</svg>
