<?xml version="1.0" encoding="UTF-8" standalone="no"?>
<!-- Created with Inkscape (http://www.inkscape.org/) -->

<svg
   xmlns:dc="http://purl.org/dc/elements/1.1/"
   xmlns:cc="http://creativecommons.org/ns#"
   xmlns:rdf="http://www.w3.org/1999/02/22-rdf-syntax-ns#"
   xmlns:svg="http://www.w3.org/2000/svg"
   xmlns="http://www.w3.org/2000/svg"
   xmlns:sodipodi="http://sodipodi.sourceforge.net/DTD/sodipodi-0.dtd"
   xmlns:inkscape="http://www.inkscape.org/namespaces/inkscape"
   width="744.09448819"
   height="1052.3622047"
   id="svg2"
   version="1.1"
   inkscape:version="0.48.2 r9819"
   sodipodi:docname="Новый документ 1.2012_07_22_12_46_56.1.svg">
  <defs
     id="defs4">
    <filter
       inkscape:collect="always"
       id="filter3886">
      <feGaussianBlur
         inkscape:collect="always"
         stdDeviation="5.1784734"
         id="feGaussianBlur3888" />
    </filter>
    <filter
       inkscape:collect="always"
       id="filter3904">
      <feGaussianBlur
         inkscape:collect="always"
         stdDeviation="3.7623428"
         id="feGaussianBlur3906" />
    </filter>
    <clipPath
       clipPathUnits="userSpaceOnUse"
       id="clipPath3910">
      <path
         id="path3912"
         d="m 434.15625,216.65625 -189.9375,0 -164.21875,275.5 0,64.5 528.5625,0 0,-151.53125 -174.40625,-188.46875 z"
         style="fill:#dea0ff;fill-opacity:1;stroke:none"
         inkscape:connector-curvature="0" />
    </clipPath>
    <clipPath
       clipPathUnits="userSpaceOnUse"
       id="clipPath3914">
      <path
         id="path3916"
         d="m 434.15625,216.65625 -189.9375,0 -164.21875,275.5 0,64.5 528.5625,0 0,-151.53125 -174.40625,-188.46875 z"
         style="fill:#dea0ff;fill-opacity:1;stroke:none"
         inkscape:connector-curvature="0" />
    </clipPath>
    <clipPath
       clipPathUnits="userSpaceOnUse"
       id="clipPath3918">
      <path
         id="path3920"
         d="m 434.15625,216.65625 -189.9375,0 -164.21875,275.5 0,64.5 528.5625,0 0,-151.53125 -174.40625,-188.46875 z"
         style="fill:#dea0ff;fill-opacity:1;stroke:none"
         inkscape:connector-curvature="0" />
    </clipPath>
    <clipPath
       clipPathUnits="userSpaceOnUse"
       id="clipPath3922">
      <path
         id="path3924"
         d="m 434.15625,216.65625 -189.9375,0 -164.21875,275.5 0,64.5 528.5625,0 0,-151.53125 -174.40625,-188.46875 z"
         style="fill:#dea0ff;fill-opacity:1;stroke:none"
         inkscape:connector-curvature="0" />
    </clipPath>
    <clipPath
       clipPathUnits="userSpaceOnUse"
       id="clipPath3926">
      <path
         id="path3928"
         d="m 434.15625,216.65625 -189.9375,0 -164.21875,275.5 0,64.5 528.5625,0 0,-151.53125 -174.40625,-188.46875 z"
         style="fill:#dea0ff;fill-opacity:1;stroke:none"
         inkscape:connector-curvature="0" />
    </clipPath>
    <clipPath
       clipPathUnits="userSpaceOnUse"
       id="clipPath3930">
      <path
         id="path3932"
         d="m 434.15625,216.65625 -189.9375,0 -164.21875,275.5 0,64.5 528.5625,0 0,-151.53125 -174.40625,-188.46875 z"
         style="fill:#dea0ff;fill-opacity:1;stroke:none"
         inkscape:connector-curvature="0" />
    </clipPath>
    <filter
       inkscape:collect="always"
       id="filter3962">
      <feGaussianBlur
         inkscape:collect="always"
         stdDeviation="13.028438"
         id="feGaussianBlur3964" />
    </filter>
    <clipPath
       clipPathUnits="userSpaceOnUse"
       id="clipPath3910-1">
      <path
         id="path3912-7"
         d="m 434.15625,216.65625 -189.9375,0 -164.21875,275.5 0,64.5 528.5625,0 0,-151.53125 -174.40625,-188.46875 z"
         style="fill:#dea0ff;fill-opacity:1;stroke:none"
         inkscape:connector-curvature="0" />
    </clipPath>
    <clipPath
       clipPathUnits="userSpaceOnUse"
       id="clipPath3914-4">
      <path
         id="path3916-0"
         d="m 434.15625,216.65625 -189.9375,0 -164.21875,275.5 0,64.5 528.5625,0 0,-151.53125 -174.40625,-188.46875 z"
         style="fill:#dea0ff;fill-opacity:1;stroke:none"
         inkscape:connector-curvature="0" />
    </clipPath>
    <clipPath
       clipPathUnits="userSpaceOnUse"
       id="clipPath3922-2">
      <path
         id="path3924-4"
         d="m 434.15625,216.65625 -189.9375,0 -164.21875,275.5 0,64.5 528.5625,0 0,-151.53125 -174.40625,-188.46875 z"
         style="fill:#dea0ff;fill-opacity:1;stroke:none"
         inkscape:connector-curvature="0" />
    </clipPath>
    <clipPath
       clipPathUnits="userSpaceOnUse"
       id="clipPath3926-1">
      <path
         id="path3928-7"
         d="m 434.15625,216.65625 -189.9375,0 -164.21875,275.5 0,64.5 528.5625,0 0,-151.53125 -174.40625,-188.46875 z"
         style="fill:#dea0ff;fill-opacity:1;stroke:none"
         inkscape:connector-curvature="0" />
    </clipPath>
    <clipPath
       clipPathUnits="userSpaceOnUse"
       id="clipPath3930-5">
      <path
         id="path3932-2"
         d="m 434.15625,216.65625 -189.9375,0 -164.21875,275.5 0,64.5 528.5625,0 0,-151.53125 -174.40625,-188.46875 z"
         style="fill:#dea0ff;fill-opacity:1;stroke:none"
         inkscape:connector-curvature="0" />
    </clipPath>
  </defs>
  <sodipodi:namedview
     id="base"
     pagecolor="#ffffff"
     bordercolor="#666666"
     borderopacity="1.0"
     inkscape:pageopacity="0.0"
     inkscape:pageshadow="2"
     inkscape:zoom="0.98994949"
     inkscape:cx="125.40376"
     inkscape:cy="714.0848"
     inkscape:document-units="px"
     inkscape:current-layer="g3976"
     showgrid="false"
     inkscape:window-width="1280"
     inkscape:window-height="977"
     inkscape:window-x="-4"
     inkscape:window-y="-4"
     inkscape:window-maximized="1" />
  <metadata
     id="metadata7">
    <rdf:RDF>
      <cc:Work
         rdf:about="">
        <dc:format>image/svg+xml</dc:format>
        <dc:type
           rdf:resource="http://purl.org/dc/dcmitype/StillImage" />
        <dc:title></dc:title>
      </cc:Work>
    </rdf:RDF>
  </metadata>
  <g
     inkscape:label="Layer 1"
     inkscape:groupmode="layer"
     id="layer1">
    <g
       id="g3966">
      <g
         id="g3976"
         transform="translate(6.0609153,-10.101525)">
        <path
           style="fill:#007bff;fill-opacity:1;stroke:none"
           d="m 434.15625,216.65625 -189.9375,0 -164.21875,275.5 0,64.5 528.5625,0 0,-151.53125 -174.40625,-188.46875 z"
           id="path3763"
           clip-path="url(#clipPath3930)"
           inkscape:connector-curvature="0" />
        <path
           style="fill:#000000;fill-opacity:1;stroke:none;filter:url(#filter3904)"
           d="M 433.95484,216.7849 608.52359,405.10315 420.60756,390.67966 433.95484,216.7849 z"
           id="path3758"
           inkscape:connector-curvature="0"
           inkscape:transform-center-x="-80.543088"
           inkscape:transform-center-y="93.237702"
           clip-path="url(#clipPath3926)" />
        <path
           style="fill:#000000;fill-opacity:1;stroke:none;filter:url(#filter3886)"
           d="M 81.447477,490.52253 245.5602,214.95936 323.73165,359.37897 81.447477,490.52253 z"
           id="rect2985"
           inkscape:connector-curvature="0"
           clip-path="url(#clipPath3922)" />
        <path
           style="fill:#000000;fill-opacity:1;stroke:none;filter:url(#filter3962)"
           d="M 433.84375,220.65625 604.5625,405.125 l 0,151.53125 -524.5625,0 0,4 528.5625,0 0,-151.53125 -174.40625,-188.46875 -0.3125,0 z"
           id="path3765"
           inkscape:connector-curvature="0"
           clip-path="url(#clipPath3918)" />
        <path
           inkscape:connector-curvature="0"
           id="path5280"
           d="m 321.15027,257.73238 c -25.78288,11.60301 -43.73405,37.51677 -43.73405,67.62419 0,13.87492 3.81059,26.86172 10.44567,37.96598 -12.93356,-0.19242 -26.07856,2.99136 -38.09511,9.92912 -26.07379,15.05371 -39.54625,43.55467 -36.70331,71.6848 -0.42713,-22.18493 10.91932,-43.92181 31.49482,-55.80109 30.11769,-17.38845 68.61611,-7.07407 86.00456,23.0436 17.38845,30.11768 7.07409,68.63044 -23.04359,86.01889 -20.5755,11.87927 -45.06665,10.83104 -64.06579,-0.63133 22.93994,16.52713 54.34921,19.11432 80.42301,4.06061 12.01624,-6.93758 21.3504,-16.73832 27.64944,-28.03684 6.30019,11.30063 15.64419,21.09733 27.66379,28.03685 26.07379,15.05371 57.48306,12.4665 80.423,-4.06061 -18.99914,11.46236 -43.49028,12.5106 -64.06578,0.63133 -30.11768,-17.38845 -40.43204,-55.88687 -23.04359,-86.00455 17.38845,-30.11768 55.88686,-40.44639 86.00454,-23.05795 20.5755,11.87927 31.92195,33.61616 31.49483,55.80109 2.84293,-28.13015 -10.62951,-56.63109 -36.70331,-71.6848 -12.01347,-6.93598 -25.16365,-10.12165 -38.09511,-9.92912 6.6329,-11.10426 10.44567,-24.09106 10.44567,-37.96598 0,-30.10742 -17.95116,-56.02118 -43.73405,-67.62419 19.42628,10.72256 32.58531,31.41121 32.58531,55.16975 0,33.69493 -26.45534,61.19596 -59.73255,62.87487 l 0,12.61228 c 4.78351,1.32625 8.30774,5.71333 8.30774,10.91916 0,0.99247 -0.13332,1.93799 -0.37306,2.85534 l 11.63659,6.71507 -3.2571,5.62459 -11.75137,-6.78682 c -2.00849,1.8131 -4.67145,2.89839 -7.59032,2.89839 -2.99798,0 -5.72186,-1.14045 -7.74816,-3.04187 l -12.03834,6.9303 -3.24275,-5.62459 12.02399,-6.9303 c -0.20514,-0.85283 -0.33001,-1.72433 -0.33001,-2.64011 0,-5.04888 3.30001,-9.34115 7.86294,-10.80438 l 0,-12.72706 c -33.25791,-1.70035 -59.70385,-29.19442 -59.70385,-62.87487 0,-23.75854 13.15903,-44.44719 32.5853,-55.16975 z m 30.8061,72.80398 c -15.02614,-0.0762 -29.82486,4.74381 -41.96918,13.78885 0.45996,0.61025 0.89163,1.2477 1.37745,1.8366 1.05848,1.28305 2.16829,2.51222 3.34318,3.68756 1.1749,1.17534 2.40494,2.29861 3.68755,3.35753 1.28262,1.05892 2.62159,2.06504 4.00322,2.99883 0.21884,0.1479 0.45317,0.27146 0.67438,0.4161 15.88281,-10.39058 36.87932,-11.71583 54.43797,-1.57833 0.82101,0.47401 1.58262,1.00971 2.3675,1.52094 0.19558,-0.12834 0.40889,-0.22781 0.60263,-0.35871 1.38206,-0.93379 2.72016,-1.93991 4.00322,-2.99883 1.28305,-1.05892 2.5122,-2.18219 3.68754,-3.35753 1.17535,-1.17534 2.29862,-2.40451 3.35754,-3.68756 0.49696,-0.60214 0.93624,-1.25519 1.40615,-1.87965 -2.11811,-1.57108 -4.31812,-3.06857 -6.65768,-4.41932 -10.38329,-5.99479 -21.6733,-9.00562 -32.87227,-9.29779 -0.48512,-0.0126 -0.96448,-0.0262 -1.4492,-0.0287 z m 68.5425,61.75569 c -0.72309,0.0904 -1.44862,0.13784 -2.16662,0.25827 -1.64039,0.27514 -3.27314,0.63197 -4.87847,1.06179 -1.60532,0.42981 -3.19097,0.92527 -4.74933,1.50658 -1.55835,0.58132 -3.092,1.2361 -4.5915,1.96574 -0.24991,0.12161 -0.48368,0.27608 -0.73177,0.40176 0.4811,9.64175 -1.67192,19.52683 -6.85855,28.51034 -5.23023,9.05903 -12.79664,15.9155 -21.47962,20.3174 0.0179,0.35831 0.003,0.71855 0.0287,1.07613 0.11765,1.66378 0.31276,3.32394 0.58829,4.96456 0.27552,1.64061 0.63157,3.27292 1.06178,4.87847 0.4302,1.60554 0.93924,3.19076 1.52093,4.74933 0.22382,0.59968 0.51456,1.17335 0.76047,1.76486 13.27127,-5.71079 24.92123,-15.51046 32.70009,-28.98385 7.71797,-13.3679 10.40476,-28.22775 8.7956,-42.47138 z m -137.98894,0.0144 c -2.95765,26.59615 9.63895,53.66292 34.29277,67.89681 2.32817,1.34418 4.70923,2.49884 7.11682,3.54407 0.2457,-0.5907 0.53682,-1.166 0.76047,-1.76486 0.58192,-1.55819 1.0905,-3.14417 1.52093,-4.74933 0.43044,-1.60516 0.7717,-3.22389 1.04744,-4.86412 0.27574,-1.64024 0.48478,-3.30114 0.60264,-4.96456 0.028,-0.39561 0.01,-0.79442 0.0287,-1.19092 -0.77566,-0.3974 -1.56115,-0.75024 -2.32444,-1.19092 -17.40525,-10.04893 -26.7536,-28.65324 -25.88459,-47.43594 -0.29663,-0.1515 -0.57599,-0.34218 -0.87525,-0.48785 -1.49971,-0.73 -3.01858,-1.38404 -4.57716,-1.96575 -1.55857,-0.5817 -3.14378,-1.09073 -4.74933,-1.52092 -1.60555,-0.43021 -3.23785,-0.78626 -4.87847,-1.06179 -0.68744,-0.11546 -1.38841,-0.15603 -2.08052,-0.24393 z"
           style="fill:#000000;fill-opacity:1;stroke:none" />
        <path
           inkscape:connector-curvature="0"
           id="path3828"
           d="M 81.447477,490.52253 245.5602,214.95936 323.73165,359.37897 81.447477,490.52253 z"
           style="fill:#007bff;fill-opacity:1;stroke:none"
           clip-path="url(#clipPath3914)" />
        <path
           inkscape:transform-center-y="93.237702"
           inkscape:transform-center-x="-80.543088"
           inkscape:connector-curvature="0"
           id="path3890"
           d="M 433.95484,216.7849 608.52359,405.10315 420.60756,390.67966 433.95484,216.7849 z"
           style="fill:#007bff;fill-opacity:1;stroke:none"
           clip-path="url(#clipPath3910)" />
      </g>
    </g>
  </g>
</svg>
