<?xml version="1.0" encoding="UTF-8" standalone="no"?>
<!-- Created with Inkscape (http://www.inkscape.org/) -->

<svg
   xmlns:dc="http://purl.org/dc/elements/1.1/"
   xmlns:cc="http://creativecommons.org/ns#"
   xmlns:rdf="http://www.w3.org/1999/02/22-rdf-syntax-ns#"
   xmlns:svg="http://www.w3.org/2000/svg"
   xmlns="http://www.w3.org/2000/svg"
   xmlns:xlink="http://www.w3.org/1999/xlink"
   xmlns:sodipodi="http://sodipodi.sourceforge.net/DTD/sodipodi-0.dtd"
   xmlns:inkscape="http://www.inkscape.org/namespaces/inkscape"
   width="524.40942"
   height="744.09448"
   id="svg2"
   version="1.1"
   inkscape:version="0.48.3.1 r9886"
   sodipodi:docname="Шаблон тематики.svg">
  <defs
     id="defs4">
    <filter
       inkscape:label="Drop Shadow"
       id="filter4292"
       color-interpolation-filters="sRGB">
      <feFlood
         result="flood"
         flood-color="rgb(0,0,0)"
         flood-opacity="0.5"
         id="feFlood4294" />
      <feComposite
         result="composite1"
         operator="in"
         in="flood"
         in2="SourceGraphic"
         id="feComposite4296" />
      <feGaussianBlur
         result="blur"
         stdDeviation="0.5"
         id="feGaussianBlur4298" />
      <feOffset
         result="offset"
         dy="1"
         dx="1"
         id="feOffset4300" />
      <feComposite
         result="composite2"
         operator="over"
         in="SourceGraphic"
         in2="offset"
         id="feComposite4302" />
    </filter>
  </defs>
  <sodipodi:namedview
     id="base"
     pagecolor="#ffffff"
     bordercolor="#666666"
     borderopacity="1.0"
     inkscape:pageopacity="0.0"
     inkscape:pageshadow="2"
     inkscape:zoom="0.49497475"
     inkscape:cx="-40.543214"
     inkscape:cy="267.73608"
     inkscape:document-units="px"
     inkscape:current-layer="layer1"
     showgrid="false"
     inkscape:showpageshadow="false"
     units="mm"
     showborder="true"
     showguides="true"
     inkscape:guide-bbox="true"
     inkscape:snap-global="false"
     inkscape:window-width="1366"
     inkscape:window-height="723"
     inkscape:window-x="-4"
     inkscape:window-y="-4"
     inkscape:window-maximized="1">
    <sodipodi:guide
       orientation="1,0"
       position="0,757.61441"
       id="guide2985" />
    <sodipodi:guide
       orientation="0,1"
       position="131.31983,0"
       id="guide2987" />
    <sodipodi:guide
       orientation="1,0"
       position="524.40945,527.29963"
       id="guide2989" />
    <sodipodi:guide
       orientation="0,1"
       position="228.29448,744.09449"
       id="guide2991" />
    <sodipodi:guide
       orientation="1,0"
       position="14.173228,533.36054"
       id="guide2993" />
    <sodipodi:guide
       orientation="1,0"
       position="510.23622,602.05092"
       id="guide2995" />
    <sodipodi:guide
       orientation="0,1"
       position="331.33003,14.173228"
       id="guide2997" />
    <sodipodi:guide
       orientation="0,1"
       position="218.19295,729.92126"
       id="guide2999" />
    <sodipodi:guide
       orientation="1,0"
       position="3.5433071,470.73109"
       id="guide3001" />
    <sodipodi:guide
       orientation="0,1"
       position="220.21325,3.5433071"
       id="guide3003" />
    <sodipodi:guide
       orientation="0,1"
       position="256.57875,740.55118"
       id="guide3005" />
    <sodipodi:guide
       orientation="1,0"
       position="520.86614,389.28571"
       id="guide3007" />
  </sodipodi:namedview>
  <metadata
     id="metadata7">
    <rdf:RDF>
      <cc:Work
         rdf:about="">
        <dc:format>image/svg+xml</dc:format>
        <dc:type
           rdf:resource="http://purl.org/dc/dcmitype/StillImage" />
        <dc:title />
      </cc:Work>
    </rdf:RDF>
  </metadata>
  <g
     inkscape:label="Layer 1"
     inkscape:groupmode="layer"
     id="layer1"
     transform="translate(0,-308.26772)">
    <rect
       style="fill:#ffffff;fill-opacity:1;stroke:none"
       id="rect3039"
       width="524.26917"
       height="743.97736"
       x="1.650109e-008"
       y="308.38486" />
    <rect
       style="fill:#ff0000;fill-opacity:1;stroke:none"
       id="rect3009"
       width="262.67435"
       height="353.61642"
       x="0.41805118"
       y="344.6449" />
    <rect
       style="fill:#ffff00;fill-opacity:1;stroke:none"
       id="rect3011"
       width="263.03149"
       height="247.31721"
       x="-1.6212463e-005"
       y="698.65308" />
    <rect
       style="fill:#00ff00;fill-opacity:1;stroke:none"
       id="rect3013"
       width="263.03149"
       height="106.29921"
       x="2.7334872e-006"
       y="946.00494" />
    <rect
       style="fill:#00ffff;fill-opacity:1;stroke:none"
       id="rect3015"
       width="260.88864"
       height="177.16536"
       x="263.76495"
       y="343.86261" />
    <rect
       style="fill:#000080;fill-opacity:1;stroke:none"
       id="rect3017"
       width="261.60291"
       height="88.58268"
       x="263.09708"
       y="521.01434" />
    <rect
       style="fill:#008080;fill-opacity:1;stroke:none"
       id="rect3019"
       width="261.60294"
       height="53.149605"
       x="262.85306"
       y="609.58356" />
    <rect
       style="fill:#ff00ff;fill-opacity:1;stroke:none"
       id="rect3021"
       width="260.88864"
       height="35.433071"
       x="263.2713"
       y="662.21948" />
    <rect
       style="fill:#ac9393;fill-opacity:1;stroke:none"
       id="rect3023"
       width="124.37289"
       height="177.16536"
       x="263.27133"
       y="697.78174" />
    <rect
       style="fill:#ccffaa;fill-opacity:1;stroke:none"
       id="rect3025"
       width="136.51575"
       height="88.58268"
       x="387.68256"
       y="697.49268" />
    <rect
       style="fill:#d7d7f4;fill-opacity:1;stroke:none"
       id="rect3027"
       width="136.1586"
       height="44.29134"
       x="388.03967"
       y="786.2757" />
    <rect
       y="874.5766"
       x="262.69357"
       height="177.87964"
       width="261.60294"
       id="rect3029"
       style="fill:#00ffff;fill-opacity:1;stroke:none" />
    <rect
       ry="0"
       y="307.87262"
       x="-0.20887552"
       height="37.287209"
       width="524.64282"
       id="rect3465"
       style="fill:#bdff04;fill-opacity:1;stroke:none" />
    <g
       id="g3305"
       transform="matrix(0.00956244,0,0,0.00995316,12.410051,317.74717)">
      <g
         id="g2984"
         transform="translate(-177.59651,-101.29569)">
        <path
           sodipodi:nodetypes="cssssssssccssssscssscccsssssssssssssssc"
           inkscape:connector-curvature="0"
           id="path2987"
           d="m 1676.6592,2073.5743 c -102.712,-26.6556 -202.0412,-61.2431 -289.3806,-100.7655 -60.2453,-27.2618 -137.8755,-70.5556 -183,-102.0575 -82.4756,-57.5771 -133.8654,-113.6251 -160.9319,-175.5193 -8.6543,-19.7902 -15.6738,-44.9582 -18.7305,-67.157 -1.731,-12.5714 -1.7262,-49.8317 0.01,-61.5 12.1573,-81.8012 62.4996,-154.2329 157.1545,-226.1108 69.3779,-52.6835 163.2044,-103.7786 267,-145.4001 25.5771,-10.2563 90.5802,-33.4166 121.5,-43.2899 43.1399,-13.7754 118.0457,-35.4869 119.0313,-34.5013 0.1957,0.1958 -2.2062,1.332 -5.3377,2.5249 -3.1315,1.1928 -18.7013,7.1532 -34.5995,13.2452 -111.8,42.8403 -214.1064,97.9602 -289.5941,156.0253 -31.9533,24.5784 -53.2274,43.8104 -82.0286,74.1546 -37.586,39.5996 -64.3173,77.9378 -82.4233,118.2122 -12.8417,28.5647 -19.8432,51.766 -24.2495,80.3567 -2.3888,15.5001 -2.3559,54.4777 0.06,70.7832 9.4858,64.0284 40.0671,123.629 96.2071,187.5 21.357,24.298 47.0364,48.4683 76.9346,72.4133 82.1874,65.8225 194.8207,125.9675 330.9501,176.7237 32.4065,12.0828 32.5206,12.4307 1.4305,4.3623 z m 2007.1699,-3.3896 c 0.8528,-0.5422 10.9778,-4.5556 22.5,-8.9186 166.904,-63.1998 292.8383,-137.7352 376.5025,-222.8366 69.0596,-70.2459 104.2332,-135.1346 115.109,-212.3545 2.2412,-15.9132 1.6786,-56.1998 -1.047,-74.9629 -6.4809,-44.6151 -23.7729,-88.7007 -50.4171,-128.5371 -42.9894,-64.2745 -106.9267,-124.4998 -184.7809,-174.0529 -79.8591,-50.8291 -153.2653,-86.3776 -263.1939,-127.4572 -9.2273,-3.4481 -16.6205,-6.4258 -16.4293,-6.617 0.8818,-0.8818 53.6442,13.5686 88.7062,24.2947 171.4182,52.4398 301.3816,111.7231 401.5,183.1457 62.6952,44.7256 111.262,93.684 139.9379,141.0662 46.3272,76.5481 50.2244,159.1411 11.1771,236.8739 -17.6401,35.1166 -40.2223,65.0062 -74.2416,98.2653 -78.5394,76.7844 -206.4057,150.2653 -361.9148,207.9814 -59.5047,22.0848 -126.1799,43.5873 -185.9662,59.9733 -20.1537,5.5237 -19.3091,5.3234 -17.4419,4.1363 z"
           style="fill:#ea0669" />
        <path
           sodipodi:nodetypes="ssssssssssssssccsssssssssssscssssssssssssssscscsssssssssssscssssssssssscssssssssssscssssssssscsssssssssssss"
           style="fill:#16b0ca"
           d="m 3903.2786,2493.9447 c 0.55,-0.5629 16.3,-4.9062 35,-9.6519 59.2653,-15.0402 164.4198,-45.3959 220.5,-63.6534 59.1032,-19.2415 138.6309,-47.7671 179.5,-64.3843 104.0538,-42.3079 181.737,-79.687 260.5,-125.3455 52.0845,-30.1931 117.3233,-74.6808 153.7648,-104.8554 82.5623,-68.364 140.1813,-137.7065 173.5079,-208.8108 17.8555,-38.0959 28.5194,-75.2352 32.8764,-114.5 1.8606,-16.7675 1.585,-55.4443 -0.5131,-72 -8.5966,-67.8342 -32.4882,-125.4259 -77.9909,-188 -44.4887,-61.1797 -112.4413,-123.7173 -200.6497,-184.6603 -57.1686,-39.4976 -110.507,-70.7934 -177.4954,-104.1438 -130.5424,-64.9909 -285.2754,-122.414 -459.5935,-170.5601 -121.8377,-33.6511 -285.436,-68.4801 -427.9065,-91.09851 -19.525,-3.0998 -36.2828,-5.9513 -37.2396,-6.3366 -1.5043,-0.6059 -1.1213,-1.4784 2.831,-6.4507 2.5139,-3.1625 5.2024,-5.75 5.9746,-5.75 3.8726,0 80.5977,11.7122 113.934,17.3922 183.5474,31.27361 346.6876,68.91481 512.5,118.24851 65.1808,19.3931 139.5143,44.3018 191.5,64.1705 107.2793,41.0017 195.542,81.2634 275,125.4435 94.184,52.368 176.3942,112.1056 236.9213,172.1577 43.5922,43.2502 71.4134,79.1215 95.8524,123.5876 70.6598,128.5634 55.2057,268.4593 -43.6351,395 -46.3602,59.3525 -116.6889,122.0518 -194.5723,173.4647 -53.6359,35.4065 -88.9313,56.0179 -148.5663,86.7579 -96.3922,49.6874 -205.8974,95.0111 -332,137.4132 -120.8229,40.6268 -246.2917,75.39 -373,103.3457 -7.7,1.6988 -14.9,3.3486 -16,3.666 -1.3546,0.391 -1.6773,0.247 -1,-0.4462 z m -2555,-23.6743 c -37.95,-8.4128 -80.7,-18.5402 -95,-22.5054 -166.1976,-46.0842 -316.59649,-99.4531 -434.00008,-154.0044 -99.3633,-46.1689 -189.70962,-97.6604 -254.79977,-145.2192 -82.56073,-60.3238 -147.33222,-125.4394 -185.86688,-186.8543 -17.26319,-27.5134 -29.26485,-51.2512 -37.89109,-74.9437 -14.9515,-41.0653 -20.66379,-70.9058 -21.63134,-113 -1.0336,-44.9679 6.48439,-85.2835 24.42868,-131 19.23034,-48.993 55.39344,-102.3498 103.2604,-152.3557 11.77207,-12.2981 41.18683,-39.5554 58.5,-54.2094 53.60889,-45.3748 126.52199,-94.457 200,-134.6321 89.21508,-48.7796 171.09677,-85.8077 286,-129.3333 45.89218,-17.3841 141.51318,-48.9462 205.50008,-67.8304 169.6555,-50.0698 408.5527,-100.6016 634,-134.10431 20.625,-3.065 38.5778,-5.6767 39.8951,-5.8038 2.0898,-0.2015 2.6448,0.5099 4.3542,5.5815 1.0775,3.1969 1.7997,5.9485 1.6049,6.1148 -0.1948,0.1662 -17.6792,2.8703 -38.8542,6.0091 -133.3345,19.76451 -270.6236,46.67891 -387.9933,76.06291 -141.7522,35.4883 -317.5135,91.3176 -425.3055,135.0951 -101.91279,41.3898 -177.98366,78.4943 -253.70128,123.7458 -96.80867,57.8563 -174.54252,118.1966 -233.4011,181.1757 -51.87527,55.507 -90.54904,119.4414 -108.87191,179.9841 -10.95073,36.1835 -14.24918,59.0264 -14.15097,98 0.0374,14.85 0.62654,31.95 1.30915,38 9.98797,88.5238 50.441,167.8412 128.24112,251.4462 57.41041,61.6939 146.16297,127.634 249.37371,185.2761 93.10825,52 192.82591,96.437 313.00008,139.4817 85.9969,30.8028 204.7605,66.8023 298,90.3293 7.15,1.8042 13.4275,3.6597 13.95,4.1235 1.3816,1.2263 4.8414,1.9499 -69.95,-14.6298 z m 1158.5,-93.5676 c -130.1488,-3.105 -165.7443,-4.2559 -199,-6.4345 -192.5766,-12.6159 -392.6155,-37.5072 -567,-70.553 -212.7018,-40.307 -435.3194,-103.8338 -589.5,-168.2214 -97.8079,-40.8457 -181.09032,-84.5332 -245.73082,-128.9033 -85.99617,-59.0288 -148.03504,-119.6722 -184.49714,-180.3472 -38.13246,-63.4546 -51.45091,-127.9766 -40.25136,-195 6.08312,-36.4043 22.99957,-76.8521 48.72365,-116.5 28.38563,-43.7501 84.34502,-99.8234 145.49743,-145.7936 75.96114,-57.1024 181.01584,-113.4896 300.75824,-161.4294 35.4589,-14.1963 86.627,-33.068 88.2198,-32.5371 0.4697,0.1566 -5.3501,3.1462 -12.9329,6.6436 -33.4926,15.4476 -96.4738,49.2679 -127.7869,68.6203 -35.9797,22.2364 -77.7867,52.0109 -107,76.2042 -39.00382,32.3014 -81.66048,77.039 -105.94354,111.1119 -38.11543,53.4819 -60.15617,105.9636 -66.01089,157.1801 -3.12807,27.3641 -1.5785,67.7613 3.52899,92 12.12548,57.5442 38.99644,109.9025 84.4235,164.5 67.6866,81.3506 179.14484,160.7166 319.59944,227.5771 140.6848,66.9701 290.7198,118.2994 472.9025,161.7873 142.2421,33.9538 329.0157,63.8028 498,79.5873 102.0419,9.5315 109.4889,9.9571 301.0513,17.2038 l 179.5512,6.7923 69.9488,-2.291 c 173.6141,-5.6864 282.4525,-13.1549 417.9487,-28.6798 220.4032,-25.2533 388.4631,-56.7397 566.5,-106.1349 148.833,-41.2928 298.0404,-98.0439 403.5181,-153.4783 107.5738,-56.5359 182.3921,-108.7628 244.0245,-170.3413 40.3126,-40.2774 67.8603,-78.2798 90.4537,-124.7823 32.5589,-67.014 40.1678,-147.4218 20.4372,-215.9714 -11.2444,-39.0661 -26.224,-70.241 -51.6239,-107.4377 -66.8333,-97.8736 -182.4004,-184.4647 -347.4973,-260.3697 -16.0532,-7.3807 -29.0189,-13.5882 -28.8126,-13.7944 0.8586,-0.8586 46.4107,15.0391 78.5003,27.3967 78.8341,30.3587 146.5701,61.3209 210.5,96.2198 128.9232,70.3783 224.805,151.9571 274.556,233.5997 40.2127,65.9902 53.4414,134.0786 39.3443,202.5063 -5.0098,24.3176 -12.6172,45.6694 -25.8705,72.6105 -16.4115,33.3613 -35.9668,60.903 -67.234,94.6929 -13.9492,15.0747 -41.8793,41.8585 -56.2958,53.9855 -51.1657,43.0397 -117.0057,86.1904 -189,123.868 -77.3779,40.4951 -173.6354,81.9369 -263.5,113.4447 -77.2931,27.1001 -173.7592,55.883 -256.5,76.5328 -248.7847,62.0896 -516.9506,101.4626 -813.5,119.4408 -83.4083,5.0565 -243.6874,9.7217 -323,9.4013 -17.05,-0.069 -102.325,-1.8268 -189.5,-3.9066 z"
           id="path3000"
           inkscape:connector-curvature="0" />
      </g>
      <path
         inkscape:connector-curvature="0"
         id="path3095"
         style="fill:#5c5d5e;fill-opacity:1;fill-rule:nonzero;stroke:none"
         d="m 3183.6115,1016.069 0,-25.20306 -63.7582,6.0438 27.589,-38.0819 c 1.933,-0.2121 3.2381,-0.3221 3.8211,-0.3221 9.9877,0 3.8009,-10.4604 3.8009,-10.4604 0,0 -0.6808,0.09 -1.9615,0.2854 l -68.338,-145.94551 c 1.5496,-2.56924 4.6409,-4.94274 9.4002,-8.51113 9.5143,-7.13681 12.369,-16.17811 9.5143,-15.21976 -1.1947,0.40374 -4.8651,0.0449 -8.8535,-0.48939 l -76.8492,-99.20558 c 1.8065,-5.7502 5.0733,-15.23197 7.6752,-17.83384 1.8515,-1.84741 1.8962,-4.03332 1.4599,-5.78285 l 0.046,-0.0692 -0.069,-0.0449 c -0.4691,-1.80664 -1.4354,-3.14426 -1.4354,-3.14426 l -0.9379,1.31724 -66.4092,-51.45428 -48.2734,-62.31447 0,-92.60305 -9.9915,0 0.975,59.65957 -33.6614,19.81993 -208.4476,30.25595 -72.2815,-64.23528 c -2.8995,-12.9115 -6.892,-29.86037 -6.3132,-33.60821 0.9504,-6.17843 0.9504,-12.38134 -1.9042,-15.23604 -2.8548,-2.85473 -9.9915,7.13679 -9.9915,7.13679 l 0,-54.70868 -9.0454,0 0.9582,59.94913 c 0,0 -27.1199,26.16146 -30.9328,30.44355 -1.3581,1.54154 -2.7202,8.92304 -3.9151,17.98066 L 2383.773,626.21234 2257.8021,533.6827 c -1.6149,-13.80869 1.5134,-31.00633 2.7776,-34.79902 1.4273,-4.27801 3.3235,-9.52253 0.95,-9.98745 -2.3774,-0.48123 -28.0698,10.46052 -28.0698,10.46052 l 0,-14.74669 -7.1369,0 0.9501,18.55977 -41.3974,24.26103 c 0,0 -4.07,23.86955 -6.0765,39.72548 l -346.563,427.2372 c -0.5915,0.2405 -1.195,0.4894 -1.8231,0.7424 -10.4646,4.282 -3.809,13.32716 0.473,13.32716 0.5671,0 3.1526,0.824 7.2145,2.2717 l -0.8689,1.0726 0.5792,0.4446 1.0278,-1.2481 c 6.3863,2.2757 16.0678,5.9338 27.1648,10.171 l -1.6518,2.0514 0.579,0.4444 1.7945,-2.2061 c 36.7117,14.0939 88.3413,34.5663 88.3413,34.5663 0,0 15.224,15.2361 25.2155,19.0534 9.9915,3.7886 70.8868,43.7546 70.8868,43.7546 l 1081.0091,0 66.1354,-74.2227 -15.7008,-28.5472 z m -31.6222,-67.55486 c -27.079,4.1475 -223.8344,34.2566 -229.5804,34.2566 -6.1907,0 -3.8173,-3.3236 -3.8173,-3.3236 0,0 196.5066,-34.7461 206.0291,-34.7461 9.5104,0 11.4149,-2.3653 8.0831,-4.7511 -3.3319,-2.3857 -45.1942,-119.43332 -48.049,-127.99748 -1.2031,-3.59287 -1.3827,-6.08871 -0.5018,-8.31946 l 67.8363,144.88114 z m -58.7051,-170.57363 c -5.1058,-0.73815 -10.2608,-1.67205 -11.0153,-1.67205 -1.4313,0 -16.1697,-9.51437 -34.2565,-27.11984 -18.0785,-17.59731 -31.406,-65.66265 -31.406,-65.66265 0,0 0.3672,-1.29276 0.9707,-3.25438 l 75.7071,97.70892 z m -69.1945,-123.64609 -12.0796,16.96927 -51.0343,-65.87062 63.1139,48.90135 z m -69.2311,-55.02268 -44.8272,-34.72563 0,-23.12732 44.8272,57.85295 z m -50.5367,108.97282 -0.5829,34.70116 -13.7925,19.02467 -49.5498,-44.00347 c 6.0562,-20.29297 11.8756,-39.73362 16.5493,-55.24291 l 45.965,-40.81842 1.4109,86.33897 z m -0.6074,35.97355 -0.5018,29.55042 -12.7115,-11.30875 13.2133,-18.24167 z m -30.3213,38.71816 c -1.9004,2.85472 -69.4594,57.5634 -69.4594,57.5634 0,0 18.9879,-63.9906 36.1856,-121.57437 l 49.2888,43.78324 -15.7253,21.72033 c 0.1794,-1.46814 0.1397,-2.13696 -0.2905,-1.4926 z m -254.5471,95.15597 c 0.274,-1.48445 0.787,-3.24622 1.423,-5.1181 l 183.3835,-162.90257 -13.5194,19.08992 -147.022,206.02515 c 0,0 -38.0657,52.8124 -39.9662,51.8663 -1.9004,-0.9626 14.2738,-101.34675 15.7011,-108.9607 z m 7.6099,-22.84183 c -1.4236,0 -53.2855,8.08701 -53.2855,8.08701 l 0.4731,-27.11985 c 0,0 36.1653,6.66782 44.252,9.52254 8.0872,2.8588 12.8462,0.46897 10.9421,-6.1866 -1.1991,-4.20866 -5.4366,-35.51678 -7.7976,-60.21011 l 143.5475,-127.50404 49.2968,43.78326 -7.9319,11.19457 -185.0799,164.41556 c 2.6753,-7.4712 6.6557,-15.98234 5.5834,-15.98234 z m -6.6556,-105.62464 c 2.3735,-8.56416 7.1367,-13.32747 7.1367,-14.75074 0,-1.42737 -61.8576,14.27359 -61.8576,14.27359 l -0.9462,-24.73819 c 0,0 37.5926,-0.47714 45.6756,0.469 8.0867,0.96244 12.8461,-0.469 12.8461,-0.469 0,0 -6.0356,-25.82298 -10.5053,-46.74401 l 109.1603,-64.27605 42.6005,37.8495 -142.9726,126.9861 c -1.3171,-13.91471 -1.994,-25.53343 -1.1375,-28.6002 z m -12.3651,-97.54171 c 0,-7.1368 -1.4273,-30.44356 -1.9086,-33.77949 -0.4812,-3.33188 -33.7797,12.36909 -33.7797,12.36909 0,0 -4.2821,-17.12832 -4.2821,-23.30675 0,-6.19066 12.3651,-7.13679 23.307,-4.75107 10.954,2.36533 13.8044,3.79269 17.1283,4.75107 2.3083,0.64843 -2.2184,-23.50659 -7.4345,-41.30372 l 58.0811,-8.42958 62.1759,55.22252 -108.7403,64.03136 c -2.5531,-11.98167 -4.5471,-22.21379 -4.5471,-24.80343 z m 259.7753,-22.83775 c 0.9543,-2.54072 1.1625,-4.23723 1.0195,-5.35057 l 33.9428,-46.85819 0.7177,43.67721 -45.4512,40.38206 c 5.3586,-17.82162 9.1066,-30.08876 9.7712,-31.85051 z m 0.7872,-6.28856 c -0.5589,-1.31725 -1.7415,-1.31725 -1.7415,-1.31725 l -51.8537,73.24397 -49.1338,-43.6446 136.1374,-120.93001 0.7504,45.50015 -34.1588,47.14774 z m 33.388,-93.84689 -136.7982,121.52136 -42.4621,-37.72308 145.3586,-85.5845 33.7917,-4.91012 0.111,6.69634 z m -0.3546,-21.54906 0.2314,14.02893 -31.9157,4.63687 31.6832,-18.6658 z m -35.5455,20.04831 -143.9556,84.77296 -61.8208,-54.91666 205.7764,-29.8563 z m -207.738,29.30982 -57.5188,8.33986 c -2.251,-7.56093 -4.6164,-13.87394 -6.6022,-16.41466 -6.6556,-8.56414 0,-28.55125 -0.9462,-31.40191 -0.9461,-2.85471 -25.6924,10.46053 -25.6924,10.46053 0,0 0.9461,-12.36912 0.9461,-15.70097 0,-3.32371 4.2821,-7.60579 9.9915,-7.13682 5.7094,0.47715 9.9954,3.81311 11.4189,2.85065 0.5258,-0.34256 -0.6895,-6.24366 -2.386,-13.86986 l 70.7891,62.87318 z m -132.4021,-51.34418 c -2.0634,16.09245 -3.5562,36.78103 -3.5562,39.4563 0,4.28208 6.1787,-0.9339 8.5644,-4.75106 2.3776,-3.81309 8.087,-21.4104 15.2239,-27.58883 7.1367,-6.19882 15.7009,-5.70945 15.7009,-5.70945 l -1.4274,25.19903 c 0,0 -36.1652,23.33123 -42.8208,27.61329 -6.6026,4.23723 -6.1948,38.80381 -6.6474,45.9406 l -71.213,61.17258 -54.7863,-40.25155 140.9619,-121.08091 z m -225.5717,477.97399 -24.9542,-18.3315 c 3.2419,-22.3687 7.6381,-50.56111 9.0655,-54.30895 0.6487,-1.64757 1.2154,-3.76823 1.8395,-5.99899 l 28.1556,-24.19579 48.5343,49.01963 -62.6407,53.8156 z m 63.1545,-53.28136 105.8817,106.96212 -94.4178,1.1257 -74.0149,-54.35786 62.551,-53.72996 z m -234.6211,-136.39447 -53.7667,81.36361 c 0,0 43.7752,-94.68697 47.103,-99.43806 1.4273,-2.03908 2.4183,-4.50638 3.0789,-6.6678 l 23.1721,-31.98511 c -1.6271,15.82332 -3.2664,32.1156 -4.0007,40.2801 l -14.2654,19.66903 c -0.469,-1.87189 -1.3212,-3.22177 -1.3212,-3.22177 z m 19.7384,-58.1955 -22.7563,31.39785 c 0.4569,-1.87188 0.6363,-3.17689 0.6363,-3.17689 l -31.4021,40.44729 c 0,0 28.5473,-53.77477 35.2111,-57.57155 4.2086,-2.39795 2.9036,-4.25353 1.3741,-5.27714 l 19.0613,-26.29604 c -0.6361,6.10909 -1.3742,13.21328 -2.1244,20.47648 z m 4.0536,-38.87311 c 0,0 -0.7383,6.97367 -1.7741,16.9244 l -19.8526,27.38899 c -0.6564,-0.34665 -1.2111,-0.53423 -1.2111,-0.53423 l -91.3553,92.30941 c 0,0 -46.3889,46.2587 -89.6665,89.3242 L 2163.2285,657.194 c -1.0887,8.93936 -2.031,16.22296 -2.5649,19.15517 -1.9087,10.46051 1.4272,7.6058 5.2281,2.85473 3.809,-4.75108 34.2605,-29.50558 43.7751,-33.78765 9.5184,-4.28208 14.7467,-2.36534 14.7467,-2.36534 l 0,4.28617 c 0,0 -8.083,0.46489 -11.892,0.93389 -3.805,0.48937 3.3316,10.94988 6.6637,13.8046 3.3277,2.85473 4.2822,9.52255 4.2822,9.52255 0,0 -59.0031,18.07037 -64.7125,20.45611 -5.7095,2.38164 -6.6556,4.75107 -6.6556,4.75107 z m 118.4709,-50.43067 c 8.0869,3.32369 14.2736,3.81308 14.2736,3.81308 0,0 -2.1982,-8.33986 -5.1386,-19.53445 l 45.4513,45.92023 -35.3578,30.37828 -6.0602,-6.12541 c -1.9614,-17.34039 -3.654,-32.58051 -3.654,-33.98747 0,-3.33187 7.6141,-12.36502 7.6141,-12.36502 l -56.1484,14.2736 -1.9046,-12.37726 21.8916,-1.89634 -19.037,-8.56824 -0.4687,-3.33187 c 0,0 30.4434,0.47715 38.5387,3.80087 z m 29.0161,236.94583 -67.5548,5.24046 c 0,0 -1.9046,-11.4148 -0.4813,-19.51405 1.4275,-8.08294 6.6596,-9.03316 6.6596,-9.03316 0,0 37.1114,9.9956 44.7294,12.85032 7.6179,2.85064 11.8961,0.9339 11.8961,-2.85472 0,-0.71367 -0.3099,-4.19645 -0.8035,-9.35125 l 19.3385,19.53852 -27.2745,23.42094 c 1.6271,-5.68905 3.7355,-11.70844 8.2623,-12.69127 6.6555,-1.42737 5.2282,-7.60579 5.2282,-7.60579 z m -15.7255,-181.38891 5.4119,5.46474 -4.3598,3.74376 c -0.3588,-3.07494 -0.7053,-6.17435 -1.0521,-9.2085 z m -9.9669,54.82286 c 10.4727,0.48938 15.7008,0 15.7008,-2.85471 0,-1.38252 -2.2631,-21.39001 -4.5838,-41.86653 l 4.7715,-4.10264 46.7031,47.16814 -49.0766,42.15199 c -0.8685,-7.93614 -1.4927,-13.36826 -1.6151,-13.84541 -0.4811,-1.89634 2.8548,-7.60579 7.6141,-7.60579 4.7509,0 4.7509,-2.85881 4.7509,-5.71351 0,-2.85064 -67.5545,8.07886 -67.5545,8.07886 l 1.4272,-24.73819 c 0,0 31.4019,2.85879 41.8624,3.32779 z m 20.028,102.81478 c -1.4969,-15.39102 -4.4943,-43.95861 -6.411,-61.42542 l 49.5009,-42.50678 55.7689,56.33586 -78.8839,67.75475 -19.9749,-20.15841 z m 43.6118,-104.40119 35.3618,-30.37422 55.769,56.35625 -35.362,30.37422 -55.7688,-56.35625 z m -0.5181,-0.51385 -46.695,-47.19259 35.3621,-30.37422 46.6949,47.1926 -35.362,30.37421 z m -110.2247,-209.14494 -2.8505,27.60106 c 0,0 -40.9203,19.02467 -46.6259,22.83775 -0.6036,0.40374 -1.1622,0.75855 -1.6884,1.09295 l 41.63,-51.31563 c 4.9063,-1.09702 9.5348,-0.21598 9.5348,-0.21598 z m 26.1738,446.29063 c 9.5102,3.3359 18.0743,4.282 18.0743,1.4273 0,-1.1133 1.5947,-12.887 3.6704,-27.2299 l 24.5179,18.0213 -76.7186,65.90726 0,-65.26266 c 0,0 20.9417,3.817 30.456,7.1367 z m 61.454,-111.53393 78.8838,-67.75475 48.5221,49.01963 -78.888,67.75882 -48.5179,-49.0237 z m 79.4102,-68.22374 35.3616,-30.37829 44.6358,45.1209 c -0.3753,2.8547 -0.7667,5.61971 -1.1461,8.22567 l -30.3335,26.06359 -48.5178,-49.03187 z m 88.4637,-38.13907 c -8.5643,1.89636 -8.5643,8.07071 -6.1787,16.63897 1.3703,4.95088 -0.2642,20.96586 -2.1735,35.37404 l -44.2279,-44.69675 59.4925,-51.0995 c -2.2513,14.98729 -4.0577,27.83762 -4.0577,30.93703 0,8.07477 1.9042,7.1368 4.759,1.42735 2.8548,-5.70944 31.8831,-25.69248 42.3438,-31.40193 10.4685,-5.70942 24.2652,-5.70942 24.2652,-5.70942 l 0,24.7341 c 0,0 -65.6586,21.87531 -74.2227,23.79611 z m 7.0797,-44.89657 -60.1737,51.68675 -55.7769,-56.34809 65.8134,-56.53979 53.5057,39.32174 c -1.1257,7.18166 -2.2839,14.74258 -3.3685,21.87939 z m -116.4646,-5.17113 -46.7031,-47.19666 57.6409,-49.50901 54.778,40.23116 -65.7158,56.47451 z m 10.326,-97.15428 -57.551,49.43153 -46.3363,-46.79702 c -5.8442,-22.23828 -14.3388,-54.50884 -14.963,-56.68658 -0.95,-3.33188 4.2822,-10.46868 4.2822,-12.84625 0,-2.37349 -35.6879,9.99152 -35.6879,9.99152 0,0 0.9501,-8.56416 0.4811,-13.79237 -0.4811,-5.24046 0.469,-9.04538 4.751,-9.99152 4.282,-0.95838 11.4188,2.3735 19.5141,6.65557 8.0869,4.28617 4.2821,0.48123 0.9502,-13.79238 -0.3132,-1.3621 -0.5709,-2.765 -0.7587,-4.22498 l 125.3183,92.05248 z m -534.6932,364.65382 c -1.2682,-2.5449 -5.5709,-0.9382 -13.8778,2.4753 l 344.9682,-425.2716 c -0.4688,3.83756 -0.8033,7.09194 -0.893,9.3227 -0.4729,11.41888 0.9502,9.52252 5.2322,1.9045 4.282,-7.61394 20.4604,-25.69248 26.651,-30.92071 1.6269,-1.38247 3.5355,-2.2756 5.4443,-2.82207 l -42.3355,52.1802 c -2.9525,1.75769 -4.0292,2.02686 -4.0292,2.02686 0,0 -0.1368,1.25197 -0.3752,3.41342 l -318.2849,392.3732 c -1.1908,-2.1777 -2.1167,-3.9233 -2.5001,-4.6818 z m 12.8461,20.45196 c -1.6802,-0.669 -6.6637,-9.1434 -9.9627,-15.07696 l 317.7587,-391.72877 c -1.0969,9.90181 -3.6702,33.22894 -5.7868,50.83033 l -220.0867,271.3126 c -34.3094,34.14244 -65.4341,65.05494 -68.1218,67.53454 -6.1908,5.70536 -11.419,18.08666 -13.8007,17.12826 z m 6.1825,0.4771 10.2814,-4.4492 -5.3223,6.5577 c -3.0053,-1.2724 -4.9591,-2.1085 -4.9591,-2.1085 z m 5.6648,2.4225 6.0804,-7.5203 77.2325,-33.44086 c 0,0 -22.3648,27.60116 -30.4557,34.73776 -5.7543,5.0813 -5.0082,9.1842 -4.0904,11.1499 l -5.9459,8.1889 c -6.8882,-1.1624 -11.7859,-2.0146 -13.2747,-2.2105 -4.7878,-0.6931 -20.872,-7.2713 -29.5462,-10.9049 z m 43.6365,13.2457 5.5218,-7.6056 c 0.2089,0.3263 0.3711,0.5015 0.3711,0.5015 l 88.0233,-39.48466 c 0,0 -29.9747,47.10276 -31.8833,49.47616 -1.354,1.6966 -0.5341,4.3596 1.089,5.5668 l -1.1827,1.6272 c -19.7382,-2.8995 -45.8875,-7.3366 -61.9392,-10.0814 z m 200.4911,-115.10209 c -0.9461,8.07071 -3.8052,31.87093 -5.2324,39.96203 -1.4274,8.087 0,35.688 0,35.688 l -8.0869,0.9463 c 0,0 -0.9544,36.63396 -0.9544,44.72906 0,8.0871 2.8548,12.3692 -5.2325,11.4189 -8.0866,-0.9582 -78.5048,-3.817 -96.1099,-4.7632 -4.429,-0.2323 -12.4591,-1.2601 -22.1162,-2.6631 l 0.9911,-1.3824 c 0.5057,0.2447 1.0522,0.3343 1.619,0.2447 2.8546,-0.4814 30.4477,-12.8462 45.1943,-19.983 14.7548,-7.1369 40.4472,-10.9541 40.4472,-16.6634 0,-5.70536 16.1783,-58.04056 19.033,-71.83294 2.8549,-13.80868 39.0119,-120.86068 41.8666,-125.14685 1.1702,-1.73321 1.2924,-3.64179 1.0478,-5.28122 l 13.9392,-19.24897 c -0.1176,1.40697 -0.1989,2.46321 -0.2316,3.11979 -0.4811,8.56826 1.9004,6.67191 6.6556,1.43144 4.7633,-5.23228 14.7548,-13.3193 30.4557,-21.87938 15.701,-8.56415 41.8666,-6.20291 41.8666,-6.20291 l -2.3777,23.79614 c 0,0 -69.4634,15.70504 -76.6002,17.60139 -7.1369,1.92083 -9.0454,3.34409 -9.0454,3.34409 0,0 -9.0372,78.01544 -7.6098,85.15223 1.4272,7.1368 12.8461,-9.03314 26.1656,-18.0663 13.3273,-9.05761 53.2934,-13.8046 61.3802,-13.8046 8.0873,0 4.2783,3.3237 4.2783,8.56415 0,5.24045 -5.2282,3.81717 -7.6099,4.75106 -2.3778,0.95838 -0.4732,6.20291 2.3817,8.56417 2.8546,2.38573 5.2282,15.70096 5.2282,15.70096 0,0 -91.8241,10.48498 -96.5793,10.48498 -4.7634,0 -3.8089,3.31963 -4.7634,11.41888 z m 207.4484,145.59059 -21.8878,28.0659 -80.4134,-3.8007 0,-31.8017 77.3348,-66.41686 73.3987,53.90506 -45.5737,0.5302 -2.8586,19.5181 z m 228.3815,-28.0782 -23.796,3.344 -0.4692,2.8548 -59.1455,0.6892 -106.3179,-107.41072 78.8839,-67.77513 21.696,21.92423 c -4.9468,1.38251 -3.6541,3.0097 -4.1109,10.77046 -0.4771,8.09517 -16.647,55.2021 -18.0745,62.3389 -1.4273,7.1368 -5.7094,34.7216 -3.8172,41.8585 1.9087,7.13656 4.2863,-9.0292 8.5684,-19.4896 4.2822,-10.4851 24.7422,-12.8463 29.9747,-12.8463 5.2402,0 26.6506,7.6017 44.248,12.3528 17.6096,4.7632 32.3602,8.0993 32.3602,8.0993 l 0,43.28956 z m -88.374,-146.57752 -21.9486,-22.16487 29.6525,-25.47225 c -0.9096,6.24368 -1.721,11.35363 -2.1167,13.89433 -1.4274,9.03315 -2.3857,14.27359 0.4691,19.02468 2.8546,4.77144 19.983,-22.34838 32.3601,-30.91256 12.365,-8.56416 51.8542,-5.70943 51.8542,-5.70943 l 1.4273,33.30235 c 0,0 -85.0505,16.43503 -91.6979,18.03775 z m 48.4081,-223.58575 c -5.2405,2.85472 -14.7551,8.09925 -15.232,12.84624 -0.1989,2.01054 -2.5204,16.56146 -5.1303,33.31866 l -53.0939,-38.98324 70.524,-60.5853 c -0.771,8.4418 -5.587,43.07772 -4.2047,46.73583 1.4272,3.81308 6.6555,-6.17434 8.0829,-12.84625 1.4273,-6.64741 15.701,-22.3443 22.8376,-28.05782 7.1369,-5.70535 21.4105,-8.09517 21.4105,-8.09517 l 0.4813,29.50558 c 0,0 -40.4433,23.30674 -45.6754,26.16147 z m 88.4922,370.16327 c 0,0 180.1124,-61.89016 216.1308,-71.66156 l -48.3304,66.71076 c -77.8439,4.4369 -162.3969,9.2288 -164.9456,9.2288 -4.7551,0 -2.8548,-4.278 -2.8548,-4.278 z m 168.7506,-4.9957 48.5181,-66.97986 c 1.4721,-0.3792 2.6547,-0.6566 3.503,-0.8238 19.983,-3.8008 18.0745,-8.5641 18.0745,-20.921 0,-12.37722 29.0284,-124.66968 29.0284,-128.95176 0,-3.03415 2.8546,-15.59084 3.858,-21.65509 l 16.5166,-22.81737 13.2255,11.75327 -4.1025,243.03051 c 0,0 -61.6907,3.5397 -128.6216,7.3651 z m 139.5631,-459.4182 47.4944,36.79736 53.828,69.47572 -101.3224,142.60549 0,-248.87857 z m 4.2782,426.36474 c 0,0 197.5302,-29.4159 232.1378,-33.3677 l -27.5728,38.0739 -205.9967,19.55886 1.4317,-24.26506" />
      <text
         xml:space="preserve"
         style="font-size:623.19439697px;font-style:normal;font-variant:normal;font-weight:bold;font-stretch:normal;text-align:start;line-height:125%;letter-spacing:0px;word-spacing:0px;writing-mode:lr-tb;text-anchor:start;fill:#000000;fill-opacity:1;stroke:none;font-family:Impact;-inkscape-font-specification:Impact Bold"
         x="1180.205"
         y="1702.3896"
         id="text3293"
         sodipodi:linespacing="125%"><tspan
           sodipodi:role="line"
           id="tspan3295"
           x="1180.205"
           y="1702.3896"><tspan
             style="fill:#eb0769"
             id="tspan3297">Круг</tspan><tspan
             style="fill:#16b0ca"
             id="tspan3299"> Услуг</tspan></tspan></text>
      <text
         xml:space="preserve"
         style="font-size:334.3270874px;font-style:normal;font-variant:normal;font-weight:normal;font-stretch:normal;text-align:start;line-height:125%;letter-spacing:0px;word-spacing:0px;writing-mode:lr-tb;text-anchor:start;fill:#5c5d5e;fill-opacity:1;stroke:none;font-family:SmartyCond;-inkscape-font-specification:SmartyCond"
         x="1625.835"
         y="2057.3237"
         id="text3301"
         sodipodi:linespacing="125%"><tspan
           sodipodi:role="line"
           id="tspan3303"
           x="1625.835"
           y="2057.3237">www.krug.in.ua</tspan></text>
    </g>
    <text
       transform="matrix(1,0,0,1.04086,-0.50505872,-14.321038)"
       sodipodi:linespacing="125%"
       id="text4264"
       y="336.07401"
       x="62.197464"
       style="font-size:16.81012726px;font-style:oblique;font-variant:normal;font-weight:normal;font-stretch:normal;text-align:start;line-height:125%;letter-spacing:0px;word-spacing:0px;writing-mode:lr-tb;text-anchor:start;fill:#ff0000;fill-opacity:1;stroke:none;filter:url(#filter4292);font-family:Monotype Corsiva;-inkscape-font-specification:Monotype Corsiva Oblique"
       xml:space="preserve"><tspan
         y="336.07401"
         x="62.197464"
         id="tspan4266"
         sodipodi:role="line">РА &quot;Круг услуг&quot;</tspan></text>
    <path
       sodipodi:type="inkscape:offset"
       inkscape:radius="1"
       inkscape:original="M 203.5 328.0625 L 203.5 338.96875 L 211.84375 338.96875 C 212.88831 338.96875 213.65709 338.78845 214.15625 338.4375 C 214.67191 338.06935 214.90624 337.51784 214.90625 336.8125 L 214.90625 335.4375 C 214.90624 334.84915 214.76474 334.35439 214.4375 334 C 214.11023 333.63185 213.63616 333.42977 213.03125 333.34375 C 213.60311 333.28526 214.05435 333.08375 214.375 332.75 C 214.68571 332.42658 214.84374 332.00923 214.84375 331.5 L 214.84375 330.15625 C 214.84374 329.4234 214.64485 328.8997 214.28125 328.5625 C 213.89448 328.22188 213.28853 328.06251 212.46875 328.0625 L 203.5 328.0625 z M 220.46875 328.0625 C 219.46054 328.06251 218.77978 328.22561 218.40625 328.59375 C 218.05255 328.96191 217.875 329.64098 217.875 330.625 L 217.875 336.375 C 217.875 337.36247 218.05255 338.0381 218.40625 338.40625 C 218.78309 338.77096 219.46385 338.96875 220.46875 338.96875 L 226.71875 338.96875 C 227.72364 338.96875 228.43565 338.77096 228.8125 338.40625 C 229.16619 338.0381 229.34374 337.36247 229.34375 336.375 L 229.34375 335.09375 L 226.90625 334.5625 L 226.90625 336.90625 L 220.3125 336.90625 L 220.3125 330 L 226.90625 330 L 226.90625 332.0625 L 229.34375 331.65625 L 229.34375 330.625 C 229.34374 329.64098 229.16619 328.96191 228.8125 328.59375 C 228.43896 328.22561 227.72695 328.06251 226.71875 328.0625 L 220.46875 328.0625 z M 231.6875 328.0625 L 231.6875 338.96875 L 242.53125 338.96875 L 242.53125 336.90625 L 234.125 336.90625 L 234.125 334.1875 L 238.96875 334.1875 L 238.96875 332.34375 L 234.125 332.34375 L 234.125 329.90625 L 242.40625 329.90625 L 242.40625 328.0625 L 231.6875 328.0625 z M 268.9375 328.0625 C 267.01364 328.06251 265.51001 328.50509 264.46875 329.4375 C 263.45393 330.36649 262.96875 331.70341 262.96875 333.4375 L 262.96875 336.90625 L 261.59375 336.90625 L 261.59375 338.96875 L 277 338.96875 L 277 336.90625 L 275.6875 336.90625 L 275.6875 328.0625 L 268.9375 328.0625 z M 283.9375 328.0625 L 278.1875 338.96875 L 280.625 338.96875 L 284.65625 331.0625 L 288.90625 338.96875 L 291.6875 338.96875 L 285.625 328.0625 L 283.9375 328.0625 z M 297.03125 328.0625 C 296.20485 328.06251 295.60881 328.2044 295.21875 328.53125 C 294.85183 328.865 294.65625 329.40619 294.65625 330.15625 L 294.65625 332.71875 C 294.65625 333.44818 294.85183 334.00313 295.21875 334.34375 C 295.59558 334.68094 296.19162 334.84375 297.03125 334.84375 L 298.40625 334.84375 L 293.5625 338.96875 L 297.0625 338.96875 L 301.28125 334.84375 L 303.59375 334.84375 L 303.59375 338.96875 L 306 338.96875 L 306 328.0625 L 297.03125 328.0625 z M 329.125 328.0625 C 328.11679 328.06251 327.43603 328.22561 327.0625 328.59375 C 326.7088 328.96191 326.53125 329.64098 326.53125 330.625 L 326.53125 336.375 C 326.53125 337.36247 326.7088 338.0381 327.0625 338.40625 C 327.43934 338.77096 328.1201 338.96875 329.125 338.96875 L 335.375 338.96875 C 336.37989 338.96875 337.06065 338.77096 337.4375 338.40625 C 337.79119 338.0381 337.96874 337.36247 337.96875 336.375 L 337.96875 335.09375 L 335.53125 334.5625 L 335.53125 336.90625 L 328.96875 336.90625 L 328.96875 330 L 335.53125 330 L 335.53125 332.0625 L 337.96875 331.65625 L 337.96875 330.625 C 337.96874 329.64098 337.79119 328.96191 337.4375 328.59375 C 337.06396 328.22561 336.3832 328.06251 335.375 328.0625 L 329.125 328.0625 z M 339.6875 328.0625 L 339.6875 330 L 344.5 330 L 344.5 338.96875 L 346.9375 338.96875 L 346.9375 330 L 351.78125 330 L 351.78125 328.0625 L 339.6875 328.0625 z M 353.1875 328.0625 L 353.1875 338.96875 L 355.5625 338.96875 L 355.5625 334.71875 L 362.125 334.71875 C 362.958 334.71875 363.58198 334.52813 363.96875 334.1875 C 364.33566 333.85032 364.49999 333.32662 364.5 332.59375 L 364.5 330.15625 C 364.49999 329.40619 364.33566 328.865 363.96875 328.53125 C 363.57207 328.2044 362.94808 328.06251 362.125 328.0625 L 353.1875 328.0625 z M 370.96875 328.0625 C 369.96054 328.06251 369.27978 328.22561 368.90625 328.59375 C 368.55586 328.95847 368.375 329.63754 368.375 330.625 L 368.375 336.375 C 368.375 337.36591 368.55586 338.04154 368.90625 338.40625 C 369.28309 338.77096 369.96385 338.96875 370.96875 338.96875 L 378.6875 338.96875 C 379.699 338.96875 380.39298 338.77096 380.75 338.40625 C 381.11691 338.04498 381.28124 337.36935 381.28125 336.375 L 381.28125 330.625 C 381.28124 329.6341 381.11691 328.95503 380.75 328.59375 C 380.39629 328.22561 379.70231 328.06251 378.6875 328.0625 L 370.96875 328.0625 z M 384.125 328.0625 L 384.125 338.96875 L 385.8125 338.96875 L 393.5 332.21875 C 393.72146 332.0192 393.86627 331.86011 393.96875 331.75 C 394.13402 331.58141 394.28243 331.42605 394.375 331.3125 C 394.36838 331.43637 394.36357 331.60607 394.34375 331.8125 C 394.32391 332.01895 394.28785 332.18148 394.28125 332.28125 C 394.26802 332.49114 394.28124 332.75285 394.28125 333.0625 L 394.28125 338.96875 L 396.46875 338.96875 L 396.46875 328.0625 L 394.78125 328.0625 L 387.4375 334.46875 C 387.13008 334.71648 386.88883 334.918 386.75 335.0625 C 386.59133 335.22766 386.41047 335.42573 386.21875 335.65625 C 386.23197 335.43605 386.26637 335.19555 386.28125 334.9375 C 386.29612 334.67945 386.30258 334.49887 386.3125 334.375 C 386.32572 334.20641 386.3125 334.00834 386.3125 333.78125 L 386.3125 328.0625 L 384.125 328.0625 z M 398.59375 328.0625 L 398.59375 330 L 403.40625 330 L 403.40625 338.96875 L 405.84375 338.96875 L 405.84375 330 L 410.6875 330 L 410.6875 328.0625 L 398.59375 328.0625 z M 411.9375 328.0625 L 411.9375 338.96875 L 422.78125 338.96875 L 422.78125 336.90625 L 414.375 336.90625 L 414.375 334.1875 L 419.21875 334.1875 L 419.21875 332.34375 L 414.375 332.34375 L 414.375 329.90625 L 422.65625 329.90625 L 422.65625 328.0625 L 411.9375 328.0625 z M 430.03125 328.0625 L 424.28125 338.96875 L 426.71875 338.96875 L 430.75 331.0625 L 435 338.96875 L 437.78125 338.96875 L 431.71875 328.0625 L 430.03125 328.0625 z M 439.84375 328.0625 L 439.84375 338.96875 L 448.78125 338.96875 C 449.60433 338.96875 450.20037 338.79217 450.59375 338.46875 C 450.96066 338.12812 451.15624 337.59038 451.15625 336.84375 L 451.15625 334.40625 C 451.15624 333.67683 450.96066 333.15313 450.59375 332.8125 C 450.21029 332.47532 449.61425 332.31251 448.78125 332.3125 L 442.21875 332.3125 L 442.21875 328.0625 L 439.84375 328.0625 z M 457.0625 328.0625 C 456.05429 328.06251 455.34228 328.22561 454.96875 328.59375 C 454.61505 328.96191 454.4375 329.64098 454.4375 330.625 L 454.4375 336.375 C 454.4375 337.36247 454.61505 338.0381 454.96875 338.40625 C 455.34559 338.77096 456.0576 338.96875 457.0625 338.96875 L 463.3125 338.96875 C 464.31739 338.96875 464.99815 338.77096 465.375 338.40625 C 465.72869 338.0381 465.90624 337.36247 465.90625 336.375 L 465.90625 335.09375 L 463.46875 334.5625 L 463.46875 336.90625 L 456.875 336.90625 L 456.875 330 L 463.46875 330 L 463.46875 332.0625 L 465.90625 331.65625 L 465.90625 330.625 C 465.90624 329.64098 465.72869 328.96191 465.375 328.59375 C 465.00146 328.22561 464.3207 328.06251 463.3125 328.0625 L 457.0625 328.0625 z M 467.625 328.0625 L 467.625 330 L 472.4375 330 L 472.4375 338.96875 L 474.875 338.96875 L 474.875 330 L 479.6875 330 L 479.6875 328.0625 L 467.625 328.0625 z M 481.25 328.0625 L 481.25 338.96875 L 489.5625 338.96875 C 490.60706 338.96875 491.37584 338.78845 491.875 338.4375 C 492.39066 338.06935 492.65624 337.51784 492.65625 336.8125 L 492.65625 335.4375 C 492.65624 334.84915 492.48349 334.35439 492.15625 334 C 491.82898 333.63185 491.38616 333.42977 490.78125 333.34375 C 491.35311 333.28526 491.80435 333.08375 492.125 332.75 C 492.43571 332.42658 492.56249 332.00923 492.5625 331.5 L 492.5625 330.15625 C 492.56249 329.4234 492.39485 328.8997 492.03125 328.5625 C 491.64448 328.22188 491.03853 328.06251 490.21875 328.0625 L 481.25 328.0625 z M 500.46875 328.0625 L 494.5625 338.96875 L 497 338.96875 L 498.21875 336.5625 L 504.84375 336.5625 L 506.09375 338.96875 L 508.84375 338.96875 L 502.84375 328.0625 L 500.46875 328.0625 z M 205.90625 329.84375 L 211.46875 329.84375 C 211.88194 329.84376 212.17515 329.88991 212.34375 330 C 212.50902 330.13075 212.59374 330.31506 212.59375 330.59375 L 212.59375 331.65625 C 212.59374 331.93495 212.50902 332.11926 212.34375 332.25 C 212.17515 332.36011 211.88194 332.43751 211.46875 332.4375 L 205.90625 332.4375 L 205.90625 329.84375 z M 483.65625 329.84375 L 489.21875 329.84375 C 489.63194 329.84376 489.8939 329.88991 490.0625 330 C 490.22777 330.13075 490.31249 330.31506 490.3125 330.59375 L 490.3125 331.65625 C 490.31249 331.93495 490.22777 332.11926 490.0625 332.25 C 489.8939 332.36011 489.63194 332.43751 489.21875 332.4375 L 483.65625 332.4375 L 483.65625 329.84375 z M 298.125 329.9375 L 303.59375 329.9375 L 303.59375 332.96875 L 298.125 332.96875 C 297.70518 332.96876 297.41197 332.90856 297.25 332.78125 C 297.10124 332.64707 297.03124 332.44155 297.03125 332.125 L 297.03125 330.8125 C 297.03124 330.48909 297.10124 330.25231 297.25 330.125 C 297.41197 329.9977 297.70518 329.93751 298.125 329.9375 z M 355.5625 329.9375 L 361.0625 329.9375 C 361.48891 329.93751 361.78213 329.9977 361.9375 330.125 C 362.08624 330.25231 362.15624 330.48909 362.15625 330.8125 L 362.15625 331.96875 C 362.15624 332.29218 362.08624 332.4977 361.9375 332.625 C 361.78213 332.75231 361.48891 332.81251 361.0625 332.8125 L 355.5625 332.8125 L 355.5625 329.9375 z M 268.90625 330 L 273.21875 330 L 273.21875 336.90625 L 265.40625 336.90625 L 265.40625 333.40625 C 265.40625 332.31901 265.71899 331.48056 266.34375 330.875 C 266.94536 330.29698 267.78895 330.00001 268.90625 330 z M 370.8125 330 L 378.84375 330 L 378.84375 336.90625 L 370.8125 336.90625 L 370.8125 330 z M 501.59375 330.15625 L 503.84375 334.59375 L 499.25 334.59375 L 501.59375 330.15625 z M 442.21875 334.1875 L 447.71875 334.1875 C 448.13194 334.1875 448.42515 334.2477 448.59375 334.375 C 448.74249 334.50919 448.81249 334.71471 448.8125 335.03125 L 448.8125 336.21875 C 448.81249 336.53529 448.74249 336.74082 448.59375 336.875 C 448.43177 336.99887 448.13855 337.0625 447.71875 337.0625 L 442.21875 337.0625 L 442.21875 334.1875 z M 205.90625 334.21875 L 211.46875 334.21875 C 211.93483 334.21875 212.24757 334.29644 212.40625 334.4375 C 212.56821 334.58545 212.65624 334.82623 212.65625 335.1875 L 212.65625 336.03125 C 212.65624 336.38908 212.56821 336.6333 212.40625 336.78125 C 212.25088 336.92232 211.93814 337 211.46875 337 L 205.90625 337 L 205.90625 334.21875 z M 483.65625 334.21875 L 489.21875 334.21875 C 489.68483 334.21875 489.99757 334.29644 490.15625 334.4375 C 490.31821 334.58545 490.37499 334.82623 490.375 335.1875 L 490.375 336.03125 C 490.37499 336.38908 490.31821 336.6333 490.15625 336.78125 C 490.00088 336.92232 489.68814 337 489.21875 337 L 483.65625 337 L 483.65625 334.21875 z "
       xlink:href="#text4304"
       style="font-size:20.72036552px;font-style:normal;font-variant:normal;font-weight:normal;font-stretch:normal;text-align:start;line-height:125%;letter-spacing:0px;word-spacing:0px;writing-mode:lr-tb;text-anchor:start;fill:#ffffff;fill-opacity:1;stroke:none;font-family:BankGothic RUSS;-inkscape-font-specification:BankGothic RUSS"
       id="path3037"
       inkscape:href="#text4304"
       d="m 203.5,325.90625 a 2.1430714,2.1430714 0 0 0 -2.15625,2.15625 l 0,10.90625 A 2.1430714,2.1430714 0 0 0 203.5,341.125 l 8.34375,0 c 1.29114,0 2.46773,-0.18976 3.53125,-0.9375 a 2.1430714,2.1430714 0 0 0 0.0312,0 c 0.42112,-0.30066 0.67668,-0.74751 0.9375,-1.1875 0.15807,0.30565 0.25783,0.62166 0.53125,0.90625 a 2.1430714,2.1430714 0 0 0 0.0312,0.0312 c 1.02536,0.99235 2.27642,1.1875 3.5625,1.1875 l 6.25,0 c 1.13072,0 2.21553,-0.21046 3.1875,-0.9375 a 2.1430714,2.1430714 0 0 0 1.78125,0.9375 l 10.84375,0 a 2.1430714,2.1430714 0 0 0 2.15625,-2.15625 l 0,-2.0625 A 2.1430714,2.1430714 0 0 0 242.53125,334.75 l -1.5,0 a 2.1430714,2.1430714 0 0 0 0.0937,-0.5625 l 0,-1.84375 a 2.1430714,2.1430714 0 0 0 -0.0312,-0.28125 l 1.3125,0 a 2.1430714,2.1430714 0 0 0 2.15625,-2.15625 l 0,-1.84375 a 2.1430714,2.1430714 0 0 0 -2.15625,-2.15625 l -10.71875,0 a 2.1430714,2.1430714 0 0 0 -1.78125,0.9375 c -1.01251,-0.7711 -2.09113,-0.93749 -3.1875,-0.9375 l -6.25,0 c -1.2393,10e-6 -2.48726,0.0965 -3.5625,1.15625 a 2.1430714,2.1430714 0 0 0 -0.0312,0.0312 c -0.25987,0.27049 -0.34511,0.58633 -0.5,0.875 -0.18431,-0.34138 -0.3309,-0.696 -0.625,-0.96875 a 2.1430714,2.1430714 0 0 0 -0.0625,-0.0312 c -0.97106,-0.85519 -2.12126,-1.06249 -3.21875,-1.0625 l -8.96875,0 z m 65.4375,0 c -2.25249,10e-6 -4.35229,0.54598 -5.90625,1.9375 -1.51918,1.39069 -2.21875,3.45996 -2.21875,5.59375 l 0,1.46875 a 2.1430714,2.1430714 0 0 0 -1.375,2 l 0,2.0625 a 2.1430714,2.1430714 0 0 0 2.15625,2.15625 l 15.40625,0 a 2.1430714,2.1430714 0 0 0 0.625,-0.0937 2.1430714,2.1430714 0 0 0 0.0312,0 2.1430714,2.1430714 0 0 0 0.53125,0.0937 l 2.4375,0 a 2.1430714,2.1430714 0 0 0 1.90625,-1.1875 l 2.1875,-4.28125 2.3125,4.3125 a 2.1430714,2.1430714 0 0 0 1.875,1.15625 l 2.78125,0 a 2.1430714,2.1430714 0 0 0 0.9375,-0.25 2.1430714,2.1430714 0 0 0 0.9375,0.25 l 3.5,0 a 2.1430714,2.1430714 0 0 0 1.5,-0.625 l 2.875,-2.8125 0,1.28125 a 2.1430714,2.1430714 0 0 0 2.15625,2.15625 l 2.40625,0 a 2.1430714,2.1430714 0 0 0 2.15625,-2.15625 l 0,-10.90625 A 2.1430714,2.1430714 0 0 0 306,325.90625 l -8.96875,0 c -1.07167,10e-6 -2.20775,0.14777 -3.1875,0.96875 a 2.1430714,2.1430714 0 0 0 -0.0625,0.0625 c -0.93951,0.85458 -1.28125,2.09619 -1.28125,3.21875 l 0,2.5625 c 0,1.11247 0.31081,2.31563 1.25,3.1875 a 2.1430714,2.1430714 0 0 0 0.0312,0.0312 c 0.0114,0.0102 0.0198,0.0212 0.0312,0.0312 L 292.90625,336.75 287.5,327.03125 a 2.1430714,2.1430714 0 0 0 -1.875,-1.125 l -1.6875,0 a 2.1430714,2.1430714 0 0 0 -1.90625,1.15625 l -4.15625,7.875 a 2.1430714,2.1430714 0 0 0 -0.0312,0 l 0,-6.875 a 2.1430714,2.1430714 0 0 0 -2.15625,-2.15625 l -6.75,0 z m 60.1875,0 c -1.2393,10e-6 -2.48726,0.0965 -3.5625,1.15625 a 2.1430714,2.1430714 0 0 0 -0.0312,0.0312 c -1.01752,1.05912 -1.15625,2.28947 -1.15625,3.53125 l 0,5.75 c 0,1.24433 0.14331,2.47693 1.15625,3.53125 a 2.1430714,2.1430714 0 0 0 0.0312,0.0312 c 1.02536,0.99235 2.27642,1.1875 3.5625,1.1875 l 6.25,0 c 1.28607,0 2.53715,-0.19518 3.5625,-1.1875 a 2.1430714,2.1430714 0 0 0 0.0312,-0.0312 c 1.01291,-1.05432 1.15624,-2.28693 1.15625,-3.53125 l 0,-1.28125 a 2.1430714,2.1430714 0 0 0 -0.875,-1.71875 2.1430714,2.1430714 0 0 0 0.78125,-1.21875 l 2.3125,0 0,6.8125 A 2.1430714,2.1430714 0 0 0 344.5,341.125 l 2.4375,0 a 2.1430714,2.1430714 0 0 0 2.15625,-2.15625 l 0,-6.8125 1.9375,0 0,6.8125 a 2.1430714,2.1430714 0 0 0 2.15625,2.15625 l 2.375,0 a 2.1430714,2.1430714 0 0 0 2.15625,-2.15625 l 0,-2.09375 4.40625,0 c 1.15991,0 2.30294,-0.25967 3.25,-1.09375 a 2.1430714,2.1430714 0 0 0 0.0312,-0.0312 c 0.39498,-0.36298 0.62202,-0.79664 0.8125,-1.25 l 0,1.875 c 0,1.25165 0.14508,2.47876 1.15625,3.53125 a 2.1430714,2.1430714 0 0 0 0.0312,0.0312 c 1.02536,0.99235 2.27642,1.1875 3.5625,1.1875 l 7.71875,0 c 1.26821,0 2.48619,-0.15913 3.53125,-1.1875 a 2.1430714,2.1430714 0 0 0 1.90625,1.1875 l 1.6875,0 a 2.1430714,2.1430714 0 0 0 1.40625,-0.53125 l 4.90625,-4.3125 0,2.6875 a 2.1430714,2.1430714 0 0 0 2.15625,2.15625 l 2.1875,0 a 2.1430714,2.1430714 0 0 0 2.15625,-2.15625 l 0,-6.8125 2.625,0 0,6.8125 a 2.1430714,2.1430714 0 0 0 2.15625,2.15625 l 2.4375,0 A 2.1430714,2.1430714 0 0 0 408,338.96875 l 0,-6.8125 1.78125,0 0,6.8125 a 2.1430714,2.1430714 0 0 0 2.15625,2.15625 l 10.84375,0 a 2.1430714,2.1430714 0 0 0 0.75,-0.15625 2.1430714,2.1430714 0 0 0 0.75,0.15625 l 2.4375,0 a 2.1430714,2.1430714 0 0 0 1.90625,-1.1875 l 2.1875,-4.28125 2.3125,4.3125 A 2.1430714,2.1430714 0 0 0 435,341.125 l 2.78125,0 a 2.1430714,2.1430714 0 0 0 1.03125,-0.28125 2.1430714,2.1430714 0 0 0 1.03125,0.28125 l 8.9375,0 c 1.12956,0 2.26946,-0.24522 3.1875,-1 a 2.1430714,2.1430714 0 0 0 0.0937,-0.0937 c 0.36329,-0.33727 0.58577,-0.76056 0.78125,-1.1875 0.16521,0.35744 0.27696,0.73277 0.59375,1.0625 a 2.1430714,2.1430714 0 0 0 0.0312,0.0312 c 1.0679,1.03352 2.30767,1.1875 3.59375,1.1875 l 6.25,0 c 1.28607,0 2.53715,-0.19518 3.5625,-1.1875 a 2.1430714,2.1430714 0 0 0 0.0312,-0.0312 c 1.01291,-1.05432 1.15624,-2.28693 1.15625,-3.53125 l 0,-1.28125 a 2.1430714,2.1430714 0 0 0 -0.875,-1.71875 2.1430714,2.1430714 0 0 0 0.78125,-1.21875 l 2.3125,0 0,6.8125 a 2.1430714,2.1430714 0 0 0 2.15625,2.15625 l 2.4375,0 a 2.1430714,2.1430714 0 0 0 2.15625,-2.15625 l 0,-6.8125 2.0625,0 0,6.8125 A 2.1430714,2.1430714 0 0 0 481.25,341.125 l 8.3125,0 c 1.20795,0 2.30232,-0.21187 3.3125,-0.84375 a 2.1430714,2.1430714 0 0 0 1.6875,0.84375 l 2.4375,0 a 2.1430714,2.1430714 0 0 0 1.90625,-1.1875 l 0.625,-1.21875 4,0 0.65625,1.25 a 2.1430714,2.1430714 0 0 0 1.90625,1.15625 l 2.75,0 a 2.1430714,2.1430714 0 0 0 1.875,-3.1875 l -6,-10.90625 a 2.1430714,2.1430714 0 0 0 -1.875,-1.125 l -2.375,0 a 2.1430714,2.1430714 0 0 0 -1.875,1.125 L 494.625,334.375 c -0.0847,-0.36498 -0.25539,-0.69435 -0.4375,-1.03125 0.30557,-0.61719 0.53124,-1.26814 0.53125,-1.84375 l 0,-1.34375 C 494.71874,329.09663 494.43391,327.8661 493.5,327 a 2.1430714,2.1430714 0 0 0 -0.0625,-0.0312 c -0.97106,-0.85519 -2.12126,-1.06249 -3.21875,-1.0625 l -8.96875,0 a 2.1430714,2.1430714 0 0 0 -0.78125,0.15625 2.1430714,2.1430714 0 0 0 -0.78125,-0.15625 l -12.0625,0 a 2.1430714,2.1430714 0 0 0 -1.5625,0.6875 c -0.87557,-0.49376 -1.80529,-0.68749 -2.75,-0.6875 l -6.25,0 c -1.2393,10e-6 -2.47596,0.0546 -3.59375,1.15625 a 2.1430714,2.1430714 0 0 0 -0.0312,0.0312 c -1.01752,1.05912 -1.15625,2.28947 -1.15625,3.53125 l 0,0.96875 c -0.0899,-0.10678 -0.11455,-0.24701 -0.21875,-0.34375 A 2.1430714,2.1430714 0 0 0 452,331.21875 c -0.95351,-0.83843 -2.10655,-1.06249 -3.21875,-1.0625 l -4.40625,0 0,-2.09375 a 2.1430714,2.1430714 0 0 0 -2.15625,-2.15625 l -2.375,0 a 2.1430714,2.1430714 0 0 0 -2.15625,2.15625 l 0,6.34375 -4.09375,-7.375 a 2.1430714,2.1430714 0 0 0 -1.875,-1.125 l -1.6875,0 a 2.1430714,2.1430714 0 0 0 -1.90625,1.15625 l -4.21875,8 a 2.1430714,2.1430714 0 0 0 -1.125,-0.3125 l -1.5,0 a 2.1430714,2.1430714 0 0 0 0.0937,-0.5625 l 0,-1.84375 a 2.1430714,2.1430714 0 0 0 -0.0312,-0.28125 l 1.3125,0 a 2.1430714,2.1430714 0 0 0 2.15625,-2.15625 l 0,-1.84375 a 2.1430714,2.1430714 0 0 0 -2.15625,-2.15625 l -10.71875,0 a 2.1430714,2.1430714 0 0 0 -0.625,0.0937 2.1430714,2.1430714 0 0 0 -0.0312,0 2.1430714,2.1430714 0 0 0 -0.59375,-0.0937 l -12.09375,0 a 2.1430714,2.1430714 0 0 0 -1.0625,0.28125 2.1430714,2.1430714 0 0 0 -1.0625,-0.28125 l -1.6875,0 a 2.1430714,2.1430714 0 0 0 -1.40625,0.53125 l -4.90625,4.28125 0,-2.65625 a 2.1430714,2.1430714 0 0 0 -2.15625,-2.15625 l -2.1875,0 a 2.1430714,2.1430714 0 0 0 -1.875,1.15625 c -0.007,-0.008 -0.0238,0.007 -0.0312,0 -1.09087,-1.09253 -2.30839,-1.15624 -3.53125,-1.15625 l -7.71875,0 c -1.2393,10e-6 -2.48726,0.0965 -3.5625,1.15625 a 2.1430714,2.1430714 0 0 0 -0.0312,0.0312 c -0.48969,0.50972 -0.77893,1.0572 -0.9375,1.625 -0.17388,-0.63623 -0.47418,-1.27453 -1.03125,-1.78125 a 2.1430714,2.1430714 0 0 0 -0.0625,-0.0625 c -1.01293,-0.83462 -2.14941,-0.96874 -3.21875,-0.96875 l -8.9375,0 a 2.1430714,2.1430714 0 0 0 -0.71875,0.125 2.1430714,2.1430714 0 0 0 -0.6875,-0.125 l -12.09375,0 a 2.1430714,2.1430714 0 0 0 -1.5625,0.6875 c -0.87557,-0.49376 -1.80529,-0.68749 -2.75,-0.6875 l -6.25,0 z m -106.65625,6.25 2.28125,0 a 2.1430714,2.1430714 0 0 0 0.40625,1.15625 2.1430714,2.1430714 0 0 0 -0.40625,1.25 l 0,0.1875 -2.28125,0 0,-2.59375 z m 46.4375,0 2.15625,0 0,2.59375 -3.5,0 0,-1.34375 c 0,-0.67632 0.10967,-0.8337 0.28125,-1 0.14436,-0.1387 0.32489,-0.24999 1.0625,-0.25 z m 62.21875,0 2.25,0 a 2.1430714,2.1430714 0 0 0 0.40625,1.15625 2.1430714,2.1430714 0 0 0 -0.40625,1.25 l 0,0.1875 -2.25,0 0,-2.59375 z m 41.84375,0 3.71875,0 0,2.59375 -3.71875,0 0,-2.59375 z m 86.0625,0 2.28125,0 a 2.1430714,2.1430714 0 0 0 0.40625,1.15625 2.1430714,2.1430714 0 0 0 -0.40625,1.25 l 0,0.1875 -2.28125,0 0,-2.59375 z" />
    <text
       sodipodi:linespacing="125%"
       id="text4304"
       y="332.23871"
       x="206.60539"
       style="font-size:20.72036552px;font-style:normal;font-variant:normal;font-weight:normal;font-stretch:normal;text-align:start;line-height:125%;letter-spacing:0px;word-spacing:0px;writing-mode:lr-tb;text-anchor:start;fill:#ff0000;fill-opacity:1;stroke:none;font-family:BankGothic RUSS;-inkscape-font-specification:BankGothic RUSS"
       xml:space="preserve"
       transform="scale(0.98017547,1.0202255)"><tspan
         y="332.23871"
         x="206.60539"
         id="tspan4306"
         sodipodi:role="line">Все для строительства</tspan></text>
    <rect
       y="830.2757"
       x="388.03967"
       height="44.29134"
       width="136.1586"
       id="rect4239"
       style="fill:#aa0000;fill-opacity:1;stroke:none" />
  </g>
</svg>
